<svg xmlns="http://www.w3.org/2000/svg" width="76.752" height="76.751" viewBox="0 0 76.752 76.751">
  <g id="Grupo_953484" data-name="Grupo 953484" transform="translate(-289.6 -4563.271)">
    <g id="Grupo_953089" data-name="Grupo 953089" transform="translate(289.6 4563.271)">
      <circle id="Elipse_4725" data-name="Elipse 4725" cx="38.376" cy="38.376" r="38.376" transform="translate(0)" fill="#f5e8df"/>
    </g>
    <g id="_x31_1" transform="translate(297.268 4571.351)">
      <g id="Grupo_953256" data-name="Grupo 953256" transform="translate(2.66 2.115)">
        <g id="Grupo_953207" data-name="Grupo 953207" transform="translate(40.269 0.003)">
          <g id="Grupo_953206" data-name="Grupo 953206">
            <path id="Trazado_658394" data-name="Trazado 658394" d="M42.476,4.914l-.094,5.967H36.79l.094-5.967A2.78,2.78,0,0,1,37.7,2.932a2.851,2.851,0,0,1,1.982-.814,2.8,2.8,0,0,1,2.8,2.8Z" transform="translate(-36.79 -2.118)" fill="#636363"/>
          </g>
        </g>
        <g id="Grupo_953223" data-name="Grupo 953223" transform="translate(0 7.641)">
          <g id="Grupo_953222" data-name="Grupo 953222">
            <g id="Grupo_953209" data-name="Grupo 953209" transform="translate(16.946 40.036)">
              <g id="Grupo_953208" data-name="Grupo 953208">
                <path id="Trazado_658395" data-name="Trazado 658395" d="M38.543,51.209H17.023c2.878-1.944,4.632-3.976,5.112-6.084a5.189,5.189,0,0,0-.025-2.6H33.443a5.188,5.188,0,0,0-.025,2.6c.48,2.108,2.247,4.14,5.124,6.084Z" transform="translate(-17.023 -42.525)" fill="#afafaf"/>
              </g>
            </g>
            <g id="Grupo_953211" data-name="Grupo 953211" transform="translate(16.946 40.036)">
              <g id="Grupo_953210" data-name="Grupo 953210">
                <path id="Trazado_658396" data-name="Trazado 658396" d="M33.418,45.125H29.15a8.339,8.339,0,0,0-6.45,3,16.614,16.614,0,0,1-3.544,3.086H17.023c2.878-1.944,4.632-3.976,5.112-6.084a5.189,5.189,0,0,0-.025-2.6H33.443a5.188,5.188,0,0,0-.025,2.6Z" transform="translate(-17.023 -42.525)" fill="#636363"/>
              </g>
            </g>
            <g id="Grupo_953213" data-name="Grupo 953213" transform="translate(0 0.005)">
              <g id="Grupo_953212" data-name="Grupo 953212">
                <path id="Trazado_658397" data-name="Trazado 658397" d="M52.139,49.958H8.256a5.6,5.6,0,0,1-5.6-5.6V14.193a5.6,5.6,0,0,1,5.6-5.6H52.139a5.6,5.6,0,0,1,5.6,5.6V44.362A5.6,5.6,0,0,1,52.139,49.958Z" transform="translate(-2.66 -8.596)" fill="#afafaf"/>
              </g>
            </g>
            <g id="Grupo_953215" data-name="Grupo 953215" transform="translate(0.002)">
              <g id="Grupo_953214" data-name="Grupo 953214">
                <path id="Trazado_658398" data-name="Trazado 658398" d="M11.947,49.957H8.254a5.589,5.589,0,0,1-5.592-5.592V14.2a5.6,5.6,0,0,1,5.592-5.6h3.693a5.609,5.609,0,0,0-5.6,5.6V44.364A5.6,5.6,0,0,0,11.947,49.957Z" transform="translate(-2.661 -8.592)" fill="#afafaf"/>
              </g>
            </g>
            <g id="Grupo_953217" data-name="Grupo 953217" transform="translate(5.049 5.054)">
              <g id="Grupo_953216" data-name="Grupo 953216">
                <path id="Trazado_658399" data-name="Trazado 658399" d="M6.939,39.3V15.192a2.316,2.316,0,0,1,2.316-2.316H49.6a2.317,2.317,0,0,1,2.317,2.317V39.3A2.317,2.317,0,0,1,49.6,41.616H9.256A2.317,2.317,0,0,1,6.939,39.3Z" transform="translate(-6.939 -12.875)" fill="#fd9827"/>
              </g>
            </g>
            <g id="Grupo_953219" data-name="Grupo 953219" transform="translate(5.052 5.05)">
              <g id="Grupo_953218" data-name="Grupo 953218">
                <path id="Trazado_658400" data-name="Trazado 658400" d="M12.569,41.613H9.254A2.316,2.316,0,0,1,6.941,39.3V15.2a2.319,2.319,0,0,1,2.313-2.324h3.315A2.319,2.319,0,0,0,10.257,15.2V39.3A2.316,2.316,0,0,0,12.569,41.613Z" transform="translate(-6.941 -12.872)" fill="#e88e29"/>
              </g>
            </g>
            <g id="Grupo_953221" data-name="Grupo 953221" transform="translate(25.852 35.833)">
              <g id="Grupo_953220" data-name="Grupo 953220">
                <circle id="Elipse_4912" data-name="Elipse 4912" cx="1.854" cy="1.854" r="1.854" fill="#afafaf"/>
              </g>
            </g>
          </g>
        </g>
        <g id="Grupo_953226" data-name="Grupo 953226" transform="translate(9.215 0.003)">
          <g id="Grupo_953225" data-name="Grupo 953225">
            <g id="Grupo_953224" data-name="Grupo 953224">
              <path id="Trazado_658401" data-name="Trazado 658401" d="M44.414,2.118a2.851,2.851,0,0,0-1.982.814,2.78,2.78,0,0,0-.814,1.982l-.094,38.637H10.47l.094-38.637a2.8,2.8,0,0,1,2.808-2.8Z" transform="translate(-10.47 -2.118)" fill="#fff"/>
            </g>
          </g>
        </g>
        <g id="Grupo_953228" data-name="Grupo 953228" transform="translate(13.291 2.655)">
          <g id="Grupo_953227" data-name="Grupo 953227">
            <path id="Trazado_658402" data-name="Trazado 658402" d="M37.3,6.135a1.767,1.767,0,0,1-1.77,1.77H15.694a1.77,1.77,0,1,1,0-3.54H35.528A1.767,1.767,0,0,1,37.3,6.135Z" transform="translate(-13.925 -4.365)" fill="#e83d62"/>
          </g>
        </g>
        <g id="Grupo_953230" data-name="Grupo 953230" transform="translate(13.291 2.655)">
          <g id="Grupo_953229" data-name="Grupo 953229">
            <path id="Trazado_658403" data-name="Trazado 658403" d="M18.278,7.9H15.694a1.77,1.77,0,1,1,0-3.54h2.584a1.77,1.77,0,0,0,0,3.54Z" transform="translate(-13.925 -4.365)" fill="#ce2955"/>
          </g>
        </g>
        <g id="Grupo_953233" data-name="Grupo 953233" transform="translate(9.221)">
          <g id="Grupo_953232" data-name="Grupo 953232">
            <g id="Grupo_953231" data-name="Grupo 953231">
              <path id="Trazado_658404" data-name="Trazado 658404" d="M15.288,2.115a2.8,2.8,0,0,0-2.808,2.8l-.094,38.64H10.475l.094-38.64a2.8,2.8,0,0,1,2.808-2.8Z" transform="translate(-10.475 -2.115)" fill="#e8e8e8"/>
            </g>
          </g>
        </g>
        <g id="Grupo_953241" data-name="Grupo 953241" transform="translate(13.291 9.506)">
          <g id="Grupo_953236" data-name="Grupo 953236">
            <g id="Grupo_953235" data-name="Grupo 953235">
              <g id="Grupo_953234" data-name="Grupo 953234">
                <path id="Trazado_658405" data-name="Trazado 658405" d="M20.858,17.761H15.195a1.27,1.27,0,0,1-1.27-1.27V11.442a1.27,1.27,0,0,1,1.27-1.27h5.663a1.27,1.27,0,0,1,1.27,1.27v5.049A1.27,1.27,0,0,1,20.858,17.761Z" transform="translate(-13.925 -10.172)" fill="#fcb73e"/>
              </g>
            </g>
          </g>
          <g id="Grupo_953238" data-name="Grupo 953238" transform="translate(0 22.035)">
            <g id="Grupo_953237" data-name="Grupo 953237">
              <path id="Trazado_658406" data-name="Trazado 658406" d="M20.858,36.437H15.195a1.27,1.27,0,0,1-1.27-1.27V30.118a1.27,1.27,0,0,1,1.27-1.27h5.663a1.27,1.27,0,0,1,1.27,1.27v5.049A1.27,1.27,0,0,1,20.858,36.437Z" transform="translate(-13.925 -28.848)" fill="#e83d62"/>
            </g>
          </g>
          <g id="Grupo_953240" data-name="Grupo 953240" transform="translate(0 11.017)">
            <g id="Grupo_953239" data-name="Grupo 953239">
              <path id="Trazado_658407" data-name="Trazado 658407" d="M20.858,27.1H15.195a1.27,1.27,0,0,1-1.27-1.27V20.78a1.27,1.27,0,0,1,1.27-1.27h5.663a1.27,1.27,0,0,1,1.27,1.27v5.049A1.27,1.27,0,0,1,20.858,27.1Z" transform="translate(-13.925 -19.51)" fill="#46cc6b"/>
            </g>
          </g>
        </g>
        <g id="Grupo_953255" data-name="Grupo 953255" transform="translate(13.287 9.5)">
          <g id="Grupo_953250" data-name="Grupo 953250">
            <g id="Grupo_953249" data-name="Grupo 953249">
              <g id="Grupo_953248" data-name="Grupo 953248">
                <path id="Trazado_658411" data-name="Trazado 658411" d="M16.965,17.765H15.2a1.276,1.276,0,0,1-1.274-1.274v-5.05A1.284,1.284,0,0,1,15.2,10.167h1.77a1.276,1.276,0,0,0-1.274,1.274v5.05A1.269,1.269,0,0,0,16.965,17.765Z" transform="translate(-13.921 -10.167)" fill="#fd982e"/>
              </g>
            </g>
          </g>
          <g id="Grupo_953252" data-name="Grupo 953252" transform="translate(0 22.039)">
            <g id="Grupo_953251" data-name="Grupo 953251">
              <path id="Trazado_658412" data-name="Trazado 658412" d="M16.965,36.434H15.2a1.274,1.274,0,0,1-1.274-1.262v-5.05A1.276,1.276,0,0,1,15.2,28.847h1.77a1.269,1.269,0,0,0-1.274,1.274v5.05A1.266,1.266,0,0,0,16.965,36.434Z" transform="translate(-13.921 -28.847)" fill="#ce2955"/>
            </g>
          </g>
          <g id="Grupo_953254" data-name="Grupo 953254" transform="translate(0 11.02)">
            <g id="Grupo_953253" data-name="Grupo 953253">
              <path id="Trazado_658413" data-name="Trazado 658413" d="M16.965,27.105H15.2a1.284,1.284,0,0,1-1.274-1.274v-5.05A1.276,1.276,0,0,1,15.2,19.507h1.77a1.269,1.269,0,0,0-1.274,1.274v5.05A1.276,1.276,0,0,0,16.965,27.105Z" transform="translate(-13.921 -19.507)" fill="#179c5f"/>
            </g>
          </g>
        </g>
      </g>
      <g id="Grupo_953263" data-name="Grupo 953263" transform="translate(26.944 11.68)">
        <g id="Grupo_953258" data-name="Grupo 953258">
          <g id="Grupo_953257" data-name="Grupo 953257">
            <path id="Trazado_658414" data-name="Trazado 658414" d="M36.467,10.843a.614.614,0,0,1-.617.609l-11.99,0a.613.613,0,1,1,0-1.225l11.99,0a.615.615,0,0,1,.617.617Z" transform="translate(-23.242 -10.222)" fill="#727997"/>
          </g>
        </g>
        <g id="Grupo_953260" data-name="Grupo 953260" transform="translate(0 2.741)">
          <g id="Grupo_953259" data-name="Grupo 953259">
            <path id="Trazado_658415" data-name="Trazado 658415" d="M36.467,13.166a.614.614,0,0,1-.617.609l-11.99,0a.613.613,0,1,1,0-1.225l11.99,0A.615.615,0,0,1,36.467,13.166Z" transform="translate(-23.242 -12.545)" fill="#727997"/>
          </g>
        </g>
        <g id="Grupo_953262" data-name="Grupo 953262" transform="translate(0.004 5.38)">
          <g id="Grupo_953261" data-name="Grupo 953261">
            <path id="Trazado_658416" data-name="Trazado 658416" d="M32.422,15.4a.611.611,0,0,1-.611.611l-7.953,0a.611.611,0,1,1,0-1.223l7.953,0A.611.611,0,0,1,32.422,15.4Z" transform="translate(-23.246 -14.782)" fill="#727997"/>
          </g>
        </g>
      </g>
      <g id="Grupo_953270" data-name="Grupo 953270" transform="translate(26.944 23.13)">
        <g id="Grupo_953265" data-name="Grupo 953265">
          <g id="Grupo_953264" data-name="Grupo 953264">
            <path id="Trazado_658417" data-name="Trazado 658417" d="M36.467,20.548a.614.614,0,0,1-.617.609l-11.99,0a.613.613,0,1,1,0-1.225l11.99,0A.615.615,0,0,1,36.467,20.548Z" transform="translate(-23.242 -19.927)" fill="#727997"/>
          </g>
        </g>
        <g id="Grupo_953267" data-name="Grupo 953267" transform="translate(0 2.741)">
          <g id="Grupo_953266" data-name="Grupo 953266">
            <path id="Trazado_658418" data-name="Trazado 658418" d="M36.467,22.871a.614.614,0,0,1-.617.609l-11.99,0a.613.613,0,1,1,0-1.225l11.99,0A.615.615,0,0,1,36.467,22.871Z" transform="translate(-23.242 -22.25)" fill="#727997"/>
          </g>
        </g>
        <g id="Grupo_953269" data-name="Grupo 953269" transform="translate(0.004 5.38)">
          <g id="Grupo_953268" data-name="Grupo 953268">
            <path id="Trazado_658419" data-name="Trazado 658419" d="M32.422,25.1a.611.611,0,0,1-.611.611l-7.953,0a.611.611,0,1,1,0-1.223l7.953,0A.611.611,0,0,1,32.422,25.1Z" transform="translate(-23.246 -24.487)" fill="#727997"/>
          </g>
        </g>
      </g>
      <g id="Grupo_953277" data-name="Grupo 953277" transform="translate(26.944 34.147)">
        <g id="Grupo_953272" data-name="Grupo 953272">
          <g id="Grupo_953271" data-name="Grupo 953271">
            <path id="Trazado_658420" data-name="Trazado 658420" d="M36.467,29.885a.614.614,0,0,1-.617.609l-11.99,0a.613.613,0,1,1,0-1.225l11.99,0A.615.615,0,0,1,36.467,29.885Z" transform="translate(-23.242 -29.264)" fill="#727997"/>
          </g>
        </g>
        <g id="Grupo_953274" data-name="Grupo 953274" transform="translate(0 2.741)">
          <g id="Grupo_953273" data-name="Grupo 953273">
            <path id="Trazado_658421" data-name="Trazado 658421" d="M36.467,32.208a.614.614,0,0,1-.617.609l-11.99,0a.613.613,0,1,1,0-1.225l11.99,0A.615.615,0,0,1,36.467,32.208Z" transform="translate(-23.242 -31.587)" fill="#727997"/>
          </g>
        </g>
        <g id="Grupo_953276" data-name="Grupo 953276" transform="translate(0.004 5.38)">
          <g id="Grupo_953275" data-name="Grupo 953275">
            <path id="Trazado_658422" data-name="Trazado 658422" d="M32.422,34.44a.611.611,0,0,1-.611.611l-7.953,0a.611.611,0,1,1,0-1.223l7.953,0A.611.611,0,0,1,32.422,34.44Z" transform="translate(-23.246 -33.824)" fill="#727997"/>
          </g>
        </g>
      </g>
    </g>
  </g>
</svg>
