<svg xmlns="http://www.w3.org/2000/svg" width="76.752" height="76.751" viewBox="0 0 76.752 76.751">
  <g id="Grupo_953485" data-name="Grupo 953485" transform="translate(-603.649 -4563.271)">
    <g id="Grupo_953090" data-name="Grupo 953090" transform="translate(603.649 4563.271)">
      <circle id="Elipse_4725" data-name="Elipse 4725" cx="38.376" cy="38.376" r="38.376" fill="#f5e8df"/>
    </g>
    <g id="buena-calidad" transform="translate(616.976 4573.619)">
      <path id="Trazado_658423" data-name="Trazado 658423" d="M38.28,51.328H2.864A1.87,1.87,0,0,1,1,49.464V2.864A1.87,1.87,0,0,1,2.864,1h28.51a.917.917,0,0,1,.652.27L38.01,7.254a.917.917,0,0,1,.27.652Z" transform="translate(0 0)" fill="#fff"/>
      <rect id="Rectángulo_48402" data-name="Rectángulo 48402" width="16.967" height="3.572" rx="1.786" transform="translate(10.823 7.728)" fill="#fd9827"/>
      <path id="Trazado_658424" data-name="Trazado 658424" d="M36.578,47.8l-2.954,6.777a1.2,1.2,0,0,0,1.109,1.668h2.488a.8.8,0,0,1,.569.233L39.2,57.886a1.217,1.217,0,0,0,1.967-.363l3.057-6.74,3.057,6.739a1.217,1.217,0,0,0,1.967.363l1.407-1.408a.8.8,0,0,1,.569-.233h2.488a1.2,1.2,0,0,0,1.109-1.668l-2.954-6.766Z" transform="translate(-2.212 -3.183)" fill="#a53c50"/>
      <path id="Trazado_658425" data-name="Trazado 658425" d="M56.688,37.559v.007a2.982,2.982,0,0,0-.381,1.92,2.987,2.987,0,0,1-1.158,2.8,2.982,2.982,0,0,0-1.09,1.63,2.987,2.987,0,0,1-2.137,2.136,2.982,2.982,0,0,0-1.629,1.09A2.982,2.982,0,0,1,47.5,48.3a2.989,2.989,0,0,0-1.921.381H45.57a2.992,2.992,0,0,1-3.02,0h-.007a2.982,2.982,0,0,0-1.92-.381,2.987,2.987,0,0,1-2.8-1.158,2.982,2.982,0,0,0-1.63-1.09,2.987,2.987,0,0,1-2.136-2.137,2.982,2.982,0,0,0-1.09-1.629,2.982,2.982,0,0,1-1.158-2.8,2.989,2.989,0,0,0-.381-1.921v-.006a2.992,2.992,0,0,1,0-3.02v-.007a2.982,2.982,0,0,0,.381-1.92,2.987,2.987,0,0,1,1.158-2.8,2.982,2.982,0,0,0,1.09-1.63A2.987,2.987,0,0,1,36.2,26.05a2.982,2.982,0,0,0,1.629-1.09,2.982,2.982,0,0,1,2.8-1.158,2.989,2.989,0,0,0,1.921-.381h.006a2.992,2.992,0,0,1,3.02,0h.007a2.982,2.982,0,0,0,1.92.381,2.987,2.987,0,0,1,2.8,1.158,2.982,2.982,0,0,0,1.63,1.09,2.987,2.987,0,0,1,2.136,2.137,2.982,2.982,0,0,0,1.09,1.629,2.982,2.982,0,0,1,1.158,2.8,2.989,2.989,0,0,0,.381,1.921v.006a2.992,2.992,0,0,1,0,3.02Z" transform="translate(-2.042 -1.497)" fill="#fd9827"/>
      <circle id="Elipse_4913" data-name="Elipse 4913" cx="8.037" cy="8.037" r="8.037" transform="translate(34.04 26.48)" fill="#ffd9af"/>
      <path id="Trazado_658426" data-name="Trazado 658426" d="M40.44,7.53H35.864A1.87,1.87,0,0,1,34,5.666V1.09a1,1,0,0,1,.27.186L40.254,7.26a1,1,0,0,1,.186.27Z" transform="translate(-2.244 -0.006)" fill="#727997"/>
      <g id="Grupo_953278" data-name="Grupo 953278" transform="translate(5.66 15.912)">
        <path id="Trazado_658427" data-name="Trazado 658427" d="M33.028,18.864H6.932a.932.932,0,0,1,0-1.864h26.1a.932.932,0,0,1,0,1.864Z" transform="translate(-6 -17)" fill="#727997"/>
        <path id="Trazado_658428" data-name="Trazado 658428" d="M31.164,23.864H6.932a.932.932,0,0,1,0-1.864H31.164a.932.932,0,1,1,0,1.864Z" transform="translate(-6 -17.34)" fill="#727997"/>
        <path id="Trazado_658429" data-name="Trazado 658429" d="M28.456,28.864H21.932a.932.932,0,1,1,0-1.864h6.524a.932.932,0,1,1,0,1.864Z" transform="translate(-7.02 -17.68)" fill="#727997"/>
        <path id="Trazado_658430" data-name="Trazado 658430" d="M17.184,28.864H6.932a.932.932,0,1,1,0-1.864H17.184a.932.932,0,1,1,0,1.864Z" transform="translate(-6 -17.68)" fill="#727997"/>
        <path id="Trazado_658431" data-name="Trazado 658431" d="M26.048,33.864H13.932a.932.932,0,0,1,0-1.864H26.048a.932.932,0,0,1,0,1.864Z" transform="translate(-6.476 -18.02)" fill="#727997"/>
        <path id="Trazado_658432" data-name="Trazado 658432" d="M9.728,33.864h-2.8a.932.932,0,0,1,0-1.864h2.8a.932.932,0,0,1,0,1.864Z" transform="translate(-6 -18.02)" fill="#727997"/>
        <path id="Trazado_658433" data-name="Trazado 658433" d="M25.572,38.864H6.932a.932.932,0,0,1,0-1.864h18.64a.932.932,0,0,1,0,1.864Z" transform="translate(-6 -18.36)" fill="#727997"/>
        <path id="Trazado_658434" data-name="Trazado 658434" d="M26.5,43.864H6.932a.932.932,0,0,1,0-1.864H26.5a.932.932,0,0,1,0,1.864Z" transform="translate(-6 -18.7)" fill="#727997"/>
        <path id="Trazado_658435" data-name="Trazado 658435" d="M17.184,48.864H6.932a.932.932,0,1,1,0-1.864H17.184a.932.932,0,1,1,0,1.864Z" transform="translate(-6 -19.04)" fill="#727997"/>
      </g>
      <path id="Trazado_658436" data-name="Trazado 658436" d="M42.864,40.524a.932.932,0,0,1-.659-.273l-.932-.932A.932.932,0,1,1,42.591,38l.273.273,4-4a.932.932,0,1,1,1.318,1.318l-4.66,4.66A.932.932,0,0,1,42.864,40.524Z" transform="translate(-2.72 -2.244)" fill="#12263f"/>
    </g>
  </g>
</svg>
