<svg xmlns="http://www.w3.org/2000/svg" xmlns:xlink="http://www.w3.org/1999/xlink" width="90" height="94" viewBox="0 0 90 94">
  <defs>
    <clipPath id="clip-path">
      <rect id="Rectángulo_44622" data-name="Rectángulo 44622" width="90" height="94" transform="translate(-6557 -10865)" fill="#fd9827" stroke="#31313c" stroke-width="1.5"/>
    </clipPath>
  </defs>
  <g id="Enmascarar_grupo_94" data-name="Enmascarar grupo 94" transform="translate(6557 10865)" clip-path="url(#clip-path)">
    <g id="apreton-de-manos" transform="translate(-6557 -10863)">
      <path id="Trazado_599205" data-name="Trazado 599205" d="M27.16,21.081h0a2.636,2.636,0,0,0,2.885-2.362h0a15.039,15.039,0,0,1,29.909,0h0a2.637,2.637,0,0,0,2.885,2.362h0A2.637,2.637,0,0,0,65.2,18.2h0a20.31,20.31,0,0,0-40.4,0h0a2.637,2.637,0,0,0,2.362,2.885Z" fill="#fd9827" stroke="#31313c" stroke-width="1.5"/>
      <path id="Trazado_599206" data-name="Trazado 599206" d="M45,10.547a9.692,9.692,0,0,0-9.4,7.25A2.636,2.636,0,0,0,37.5,21.009h0a2.636,2.636,0,0,0,3.213-1.892h0a4.441,4.441,0,0,1,8.582,0A2.636,2.636,0,0,0,52.5,21.01h0A2.636,2.636,0,0,0,54.4,17.8h0a9.693,9.693,0,0,0-9.4-7.25Z" fill="#fd9827" stroke="#31313c" stroke-width="1.5"/>
      <path id="Trazado_599207" data-name="Trazado 599207" d="M87.363,30.24H66.892l-1.952-1.3a13.141,13.141,0,0,0-7.313-2.214H51.355a13.109,13.109,0,0,0-6.374,1.64,13.222,13.222,0,0,0-6.336-1.64H32.373a13.139,13.139,0,0,0-7.313,2.214l-1.952,1.3H2.637A2.637,2.637,0,0,0,0,32.877v30.31a2.637,2.637,0,0,0,2.637,2.637H16.086L36.921,86.659a11.438,11.438,0,0,0,16.158,0L73.914,65.824H87.363A2.637,2.637,0,0,0,90,63.187V32.877a2.637,2.637,0,0,0-2.637-2.637ZM10.547,60.55H5.273V35.513h5.273ZM59.916,72.365l-8.079-8.079a2.637,2.637,0,1,0-3.729,3.729l8.079,8.079-3.729,3.729-8.079-8.079a2.637,2.637,0,0,0-3.729,3.729l8.034,8.034a6.161,6.161,0,0,1-8.034-.576L19.042,61.323a2.637,2.637,0,0,0-1.864-.772H15.82V35.513h8.086a2.636,2.636,0,0,0,1.463-.443l2.617-1.744A7.884,7.884,0,0,1,32.373,32h6.272a7.763,7.763,0,0,1,1.768.207L27.554,45.063A7.91,7.91,0,1,0,38.74,56.25L45,49.991,63.644,68.636ZM74.18,60.55H72.822a2.636,2.636,0,0,0-1.864.772l-3.584,3.584L54.317,51.85a13.116,13.116,0,0,0,7.463-3.724A2.637,2.637,0,1,0,58.051,44.4a7.919,7.919,0,0,1-11.187,0,2.637,2.637,0,0,0-3.729,0l-8.124,8.124a2.637,2.637,0,1,1-3.729-3.729l14.48-14.478A7.859,7.859,0,0,1,51.355,32h6.272a7.911,7.911,0,0,1,4.388,1.329l3.28,2.187H74.18Zm10.547,0H79.453V35.513h5.273Z" fill="#fd9827" stroke="#31313c" stroke-width="1.5"/>
    </g>
  </g>
</svg>
