<svg xmlns="http://www.w3.org/2000/svg" xmlns:xlink="http://www.w3.org/1999/xlink" width="295" height="132" viewBox="0 0 295 132">
  <defs>
    <clipPath id="clip-path">
      <rect id="Rectángulo_44604" data-name="Rectángulo 44604" width="23.79" height="2.596" fill="none"/>
    </clipPath>
    <clipPath id="clip-path-2">
      <rect id="Rectángulo_44605" data-name="Rectángulo 44605" width="3.159" height="3.223" fill="none"/>
    </clipPath>
    <clipPath id="clip-path-3">
      <rect id="Rectángulo_44608" data-name="Rectángulo 44608" width="28.867" height="2.563" fill="none"/>
    </clipPath>
    <clipPath id="clip-path-4">
      <rect id="Rectángulo_44611" data-name="Rectángulo 44611" width="41.742" height="62.684" fill="none"/>
    </clipPath>
    <clipPath id="clip-path-5">
      <rect id="Rectángulo_44612" data-name="Rectángulo 44612" width="25.971" height="47.997" fill="none"/>
    </clipPath>
    <clipPath id="clip-path-6">
      <rect id="Rectángulo_44613" data-name="Rectángulo 44613" width="28.613" height="40.813" fill="none"/>
    </clipPath>
    <clipPath id="clip-path-7">
      <rect id="Rectángulo_44614" data-name="Rectángulo 44614" width="21.406" height="24.212" fill="none"/>
    </clipPath>
    <clipPath id="clip-path-8">
      <rect id="Rectángulo_44615" data-name="Rectángulo 44615" width="48.403" height="3.203" fill="none"/>
    </clipPath>
    <clipPath id="clip-path-9">
      <rect id="Rectángulo_44616" data-name="Rectángulo 44616" width="1.648" height="29.681" fill="none"/>
    </clipPath>
  </defs>
  <g id="Grupo_158404" data-name="Grupo 158404" transform="translate(-1020 -512)">
    <g id="Grupo_158403" data-name="Grupo 158403" transform="translate(387 210.643)">
      <g id="Grupo_158402" data-name="Grupo 158402" transform="translate(669 305)">
        <g id="Shadow" transform="translate(2.88 106.075)">
          <path id="Trazado_599053" data-name="Trazado 599053" d="M173.322,614.11a165.167,165.167,0,0,0-17.8.82c-2.235.248-4.423.8-6.663,1.016-4.474.441-8.868,1.262-13.359,1.642-3.616.305-7.247.485-10.852.873a38.2,38.2,0,0,1-10.477-.321,69.891,69.891,0,0,1-7.419-1.408,30.342,30.342,0,0,0-8.544-1.348c-4.058.029-8.009.033-11.893,1.442a11.7,11.7,0,0,0-4.067,2.346c-2.37,2.376-2.69,8.305-.324,10.77,3.985,4.148,12.491,5.775,18.077,5.852,6.121.084,12.068-.37,18.2-.637,5.7-.248,11.378-.6,17.084-.589,11.653.026,23.308,0,34.94-.778,10.929-.731,21.885-.48,32.837-.48,11.231,0,22.387.088,33.537,1.581,4.858.65,9.808.878,14.691,1.334a71.179,71.179,0,0,0,12.931-.385,30.862,30.862,0,0,0,10.613-2.844c2.63-1.257,7.319-5.162,8.125-8.162,2.261-8.411-31.866-8.209-37.106-8.19-5.862.021-11.77.214-17.627-.01a41.538,41.538,0,0,1-7.3-1.1,57.447,57.447,0,0,0-7.237-.613c-10.129-.921-20.28-.786-30.442-.786C179.939,614.129,176.631,614.1,173.322,614.11Z" transform="translate(-80.3 -614.108)" fill="#785549" opacity="0.2"/>
        </g>
        <g id="object" transform="translate(0 0)">
          <g id="Grupo_158401" data-name="Grupo 158401">
            <path id="Trazado_599054" data-name="Trazado 599054" d="M110,286.325c.495-.3,1.26-.378,1.867-.706.306-.165.294-.867.94-.544.238.119.643.467,1.1.689a4.747,4.747,0,0,0,2.495.278,86.573,86.573,0,0,1,10.024-.839,1.078,1.078,0,0,0,.552-.1c.3-.177.371-.5.473-.818a24,24,0,0,1,1.725-4.256,8.822,8.822,0,0,1,2.564-3.151,4.049,4.049,0,0,1,3.856-.588,2.763,2.763,0,0,1,1.818,2.192c.282,2.576-2.21,4.265-3.76,5.917-1.467,1.563-2.719,2.888-4.236,4.305a1.756,1.756,0,0,1-.614.426,1.829,1.829,0,0,1-.785.043,45.243,45.243,0,0,0-9.919-.363,21.072,21.072,0,0,0-2.592.058c-.556.136-.886.647-1.405.86a4.47,4.47,0,0,1-1.689.41,3.343,3.343,0,0,1-2.847-2.39c-.2-.792.024-1.18.433-1.424" transform="translate(-100.462 -241.161)" fill="#efbfa5"/>
            <path id="Trazado_599055" data-name="Trazado 599055" d="M203.737,244.059c-1.82-.878-3.756-1.487-5.516-2.512.806-1.54,3.3-7.872,3.7-8.621,1.526-2.86,1.884-4.118,3.765-5.534,4.017-3.023,8.242-.412,7.642,4.326-.651,5.145-3.807,9.332-7.154,13.061a.585.585,0,0,1-.285.174.673.673,0,0,1-.419-.092c-.565-.282-1.162-.525-1.737-.8" transform="translate(-170.504 -201.745)" fill="#968686"/>
            <path id="Trazado_599056" data-name="Trazado 599056" d="M211.132,576.55a15.334,15.334,0,0,1-1.946-.186c-.336-6.439.273-13.188.537-19.658l4.963.265a57.839,57.839,0,0,0-2.455,10.638c-.076.573-1,8.938-1.1,8.941" transform="translate(-179.082 -462.721)" fill="#efbfa5"/>
            <path id="Trazado_599057" data-name="Trazado 599057" d="M190.316,644.05a1,1,0,0,0-.922.358c-.158.144-.265.349-.456.452a1.5,1.5,0,0,1-.6.146c-1.193.12-3.943.07-2.478,2.066,1.33,1.812,4.863,1.091,6.9.6a.7.7,0,0,0,.374-.157.956.956,0,0,0,.206-.4c.233-.853.551-1.918-.5-2.275-.447-.152-.859.144-1.333-.02-.388-.135-.785-.691-1.194-.764" transform="translate(-160.413 -531.656)" fill="#292949"/>
            <path id="Trazado_599058" data-name="Trazado 599058" d="M194.181,403.217l10.12-.2q4.093-19.487,7.207-39.162a6.97,6.97,0,0,0,.024-3.06c-.554-1.866-2.552-2.931-4.466-3.288-2.973-.556-8.437.218-9.962,3.31-1.612,3.267-1.341,9.1-1.732,12.713a219.45,219.45,0,0,0-1.192,29.684" transform="translate(-167.249 -305.348)" fill="#292949"/>
            <path id="Trazado_599059" data-name="Trazado 599059" d="M297.075,576.55a15.34,15.34,0,0,0,1.946-.186c.335-6.439-.273-13.188-.537-19.658l-4.963.265a57.807,57.807,0,0,1,2.455,10.638c.076.573,1,8.938,1.1,8.941" transform="translate(-245.733 -462.721)" fill="#efbfa5"/>
            <path id="Trazado_599060" data-name="Trazado 599060" d="M308.374,644.05a1,1,0,0,1,.921.358c.158.144.265.349.456.452a1.5,1.5,0,0,0,.6.146c1.193.12,3.943.07,2.478,2.066-1.33,1.812-4.863,1.091-6.9.6a.7.7,0,0,1-.374-.157.954.954,0,0,1-.207-.4c-.233-.853-.551-1.918.5-2.275.447-.152.86.144,1.333-.02.388-.135.785-.691,1.194-.764" transform="translate(-254.885 -531.656)" fill="#292949"/>
            <path id="Trazado_599061" data-name="Trazado 599061" d="M269.046,403.217l-10.121-.2q-4.093-19.487-7.207-39.162a6.973,6.973,0,0,1-.024-3.06c.554-1.866,2.553-2.931,4.466-3.288,2.974-.556,8.437.218,9.962,3.31,1.612,3.267,1.341,9.1,1.732,12.713a219.49,219.49,0,0,1,1.192,29.684" transform="translate(-212.586 -305.348)" fill="#292949"/>
            <path id="Trazado_599062" data-name="Trazado 599062" d="M217.733,222.657a24.115,24.115,0,0,1,5.951,9.306c2.161,6.065,2.2,12.541,2.222,18.887q.01,3.168.02,6.336c.007,2.078-.177,2.525-2.436,2.251a38.722,38.722,0,0,1-12.327-3.23,58.294,58.294,0,0,0-5.383-2.7c-2.752-1.013-5.573-.555-8.3-1.214a64.553,64.553,0,0,0,2.634-10.3c.625-3.79,1.193-7.925,2.108-11.665a30.661,30.661,0,0,1,2.61-6.4,11.624,11.624,0,0,1,2.624-3.809c3.573-3.02,7.578-.026,10.273,2.538" transform="translate(-169.923 -196.024)" fill="#968686"/>
            <path id="Trazado_599063" data-name="Trazado 599063" d="M245.551,158.092a23.186,23.186,0,0,0,2.027,3.068,6.883,6.883,0,0,1,1.077,3.045c.127.832.424,1.482,1.427,1.625,1.89.269,1.35-1.293,1.779-2.429a20.792,20.792,0,0,1,2.269-3.484c2.114-3.349,1.51-9.97-2.883-11.383-4.8-1.545-7.246,6.171-5.7,9.559" transform="translate(-207.5 -140.357)" fill="#efbfa5"/>
            <path id="Trazado_599064" data-name="Trazado 599064" d="M272.143,159.857a2.4,2.4,0,0,1,1.549.431c.4.366.36,1.165-.173,1.251-.484.078-1.111-.427-1.406-.058-.173.215-.021.531.11.783a4.6,4.6,0,0,1,.419,3.118c.2.185.51-.007.685-.2a10.04,10.04,0,0,0,1.991-3.27,2,2,0,0,0,.732.709,2.316,2.316,0,0,1,.045-1.408c.41-1.694.69-3.679-.493-5.064a4.4,4.4,0,0,0-2.564-1.346,12.859,12.859,0,0,0-2.931-.091c-.417.019-.932.109-1.032.495a4.652,4.652,0,0,1,2.321,1.949c.141.266.692,2.7.747,2.7" transform="translate(-226.435 -145.364)" fill="#292949"/>
            <path id="Trazado_599065" data-name="Trazado 599065" d="M254.129,141.978l.1.073a4.157,4.157,0,0,0,1.306.84c.724.2,1.5-.147,2.214.1.8.276,1.32,1.228,1.9,1.792a8.536,8.536,0,0,0,5.4,2.347,3.525,3.525,0,0,0,1.016,0c.4-.108.388-.291-.04-.428-1.341-.43-1.761-2.313-1.66-3.562a6.375,6.375,0,0,0,.044-2.93,3.477,3.477,0,0,0-1.5-1.459c-.657-.441-1.37-.322-2.116-.534-.779-.221-1.413-.834-2.207-.991a6.7,6.7,0,0,0-2.516.37,5.206,5.206,0,0,1-2.1-.026,8.45,8.45,0,0,0-1.854-.381,3.035,3.035,0,0,0-2.336,1.349,6.2,6.2,0,0,0-1,4.319c-.042-.219.7-1.013.847-1.184a2,2,0,0,1,1.2-.756,5.139,5.139,0,0,1,3.307,1.064" transform="translate(-210.356 -131.555)" fill="#292949"/>
            <path id="Trazado_599066" data-name="Trazado 599066" d="M99.876,363.3s1.032,4.906.343,7.126l1.877.014-.606-7.887Z" transform="translate(-92.873 -309.463)" fill="#babcbe"/>
            <path id="Trazado_599067" data-name="Trazado 599067" d="M103.842,395.927q-.789.125-1.585.18c-.085.006-.069.145.016.14q.8-.055,1.585-.18c.084-.013.069-.153-.016-.14" transform="translate(-94.708 -335.804)" fill="#babcbe"/>
            <path id="Trazado_599068" data-name="Trazado 599068" d="M104.08,392.405l-1.415.193c-.084.012-.069.151.016.14l1.414-.193c.084-.012.069-.151-.016-.14" transform="translate(-95.03 -333.024)" fill="#babcbe"/>
            <path id="Trazado_599069" data-name="Trazado 599069" d="M103.968,389.368a3.627,3.627,0,0,1-1.353.158c-.086,0-.069.14.016.14a6.463,6.463,0,0,0,1.352-.158c.083-.018.068-.158-.016-.14" transform="translate(-94.99 -330.626)" fill="#babcbe"/>
            <path id="Trazado_599070" data-name="Trazado 599070" d="M104.032,385.087a10.55,10.55,0,0,1-1.379.237c-.085.009-.069.148.016.14a10.511,10.511,0,0,0,1.379-.237c.082-.02.067-.16-.016-.14" transform="translate(-95.021 -327.246)" fill="#babcbe"/>
            <path id="Trazado_599071" data-name="Trazado 599071" d="M103.536,381.3q-.674.1-1.352.162c-.085.008-.07.147.016.139q.679-.061,1.352-.162c.084-.013.069-.152-.016-.14" transform="translate(-94.65 -324.255)" fill="#babcbe"/>
            <path id="Trazado_599072" data-name="Trazado 599072" d="M103.088,377.513q-.653.123-1.313.195a.071.071,0,0,0,.016.14q.66-.072,1.313-.195c.083-.016.068-.156-.016-.14" transform="translate(-94.327 -321.268)" fill="#babcbe"/>
            <path id="Trazado_599073" data-name="Trazado 599073" d="M102.489,373.2q-.7.15-1.408.241a.058.058,0,0,0-.033.016c0,.005,0,.011,0,.017.009.034.017.069.024.1a.052.052,0,0,0,.022,0q.709-.091,1.408-.241c.083-.018.068-.158-.016-.14" transform="translate(-93.798 -317.86)" fill="#babcbe"/>
            <path id="Trazado_599074" data-name="Trazado 599074" d="M102.344,368.9l-1.38.2c-.084.012-.069.152.016.139l1.38-.2c.084-.012.069-.152-.016-.14" transform="translate(-93.688 -314.467)" fill="#babcbe"/>
            <path id="Trazado_599075" data-name="Trazado 599075" d="M129.2,414.085,95.652,416.9a.079.079,0,0,1-.084-.073l-.475-5.6a.079.079,0,0,1,.071-.086l33.544-2.812a.079.079,0,0,1,.084.073l.475,5.6a.079.079,0,0,1-.071.086" transform="translate(-89.097 -345.591)" fill="#fd9827"/>
            <path id="Trazado_599076" data-name="Trazado 599076" d="M110.758,425.081l-3.526.3-.489-5.762,3.526-.3Z" transform="translate(-98.294 -354.271)" fill="#292949"/>
            <path id="Trazado_599077" data-name="Trazado 599077" d="M128.62,424.446l-.784.066-.489-5.762.784-.066Z" transform="translate(-114.558 -353.769)" fill="#292949"/>
            <path id="Trazado_599078" data-name="Trazado 599078" d="M138.863,427.653a1,1,0,1,1-1.087-.937,1.013,1.013,0,0,1,1.087.937" transform="translate(-122.066 -360.106)" fill="#292949"/>
            <path id="Trazado_599079" data-name="Trazado 599079" d="M128.566,391.1l-33.544,2.812a.079.079,0,0,1-.084-.073l-.381-4.488a.079.079,0,0,1,.071-.086l33.544-2.811a.079.079,0,0,1,.084.073l.381,4.488a.078.078,0,0,1-.071.086" transform="translate(-88.674 -328.324)" fill="#5d66d3"/>
            <path id="Trazado_599080" data-name="Trazado 599080" d="M115.4,404.376l.171,2.014.984-.986Z" transform="translate(-105.13 -342.474)" fill="#eed5d5"/>
            <path id="Trazado_599081" data-name="Trazado 599081" d="M121.885,404.761l.138,1.626.795-.8Z" transform="translate(-110.246 -342.778)" fill="#eed5d5"/>
            <path id="Trazado_599082" data-name="Trazado 599082" d="M103.714,403.693l-.152.013-.394-4.647.153-.013Z" transform="translate(-95.471 -338.268)" fill="#eed5d5"/>
            <path id="Trazado_599083" data-name="Trazado 599083" d="M107.116,403.408l-.153.013-.394-4.647.153-.013Z" transform="translate(-98.156 -338.042)" fill="#eed5d5"/>
            <path id="Trazado_599084" data-name="Trazado 599084" d="M125.165,126.71l-2.389.884.032-.574a16.967,16.967,0,0,0-.7-5.473l.1-.1,2.191-1.891Z" transform="translate(-110.419 -117.64)" fill="#eed5d5"/>
            <path id="Trazado_599085" data-name="Trazado 599085" d="M141.119,149.144l-13.857.612-2.242,1.173,15.007-.629Z" transform="translate(-112.721 -140.999)" fill="#9eb79c"/>
            <path id="Trazado_599086" data-name="Trazado 599086" d="M124.7,152.449a5.611,5.611,0,0,0,1.166-.587l1.072-.594c.056-.031.1.155.044.187l-1.157.642a5.265,5.265,0,0,1-1.1.548c-.06.016-.08-.18-.02-.2" transform="translate(-112.437 -142.673)" fill="#b0c0ba"/>
            <path id="Trazado_599087" data-name="Trazado 599087" d="M123.8,119.7a13.758,13.758,0,0,0-2.322,1.928c-.077.079-.177-.174-.1-.254a13.979,13.979,0,0,1,2.355-1.959c.084-.055.15.23.067.285" transform="translate(-109.826 -117.527)" fill="#b0c0ba"/>
            <path id="Trazado_599088" data-name="Trazado 599088" d="M146.394,117l-13.962.543.217,1.537c.175,1.243.3,2.492.377,3.734l.087,1.569,13.857-.612,0-.093a24.57,24.57,0,0,0-.581-6.678" transform="translate(-118.572 -115.622)" fill="#c0c942"/>
            <path id="Trazado_599089" data-name="Trazado 599089" d="M141.3,119.44c-.041-.2-.345-.16-.3.037a23.329,23.329,0,0,1,.45,6.251c-.012.2.29.247.3.047a23.654,23.654,0,0,0-.449-6.335" transform="translate(-125.327 -117.448)" fill="#5d66d3"/>
            <path id="Trazado_599090" data-name="Trazado 599090" d="M189.669,117.924c-.043-.195-.346-.157-.3.04a23.348,23.348,0,0,1,.5,6.247c-.011.2.292.245.3.044a23.676,23.676,0,0,0-.5-6.331" transform="translate(-163.511 -116.252)" fill="#5d66d3"/>
            <path id="Trazado_599091" data-name="Trazado 599091" d="M81.035,161.35l-5.359,1.366.114-.776a13.956,13.956,0,0,0-1.156-7.32l.226-.148,4.995-2.708Z" transform="translate(-72.947 -143.068)" fill="#efbfa5"/>
            <path id="Trazado_599092" data-name="Trazado 599092" d="M114.779,186.6l-30.751,1.84-5.055,1.745,33.3-1.948Z" transform="translate(-76.372 -170.569)" fill="#292949"/>
            <path id="Trazado_599093" data-name="Trazado 599093" d="M78.286,196.057a17.916,17.916,0,0,0,2.626-.876l2.419-.878c.128-.046.211.2.083.248l-2.612.95a16.907,16.907,0,0,1-2.486.819c-.135.026-.163-.237-.03-.263" transform="translate(-75.762 -176.642)" fill="#353a85"/>
            <path id="Trazado_599094" data-name="Trazado 599094" d="M78.519,151.977a35.747,35.747,0,0,0-5.289,2.768c-.177.112-.38-.222-.2-.335a36.225,36.225,0,0,1,5.364-2.811c.19-.08.316.3.126.379" transform="translate(-71.625 -142.927)" fill="#353a85"/>
            <path id="Trazado_599095" data-name="Trazado 599095" d="M129.2,143.5l-30.978,1.755.366,2.055a38.532,38.532,0,0,1,.559,5l.076,2.106,30.751-1.84.018-.126A20.054,20.054,0,0,0,129.2,143.5Z" transform="translate(-91.566 -136.543)" fill="#3b3387"/>
            <path id="Trazado_599096" data-name="Trazado 599096" d="M134.433,361.6l-28.386,2.379-.578-6.817,28.386-2.379.035.091a11.807,11.807,0,0,1,.543,6.725" transform="translate(-97.288 -303.329)" fill="#dddae8"/>
            <rect id="Rectángulo_44602" data-name="Rectángulo 44602" width="3.98" height="6.841" transform="translate(11.088 53.593) rotate(-4.792)" fill="#353a85"/>
            <path id="Trazado_599097" data-name="Trazado 599097" d="M83.047,330.542l-5.332-.334.242.586a8.98,8.98,0,0,1,.179,5.788l.238.084,5.185,1.455Z" transform="translate(-75.379 -283.927)" fill="#efbfa5"/>
            <path id="Trazado_599098" data-name="Trazado 599098" d="M113.37,316.375l-31.1,2.859-5.1-.67,33.328-3.157Z" transform="translate(-74.944 -272.244)" fill="#292949"/>
            <path id="Trazado_599099" data-name="Trazado 599099" d="M76.589,330.421a20.971,20.971,0,0,1,2.638.323l2.458.356c.13.019.167-.186.037-.2l-2.655-.384a19.759,19.759,0,0,0-2.5-.3c-.131,0-.113.206.017.208" transform="translate(-74.405 -283.931)" fill="#353a85"/>
            <path id="Trazado_599100" data-name="Trazado 599100" d="M83.774,360.983A40.837,40.837,0,0,1,78.3,359.52c-.185-.063-.318.218-.131.282a41.359,41.359,0,0,0,5.548,1.488.156.156,0,0,0,.055-.307" transform="translate(-75.667 -307.059)" fill="#353a85"/>
            <path id="Trazado_599101" data-name="Trazado 599101" d="M133.135,327.478l-31.123,2.608,0-1.629a24.663,24.663,0,0,0-.322-3.945l-.289-1.649L132.5,320l.039.1a12.944,12.944,0,0,1,.6,7.374" transform="translate(-94.075 -275.873)" fill="#474ebb"/>
            <path id="Trazado_599102" data-name="Trazado 599102" d="M121.542,292.468l-29.5,2.472a.079.079,0,0,1-.084-.073l-.586-6.905a.079.079,0,0,1,.071-.086l29.5-2.472a.079.079,0,0,1,.084.073l.586,6.905a.079.079,0,0,1-.071.086" transform="translate(-86.163 -248.56)" fill="#c0c942"/>
            <path id="Trazado_599103" data-name="Trazado 599103" d="M110.525,240.695,74.06,243.751a.079.079,0,0,1-.084-.073l-.424-5a.078.078,0,0,1,.071-.086l36.465-3.056a.079.079,0,0,1,.085.073l.424,5a.079.079,0,0,1-.071.086" transform="translate(-72.093 -209.196)" fill="#5d66d3"/>
            <path id="Trazado_599104" data-name="Trazado 599104" d="M128.922,200.146l-23.244,1.948-.864-10.187,23.244-1.948.132.56a30.851,30.851,0,0,1,.768,9.052Z" transform="translate(-96.771 -173.218)" fill="#fd9827"/>
            <path id="Trazado_599105" data-name="Trazado 599105" d="M122.538,206.721l-4.612.387-.853-10.051,4.612-.387Z" transform="translate(-106.448 -178.515)" fill="#eed5d5"/>
            <rect id="Rectángulo_44603" data-name="Rectángulo 44603" width="2.599" height="10.087" transform="translate(11.62 18.458) rotate(-4.792)" fill="#fd9827"/>
            <g id="Grupo_158376" data-name="Grupo 158376" transform="translate(8.048 16.799)" opacity="0.13">
              <g id="Grupo_158375" data-name="Grupo 158375">
                <g id="Grupo_158374" data-name="Grupo 158374" clip-path="url(#clip-path)">
                  <path id="Trazado_599106" data-name="Trazado 599106" d="M104.837,192.177l23.244-1.948.547,2.6-23.744-.1Z" transform="translate(-104.837 -190.229)" fill="#000100"/>
                </g>
              </g>
            </g>
            <g id="Grupo_158379" data-name="Grupo 158379" transform="translate(16.955 3.338)" opacity="0.64">
              <g id="Grupo_158378" data-name="Grupo 158378">
                <g id="Grupo_158377" data-name="Grupo 158377" clip-path="url(#clip-path-2)">
                  <path id="Trazado_599107" data-name="Trazado 599107" d="M150.278,127.8a1.58,1.58,0,1,1-1.71-1.474,1.594,1.594,0,0,1,1.71,1.474" transform="translate(-147.125 -126.32)" fill="#5d66d3"/>
                </g>
              </g>
            </g>
            <path id="Trazado_599108" data-name="Trazado 599108" d="M86.72,257.036a5.246,5.246,0,0,0-1.169-.932c-.171-.1-.3.182-.131.282a4.929,4.929,0,0,1,1,.786,9.407,9.407,0,0,1-.873,1.053c-.138.143.1.345.235.2a9.423,9.423,0,0,0,.957-1.17.164.164,0,0,0-.019-.22" transform="translate(-81.398 -225.414)" fill="#dddae8"/>
            <path id="Trazado_599109" data-name="Trazado 599109" d="M95.777,256.5a5.855,5.855,0,0,0-.943-.79.155.155,0,0,0-.2.238,7.548,7.548,0,0,1,.827.659,4.473,4.473,0,0,1-.4.429l-.451.5c-.134.148.1.35.234.2l.542-.6a2.1,2.1,0,0,0,.4-.48.159.159,0,0,0-.013-.157" transform="translate(-88.685 -225.091)" fill="#dddae8"/>
            <path id="Trazado_599110" data-name="Trazado 599110" d="M103.393,253.378c-.152-.129-.349.109-.2.238.092.078.281.356.078.414s-.082.347.107.293a.417.417,0,0,0,.284-.435.733.733,0,0,0-.272-.51" transform="translate(-95.45 -223.25)" fill="#dddae8"/>
            <path id="Trazado_599111" data-name="Trazado 599111" d="M108.891,256.233a.153.153,0,0,0-.172-.05.6.6,0,0,0-.656,1,.581.581,0,0,0,.809-.024.692.692,0,0,0,.019-.924m-.222.69a.279.279,0,0,1-.409.019.3.3,0,0,1,.341-.472.149.149,0,0,0,.086.012.363.363,0,0,1-.019.442" transform="translate(-99.18 -225.455)" fill="#dddae8"/>
            <rect id="Rectángulo_44606" data-name="Rectángulo 44606" width="0.353" height="7.117" transform="translate(30.51 37.188) rotate(-4.8)" fill="#dddae8"/>
            <rect id="Rectángulo_44607" data-name="Rectángulo 44607" width="0.353" height="7.117" transform="translate(31.934 37.069) rotate(-4.803)" fill="#dddae8"/>
            <g id="Grupo_158382" data-name="Grupo 158382" transform="translate(8.18 51.803)" opacity="0.11">
              <g id="Grupo_158381" data-name="Grupo 158381" transform="translate(0 0)">
                <g id="Grupo_158380" data-name="Grupo 158380" clip-path="url(#clip-path-3)">
                  <path id="Trazado_599112" data-name="Trazado 599112" d="M105.462,358.82l28.518-2.39s.243.68.349,1.14l-28.821,1.424Z" transform="translate(-105.462 -356.43)" fill="#000100"/>
                </g>
              </g>
            </g>
            <path id="Trazado_599113" data-name="Trazado 599113" d="M103.6,265.5l-36.465,3.056a.079.079,0,0,1-.084-.073l-.424-5a.079.079,0,0,1,.071-.086l36.465-3.056a.079.079,0,0,1,.085.073l.424,5a.078.078,0,0,1-.071.086" transform="translate(-66.625 -228.774)" fill="#292949"/>
            <rect id="Rectángulo_44609" data-name="Rectángulo 44609" width="0.554" height="2.117" transform="matrix(0.997, -0.083, 0.083, 0.997, 4.353, 35.797)" fill="#dddae8"/>
            <rect id="Rectángulo_44610" data-name="Rectángulo 44610" width="0.554" height="2.117" transform="translate(6.086 35.652) rotate(-4.783)" fill="#dddae8"/>
            <path id="Trazado_599114" data-name="Trazado 599114" d="M111.978,257.687,75.412,260.8a.171.171,0,0,1-.182-.194l36.615-3.411Z" transform="translate(-73.416 -226.295)" fill="#eed5d5"/>
            <path id="Trazado_599115" data-name="Trazado 599115" d="M111.256,256.686,74.689,259.8a.171.171,0,0,1-.182-.194l36.615-3.411Z" transform="translate(-72.845 -225.504)" fill="#dddae8"/>
            <path id="Trazado_599116" data-name="Trazado 599116" d="M97.256,200.384s1.638,6.367.571,9.146l1.884.078-.859-10.129Z" transform="translate(-90.804 -180.732)" fill="#babcbe"/>
            <path id="Trazado_599117" data-name="Trazado 599117" d="M229.591,300.611a.7.7,0,0,1,.084-.178c.353-.482.826-.521,1.3-.887.21-.163.15-.843.674-.661.193.067.644.3,1.055.447a3.918,3.918,0,0,0,2.181-.075,20.141,20.141,0,0,0,2.784-.981c.914-.422,1.806-.892,2.676-1.4a9.886,9.886,0,0,0,2.425-1.545c.927-1.084-.147-3.726-.269-5.08-.127-1.411,0-5.567,1.9-5.684,3.12-.192,3.169,2.772,3.308,5.159a30.556,30.556,0,0,1-.053,4.5c-.187,2.083-1.537,3.275-3.321,4.261a30.391,30.391,0,0,1-5.9,2.691,23.1,23.1,0,0,1-3.034.559c-1.018.165-.888.609-1.743.981a8.415,8.415,0,0,1-1.433.626c-.913.208-1.644-.424-2.337-.914a1,1,0,0,1-.379-.38,1.45,1.45,0,0,1-.044-.9,2.807,2.807,0,0,1,.13-.534" transform="translate(-195.125 -247.893)" fill="#efbfa5"/>
            <path id="Trazado_599118" data-name="Trazado 599118" d="M285.734,251.941l-5.292,1.026c.113-.022-2.041-7.909-2.153-8.383a13.007,13.007,0,0,1-.491-5.508c.782-3.891,2.658-4.848,5.021-.76,2.23,3.859,5.727,8.478,5.034,12.87a.562.562,0,0,1-.093.271.572.572,0,0,1-.355.16Z" transform="translate(-233.212 -209.301)" fill="#968686"/>
            <path id="Trazado_599119" data-name="Trazado 599119" d="M524.135,213.2a23.363,23.363,0,0,0,8.389,3.1q.794-3.64,1.679-7.26a12.812,12.812,0,0,1,1.03-3.046c.271-.505,1.288-1.425.972-2.08-.554-1.147-2.967.122-3.656.5a20.807,20.807,0,0,0-4.853,3.859c-.341.358-3.874,4.737-3.562,4.927" transform="translate(-427.76 -183.856)" fill="#fd9827"/>
            <path id="Trazado_599120" data-name="Trazado 599120" d="M641.4,520.874l.163,9.932c-.067,2.756.181,5.5.349,8.249.156,2.551-.358,5.181.852,7.545.38.741,1.187,1.258,1.8.4.474-.66.256-1.8.373-2.569.879-5.758,2.516-11.373,3.332-17.141.855-6.043-1.483-5.883-6.871-6.419" transform="translate(-520.34 -434.436)" fill="#efbfa5"/>
            <path id="Trazado_599121" data-name="Trazado 599121" d="M641.683,633.675l-.638,1.657,3.142,2.766,2.879.119L648,636.7l-3.871-3.366Z" transform="translate(-520.062 -523.208)" fill="#292949"/>
            <path id="Trazado_599122" data-name="Trazado 599122" d="M577.865,519.131l-1.812,9.767c-.628,4.369-2.055,8.624-2.683,12.994a11.386,11.386,0,0,1-.491,3.051c-.411.927-1.215.964-1.925.335-.95-.842-.512-2.348-.494-3.5.116-7.668-.487-15.227-.632-22.907a.342.342,0,0,1,.08-.28.329.329,0,0,1,.235-.046c.746.05,7.682.8,7.722.585" transform="translate(-463.844 -432.596)" fill="#efbfa5"/>
            <path id="Trazado_599123" data-name="Trazado 599123" d="M568.99,636.9l-1,1.47,2.437,3.4,2.778.765,1.25-1.269-3.012-4.153Z" transform="translate(-462.397 -526.025)" fill="#292949"/>
            <path id="Trazado_599124" data-name="Trazado 599124" d="M572.156,427.936l-1.355-14.2-.653-9.226-2.2-7.536-11.864-1.841-14.668,2.514-.7,2.85,2.823,26.379,14.148,1.06-.192-16.418,2.182,10.176-.093,6.242Z" transform="translate(-440.863 -335.178)" fill="#292949"/>
            <path id="Trazado_599125" data-name="Trazado 599125" d="M558.563,212.171q-.03.719-.042,1.437c-.172,9.74.365,19.6.427,29.425a109.078,109.078,0,0,1,15.206-1.3c1.178-.018,6.535.81,7.281.106,1.012-.955-.1-.775-.027-2.019.1-1.609-.677-2.927-.385-4.834.343-2.241,1.026-4.458,1.419-6.7a97.748,97.748,0,0,0,1.417-13.6c.137-4.044-.01-8.238-1.749-11.891-4.288-9.01-18.115-8.848-21.908.56a26.386,26.386,0,0,0-1.639,8.814" transform="translate(-454.893 -178.119)" fill="#fff"/>
            <path id="Trazado_599126" data-name="Trazado 599126" d="M618.846,196.818l-3.755,6.843q.295,10.37.589,20.74.135,4.779.271,9.558c.031,1.106.059,2.213.094,3.319.016.5-.121,1.332.162,1.738.615.88,2.862.605,3.843.682a16.905,16.905,0,0,1,4.52.773,14.5,14.5,0,0,0,2.878,1.023.854.854,0,0,0,.66-.108.958.958,0,0,0,.252-.7c.351-4.746.359-9.639.622-14.436a111.3,111.3,0,0,0,.538-11.353,80.875,80.875,0,0,0-1.536-11.566,18.3,18.3,0,0,0-2.2-6.5c-1.409-2.195-3.4-3.074-5.861-3.568-.868-.175-4.1-1.4-3.559.577.267.976,1.824,2.195,2.482,2.979" transform="translate(-499.574 -175.404)" fill="#fd9827"/>
            <path id="Trazado_599127" data-name="Trazado 599127" d="M553.075,199.658l3.755,6.843c-.079,0-.476,16.775-.508,17.908q-.184,6.459-.367,12.918a23.739,23.739,0,0,1-.107,3.776c-.327,1.642-2.056,1.319-3.529,1.452a71.755,71.755,0,0,1-9.848.678c-.932-.047.295-19.5.293-21.317-.006-6.53-1.353-13.774,1.963-19.7.965-1.723,2.666-4.485,4.545-5.336,1.75-.793,4.256-.928,6.155-1.372l.1,1.231Z" transform="translate(-441.972 -177.601)" fill="#fd9827"/>
            <path id="Trazado_599128" data-name="Trazado 599128" d="M625.3,126.346a7.579,7.579,0,0,1,.929,3.421,1.085,1.085,0,0,0,.292.87c.274.2.033.64.242.372a5.847,5.847,0,0,0,.949-1.537,12.513,12.513,0,0,0,0-2.383,3.417,3.417,0,0,0-.658-1.933,3.883,3.883,0,0,0-.975-.742,4.981,4.981,0,0,0-1.619-.727c-1.008-.188-1.627.174-.737.877a6.153,6.153,0,0,1,1.581,1.782" transform="translate(-506.045 -120.865)" fill="#292949"/>
            <path id="Trazado_599129" data-name="Trazado 599129" d="M589.35,140.69c.007.488-.093.994.337,1.372a1.475,1.475,0,0,0,.759.3,4.7,4.7,0,0,0,2.112-.15,1.894,1.894,0,0,0,.77-.406.964.964,0,0,0,.274-.781c.014-.368.088-.741.136-1.114.105-.816.152-1.638.176-2.459,1.208-.207,2.629-.6,3.041-1.863a4.148,4.148,0,0,0,.138-1.256q.019-2.629.039-5.258a5.075,5.075,0,0,0-.2-1.794,3.648,3.648,0,0,0-2.2-1.946,7.891,7.891,0,0,0-7.154.437,3.9,3.9,0,0,0-1.434,1.442,6.131,6.131,0,0,0-.363,3.263q.109,1.539.217,3.077c.084,1.179.261,2.537,1.177,3.16.486.331,1.115.392,1.534.82.732.747.383,1.863.6,2.769a1.779,1.779,0,0,1,.042.39" transform="translate(-476.396 -121.691)" fill="#efbfa5"/>
            <path id="Trazado_599130" data-name="Trazado 599130" d="M597.517,163.9c-.02-.325-.161-1.277-.65-.679a.978.978,0,0,0-.167.586,2.21,2.21,0,0,1-.064.619,1.091,1.091,0,0,1-1.093.647,1.066,1.066,0,0,1-.513-.121,1.6,1.6,0,0,1-.389-.358l-.855-.981c-.49-.562-1.461-.319-2.121-.233a4.226,4.226,0,0,0-2.143.829c-.063.051-.124.1-.185.157a2.285,2.285,0,0,1-.475.342,1.465,1.465,0,0,1-1.727-.548c-.189-.245-.365-.561-.658-.6a.6.6,0,0,0-.57.347,1.721,1.721,0,0,0-.165.719,5.281,5.281,0,0,0,.459,2.642c.851,1.741,2.5,1.955,4.15,1.916l1.961-.046a6.206,6.206,0,0,0,3.465-.772,4.292,4.292,0,0,0,1.632-2.746,6.767,6.767,0,0,0,.111-1.719m-4.372,2.468a2.288,2.288,0,0,1-2.024.235c-.3-.09-.172-.59.127-.5a1.839,1.839,0,0,0,1.654-.182c.263-.177.505.271.243.447" transform="translate(-476.394 -151.959)" fill="#292949"/>
            <path id="Trazado_599131" data-name="Trazado 599131" d="M593.387,112.914a9.333,9.333,0,0,0,.255-1.294,2.561,2.561,0,0,1-1.267.108q0-.378,0-.756c0-.21-2.838-.356-3.068-.375-2.157-.177-4.13-.345-6.081.812a5.875,5.875,0,0,0-2.99,4.388,8.984,8.984,0,0,0,1.419,5.759,12.557,12.557,0,0,1-.172-2.107,4.151,4.151,0,0,1,.453-1.329,5.481,5.481,0,0,1,1.923-2.021,10.656,10.656,0,0,1,4.2-1.416,11.5,11.5,0,0,1,4.314,0c.639.171.745.332,1.132-.313a10.943,10.943,0,0,0,.556-1.442l-.672-.01" transform="translate(-472.014 -110.471)" fill="#292949"/>
            <path id="Trazado_599132" data-name="Trazado 599132" d="M472.251,276.559l-48.18,4.789-48.18-4.789a2.22,2.22,0,0,0-2.424,2.357l2.01,47.668a2.219,2.219,0,0,0,1.98,2.08c7.927.815,38.863,3.9,42.331,4.3a.524.524,0,0,1,.41.281c.233.454,1.069,1.382,3.873,1.382s3.64-.929,3.872-1.382a.525.525,0,0,1,.41-.281c3.468-.394,34.4-3.483,42.331-4.3a2.219,2.219,0,0,0,1.98-2.08l2.01-47.668a2.22,2.22,0,0,0-2.424-2.357" transform="translate(-308.837 -241.569)" fill="#353a85"/>
            <path id="Trazado_599133" data-name="Trazado 599133" d="M472.251,272.813l-48.18,4.79-48.18-4.79a2.22,2.22,0,0,0-2.424,2.357l2.01,47.668a2.219,2.219,0,0,0,1.98,2.08c7.927.815,38.863,3.9,42.331,4.3a.524.524,0,0,1,.41.281c.233.454,1.069,1.382,3.873,1.382s3.64-.929,3.872-1.382a.525.525,0,0,1,.41-.281c3.468-.394,34.4-3.483,42.331-4.3a2.219,2.219,0,0,0,1.98-2.08l2.01-47.668a2.22,2.22,0,0,0-2.424-2.357" transform="translate(-308.837 -238.612)" fill="#5d66d3"/>
            <path id="Trazado_599134" data-name="Trazado 599134" d="M447.548,257.811a56.563,56.563,0,0,0-44.574-8.124v51.557c30.937-6.277,44.393,6.725,44.393,6.725s13.456-13,44.393-6.725V249.687s-22.015-6.72-44.211,8.124" transform="translate(-332.133 -219.168)" fill="#dfd8c7"/>
            <path id="Trazado_599135" data-name="Trazado 599135" d="M386.327,255.375a11.93,11.93,0,0,1-4.442,6.276l2.221,49.259s2.221-1.737,2.221-3.979Z" transform="translate(-315.486 -224.856)" fill="#c1bbac"/>
            <path id="Trazado_599136" data-name="Trazado 599136" d="M824.522,255.375a11.93,11.93,0,0,0,4.442,6.276l-2.221,49.259s-2.221-1.737-2.221-3.979Z" transform="translate(-664.895 -224.856)" fill="#c1bbac"/>
            <path id="Trazado_599137" data-name="Trazado 599137" d="M392.429,497.407s30.858-7.061,44.654,5.38h1.96v-2.634s-13.927-13.226-44.392-6.725Z" transform="translate(-323.809 -411.352)" fill="#cbc4b5"/>
            <path id="Trazado_599138" data-name="Trazado 599138" d="M660.362,497.407s-30.858-7.061-44.654,5.38h-1.96v-2.634s13.926-13.226,44.393-6.725Z" transform="translate(-498.515 -411.352)" fill="#cbc4b5"/>
            <path id="Trazado_599139" data-name="Trazado 599139" d="M434.853,238.908c-2.674-.265-5.328-.372-7.855-.4-1.165-.012-10.746.354-10.746.68V291.07c0-.328,9.6-.692,10.771-.68,8.248.087,17.516,1.6,24.809,5.624,1.218.673,6.161,3.32,6.161,5.18V250.7a4.064,4.064,0,0,0-1.089-2.778c-5.538-5.927-13.89-8.207-22.052-9.015" transform="translate(-342.614 -211.543)" fill="#f4f4f4"/>
            <path id="Trazado_599140" data-name="Trazado 599140" d="M637.578,238.908c2.674-.265,5.328-.372,7.855-.4,1.165-.012,10.746.354,10.746.68V291.07c0-.328-9.6-.692-10.771-.68-8.248.087-17.516,1.6-24.81,5.624-1.218.673-6.161,3.32-6.161,5.18V250.7a4.064,4.064,0,0,1,1.089-2.778c5.538-5.927,13.89-8.207,22.052-9.015" transform="translate(-499.059 -211.543)" fill="#fff"/>
            <g id="Grupo_158385" data-name="Grupo 158385" transform="translate(115.379 26.967)" opacity="0.05">
              <g id="Grupo_158384" data-name="Grupo 158384">
                <g id="Grupo_158383" data-name="Grupo 158383" clip-path="url(#clip-path-4)">
                  <path id="Trazado_599141" data-name="Trazado 599141" d="M637.578,238.908c2.674-.265,5.328-.372,7.855-.4,1.165-.012,10.746.354,10.746.68V291.07c0-.328-9.6-.692-10.771-.68-8.248.087-17.516,1.6-24.81,5.624-1.218.673-6.161,3.32-6.161,5.18V250.7a4.064,4.064,0,0,1,1.089-2.778c5.538-5.927,13.89-8.207,22.052-9.015" transform="translate(-614.438 -238.511)" fill="#272525"/>
                </g>
              </g>
            </g>
            <g id="Grupo_158388" data-name="Grupo 158388" transform="translate(115.379 41.654)" opacity="0.05">
              <g id="Grupo_158387" data-name="Grupo 158387">
                <g id="Grupo_158386" data-name="Grupo 158386" clip-path="url(#clip-path-5)">
                  <path id="Trazado_599142" data-name="Trazado 599142" d="M614.438,308.239v48c0-1.861,4.942-4.508,6.161-5.18,5.848-3.229,12.966-4.837,19.81-5.393v0c-21.094-9.162-25.239-31.588-25.971-37.422" transform="translate(-614.438 -308.239)" fill="#272525"/>
                </g>
              </g>
            </g>
            <path id="Trazado_599143" data-name="Trazado 599143" d="M917.589,294.4a.808.808,0,0,0-.217-.072c-.688-.087-1.1.28-1.782.385-.3.047-.831-.546-1.1.041-.1.216-.261.782-.465,1.246a4.549,4.549,0,0,1-1.8,1.779,32.375,32.375,0,0,1-9.258,3.249,1.179,1.179,0,0,1-.555.036c-.325-.084-.513-.413-.671-.709a25.154,25.154,0,0,0-2.567-3.894,9.4,9.4,0,0,0-3.109-2.722,4.224,4.224,0,0,0-3.993.024,3.3,3.3,0,0,0-1.525,2.585c-.133,2.576,3.261,4.215,5.035,5.534a44.74,44.74,0,0,0,5.282,3.379,1.932,1.932,0,0,0,.72.272,1.959,1.959,0,0,0,.8-.152,97.715,97.715,0,0,0,9.811-4.09c.885-.414,1.44-1.242,2.263-1.618.524-.24,1.109-.051,1.654-.167a5.366,5.366,0,0,0,1.676-.711c.9-.6.954-1.725,1.095-2.7a1.167,1.167,0,0,0-.018-.623,1.684,1.684,0,0,0-.726-.756,3.277,3.277,0,0,0-.554-.317" transform="translate(-717.011 -254.756)" fill="#efbfa5"/>
            <path id="Trazado_599144" data-name="Trazado 599144" d="M867.724,263.113l5.087-3.644c-.109.078-5.041-8.032-5.351-8.5a15.1,15.1,0,0,0-4.253-4.81,4.878,4.878,0,0,0-7.338,5.609A25.684,25.684,0,0,0,865.4,264.3a.651.651,0,0,0,.3.138.666.666,0,0,0,.419-.171l1.606-1.151" transform="translate(-689.423 -216.945)" fill="#dddae8"/>
            <path id="Trazado_599145" data-name="Trazado 599145" d="M894.424,627.167l-.074,5.236,3.1.041.082-5.805Z" transform="translate(-720.017 -517.925)" fill="#efbfa5"/>
            <path id="Trazado_599146" data-name="Trazado 599146" d="M894.643,650.307l-2.7.892-.8.866.136,2.052,7.295.567a1.624,1.624,0,0,0-.813-2.468l-.34-.117Z" transform="translate(-717.482 -536.608)" fill="#292949"/>
            <path id="Trazado_599147" data-name="Trazado 599147" d="M780.834,605.313l-2.055,4.817,2.855,1.215,2.278-5.34Z" transform="translate(-628.786 -501.09)" fill="#efbfa5"/>
            <path id="Trazado_599148" data-name="Trazado 599148" d="M778.092,628.583a2.349,2.349,0,0,0-.36-.322c-.343-.251-3.109-1.716-3.346-1.056a.739.739,0,0,0-.013.338,25.172,25.172,0,0,0,1.326,5.576c.279.77.7,1.623,1.5,1.814a2.353,2.353,0,0,0,1.066-.057,11.047,11.047,0,0,0,1.519-.461.84.84,0,0,0,.467-.324c.188-.339-.14-.741-.482-.924s-.759-.314-.926-.664a1.337,1.337,0,0,1-.095-.509c-.07-1.288.149-2.525-.655-3.412" transform="translate(-625.298 -518.238)" fill="#292949"/>
            <path id="Trazado_599149" data-name="Trazado 599149" d="M802.026,406.461c-1.018,4.655-3.928,8-7.036,11.422a147.4,147.4,0,0,0-10.019,12.3L780.93,428.5c1.126-6.541,4.229-12.543,6.633-18.73a39.384,39.384,0,0,0,3.1-13.491,44.157,44.157,0,0,0-.823-6.671c-.371-2.784-.393-5.637-.728-8.434-.112-.938-.177-2.047.545-2.657a2.484,2.484,0,0,1,1.157-.466c15.314-2.966,13.15,19.557,11.214,28.409" transform="translate(-630.485 -321.484)" fill="#babcbe"/>
            <path id="Trazado_599150" data-name="Trazado 599150" d="M821.859,369.251a31.763,31.763,0,0,1,.865-7.622,56.149,56.149,0,0,1,13.588,1.123c4.211.854,6.837,1.771,6.867,6.337.056,8.4,3.34,15.559,4.758,23.635.824,4.693-.6,8.891-2.178,13.238a147.45,147.45,0,0,0-4.6,15.183l-4.378-.026c-1.44-6.479-.846-13.21-.968-19.846a39.372,39.372,0,0,0-2.252-13.658c-1.863-4.756-4.546-2.863-7.625-5.621-2.993-2.682-4.06-7.864-4.075-12.742" transform="translate(-662.793 -308.684)" fill="#babcbe"/>
            <path id="Trazado_599151" data-name="Trazado 599151" d="M815.476,240.286a11.669,11.669,0,0,0-1.322,1.268l-1.123,1.2a13.431,13.431,0,0,0-2.492,5.2c-2.924,9.3-3.977,22.049-2.078,31.762,7.2.622,15.538-1.194,22.725-2.175a1.807,1.807,0,0,0,2.079-2.1c0-6.166-1.3-12.793-2.526-18.872a66.442,66.442,0,0,0-1.966-7.6c-.862-2.633-1.835-5.476-3.853-7.467-2.16-2.131-6.3-3.184-9-1.52a5.019,5.019,0,0,0-.445.309" transform="translate(-651.463 -212.054)" fill="#785549"/>
            <path id="Trazado_599152" data-name="Trazado 599152" d="M829.465,184.72l-.391-2.516a4.687,4.687,0,0,1-.5-.274c-3-1.918-8.042-12.216-.035-14.521,7.27-2.093,6.892,7.908,5.473,12.078a6.2,6.2,0,0,1-1.048,1.973c-.329.4-.4.324-.355.788s.492.956.594,1.429a1.924,1.924,0,0,1-.225,1.488,1.987,1.987,0,0,1-.721.6,2.258,2.258,0,0,1-1.454.271,1.829,1.829,0,0,1-1.343-1.318" transform="translate(-664.666 -155.192)" fill="#efbfa5"/>
            <path id="Trazado_599153" data-name="Trazado 599153" d="M868.357,191.27a9.566,9.566,0,0,1-1.848,3.767c-1.519,1.937-.256-4.928-.883-7.309a.708.708,0,0,1,0-.547.664.664,0,0,1,.451-.242c3.062-.662,3.053,2.012,2.277,4.331" transform="translate(-697.3 -170.753)" fill="#292949"/>
            <path id="Trazado_599154" data-name="Trazado 599154" d="M815.407,180.8c-.491.691-1.567.505-2.325.124a8.246,8.246,0,0,1-4.253-8.744c.578-2.857,4.178-5,4.906-1.46.258,1.255-.506,2.993-.331,4.386a20.176,20.176,0,0,0,2,5.694" transform="translate(-652.393 -156.572)" fill="#292949"/>
            <path id="Trazado_599155" data-name="Trazado 599155" d="M840.077,150.419c.349.138.7.283,1.077.429a2.149,2.149,0,0,0,2.132-.049c.228-.13,1.757-1.575,1.389-1.875,2.439,1.99.433,4.894-.481,6.949-.617,1.386-.744,3.342-2.129,4.247-1.524,1-2.57-.263-3.954-.828-1.221-.5-2.54-.767-3.782-1.21-2.061-.735-5.128-2.027-4.445-4.765.8-3.2,4.037-3.995,6.948-3.751a10.87,10.87,0,0,1,3.245.852" transform="translate(-669.052 -140.825)" fill="#292949"/>
            <path id="Trazado_599156" data-name="Trazado 599156" d="M1005.089,258.487l-7.54-11.347V208.59a.683.683,0,0,1,1.252-.378l6.288,9.464Z" transform="translate(-801.481 -187.385)" fill="#353a85"/>
            <path id="Trazado_599157" data-name="Trazado 599157" d="M997.474,220.074,991,210.467l-2.673.555,7.757,9.714v40.115l1.389-.343Z" transform="translate(-794.201 -189.406)" fill="#fff"/>
            <path id="Trazado_599158" data-name="Trazado 599158" d="M886.728,236.04l4.618-1.678,24.538,5.237V278.42l-29.156-5.251Z" transform="translate(-714 -208.268)" fill="#fff"/>
            <path id="Trazado_599159" data-name="Trazado 599159" d="M904.03,286.255,875.418,282.3a1.363,1.363,0,0,1-1.1-1.337V242.926a1.363,1.363,0,0,1,1.627-1.337l28.084,3.853Z" transform="translate(-704.204 -213.952)" fill="#353a85"/>
            <path id="Trazado_599160" data-name="Trazado 599160" d="M1019.147,254.293c-.071.286-.788.726-1.724,1.039-1.012.338-1.909.4-2.046.156l-.012,0V296.2a.163.163,0,0,0,0,.087v.018l.006,0c.114.262,1.023.2,2.052-.144s1.806-.849,1.724-1.126Z" transform="translate(-815.539 -224.001)" fill="#5d66d3"/>
            <path id="Trazado_599161" data-name="Trazado 599161" d="M988.328,213.1v8.059l7.757,1.655Z" transform="translate(-794.201 -191.486)" fill="#dfd8c7"/>
            <path id="Trazado_599162" data-name="Trazado 599162" d="M941.456,237.452l-22.333-5.809v1.043Z" transform="translate(-739.572 -206.122)" fill="#cbc4b5"/>
            <path id="Trazado_599163" data-name="Trazado 599163" d="M890.4,398.221l23.576,3.262v5.28L890.4,403.5Z" transform="translate(-716.894 -337.616)" fill="#8cabef"/>
            <g id="Grupo_158391" data-name="Grupo 158391" transform="translate(171.213 31.49)" opacity="0.08">
              <g id="Grupo_158390" data-name="Grupo 158390">
                <g id="Grupo_158389" data-name="Grupo 158389" clip-path="url(#clip-path-6)">
                  <path id="Trazado_599164" data-name="Trazado 599164" d="M879.535,296.839l28.613,3.958V259.984s-3.757,30.978-28.613,36.855" transform="translate(-879.535 -259.984)" fill="#272525"/>
                </g>
              </g>
            </g>
            <path id="Trazado_599165" data-name="Trazado 599165" d="M862.318,338.59a.808.808,0,0,0-.171-.152c-.6-.354-1.119-.181-1.788-.358-.3-.079-.545-.832-1.021-.4-.176.16-.552.613-.923.957a4.549,4.549,0,0,1-2.364.912,32.386,32.386,0,0,1-9.785-.714,1.181,1.181,0,0,1-.524-.189,1.239,1.239,0,0,1-.332-.918,25.185,25.185,0,0,0-.8-4.595,9.391,9.391,0,0,0-1.765-3.736,4.224,4.224,0,0,0-3.671-1.571,3.3,3.3,0,0,0-2.43,1.762c-1.15,2.309,1.309,5.166,2.409,7.083a44.756,44.756,0,0,0,3.5,5.206,1.921,1.921,0,0,0,.551.537,1.95,1.95,0,0,0,.8.181,97.752,97.752,0,0,0,10.628.164c.977-.027,1.816-.564,2.72-.581.577-.011,1.037.4,1.583.506a5.371,5.371,0,0,0,1.821.017c1.07-.193,1.563-1.2,2.081-2.04a1.166,1.166,0,0,0,.232-.579,1.685,1.685,0,0,0-.364-.983,3.271,3.271,0,0,0-.382-.512" transform="translate(-674.307 -282.022)" fill="#efbfa5"/>
            <path id="Trazado_599166" data-name="Trazado 599166" d="M825.865,291.859l6.119-1.312c-.131.028-1.418-9.376-1.514-9.934a15.1,15.1,0,0,0-1.981-6.107,4.878,4.878,0,0,0-8.966,2.216,25.684,25.684,0,0,0,3.735,15.294.653.653,0,0,0,.223.247.667.667,0,0,0,.452.01l1.932-.414" transform="translate(-660.882 -238.198)" fill="#785549"/>
            <path id="Trazado_599167" data-name="Trazado 599167" d="M398.127,596.35a5.867,5.867,0,0,0-3.4-4.909,17.678,17.678,0,0,0-5.326-1.192,70.776,70.776,0,0,0-11.966-.875c-3.259.128-5.268,2.909-6.794,5.651-.961,1.729-.694,2.539.516,3.987a14.63,14.63,0,0,0,3.983,3.33c3,1.7,7.6,1.281,10.9.914a25.451,25.451,0,0,0,8.938-2.728c1.788-.933,3.4-2.034,3.15-4.179" transform="translate(-306.152 -488.485)" fill="#292949"/>
            <path id="Trazado_599168" data-name="Trazado 599168" d="M399.758,645.267a38.463,38.463,0,0,0-1.415,3.878,6.571,6.571,0,0,0-.381,2.142c.063,1.7,1.96,2.939,3.2,1.363a8.567,8.567,0,0,0,1.286-2.288c.455-1.213-.505-.506-1.316-.879-.934-.429-.911-.763-.515-1.638.511-1.127,1.115-1.862,1.043-3.159a.993.993,0,0,0-.451-.914.726.726,0,0,0-.749.183,2.061,2.061,0,0,0-.429.688q-.139.311-.273.624" transform="translate(-328.175 -531.416)" fill="#292949"/>
            <path id="Trazado_599169" data-name="Trazado 599169" d="M425.72,412.015l3.3.321a20.782,20.782,0,0,0,.3-2.943c.958-.166,2.086-.481,2.415-1.5a3.422,3.422,0,0,0,.111-1.017q.019-2.129.038-4.259a4.2,4.2,0,0,0-.158-1.453,2.913,2.913,0,0,0-1.741-1.579,6.145,6.145,0,0,0-5.676.344,3.132,3.132,0,0,0-1.139,1.166,5.061,5.061,0,0,0-.293,2.642l.168,2.492a3.329,3.329,0,0,0,.929,2.561c.385.269.884.319,1.216.666.585.612.315,1.7.531,2.564" transform="translate(-347.811 -338.269)" fill="#b97262"/>
            <path id="Trazado_599170" data-name="Trazado 599170" d="M445.989,390.851a1.387,1.387,0,0,1,.116.241c.161.438.066.937.223,1.377.249.7,1.074,1.1,1.21,1.83.111.595-.286,1.169-.31,1.773-.026.66.408,1.277.354,1.93a4.313,4.313,0,0,1-.721,1.828c.1-.142,1.05-.109,1.293-.264a.994.994,0,0,0,.518-.776,7.918,7.918,0,0,1,.177-1.176c.2-.493.634-.86.778-1.385.2-.716-.2-1.461-.18-2.2.025-1.123.976-2.2.6-3.258-.218-.622-.833-1.011-1.184-1.569a8.459,8.459,0,0,1-.56-1.389,1.669,1.669,0,0,0-.989-1.059,8.164,8.164,0,0,0-.829-.082,10.217,10.217,0,0,1-1.33-.545A2.5,2.5,0,0,0,443,387.154a1.139,1.139,0,0,0,.225,1.494c.657.8,2.218,1.3,2.765,2.2" transform="translate(-363.575 -328.036)" fill="#292949"/>
            <path id="Trazado_599171" data-name="Trazado 599171" d="M404.947,384.688a12.325,12.325,0,0,0-1.214.85,3.67,3.67,0,0,0-.8,2.663,17.792,17.792,0,0,0-.257,2.492,2.164,2.164,0,0,0,.825,1.531c.61.426,1.556.48,1.836,1.169.3.748-.458,1.71.027,2.356.268.356.781.4,1.159.636a3.288,3.288,0,0,1,.907,1.165,1.507,1.507,0,0,0,1.149.845,4.141,4.141,0,0,0-.317-2.041c-.2-.4-.762-1.132-.345-1.576.262-.368.893-.5.9-.947a1.042,1.042,0,0,0-.267-.564,2.593,2.593,0,0,1-.233-2.353,3.371,3.371,0,0,1,1.643-1.755c.857-.434.714-.643.95-1.475.218-.766.647-.952,1.327-1.242a1.445,1.445,0,0,0,1.023-1,1.677,1.677,0,0,0,.1-1.4,2.84,2.84,0,0,0-.887-.88,3.693,3.693,0,0,0-2.376-.987c-.486.044-.939.281-1.425.317-.324.024-.648-.042-.974-.047a2.586,2.586,0,0,0-1.579.508c-.447.341-.427.689-.671,1.166a1.69,1.69,0,0,1-.505.57" transform="translate(-331.878 -324.943)" fill="#292949"/>
            <path id="Trazado_599172" data-name="Trazado 599172" d="M388.659,365.138c.076-.528.009-1.213-.5-1.382-.277-.092-.584.02-.872-.033-.613-.113-.834-.849-1.163-1.377a.46.46,0,0,0-.194-.2.75.75,0,0,0-.393.017c-.606.085-1.078-.506-1.654-.713a1.436,1.436,0,0,0-1.8.932c-.082.3-.061.621-.138.923-.311,1.222-2.083,1.771-2.106,3.032-.015.852.832,1.653.523,2.447-.2.508-.841.863-.757,1.4a.751.751,0,0,0,.778.565,1.51,1.51,0,0,0,.929-.444c.412-.373.72-.849,1.112-1.243a1.9,1.9,0,0,1,1.472-.659c.536.057,1.027.465,1.557.366.424-.079.733-.464,1.148-.578a3.929,3.929,0,0,1,1.2.056c.4.017.893-.2.9-.6a1.016,1.016,0,0,1,0-.291c.082-.261.526-.254.605-.516-.216-.32-.51-.2-.668-.619a2.327,2.327,0,0,1,.015-1.081" transform="translate(-313.685 -308.535)" fill="#292949"/>
            <path id="Trazado_599173" data-name="Trazado 599173" d="M394.8,453.728c1.535-.2,3.094-.483,4.38.078,1.089.475,1.07,1.85,1.314,2.89.806,3.44,1.411,6.922,1.885,10.422a37.973,37.973,0,0,1,.609,5.156c-.008,1.356-.347,2.675-.243,4.057a3.04,3.04,0,0,0,1.5,2.643c.489.219,1.052.229,1.542.445s.91.794.664,1.269a1.322,1.322,0,0,1-.575.487l-3.639,2.029a19.442,19.442,0,0,1-2.856,1.394,15.36,15.36,0,0,1-4.428.757,36.455,36.455,0,0,1-11.526-1.264c-2.015-.556-3.961-1.542-3.472-3.821a30.584,30.584,0,0,1,2.525-6.834c1.27-2.6,1.646-5.734,2.546-8.478.912-2.781,1.876-5.544,2.847-8.3l.011-.031a6.957,6.957,0,0,1,1.282-2.826c1.07-1.12,1.586-.23,2.8,0a9.134,9.134,0,0,0,2.828-.065" transform="translate(-313.903 -381.048)" fill="#fff"/>
            <path id="Trazado_599174" data-name="Trazado 599174" d="M456.937,647.757l1.048.056a1.474,1.474,0,0,0,1.086-.228.973.973,0,0,0,.027-1.267,2.282,2.282,0,0,0-1.171-.71,12.424,12.424,0,0,0-3.314-.491.8.8,0,0,0-.332.034.685.685,0,0,0-.346.45c-.635,1.928,1.644,2.083,3,2.156" transform="translate(-372.274 -532.509)" fill="#b97262"/>
            <path id="Trazado_599175" data-name="Trazado 599175" d="M404.694,655.673a.841.841,0,0,0,.031.462.609.609,0,0,0,.234.243c.721.459,1.69-.035,2.241-.688a9.719,9.719,0,0,1,1.629-1.963c1.611-1.109.136-3.141-1.547-2.675-1.965.544-2.377,2.9-2.587,4.621" transform="translate(-333.477 -537.142)" fill="#b97262"/>
            <path id="Trazado_599176" data-name="Trazado 599176" d="M433.46,588a7.932,7.932,0,0,0,3.294-3.9,4.667,4.667,0,0,0-2-5.145c-2.188-1.21-4.337.277-5.9,1.681-3.2,2.873-6.678,5.412-10.084,8.04-1.151.888-5.143,4.158-5.143,4.158-.11.461,2.036,4.63,2.6,4.478,6.212-1.643,12.254-5.653,17.229-9.31" transform="translate(-340.538 -479.931)" fill="#292949"/>
            <path id="Trazado_599177" data-name="Trazado 599177" d="M346.4,596.526a5.61,5.61,0,0,1-3.27-3.054,5.814,5.814,0,0,1,1.761-5.671c2.057-1.779,4.158-.846,5.694.155,3.145,2.048,6.555,3.689,9.893,5.438,1.128.591,5.048,2.831,5.048,2.831.119.433-1.808,5.164-2.357,5.158-5.994-.035-11.9-2.485-16.769-4.857" transform="translate(-284.745 -486.475)" fill="#292949"/>
            <path id="Trazado_599178" data-name="Trazado 599178" d="M451.888,651.888a38.955,38.955,0,0,0,3.845,1.621,6.643,6.643,0,0,0,2.143.491c1.724.021,3.065-1.833,1.535-3.163a8.656,8.656,0,0,0-2.246-1.412c-1.2-.519-.536.485-.953,1.285-.479.922-.815.882-1.679.439-1.113-.572-1.825-1.219-3.138-1.21a1,1,0,0,0-.945.41.734.734,0,0,0,.147.766,2.079,2.079,0,0,0,.673.467q.307.156.616.306" transform="translate(-369.567 -535.798)" fill="#292949"/>
            <path id="Trazado_599179" data-name="Trazado 599179" d="M542.684,535.526a.9.9,0,0,1-.036-.248c.039-.76.514-1.132.759-1.85.109-.32-.43-1,.256-1.175.71-.177,2.083-.057,2.564-.707.212-.287.474-.665.821-.579a.7.7,0,0,1,.3.2c2.906,2.81.081,6.2-3.086,6.09a1.277,1.277,0,0,1-.669-.14,1.848,1.848,0,0,1-.677-.929,3.589,3.589,0,0,1-.236-.659" transform="translate(-442.389 -442.393)" fill="#b97262"/>
            <path id="Trazado_599180" data-name="Trazado 599180" d="M556.976,528.679a1.877,1.877,0,0,0,2.1-.608,2.8,2.8,0,0,0,.5-2.214,5.669,5.669,0,0,0-.921-2.133,4.455,4.455,0,0,0-2.005-1.847,4.534,4.534,0,0,0-1.519-.237,1.341,1.341,0,0,0-.983.254,1.283,1.283,0,0,0-.305.67c-.348,1.582-.074,1.812.962,2.864a12.476,12.476,0,0,1,2.172,3.25" transform="translate(-451.113 -435.04)" fill="#fff"/>
            <path id="Trazado_599181" data-name="Trazado 599181" d="M342.741,463.259V460.83s13.024-1.21,20.857,4.006Z" transform="translate(-284.586 -386.942)" fill="#dfd8c7"/>
            <path id="Trazado_599182" data-name="Trazado 599182" d="M330.074,465.083l1.744-1.344a39.063,39.063,0,0,1,21.781,3.181v28.955s-7.546-5.426-23.525-3.3Z" transform="translate(-274.587 -389.025)" fill="#fff"/>
            <path id="Trazado_599183" data-name="Trazado 599183" d="M462.625,463.259V460.83s-13.024-1.21-20.857,4.006Z" transform="translate(-362.756 -386.942)" fill="#dfd8c7"/>
            <path id="Trazado_599184" data-name="Trazado 599184" d="M465.293,465.083l-1.744-1.344a39.063,39.063,0,0,0-21.781,3.181v28.955s7.546-5.426,23.525-3.3Z" transform="translate(-362.756 -389.025)" fill="#fff"/>
            <path id="Trazado_599185" data-name="Trazado 599185" d="M439.744,469.83c1.214-.066,2.137-.355,2.187-.7,0-.007.008-.015.021-.023l-.018-.008.062-.016c.345-.154,1.972-.479,2.467-.586l.1-.023.02,0a37.2,37.2,0,0,1,4.189-.792,39.938,39.938,0,0,1,11.48-.365,11.845,11.845,0,0,1,2.4.531,2.823,2.823,0,0,1,.4.168h0a1.638,1.638,0,0,1,.657.6,2.015,2.015,0,0,1,.241,1.152v25.573c0,.722-.6,1.437-1.306,1.306a41.434,41.434,0,0,0-10.659-.583,44.469,44.469,0,0,0-8.551,1.4,14.213,14.213,0,0,0-2.882.89.919.919,0,0,1-.433.109.925.925,0,0,1-.2-.023q-.1-.037-.2-.073a.916.916,0,0,1-.508-.82V470.453c0-.217.19-.427.543-.623" transform="translate(-360.73 -391.95)" fill="#353a85"/>
            <path id="Trazado_599186" data-name="Trazado 599186" d="M351.084,469.83c-1.214-.066-2.137-.355-2.187-.7,0-.007-.008-.015-.02-.023l.018-.008-.062-.016c-.345-.154-1.972-.479-2.466-.586l-.1-.023-.02,0a37.217,37.217,0,0,0-4.189-.792,39.938,39.938,0,0,0-11.48-.365,11.841,11.841,0,0,0-2.4.531,2.816,2.816,0,0,0-.4.168h0a1.639,1.639,0,0,0-.657.6,2.015,2.015,0,0,0-.24,1.152v25.573c0,.722.6,1.437,1.306,1.306a41.434,41.434,0,0,1,10.659-.583,44.474,44.474,0,0,1,8.551,1.4,14.215,14.215,0,0,1,2.882.89.919.919,0,0,0,.433.109.925.925,0,0,0,.2-.023q.1-.037.2-.073a.916.916,0,0,0,.508-.82V470.453c0-.217-.19-.427-.543-.623" transform="translate(-272.066 -391.95)" fill="#353a85"/>
            <g id="Grupo_158394" data-name="Grupo 158394" transform="translate(58.155 82.296)" opacity="0.1">
              <g id="Grupo_158393" data-name="Grupo 158393">
                <g id="Grupo_158392" data-name="Grupo 158392" clip-path="url(#clip-path-7)">
                  <path id="Trazado_599187" data-name="Trazado 599187" d="M361.409,501.21s-2.6,16.9-18.668,22.068h0a41.42,41.42,0,0,1,8.625-.259,44.457,44.457,0,0,1,8.551,1.4,14.211,14.211,0,0,1,2.882.89.91.91,0,0,0,.258.092.922.922,0,0,0,.38-.006q.1-.037.2-.073a.915.915,0,0,0,.508-.82v-23.3Z" transform="translate(-342.741 -501.21)" fill="#272525"/>
                </g>
              </g>
            </g>
            <path id="Trazado_599188" data-name="Trazado 599188" d="M433.575,477.428c-1.215,0-2.2-.345-2.194-.68l-.006,28.953c0,.415.985.751,2.2.751s2.2-.336,2.2-.751V476.756c-.107.382-.985.673-2.2.673" transform="translate(-354.552 -399.604)" fill="#5d66d3"/>
            <g id="Grupo_158397" data-name="Grupo 158397" transform="translate(54.814 75.102)" opacity="0.2">
              <g id="Grupo_158396" data-name="Grupo 158396">
                <g id="Grupo_158395" data-name="Grupo 158395" clip-path="url(#clip-path-8)">
                  <path id="Trazado_599189" data-name="Trazado 599189" d="M375.044,468.608a1.637,1.637,0,0,0-.656-.6h0a2.822,2.822,0,0,0-.4-.168,11.825,11.825,0,0,0-2.4-.531,39.926,39.926,0,0,0-11.48.365,37.2,37.2,0,0,0-4.189.792l-.02,0-.1.023c-.495.106-2.122.432-2.467.585l-.062.016.018.008c-.012.008-.019.016-.02.023a.24.24,0,0,1-.024.074,2.912,2.912,0,0,1-2.154.576c-1.165,0-2.118-.318-2.189-.639,0,0,0-.007,0-.011h0a.154.154,0,0,1,0-.03v.024a.06.06,0,0,0-.018-.017l.018-.008-.062-.016c-.345-.154-1.972-.479-2.467-.585l-.1-.023-.02,0a37.211,37.211,0,0,0-4.189-.792,39.926,39.926,0,0,0-11.48-.365,11.827,11.827,0,0,0-2.4.531,2.832,2.832,0,0,0-.4.168h0a1.636,1.636,0,0,0-.657.6,2.014,2.014,0,0,0-.24,1.151v.481a2.014,2.014,0,0,1,.24-1.151,1.638,1.638,0,0,1,.657-.6h0a2.8,2.8,0,0,1,.4-.168,11.83,11.83,0,0,1,2.4-.531,39.922,39.922,0,0,1,11.48.365,37.2,37.2,0,0,1,4.189.792l.02,0,.1.023c.495.106,2.122.432,2.467.586l.062.015a.153.153,0,0,0,0,.03h0s0,.008,0,.011c.071.321,1.024.639,2.189.639a2.911,2.911,0,0,0,2.154-.576.24.24,0,0,0,.024-.074c0-.007.008-.014.02-.023l-.018-.008.062-.015c.345-.154,1.972-.479,2.467-.586l.1-.023.02,0a37.189,37.189,0,0,1,4.189-.792,39.922,39.922,0,0,1,11.48-.365,11.827,11.827,0,0,1,2.4.531,2.794,2.794,0,0,1,.4.168h0a1.639,1.639,0,0,1,.656.6,2.015,2.015,0,0,1,.241,1.151v-.481a2.014,2.014,0,0,0-.241-1.151" transform="translate(-326.881 -467.052)" fill="#272525"/>
                </g>
              </g>
            </g>
            <g id="Grupo_158400" data-name="Grupo 158400" transform="translate(76.823 77.144)" opacity="0.1">
              <g id="Grupo_158399" data-name="Grupo 158399">
                <g id="Grupo_158398" data-name="Grupo 158398" clip-path="url(#clip-path-9)">
                  <path id="Trazado_599190" data-name="Trazado 599190" d="M431.381,476.748l-.006,28.953c0,.35.7.644,1.648.727V477.4c-.948-.084-1.647-.374-1.642-.656" transform="translate(-431.375 -476.748)" fill="#272525"/>
                </g>
              </g>
            </g>
            <path id="Trazado_599191" data-name="Trazado 599191" d="M480.929,482.507a38.45,38.45,0,0,0-11.058.352c-.979.13-2.685.478-3.571.665a.718.718,0,0,0-.571.7v5.848a.719.719,0,0,0,.874.7,43.27,43.27,0,0,1,6.933-1.251,36.066,36.066,0,0,1,7.742.251.719.719,0,0,0,.815-.712V483.3a.718.718,0,0,0-.6-.709q-.28-.046-.564-.081" transform="translate(-381.671 -403.954)" fill="#5d66d3"/>
            <path id="Trazado_599192" data-name="Trazado 599192" d="M324.248,522.269a.889.889,0,0,0,.036-.248c-.039-.759-.514-1.132-.759-1.85-.109-.32.43-1-.256-1.175-.71-.178-2.083-.058-2.564-.708-.212-.287-.474-.665-.821-.579a.7.7,0,0,0-.3.2c-2.906,2.81-.081,6.2,3.086,6.09a1.278,1.278,0,0,0,.669-.139,1.849,1.849,0,0,0,.677-.929,3.577,3.577,0,0,0,.235-.659" transform="translate(-265.345 -431.929)" fill="#b97262"/>
            <path id="Trazado_599193" data-name="Trazado 599193" d="M309.942,515.422a1.877,1.877,0,0,1-2.1-.608,2.8,2.8,0,0,1-.5-2.214,5.67,5.67,0,0,1,.921-2.133,4.456,4.456,0,0,1,2.005-1.847,4.53,4.53,0,0,1,1.519-.237,1.342,1.342,0,0,1,.983.254,1.284,1.284,0,0,1,.305.67c.348,1.582.074,1.812-.962,2.864a12.477,12.477,0,0,0-2.172,3.25" transform="translate(-256.607 -424.575)" fill="#fff"/>
            <path id="Trazado_599194" data-name="Trazado 599194" d="M679.236,243.263a.8.8,0,0,1-.165-.129c-.409-.463-.309-.9-.559-1.432-.111-.238-.855-.389-.5-.805.13-.154.512-.489.792-.814.511-.592.034-1.451.566-2.116.457-.571,2.105-1.1,2.683-.259.216.315-.084.823-.038,1.165.071.525.494.875.686,1.363a3.872,3.872,0,0,1,.24,1.481c-.051.884-.945,1.352-1.675,1.828a1.122,1.122,0,0,1-.52.227,1.882,1.882,0,0,1-.975-.232,3.453,3.453,0,0,1-.532-.277" transform="translate(-549.166 -210.564)" fill="#efbfa5"/>
            <path id="Trazado_599195" data-name="Trazado 599195" d="M681.048,236.795a1.838,1.838,0,0,0,.913-1.932,2.74,2.74,0,0,0-1.3-1.8,5.552,5.552,0,0,0-2.163-.707,4.358,4.358,0,0,0-2.655.274,4.436,4.436,0,0,0-1.159.961,1.315,1.315,0,0,0-.451.886,1.259,1.259,0,0,0,.294.659c.936,1.281,1.282,1.23,2.725,1.151a12.223,12.223,0,0,1,3.794.513" transform="translate(-546.261 -206.616)" fill="#fd9827"/>
            <path id="Trazado_599196" data-name="Trazado 599196" d="M521.224,236.266a.793.793,0,0,0,.184-.1c.479-.389.453-.837.786-1.321.149-.216.908-.243.629-.711-.1-.173-.425-.567-.648-.933-.406-.667.2-1.437-.211-2.18-.358-.639-1.9-1.429-2.6-.7-.265.275-.052.825-.154,1.155-.156.507-.631.783-.9,1.232a3.871,3.871,0,0,0-.48,1.422c-.095.88.71,1.488,1.352,2.078a1.122,1.122,0,0,0,.475.309,1.879,1.879,0,0,0,1-.068,3.455,3.455,0,0,0,.57-.186" transform="translate(-422.789 -204.848)" fill="#efbfa5"/>
            <path id="Trazado_599197" data-name="Trazado 599197" d="M511.291,229.288a1.838,1.838,0,0,1-.584-2.056,2.739,2.739,0,0,1,1.577-1.567,5.552,5.552,0,0,1,2.249-.343,4.359,4.359,0,0,1,2.575.706,4.432,4.432,0,0,1,.986,1.139,1.315,1.315,0,0,1,.3.948,1.256,1.256,0,0,1-.4.6c-1.134,1.11-1.466,1-2.877.688a12.223,12.223,0,0,0-3.826-.116" transform="translate(-417.096 -201.131)" fill="#fd9827"/>
          </g>
        </g>
      </g>
    </g>
    <rect id="Rectángulo_44617" data-name="Rectángulo 44617" width="295" height="132" transform="translate(1020 512)" fill="none"/>
  </g>
</svg>
