<svg xmlns="http://www.w3.org/2000/svg" xmlns:xlink="http://www.w3.org/1999/xlink" width="90" height="94" viewBox="0 0 90 94">
  <defs>
    <clipPath id="clip-path">
      <rect id="Rectángulo_44620" data-name="Rectángulo 44620" width="90" height="94" transform="translate(756 806)" fill="#fd9827"/>
    </clipPath>
  </defs>
  <g id="Enmascarar_grupo_92" data-name="Enmascarar grupo 92" transform="translate(-756 -806)" clip-path="url(#clip-path)">
    <g id="XMLID_1156_" transform="translate(756 808)">
      <g id="XMLID_416_">
        <path id="XMLID_419_" d="M85.781,62.461V12.393A5.367,5.367,0,0,0,80.42,7.031H67.676V5.273a5.273,5.273,0,0,0-10.547,0V7.031H28.652V5.273a5.273,5.273,0,0,0-10.547,0V7.031H5.361A5.367,5.367,0,0,0,0,12.393V77.607a5.367,5.367,0,0,0,5.361,5.361H29.32a1.758,1.758,0,0,0,0-3.516H5.361a1.848,1.848,0,0,1-1.846-1.846V12.393a1.848,1.848,0,0,1,1.846-1.846H18.105V12.3a5.273,5.273,0,0,0,10.547,0V10.547H57.129V12.3a5.273,5.273,0,0,0,10.547,0V10.547H80.42a1.848,1.848,0,0,1,1.846,1.846v8.7H15.82a1.758,1.758,0,0,0,0,3.516H82.266V59.491a16.432,16.432,0,0,0-4.922-2.08V31.289a1.758,1.758,0,0,0-1.758-1.758H10.2a1.758,1.758,0,0,0-1.758,1.758V72.773A1.758,1.758,0,0,0,10.2,74.531H56.988a16.4,16.4,0,0,0,1.084,4.922H43.383a1.758,1.758,0,0,0,0,3.516H59.96A16.517,16.517,0,1,0,85.781,62.461ZM25.137,12.3a1.758,1.758,0,0,1-3.516,0V5.273a1.758,1.758,0,0,1,3.516,0Zm39.023,0a1.758,1.758,0,0,1-3.516,0V5.273a1.758,1.758,0,0,1,3.516,0Zm9.316,44.648a16.592,16.592,0,0,0-2.406.176h-6.8v-10.2h9.563V56.958C73.711,56.955,73.594,56.953,73.477,56.953ZM57.136,71.016H51.188V60.645H60.75V62.95A16.461,16.461,0,0,0,57.136,71.016ZM11.953,46.934h9.563v10.2H11.953Zm13.078,0h9.563v10.2H25.031Zm26.156,0H60.75v10.2H51.188Zm-3.516,10.2H38.109v-10.2h9.563Zm3.516-13.711V33.047H60.75V43.418Zm-3.516,0H38.109V33.047h9.563Zm-13.078,0H25.031V33.047h9.563Zm0,17.227V71.016H25.031V60.645Zm3.516,0h9.563V71.016H38.109V60.645ZM73.828,43.418H64.266V33.047h9.563ZM21.516,33.047V43.418H11.953V33.047Zm-9.562,27.6h9.563V71.016H11.953Zm61.523,25.84A13.008,13.008,0,1,1,86.484,73.477,13.022,13.022,0,0,1,73.477,86.484Z" fill="#fd9827"/>
        <path id="XMLID_1115_" d="M78.562,69.216l-5.437,5.437-2.419-2.419A1.758,1.758,0,0,0,68.22,74.72l3.662,3.662a1.758,1.758,0,0,0,2.486,0l6.68-6.68a1.758,1.758,0,1,0-2.486-2.486Z" fill="#fd9827"/>
        <path id="XMLID_1116_" d="M36.352,79.453a1.758,1.758,0,1,0,1.243.515A1.771,1.771,0,0,0,36.352,79.453Z" fill="#fd9827"/>
        <path id="XMLID_1120_" d="M10.032,24.094a1.757,1.757,0,1,0-1.243.515A1.771,1.771,0,0,0,10.032,24.094Z" fill="#fd9827"/>
      </g>
    </g>
  </g>
</svg>
