<svg xmlns="http://www.w3.org/2000/svg" xmlns:xlink="http://www.w3.org/1999/xlink" width="90" height="94" viewBox="0 0 90 94">
  <defs>
    <clipPath id="clip-path">
      <rect id="Rectángulo_44621" data-name="Rectángulo 44621" width="90" height="94" transform="translate(1103 806)" fill="#fd9827"/>
    </clipPath>
  </defs>
  <g id="Enmascarar_grupo_93" data-name="Enmascarar grupo 93" transform="translate(-1103 -806)" clip-path="url(#clip-path)">
    <path id="estante-para-libros" d="M91.5,3h-6A1.5,1.5,0,0,0,84,4.5V39H81V10.5A1.5,1.5,0,0,0,79.5,9h-15A1.5,1.5,0,0,0,63,10.5v3.966L56.6,12.06a1.5,1.5,0,0,0-1.932.876L45.693,36.8a1.5,1.5,0,0,0,.876,1.932l.705.265H45V15a1.5,1.5,0,0,0-1.5-1.5H36v-3A1.5,1.5,0,0,0,34.5,9h-18A1.5,1.5,0,0,0,15,10.5V39H12V4.5A1.5,1.5,0,0,0,10.5,3h-6A1.5,1.5,0,0,0,3,4.5v87A1.5,1.5,0,0,0,4.5,93h6A1.5,1.5,0,0,0,12,91.5V90H84v1.5A1.5,1.5,0,0,0,85.5,93h6A1.5,1.5,0,0,0,93,91.5V4.5A1.5,1.5,0,0,0,91.5,3ZM9,90H6V6H9ZM72,12h6V25.5H72Zm0,16.5h6V33H72ZM72,36h6v3H72ZM66,12h3V39H66Zm-9.048,3.4,5.616,2.113L54.645,38.568l-5.616-2.113ZM63,24.88V39H57.688ZM36,16.5h6v3H36Zm0,6h6v6H36Zm0,9h6V39H36ZM27,12h6V29.65a4.489,4.489,0,0,0-6,0Zm4.5,21A1.5,1.5,0,1,1,30,31.5,1.5,1.5,0,0,1,31.5,33ZM27,36.35a4.489,4.489,0,0,0,6,0V39H27ZM18,12h6V28.5H18Zm0,19.5h6v3H18Zm0,6h6V39H18ZM84,87H12V84H84ZM19.269,63H36a3,3,0,0,1,0,6H19.269a7.911,7.911,0,0,0,0-6Zm.112,15H39a1.5,1.5,0,0,1,0,3H19.381a5.129,5.129,0,0,0,0-3Zm2.661-3a5.785,5.785,0,0,0,0-3H40.5a1.5,1.5,0,0,1,0,3ZM51,72a1.5,1.5,0,1,1-1.5,1.5A1.5,1.5,0,0,1,51,72Zm-1.5-2.742V57h3V69.258a4.489,4.489,0,0,0-3,0ZM51,78a4.478,4.478,0,0,0,1.5-.258V81h-3V77.742A4.478,4.478,0,0,0,51,78Zm10.5-7.5V72h-6V70.5Zm-6-3V57h6V67.5Zm6,7.5v1.5h-6V75Zm0,4.5V81h-6V79.5Zm3,1.5V58.5H69V81ZM78,73.5v3H72v-3Zm-6-3V57h6V70.5Zm6,9V81H72V79.5ZM84,81H81V55.5A1.5,1.5,0,0,0,79.5,54h-9A1.5,1.5,0,0,0,69,55.5H64.5A1.5,1.5,0,0,0,63,54H48a1.5,1.5,0,0,0-1.5,1.5V81H43.242a4.486,4.486,0,0,0-.323-3.708,4.5,4.5,0,0,0-1.754-8.242A6,6,0,0,0,36,60H16.5a1.5,1.5,0,0,0-1.061,2.561,4.864,4.864,0,0,1,0,6.879A1.5,1.5,0,0,0,16.5,72h2.3a2.751,2.751,0,0,1,0,3H16.5a1.5,1.5,0,0,0-.832,2.748A2.1,2.1,0,0,1,15.974,81H12V48H84Zm0-36H12V42H84Zm6,45H87V6h3Z" transform="translate(1100 805)" fill="#fd9827"/>
  </g>
</svg>
