<svg xmlns="http://www.w3.org/2000/svg" xmlns:xlink="http://www.w3.org/1999/xlink" width="85" height="85" viewBox="0 0 85 85">
  <defs>
    <clipPath id="clip-path">
      <circle id="Elipse_4799" data-name="Elipse 4799" cx="42.5" cy="42.5" r="42.5" transform="translate(293 7506)" fill="#fd9827"/>
    </clipPath>
  </defs>
  <g id="Grupo_953460" data-name="Grupo 953460" transform="translate(-293 -7536)">
    <circle id="Elipse_4794" data-name="Elipse 4794" cx="42.5" cy="42.5" r="42.5" transform="translate(293 7536)" fill="#fd9827"/>
    <g id="Enmascarar_grupo_96" data-name="Enmascarar grupo 96" transform="translate(0 30)" clip-path="url(#clip-path)">
      <g id="graduado" transform="translate(248.822 7511.574)">
        <g id="Grupo_159429" data-name="Grupo 159429" transform="translate(54.997 0)">
          <g id="Grupo_159418" data-name="Grupo 159418" transform="translate(0 37.736)">
            <path id="Trazado_600749" data-name="Trazado 600749" d="M187.991,263.194l-8.229-8.994V243.258H165.413V254.2l-8.138,8.991Z" transform="translate(-141.409 -243.258)" fill="#ffddce"/>
            <path id="Trazado_600750" data-name="Trazado 600750" d="M100.083,329.208l-7.377-2.166-6.527,7.484L74.893,321.585l-12,3.521A11,11,0,0,0,55,335.657v11.576a3.891,3.891,0,0,0,3.891,3.891h5.278l.951-.679h.495l.951.679h39.225l1.4-1h1.158v-9.886a11.5,11.5,0,0,0-8.259-11.033Z" transform="translate(-54.997 -309.434)" fill="#407093"/>
            <path id="Trazado_600751" data-name="Trazado 600751" d="M310.388,325.1l-12-3.522-5.576,6.394,7.452,2.188a11,11,0,0,1,7.9,10.55v9.411h.946v1h5.283a3.891,3.891,0,0,0,3.891-3.891V335.651a11,11,0,0,0-7.9-10.551Z" transform="translate(-255.924 -309.429)" fill="#365e7d"/>
            <g id="Grupo_159417" data-name="Grupo 159417" transform="translate(9.169 34.126)">
              <g id="Grupo_159416" data-name="Grupo 159416">
                <g id="Grupo_159415" data-name="Grupo 159415">
                  <g id="Grupo_159414" data-name="Grupo 159414">
                    <path id="Trazado_600752" data-name="Trazado 600752" d="M116.5,470.808v-6.365a1.2,1.2,0,1,0-2.4,0v6.365Z" transform="translate(-114.103 -463.245)" fill="#365e7d"/>
                    <path id="Trazado_600753" data-name="Trazado 600753" d="M384.808,470.808v-6.365a1.2,1.2,0,1,0-2.4,0v6.365Z" transform="translate(-340.789 -463.245)" fill="#365e7d"/>
                  </g>
                </g>
              </g>
            </g>
          </g>
          <g id="Grupo_159426" data-name="Grupo 159426" transform="translate(2.836 0)">
            <g id="Grupo_159425" data-name="Grupo 159425">
              <path id="Trazado_600754" data-name="Trazado 600754" d="M80,143.806l-1.229-1.355H76.146l-1.229,1.355-1.619,9.5a1.469,1.469,0,0,0,1.448,1.716h5.425a1.469,1.469,0,0,0,1.448-1.716Z" transform="translate(-73.277 -120.353)" fill="#e4f6ff"/>
              <path id="Trazado_600755" data-name="Trazado 600755" d="M94.911,64.306V52.288a1.2,1.2,0,0,0-2.4,0V64.306Z" transform="translate(-89.53 -43.164)" fill="#407093"/>
              <g id="Grupo_159422" data-name="Grupo 159422" transform="translate(13.003 8.161)">
                <g id="Grupo_159421" data-name="Grupo 159421" transform="translate(0)">
                  <g id="Grupo_159420" data-name="Grupo 159420">
                    <g id="Grupo_159419" data-name="Grupo 159419">
                      <path id="Trazado_600756" data-name="Trazado 600756" d="M179.083,52.607H165.8a8.7,8.7,0,0,0-8.7,8.7v8.388l1.438,1.267h29.241V61.3A8.7,8.7,0,0,0,179.083,52.607Z" transform="translate(-157.1 -52.607)" fill="#efc984"/>
                    </g>
                  </g>
                </g>
              </g>
              <path id="Trazado_600757" data-name="Trazado 600757" d="M291.234,52.607h-1.39V70.959H298.6l1.328-1.267V61.3A8.7,8.7,0,0,0,291.234,52.607Z" transform="translate(-256.248 -44.446)" fill="#eabc6b"/>
              <g id="Grupo_159423" data-name="Grupo 159423" transform="translate(13.006 18.619)">
                <path id="Trazado_600758" data-name="Trazado 600758" d="M172.456,145.474q.217,0,.432-.007a12.873,12.873,0,0,0,5.97-10.252v-15.19h-16.5v4a2.629,2.629,0,0,1-2.629,2.629h-2.611v4.3a1.989,1.989,0,0,0,1.989,1.989.654.654,0,0,1,.65.618A12.727,12.727,0,0,0,172.456,145.474Z" transform="translate(-157.117 -120.025)" fill="#ffddce"/>
              </g>
              <path id="Trazado_600759" data-name="Trazado 600759" d="M261.114,126.652a2.629,2.629,0,0,1-2.629-2.629v-4h-4.849v14.8a12.727,12.727,0,0,1-6.648,10.572,12.711,12.711,0,0,0,14.1-11.837.654.654,0,0,1,.65-.618,1.989,1.989,0,0,0,1.989-1.989v-4.3Z" transform="translate(-220.04 -101.406)" fill="#ffcbbe"/>
              <path id="Trazado_600760" data-name="Trazado 600760" d="M122.609,13.515V10.553a2.66,2.66,0,0,1-2.64-2.66V2.569L118.85.774l-2.233-.71a1.357,1.357,0,0,0-.823,0L91.487,7.8a1.358,1.358,0,0,0,.184,2.632l24.535,4.179Z" transform="translate(-87.862 0)" fill="#407093"/>
              <path id="Trazado_600761" data-name="Trazado 600761" d="M173.49,64.976l-3.535-.437a23.364,23.364,0,0,0-5.737,0L150.763,66.2v6a1.176,1.176,0,0,0,1.176,1.176h21.55Z" transform="translate(-138.743 -54.378)" fill="#4a80aa"/>
              <g id="Grupo_159424" data-name="Grupo 159424" transform="translate(30.987 0.774)">
                <path id="Trazado_600762" data-name="Trazado 600762" d="M295.1,12.011,273.029,4.99v7.035a2.629,2.629,0,0,0,2.608,2.628v3.274l19.282-3.284a1.358,1.358,0,0,0,.184-2.632Z" transform="translate(-273.029 -4.99)" fill="#365e7d"/>
              </g>
              <path id="Trazado_600763" data-name="Trazado 600763" d="M289.845,67.4v8.542h9.9a1.176,1.176,0,0,0,1.176-1.176v-6Z" transform="translate(-256.249 -56.946)" fill="#407093"/>
              <path id="Trazado_600764" data-name="Trazado 600764" d="M88.938,126.018H83.854v-3.337a1.284,1.284,0,0,1,1.284-1.284h2.516a1.284,1.284,0,0,1,1.284,1.284v3.337Z" transform="translate(-82.213 -102.565)" fill="#ffe07d"/>
            </g>
          </g>
          <g id="Grupo_159427" data-name="Grupo 159427" transform="translate(12.87 44.672)">
            <path id="Trazado_600765" data-name="Trazado 600765" d="M263.172,287.969a24.044,24.044,0,0,1-3.89,13.112L256,306.126l18.311-10.881Z" transform="translate(-237.689 -287.969)" fill="#4a80aa"/>
            <path id="Trazado_600766" data-name="Trazado 600766" d="M149.1,287.969a24.044,24.044,0,0,0,3.89,13.112l3.282,5.045L137.96,295.245Z" transform="translate(-137.96 -287.969)" fill="#4a80aa"/>
          </g>
          <g id="Grupo_159428" data-name="Grupo 159428" transform="translate(25.069 51.721)">
            <path id="Trazado_600767" data-name="Trazado 600767" d="M228.823,333.411a29.3,29.3,0,0,1-12.225,0,24.042,24.042,0,0,0,2.83,6.063l3.282,5.045,3.282-5.045A24.036,24.036,0,0,0,228.823,333.411Z" transform="translate(-216.598 -333.411)" fill="#f4fbff"/>
          </g>
        </g>
      </g>
    </g>
  </g>
</svg>
