<svg xmlns="http://www.w3.org/2000/svg" xmlns:xlink="http://www.w3.org/1999/xlink" width="85" height="85" viewBox="0 0 85 85">
  <defs>
    <clipPath id="clip-path">
      <circle id="Elipse_4801" data-name="Elipse 4801" cx="42.5" cy="42.5" r="42.5" transform="translate(293 7506)" fill="#fd9827"/>
    </clipPath>
  </defs>
  <g id="Grupo_953458" data-name="Grupo 953458" transform="translate(-913 -7536)">
    <circle id="Elipse_4796" data-name="Elipse 4796" cx="42.5" cy="42.5" r="42.5" transform="translate(913 7536)" fill="#fd9827"/>
    <g id="Enmascarar_grupo_98" data-name="Enmascarar grupo 98" transform="translate(620 30)" clip-path="url(#clip-path)">
      <circle id="Elipse_4866" data-name="Elipse 4866" cx="5.5" cy="5.5" r="5.5" transform="translate(352 7539)" fill="#fff"/>
      <path id="Trazado_657987" data-name="Trazado 657987" d="M-7390.67-4163.418c-.07-.209.209-4.884.209-4.884l1.918-1.709,1.116,3.732,3,.907-2.2,2.163Z" transform="translate(7756 11700)" fill="#ffe02f"/>
      <g id="meta" transform="translate(337.567 7525)">
        <path id="Trazado_657982" data-name="Trazado 657982" d="M22.28,28.563a6.282,6.282,0,1,1,1.1-12.465.786.786,0,0,1-.271,1.548,4.77,4.77,0,0,0-.828-.075,4.711,4.711,0,1,0,4.711,4.711,4.77,4.77,0,0,0-.079-.831.786.786,0,0,1,1.548-.271,6.4,6.4,0,0,1,.1,1.1,6.289,6.289,0,0,1-6.282,6.282Z" transform="translate(-2.571 -2.577)" fill="#785549"/>
        <path id="Trazado_657983" data-name="Trazado 657983" d="M19.709,35.409A15.7,15.7,0,1,1,25.1,4.95a.786.786,0,1,1-.536,1.477,14.159,14.159,0,1,0,8.41,8.42.785.785,0,1,1,1.474-.541,15.7,15.7,0,0,1-14.744,21.1Z" transform="translate(0 0)" fill="#785549"/>
        <path id="Trazado_657984" data-name="Trazado 657984" d="M21,31.986A10.993,10.993,0,1,1,26,11.2a.786.786,0,0,1-.715,1.4A9.324,9.324,0,0,0,21,11.57a9.423,9.423,0,1,0,9.423,9.423A9.324,9.324,0,0,0,29.389,16.7a.786.786,0,0,1,1.4-.715,11,11,0,0,1-9.792,16Z" transform="translate(-1.287 -1.289)" fill="#785549"/>
        <path id="Trazado_657985" data-name="Trazado 657985" d="M23.785,22.423a.785.785,0,0,1-.555-1.34l7.852-7.852a.785.785,0,1,1,1.11,1.11L24.34,22.193a.785.785,0,0,1-.555.23Z" transform="translate(-4.077 -1.933)" fill="#785549"/>
        <path id="Trazado_657986" data-name="Trazado 657986" d="M38.227,12.748H33.785A.785.785,0,0,1,33,11.963V7.521a.785.785,0,0,1,.23-.555l2.221-2.221a.785.785,0,0,1,1.3.306l.987,2.959L40.7,9A.785.785,0,0,1,41,10.3l-2.221,2.221A.785.785,0,0,1,38.227,12.748Zm-3.657-1.57H37.9l1.092-1.092-2.126-.707a.781.781,0,0,1-.5-.5l-.707-2.126L34.57,7.846Z" transform="translate(-6.224 -0.111)" fill="#785549"/>
      </g>
      <g id="asesor-financiero" transform="translate(278.192 7511.795)">
        <path id="Trazado_600792" data-name="Trazado 600792" d="M120.438,56.758,114.809,40.6a17.514,17.514,0,0,1-2.607-9.238l-.374-1.845.921-4.539.823-1.111V17.252a17.252,17.252,0,1,0-34.5,0v6.61l1.15.584,1.348,5.066-1.129,1.845c-.094,10.853-8.325,12.848-7.878,21.889l.918.567,40.68-1.744,3.792,2.795Z" transform="translate(-42.012)" fill="#7b6c79"/>
        <path id="Trazado_600793" data-name="Trazado 600793" d="M80.964,53.247c-.447-9.042,7.784-11.036,7.878-21.889l1.129-1.845-1.348-5.066-1.15-.584v-6.61A17.258,17.258,0,0,1,100.522.517,17.263,17.263,0,0,0,79.067,17.252v6.61l1.15.584,1.348,5.066-1.129,1.845c-.094,10.853-8.325,12.848-7.878,21.889l.918.567,7.861-.337Z" transform="translate(-42.012 0)" fill="#665e68"/>
        <path id="Trazado_600794" data-name="Trazado 600794" d="M72.956,280.523l-12.3,4.768-2.446,2.231-1.868,3.429v27.5l.857,1.363.256.223h15.5l.648-1.344V281.558Z" transform="translate(-28.579 -232.638)" fill="#bc7f7f"/>
        <path id="Trazado_600795" data-name="Trazado 600795" d="M28.08,339.925V316.388a11.965,11.965,0,0,1,4.662-9.436l-4,1.549a11.755,11.755,0,0,0-6.865,10.648v20.517a2.288,2.288,0,0,0,2.288,2.288h5.1A2.32,2.32,0,0,1,28.08,339.925Z" transform="translate(0 -254.556)" fill="#b06c6c"/>
        <path id="Trazado_600796" data-name="Trazado 600796" d="M288.861,293.52l-2.611-1.992-8.972-6.515-1.95-1.407-8.343-3.231c-.04-.077-.064-.093-.064-.025l-.651.75v37.412l.651,1.344H287.13a2.288,2.288,0,0,0,2.288-2.288V297.052A11.573,11.573,0,0,0,288.861,293.52Z" transform="translate(-202.672 -232.459)" fill="#bc7f7f"/>
        <path id="Trazado_600797" data-name="Trazado 600797" d="M283.977,136.665l2.066-.655,1.3-1.363.624-1.313a4.965,4.965,0,0,0-5.567-2.754l-.573.638v5.447Z" transform="translate(-215.57 -108.207)" fill="#fed1a3"/>
        <path id="Trazado_600798" data-name="Trazado 600798" d="M106.2,133.216v.992l1.71,1.495,2.594.963h1.759v-5.473l-.549-.612A4.972,4.972,0,0,0,106.2,133.216Z" transform="translate(-69.927 -108.207)" fill="#fed1a3"/>
        <path id="Trazado_600799" data-name="Trazado 600799" d="M282.39,149.144l-.567-.53v4.162l.567.53a4.894,4.894,0,0,0,5.994-4.716,4.764,4.764,0,0,0-.474-2.081A4.972,4.972,0,0,1,282.39,149.144Z" transform="translate(-215.57 -121.5)" fill="#ffbc85"/>
        <path id="Trazado_600800" data-name="Trazado 600800" d="M103.9,146.509a4.764,4.764,0,0,0-.474,2.081,4.894,4.894,0,0,0,5.994,4.716l.543-.529v-4.162l-.543.529a4.973,4.973,0,0,1-5.52-2.635Z" transform="translate(-67.625 -121.5)" fill="#ffbc85"/>
        <path id="Trazado_600804" data-name="Trazado 600804" d="M214.327,327.218l-6.291-2.345h-3.891v30.246l1.314,1.7H215.4V328.334Z" transform="translate(-151.152 -269.418)" fill="#938493"/>
        <path id="Trazado_600805" data-name="Trazado 600805" d="M163.6,324.873h-2.366l-6.914,2.4-.648,1.058v28.481H163.6V324.873Z" transform="translate(-109.296 -269.418)" fill="#7b6c79"/>
        <path id="Trazado_600806" data-name="Trazado 600806" d="M216.63,248.716a1.269,1.269,0,0,1-.811-1.181l0-4.147-.863-.244h-6.788v14.83h3.017l6.9-7.293v-1.4l-1.454-.563Z" transform="translate(-154.487 -201.641)" fill="#fed1a3"/>
        <path id="Trazado_600807" data-name="Trazado 600807" d="M166.753,243.145h-6.46l-.56.279v4.1c0,.971-.866,1.205-1.236,1.349h0l-1.025.4.3,1.735,6.6,6.966h2.376v-14.83Z" transform="translate(-112.446 -201.641)" fill="#ffbc85"/>
        <g id="Grupo_159436" data-name="Grupo 159436" transform="translate(52.993 60.584)">
          <path id="Trazado_600808" data-name="Trazado 600808" d="M205.464,376.668a1.319,1.319,0,0,1-1.319-1.319V356.24a1.319,1.319,0,1,1,2.638,0v19.109A1.319,1.319,0,0,1,205.464,376.668Z" transform="translate(-204.145 -354.921)" fill="#665e68"/>
        </g>
        <path id="Trazado_600809" data-name="Trazado 600809" d="M335.362,380.275a1.319,1.319,0,0,0-1.319,1.319V402.76h2.638V381.594A1.319,1.319,0,0,0,335.362,380.275Z" transform="translate(-258.877 -315.363)" fill="#b06c6c"/>
        <path id="Trazado_600810" data-name="Trazado 600810" d="M76.907,402.76V381.594a1.319,1.319,0,1,0-2.638,0V402.76Z" transform="translate(-43.445 -315.363)" fill="#b06c6c"/>
        <path id="Trazado_600811" data-name="Trazado 600811" d="M153.675,290.333a9.1,9.1,0,0,0,7.1-1.683,1.438,1.438,0,0,0-.087-2.182,25.03,25.03,0,0,1-6.368-7.418l-.648.251Z" transform="translate(-109.297 -231.417)" fill="#dbedff"/>
        <path id="Trazado_600812" data-name="Trazado 600812" d="M233.343,279.334l-.651-.252a25.034,25.034,0,0,1-6.365,7.412,1.438,1.438,0,0,0-.087,2.182,9.1,9.1,0,0,0,7.1,1.683Z" transform="translate(-169.094 -231.443)" fill="#dbedff"/>
        <path id="Trazado_600813" data-name="Trazado 600813" d="M187.8,95.992a7.22,7.22,0,0,1-7.22-7.22,7.222,7.222,0,0,1-5.738,7.067l-.7.923v12.573l2.951,5.1,2.286,1.583,4.374,1.1a12.526,12.526,0,0,0,9.337-12.076V95.992H187.8Z" transform="translate(-126.269 -73.619)" fill="#ffe5c1"/>
        <path id="Trazado_600814" data-name="Trazado 600814" d="M145.314,139.491v-9.319a7.249,7.249,0,0,1-1.482.153h-5.293v9.166a12.345,12.345,0,0,0,12.641,12.334,12.059,12.059,0,0,0,3.3-.45A12.255,12.255,0,0,1,145.314,139.491Z" transform="translate(-96.745 -107.952)" fill="#fed1a3"/>
      </g>
    </g>
  </g>
</svg>
