<svg xmlns="http://www.w3.org/2000/svg" xmlns:xlink="http://www.w3.org/1999/xlink" width="295" height="155.889" viewBox="0 0 295 155.889">
  <defs>
    <clipPath id="clip-path">
      <rect id="Rectángulo_48418" data-name="Rectángulo 48418" width="137" height="69.891" transform="translate(0 9)" fill="#12263f"/>
    </clipPath>
    <clipPath id="clip-path-2">
      <rect id="Rectángulo_45993" data-name="Rectángulo 45993" width="46.085" height="19.929" fill="none"/>
    </clipPath>
  </defs>
  <g id="Grupo_953318" data-name="Grupo 953318" transform="translate(-394.966 -3580)">
    <g id="Grupo_952456" data-name="Grupo 952456" transform="translate(346.359 3487.515)">
      <g id="Enmascarar_grupo_952128" data-name="Enmascarar grupo 952128" transform="translate(86.607 83.485)" opacity="0.33" clip-path="url(#clip-path)">
        <path id="Trazado_151731" data-name="Trazado 151731" d="M65.23,103A37.765,37.765,0,1,1,103,65.23,37.808,37.808,0,0,1,65.23,103m0,27.465A65.23,65.23,0,1,0,0,65.23,65.23,65.23,0,0,0,65.23,130.461Z" transform="translate(2.83 13.661)" fill="#fd9827"/>
      </g>
      <path id="Trazado_656891" data-name="Trazado 656891" d="M344.177,313.352c4.5-23.993,5.854-49.176.606-72.918-5.487-24.826-18.883-47.933-38.339-59.3-15.237-8.9-33.2-10.087-49.773-5.648S224.8,189.695,211.15,201.663c-13.939,12.219-28.167,27.6-45.516,27.2-13.784-.321-26.683-10.918-40.381-9.07C109.1,221.97,97.836,241.481,96.32,260.617c-1.428,18.035,3.7,35.736,9.164,52.735Z" transform="translate(-26.018 -65.78)" fill="#785549"/>
      <g id="Grupo_952437" data-name="Grupo 952437" transform="translate(233.198 92.486)">
        <path id="Trazado_656892" data-name="Trazado 656892" d="M532.825,356.735h-8.815l1.356-63.157h6.1Z" transform="translate(-493.763 -202.703)" fill="#e89a49"/>
        <path id="Trazado_656893" data-name="Trazado 656893" d="M472.683,110.062c-3,9.262-2.671,19.3-5.163,28.713-2.04,7.707-5.92,14.8-8.36,22.392s-3.3,16.265.562,23.239c2.884,5.207,8.063,8.8,13.536,11.139,9.37,4,20.363,4.725,29.735.728s16.727-13.059,17.486-23.22c.876-11.729-6.513-22.408-8.626-33.979-1.543-8.449-.231-17.212-1.64-25.685-1.36-8.178-8.365-19.757-17.58-20.824C483.157,91.465,475.212,102.263,472.683,110.062Z" transform="translate(-457.077 -92.486)" fill="#5db18c"/>
      </g>
      <g id="Grupo_952439" data-name="Grupo 952439" transform="translate(54.054 196.266)">
        <g id="Grupo_952438" data-name="Grupo 952438">
          <path id="Trazado_656894" data-name="Trazado 656894" d="M66.809,364.224a7.146,7.146,0,0,1-2.763-2.144,3.471,3.471,0,0,1-.537-3.33c.682-1.58,2.689-2.119,4.406-1.992s3.406.717,5.121.565a19.885,19.885,0,0,1-10.408-6.252c-1.428-1.637-2.613-4-1.57-5.9a4.163,4.163,0,0,1,3.654-1.914,11.172,11.172,0,0,1,4.173,1.029,36.551,36.551,0,0,1-6.738-16.593c-.247-1.79-.216-3.934,1.243-5a3.555,3.555,0,0,1,3.4-.238,8.3,8.3,0,0,1,2.8,2.158,26.476,26.476,0,0,1,6.837,14.821,11.34,11.34,0,0,1,2.944-5.136,5.044,5.044,0,0,1,5.54-.982c2.217,1.192,2.71,4.153,2.539,6.663a23.758,23.758,0,0,1-4.629,12.508c1.958-.8,3.364-2.525,5.07-3.778s4.2-1.987,5.861-.67c1.571,1.249,1.539,3.642,1.05,5.588C93.464,358.962,79.955,370.451,66.809,364.224Z" transform="translate(-60.66 -322.135)" fill="#7dc1a3"/>
          <path id="Trazado_656895" data-name="Trazado 656895" d="M68.107,323.265a3.463,3.463,0,0,0-.593-.8,3.711,3.711,0,0,1,3.034-.012,8.3,8.3,0,0,1,2.8,2.158,26.475,26.475,0,0,1,6.837,14.821,11.34,11.34,0,0,1,2.944-5.136,5.044,5.044,0,0,1,5.54-.982c2.217,1.192,2.71,4.153,2.539,6.663a23.758,23.758,0,0,1-4.629,12.508c1.958-.8,3.364-2.525,5.07-3.778s4.2-1.987,5.861-.67c1.571,1.249,1.539,3.642,1.05,5.588-.819,3.26-6.18,8.815-13.226,11.226C81.849,350.231,75.126,336.471,68.107,323.265Z" transform="translate(-64.417 -322.135)" fill="#5db18c"/>
        </g>
        <path id="Trazado_656896" data-name="Trazado 656896" d="M91.318,370.989c4.314,9.565,7.64,19.123,8.077,29.346" transform="translate(-77.463 -348.911)" fill="none" stroke="#ffc366" stroke-linecap="round" stroke-miterlimit="10" stroke-width="1.077"/>
      </g>
      <g id="Grupo_952447" data-name="Grupo 952447" transform="translate(118.9 127.063)">
        <g id="Grupo_952441" data-name="Grupo 952441" transform="translate(0 17.32)">
          <g id="Grupo_952440" data-name="Grupo 952440">
            <path id="Rectángulo_45986" data-name="Rectángulo 45986" d="M17.772,0H120.82a17.772,17.772,0,0,1,17.772,17.772V98.083a0,0,0,0,1,0,0H0a0,0,0,0,1,0,0V17.772A17.772,17.772,0,0,1,17.772,0Z" transform="translate(7.911)" fill="#91baee"/>
            <path id="Trazado_656897" data-name="Trazado 656897" d="M350.9,424.743H211.824a7.671,7.671,0,0,1-7.671-7.672H358.567A7.67,7.67,0,0,1,350.9,424.743Z" transform="translate(-204.153 -322.285)" fill="#193441"/>
            <path id="Trazado_656898" data-name="Trazado 656898" d="M374.781,217.928a1.031,1.031,0,1,1-1.031-1.031A1.031,1.031,0,0,1,374.781,217.928Z" transform="translate(-296.542 -212.572)" fill="#535c63"/>
            <path id="Trazado_656899" data-name="Trazado 656899" d="M366.909,420.873h-32.7a3.8,3.8,0,0,1-3.8-3.8h40.3A3.8,3.8,0,0,1,366.909,420.873Z" transform="translate(-273.352 -322.285)" fill="#6f93ff"/>
          </g>
          <rect id="Rectángulo_45987" data-name="Rectángulo 45987" width="122.263" height="78.399" transform="translate(16.076 9.211)" fill="#fff"/>
        </g>
        <g id="Grupo_952442" data-name="Grupo 952442" transform="translate(25.432 82.983)">
          <path id="Trazado_656900" data-name="Trazado 656900" d="M265.791,353.78l-.272-.526a1.157,1.157,0,0,0-1.029-.627h-2.9a1.158,1.158,0,0,0-1.158,1.158v11.578a1.158,1.158,0,0,0,1.158,1.158h16.458a1.158,1.158,0,0,0,1.158-1.158v-9.8a1.158,1.158,0,0,0-1.158-1.158H266.82A1.158,1.158,0,0,1,265.791,353.78Z" transform="translate(-260.43 -352.627)" fill="#ffdb82"/>
          <path id="Trazado_656901" data-name="Trazado 656901" d="M328.322,353.78l-.271-.526a1.159,1.159,0,0,0-1.029-.627h-2.9a1.158,1.158,0,0,0-1.159,1.158v11.578a1.158,1.158,0,0,0,1.159,1.158h16.458a1.158,1.158,0,0,0,1.158-1.158v-9.8a1.158,1.158,0,0,0-1.158-1.158H329.351A1.159,1.159,0,0,1,328.322,353.78Z" transform="translate(-294.703 -352.627)" fill="#ffdb82"/>
          <path id="Trazado_656902" data-name="Trazado 656902" d="M390.854,353.78l-.272-.526a1.158,1.158,0,0,0-1.029-.627h-2.9a1.158,1.158,0,0,0-1.158,1.158v11.578a1.158,1.158,0,0,0,1.158,1.158h16.458a1.158,1.158,0,0,0,1.158-1.158v-9.8a1.158,1.158,0,0,0-1.158-1.158H391.883A1.158,1.158,0,0,1,390.854,353.78Z" transform="translate(-328.976 -352.627)" fill="#ffdb82"/>
          <path id="Trazado_656903" data-name="Trazado 656903" d="M453.385,353.78l-.271-.526a1.159,1.159,0,0,0-1.029-.627h-2.9a1.158,1.158,0,0,0-1.159,1.158v11.578a1.158,1.158,0,0,0,1.159,1.158h16.458a1.158,1.158,0,0,0,1.158-1.158v-9.8a1.158,1.158,0,0,0-1.158-1.158H454.414A1.159,1.159,0,0,1,453.385,353.78Z" transform="translate(-363.249 -352.627)" fill="#ffdb82"/>
          <rect id="Rectángulo_45988" data-name="Rectángulo 45988" width="12.051" height="1.205" transform="translate(3.362 10.261)" fill="#ff9f89"/>
          <rect id="Rectángulo_45989" data-name="Rectángulo 45989" width="12.051" height="1.205" transform="translate(31.62 10.261)" fill="#ff9f89"/>
          <rect id="Rectángulo_45990" data-name="Rectángulo 45990" width="12.051" height="1.205" transform="translate(59.879 10.261)" fill="#ff9f89"/>
          <rect id="Rectángulo_45991" data-name="Rectángulo 45991" width="12.051" height="1.205" transform="translate(88.138 10.261)" fill="#ff9f89"/>
        </g>
        <g id="Grupo_952446" data-name="Grupo 952446" transform="translate(27.135)">
          <path id="Trazado_656904" data-name="Trazado 656904" d="M292.791,175.149l-1.447-2.8a6.178,6.178,0,0,0-5.49-3.345H270.376a6.178,6.178,0,0,0-6.178,6.178v61.756a6.178,6.178,0,0,0,6.178,6.178h87.788a6.178,6.178,0,0,0,6.178-6.178V184.672a6.178,6.178,0,0,0-6.178-6.178H298.281A6.178,6.178,0,0,1,292.791,175.149Z" transform="translate(-264.198 -169)" fill="#ffdb82"/>
          <rect id="Rectángulo_45992" data-name="Rectángulo 45992" width="13.256" height="3.314" transform="translate(7.405 6.327)" fill="#fff"/>
          <g id="Grupo_952445" data-name="Grupo 952445" transform="translate(7.405 46.12)">
            <g id="Grupo_952444" data-name="Grupo 952444">
              <g id="Grupo_952443" data-name="Grupo 952443" clip-path="url(#clip-path-2)">
                <line id="Línea_435" data-name="Línea 435" y1="16.233" x2="78.583" transform="translate(-7.966 -13.176)" fill="none" stroke="#fff" stroke-miterlimit="10" stroke-width="0.75"/>
                <line id="Línea_436" data-name="Línea 436" y1="16.233" x2="78.583" transform="translate(-7.966 -11.113)" fill="none" stroke="#fff" stroke-miterlimit="10" stroke-width="0.75"/>
                <line id="Línea_437" data-name="Línea 437" y1="16.233" x2="78.583" transform="translate(-7.966 -9.051)" fill="none" stroke="#fff" stroke-miterlimit="10" stroke-width="0.75"/>
                <line id="Línea_438" data-name="Línea 438" y1="16.233" x2="78.583" transform="translate(-7.966 -6.988)" fill="none" stroke="#fff" stroke-miterlimit="10" stroke-width="0.75"/>
                <line id="Línea_439" data-name="Línea 439" y1="16.233" x2="78.583" transform="translate(-7.966 -4.925)" fill="none" stroke="#fff" stroke-miterlimit="10" stroke-width="0.75"/>
                <line id="Línea_440" data-name="Línea 440" y1="16.233" x2="78.583" transform="translate(-7.966 -2.863)" fill="none" stroke="#fff" stroke-miterlimit="10" stroke-width="0.75"/>
                <line id="Línea_441" data-name="Línea 441" y1="16.233" x2="78.583" transform="translate(-7.966 -0.8)" fill="none" stroke="#fff" stroke-miterlimit="10" stroke-width="0.75"/>
                <line id="Línea_442" data-name="Línea 442" y1="16.233" x2="78.583" transform="translate(-7.966 1.262)" fill="none" stroke="#fff" stroke-miterlimit="10" stroke-width="0.75"/>
                <line id="Línea_443" data-name="Línea 443" y1="16.233" x2="78.583" transform="translate(-7.966 3.325)" fill="none" stroke="#fff" stroke-miterlimit="10" stroke-width="0.75"/>
                <line id="Línea_444" data-name="Línea 444" y1="16.233" x2="78.583" transform="translate(-7.966 5.388)" fill="none" stroke="#fff" stroke-miterlimit="10" stroke-width="0.75"/>
                <line id="Línea_445" data-name="Línea 445" y1="16.233" x2="78.583" transform="translate(-7.966 7.45)" fill="none" stroke="#fff" stroke-miterlimit="10" stroke-width="0.75"/>
                <line id="Línea_446" data-name="Línea 446" y1="16.233" x2="78.583" transform="translate(-7.966 9.513)" fill="none" stroke="#fff" stroke-miterlimit="10" stroke-width="0.75"/>
                <line id="Línea_447" data-name="Línea 447" y1="16.233" x2="78.583" transform="translate(-7.966 11.576)" fill="none" stroke="#fff" stroke-miterlimit="10" stroke-width="0.75"/>
                <line id="Línea_448" data-name="Línea 448" y1="16.233" x2="78.583" transform="translate(-7.966 13.638)" fill="none" stroke="#fff" stroke-miterlimit="10" stroke-width="0.75"/>
                <line id="Línea_449" data-name="Línea 449" y1="16.233" x2="78.583" transform="translate(-7.966 15.701)" fill="none" stroke="#fff" stroke-miterlimit="10" stroke-width="0.75"/>
                <line id="Línea_450" data-name="Línea 450" y1="16.233" x2="78.583" transform="translate(-7.966 17.764)" fill="none" stroke="#fff" stroke-miterlimit="10" stroke-width="0.75"/>
                <line id="Línea_451" data-name="Línea 451" y1="16.233" x2="78.583" transform="translate(-7.966 19.826)" fill="none" stroke="#fff" stroke-miterlimit="10" stroke-width="0.75"/>
              </g>
            </g>
          </g>
        </g>
      </g>
      <g id="Grupo_952454" data-name="Grupo 952454" transform="translate(70.459 139.287)">
        <g id="Grupo_952453" data-name="Grupo 952453" transform="translate(0 0)">
          <g id="Grupo_952452" data-name="Grupo 952452" transform="translate(64.25 24.775)">
            <path id="Rectángulo_45995" data-name="Rectángulo 45995" d="M0,0H3.41a0,0,0,0,1,0,0V7.282a1.7,1.7,0,0,1-1.7,1.7h0A1.7,1.7,0,0,1,0,7.282V0A0,0,0,0,1,0,0Z" transform="translate(5.406 9.537) rotate(36.976)" fill="#c9e1ff"/>
            <path id="Trazado_656921" data-name="Trazado 656921" d="M259.669,261.759a4.394,4.394,0,1,1-.868-6.152A4.394,4.394,0,0,1,259.669,261.759Z" transform="translate(-246.058 -252.983)" fill="#fff" opacity="0.4"/>
            <path id="Trazado_656922" data-name="Trazado 656922" d="M257.737,252.105a6.134,6.134,0,1,0,1.212,8.59A6.134,6.134,0,0,0,257.737,252.105Zm-.179,7.543a4.394,4.394,0,1,1-.868-6.152A4.393,4.393,0,0,1,257.558,259.648Z" transform="translate(-243.947 -250.872)" fill="#91baee"/>
            <path id="Trazado_656923" data-name="Trazado 656923" d="M256.643,263.488c-4.581,0-5.1-5.626-2.251-7.94a4.391,4.391,0,1,0,4.778,7.215A4.529,4.529,0,0,1,256.643,263.488Z" transform="translate(-246.058 -253.435)" fill="#c9e1ff"/>
          </g>
          <path id="Trazado_656924" data-name="Trazado 656924" d="M168.338,414.79l1.9-3.034,4.173,2.177c-.535,1.407-1.013,4.782,1.121,5.914a5.4,5.4,0,0,0,.672.056l.742.012a1.021,1.021,0,0,1-.033,2.041l-3.06.011-4.743-3.786A2.46,2.46,0,0,1,168.338,414.79Z" transform="translate(-135.876 -314.276)" fill="#ffc0a9"/>
          <path id="Trazado_656925" data-name="Trazado 656925" d="M97.338,412.421l4.07-4.987,2.007,4.13c-.535,1.407-1.013,4.782,1.121,5.914a5.4,5.4,0,0,0,.672.056l.742.012a1.021,1.021,0,0,1-.033,2.041l-3.06.011-4.743-3.786A2.46,2.46,0,0,1,97.338,412.421Z" transform="translate(-96.961 -311.907)" fill="#ffc0a9"/>
          <path id="Trazado_656926" data-name="Trazado 656926" d="M176.95,422.378l-.742-.012a5.4,5.4,0,0,1-.672-.056,2.654,2.654,0,0,1-1.118-1.147,8.237,8.237,0,0,1-2.547-1.759c-.67-.651-1.268-1.37-1.886-2.068-.305-.345-.614-.685-.939-1.011l-.068-.069-.011-.007-.63,1a2.46,2.46,0,0,0,.775,3.391l4.743,3.786,3.06-.011a1.021,1.021,0,0,0,.033-2.041Z" transform="translate(-135.876 -316.739)" fill="#193441"/>
          <path id="Trazado_656927" data-name="Trazado 656927" d="M105.95,421.915l-.742-.012a5.4,5.4,0,0,1-.672-.056,2.579,2.579,0,0,1-.848-.728,4.98,4.98,0,0,1-3.555-2.786c-.361-.7-.569-1.476-.9-2.2-.078-.172-.18-.341-.254-.514l-.05-.056a3.458,3.458,0,0,1-.468-.161l-1.13,1.384a2.46,2.46,0,0,0,.775,3.391l4.743,3.786,3.06-.011a1.021,1.021,0,0,0,.033-2.041Z" transform="translate(-96.961 -316.277)" fill="#193441"/>
          <path id="Trazado_656928" data-name="Trazado 656928" d="M188.053,326.971l-.157-.116L163.389,308.44a122.949,122.949,0,0,0-2.46,17.212l18.258,6.785c-.434.62-.865,1.244-1.283,1.875q-2.105,3.17-4.035,6.46c-1.288,2.193-8.1,14.45-8.1,14.452s3.022,3.022,5.3,3.46c2.473-2.343,12.665-17.3,14.133-19.366.735-1.034,1.439-2.089,2.142-3.144.684-1.069,1.372-2.135,1.99-3.249A4.629,4.629,0,0,0,188.053,326.971Z" transform="translate(-132.021 -257.65)" fill="#325290"/>
          <path id="Trazado_656929" data-name="Trazado 656929" d="M194.475,260.95s-5.75,25.866-.958,27.893,11.679.661,15.085,4.989" transform="translate(-148.837 -231.621)" fill="none" stroke="#ffc0a9" stroke-linecap="round" stroke-miterlimit="10" stroke-width="8"/>
          <path id="Trazado_656930" data-name="Trazado 656930" d="M129.234,336.483q-3.65,1.074-7.244,2.354c-2.4.851-15.5,5.857-15.5,5.858s.371,4.257,1.833,6.057c3.4-.2,20.821-5.1,23.276-5.744,1.227-.319,2.445-.674,3.662-1.031,1.211-.379,2.424-.752,3.613-1.208a4.629,4.629,0,0,0,2.849-5.382l-.045-.19-7.62-32.843c-.188-.8,4.048-4.313,4.048-4.313l-14.587-6.564s-4.852,6.182-6.08,8.161a9.088,9.088,0,0,0-1.127,6.9,9.468,9.468,0,0,0,.888,2.308l14.218,25.03C130.691,336.068,129.961,336.268,129.234,336.483Z" transform="translate(-102.185 -249.448)" fill="#426dc0"/>
          <path id="Trazado_656931" data-name="Trazado 656931" d="M153.891,273.206s4.408-11.206,7.4-14.32a5.665,5.665,0,0,0,1.44-2.2s1.129-7.977,4.867-9.078c.255-1.691-.615-3.371-3.574-4.883l-3.381-2.808c-3-1.432-4.138-1.991-6.845-2-2.894,0-4.638,2.26-7,7.565s-1.49,6.818-3.862,11.337c-1.14,2.172-6.339,9.183-7.682,10.959C138.391,271.529,149.259,280.211,153.891,273.206Z" transform="translate(-117.947 -218.999)" fill="#fd9827"/>
          <path id="Trazado_656932" data-name="Trazado 656932" d="M209.389,215.432c1.965-4.064.819-7.55-3.472-10.291a8.9,8.9,0,0,0-8.552-.45l-.4.186a10.7,10.7,0,0,0-5.117,6.142l-.033,6.4-3.389,4.5s2.877,5.559,6,3.5l2.054-2.769a7.121,7.121,0,0,0,4.118,2.029C201.855,224.782,205.378,223.726,209.389,215.432Z" transform="translate(-147.094 -200.303)" fill="#ffc0a9"/>
          <path id="Trazado_656933" data-name="Trazado 656933" d="M202.49,243.693l.912-1.23q-1.164-1.3-2.2-2.7A20.465,20.465,0,0,0,202.49,243.693Z" transform="translate(-154.092 -220.011)" fill="#ff9f89" opacity="0.6"/>
          <path id="Trazado_656934" data-name="Trazado 656934" d="M173,257s13.724,21.443,18.672,19.837,10.672-9.024,18.067-8.938" transform="translate(-138.637 -229.456)" fill="none" stroke="#ffc0a9" stroke-linecap="round" stroke-miterlimit="10" stroke-width="8"/>
          <path id="Trazado_656935" data-name="Trazado 656935" d="M177.906,206.731c-2.78.643-5.821,1.381-7.522,3.671-1.487,2-1.852,5.064-4.144,6.049-1.879.808-3.984-.285-6.02-.478-3.5-.33-6.628,2.011-10.02,2.914-1.839.49-3.972.5-5.456-.7-1.946-1.565-1.983-4.705-.636-6.808s3.705-3.335,6.066-4.148a60.112,60.112,0,0,0,7.084-2.411c3.388-1.664,6-4.594,9.265-6.479a17.419,17.419,0,0,1,11.861-1.994,10.576,10.576,0,0,1,4.878,2.133c1.791,1.513,2.975,3.713,1.033,5.433A14,14,0,0,1,177.906,206.731Z" transform="translate(-122.292 -196.049)" fill="#31313c"/>
        </g>
        <path id="Trazado_656936" data-name="Trazado 656936" d="M229.5,210.8a34.889,34.889,0,0,1,1.088,5.562,11.681,11.681,0,0,1-.742,5.568,12.579,12.579,0,0,0,4.192-3.25,6.255,6.255,0,0,0-4.029-9.833" transform="translate(-169.606 -203.062)" fill="#31313c"/>
      </g>
      <g id="Grupo_952455" data-name="Grupo 952455" transform="translate(148.859 107.197)">
        <path id="Trazado_656937" data-name="Trazado 656937" d="M290.5,159v4.745h2.034" transform="translate(-281.439 -143.653)" fill="none" stroke="#ffc366" stroke-linecap="round" stroke-linejoin="round" stroke-width="1"/>
        <path id="Trazado_656938" data-name="Trazado 656938" d="M296.5,155v6.553h2.034" transform="translate(-284.727 -141.461)" fill="none" stroke="#ffc366" stroke-linecap="round" stroke-linejoin="round" stroke-width="1"/>
        <path id="Trazado_656939" data-name="Trazado 656939" d="M270.449,135.925h0a8.393,8.393,0,0,0,9.981,5.186h0a9.855,9.855,0,0,0,7.281-8.241l.277-2.092a5.07,5.07,0,0,0-4.051-5.641h0a5.07,5.07,0,0,0-5.905,3.792L275.857,138Z" transform="translate(-270.449 -125.041)" fill="#a8cfff"/>
        <path id="Trazado_656940" data-name="Trazado 656940" d="M308.65,134.394s-1.184.553-.18,1.862l1.753.244-.558-.948.906-1.622Z" transform="translate(-291.066 -129.913)" fill="#e89a49"/>
      </g>
      <path id="Trazado_656941" data-name="Trazado 656941" d="M48.607,434.381h0a.893.893,0,0,0,.893.893H342.714a.893.893,0,0,0,.893-.893h0a.893.893,0,0,0-.893-.893H49.5A.893.893,0,0,0,48.607,434.381Z" transform="translate(0 -186.9)" fill="#5db18c"/>
    </g>
    <path id="Trazado_658535" data-name="Trazado 658535" d="M17.424,34.848A17.424,17.424,0,1,0,0,17.424,17.424,17.424,0,0,0,17.424,34.848Z" transform="translate(650.151 3632.466)" fill="#fff" opacity="0.45"/>
    <g id="Grupo_953316" data-name="Grupo 953316" transform="translate(394.966 3608.158)">
      <g id="Grupo_53306" data-name="Grupo 53306" transform="translate(0 47.536)">
        <path id="Trazado_99200" data-name="Trazado 99200" d="M415.344,50.764a.565.565,0,1,0-.565.54A.553.553,0,0,0,415.344,50.764Z" transform="translate(-414.214 -50.224)" fill="#31313c"/>
        <path id="Trazado_99201" data-name="Trazado 99201" d="M423.79,50.764a.565.565,0,1,0-.565.54A.553.553,0,0,0,423.79,50.764Z" transform="translate(-417.577 -50.224)" fill="#31313c"/>
        <path id="Trazado_99202" data-name="Trazado 99202" d="M432.236,50.764a.565.565,0,1,0-.564.54A.553.553,0,0,0,432.236,50.764Z" transform="translate(-420.939 -50.224)" fill="#31313c"/>
        <path id="Trazado_99203" data-name="Trazado 99203" d="M440.683,50.764a.565.565,0,1,0-.565.54A.553.553,0,0,0,440.683,50.764Z" transform="translate(-424.302 -50.224)" fill="#31313c"/>
        <path id="Trazado_99204" data-name="Trazado 99204" d="M449.129,50.764a.565.565,0,1,0-.565.54A.553.553,0,0,0,449.129,50.764Z" transform="translate(-427.665 -50.224)" fill="#31313c"/>
        <path id="Trazado_99205" data-name="Trazado 99205" d="M457.575,50.764a.565.565,0,1,0-.565.54A.553.553,0,0,0,457.575,50.764Z" transform="translate(-431.027 -50.224)" fill="#31313c"/>
        <path id="Trazado_99206" data-name="Trazado 99206" d="M466.022,50.764a.565.565,0,1,0-.565.54A.553.553,0,0,0,466.022,50.764Z" transform="translate(-434.39 -50.224)" fill="#31313c"/>
        <path id="Trazado_99207" data-name="Trazado 99207" d="M474.468,50.764a.565.565,0,1,0-.565.54A.553.553,0,0,0,474.468,50.764Z" transform="translate(-437.753 -50.224)" fill="#31313c"/>
        <path id="Trazado_99208" data-name="Trazado 99208" d="M482.914,50.764a.565.565,0,1,0-.565.54A.553.553,0,0,0,482.914,50.764Z" transform="translate(-441.115 -50.224)" fill="#31313c"/>
        <path id="Trazado_99209" data-name="Trazado 99209" d="M491.361,50.764a.565.565,0,1,0-.565.54A.553.553,0,0,0,491.361,50.764Z" transform="translate(-444.478 -50.224)" fill="#31313c"/>
        <path id="Trazado_99210" data-name="Trazado 99210" d="M499.807,50.764a.565.565,0,1,0-.565.54A.553.553,0,0,0,499.807,50.764Z" transform="translate(-447.841 -50.224)" fill="#31313c"/>
      </g>
      <g id="Grupo_53307" data-name="Grupo 53307" transform="translate(0 43.214)">
        <path id="Trazado_99211" data-name="Trazado 99211" d="M415.344,58.272a.565.565,0,1,0-.565.54A.553.553,0,0,0,415.344,58.272Z" transform="translate(-414.214 -57.732)" fill="#31313c"/>
        <path id="Trazado_99212" data-name="Trazado 99212" d="M423.79,58.272a.565.565,0,1,0-.565.54A.553.553,0,0,0,423.79,58.272Z" transform="translate(-417.577 -57.732)" fill="#31313c"/>
        <path id="Trazado_99213" data-name="Trazado 99213" d="M432.236,58.272a.565.565,0,1,0-.564.54A.553.553,0,0,0,432.236,58.272Z" transform="translate(-420.939 -57.732)" fill="#31313c"/>
        <path id="Trazado_99214" data-name="Trazado 99214" d="M440.683,58.272a.565.565,0,1,0-.565.54A.553.553,0,0,0,440.683,58.272Z" transform="translate(-424.302 -57.732)" fill="#31313c"/>
        <path id="Trazado_99215" data-name="Trazado 99215" d="M449.129,58.272a.565.565,0,1,0-.565.54A.553.553,0,0,0,449.129,58.272Z" transform="translate(-427.665 -57.732)" fill="#31313c"/>
        <path id="Trazado_99216" data-name="Trazado 99216" d="M457.575,58.272a.565.565,0,1,0-.565.54A.553.553,0,0,0,457.575,58.272Z" transform="translate(-431.027 -57.732)" fill="#31313c"/>
        <path id="Trazado_99217" data-name="Trazado 99217" d="M466.022,58.272a.565.565,0,1,0-.565.54A.553.553,0,0,0,466.022,58.272Z" transform="translate(-434.39 -57.732)" fill="#31313c"/>
        <path id="Trazado_99218" data-name="Trazado 99218" d="M474.468,58.272a.565.565,0,1,0-.565.54A.553.553,0,0,0,474.468,58.272Z" transform="translate(-437.753 -57.732)" fill="#31313c"/>
        <path id="Trazado_99219" data-name="Trazado 99219" d="M482.914,58.272a.565.565,0,1,0-.565.54A.553.553,0,0,0,482.914,58.272Z" transform="translate(-441.115 -57.732)" fill="#31313c"/>
        <path id="Trazado_99220" data-name="Trazado 99220" d="M491.361,58.272a.565.565,0,1,0-.565.54A.553.553,0,0,0,491.361,58.272Z" transform="translate(-444.478 -57.732)" fill="#31313c"/>
        <path id="Trazado_99221" data-name="Trazado 99221" d="M499.807,58.272a.565.565,0,1,0-.565.54A.553.553,0,0,0,499.807,58.272Z" transform="translate(-447.841 -57.732)" fill="#31313c"/>
      </g>
      <g id="Grupo_53308" data-name="Grupo 53308" transform="translate(0 38.893)">
        <ellipse id="Elipse_3955" data-name="Elipse 3955" cx="0.565" cy="0.54" rx="0.565" ry="0.54" transform="translate(0 0)" fill="#31313c"/>
        <path id="Trazado_99222" data-name="Trazado 99222" d="M423.79,65.78a.565.565,0,1,0-.565.54A.553.553,0,0,0,423.79,65.78Z" transform="translate(-417.577 -65.24)" fill="#31313c"/>
        <ellipse id="Elipse_3956" data-name="Elipse 3956" cx="0.565" cy="0.54" rx="0.565" ry="0.54" transform="translate(10.167 0)" fill="#31313c"/>
        <path id="Trazado_99223" data-name="Trazado 99223" d="M440.683,65.78a.565.565,0,1,0-.565.54A.553.553,0,0,0,440.683,65.78Z" transform="translate(-424.302 -65.24)" fill="#31313c"/>
        <path id="Trazado_99224" data-name="Trazado 99224" d="M449.129,65.78a.565.565,0,1,0-.565.54A.553.553,0,0,0,449.129,65.78Z" transform="translate(-427.665 -65.24)" fill="#31313c"/>
        <ellipse id="Elipse_3957" data-name="Elipse 3957" cx="0.565" cy="0.54" rx="0.565" ry="0.54" transform="translate(25.418 0)" fill="#31313c"/>
        <path id="Trazado_99225" data-name="Trazado 99225" d="M466.022,65.78a.565.565,0,1,0-.565.54A.554.554,0,0,0,466.022,65.78Z" transform="translate(-434.39 -65.24)" fill="#31313c"/>
        <ellipse id="Elipse_3958" data-name="Elipse 3958" cx="0.565" cy="0.54" rx="0.565" ry="0.54" transform="translate(35.585 0)" fill="#31313c"/>
        <ellipse id="Elipse_3959" data-name="Elipse 3959" cx="0.565" cy="0.54" rx="0.565" ry="0.54" transform="translate(40.669 0)" fill="#31313c"/>
        <path id="Trazado_99226" data-name="Trazado 99226" d="M491.361,65.78a.565.565,0,1,0-.565.54A.554.554,0,0,0,491.361,65.78Z" transform="translate(-444.478 -65.24)" fill="#31313c"/>
        <path id="Trazado_99227" data-name="Trazado 99227" d="M499.807,65.78a.565.565,0,1,0-.565.54A.553.553,0,0,0,499.807,65.78Z" transform="translate(-447.841 -65.24)" fill="#31313c"/>
      </g>
      <g id="Grupo_53309" data-name="Grupo 53309" transform="translate(0 34.572)">
        <ellipse id="Elipse_3960" data-name="Elipse 3960" cx="0.565" cy="0.54" rx="0.565" ry="0.54" transform="translate(0 0)" fill="#31313c"/>
        <path id="Trazado_99228" data-name="Trazado 99228" d="M423.79,73.287a.565.565,0,1,0-.565.54A.553.553,0,0,0,423.79,73.287Z" transform="translate(-417.577 -72.747)" fill="#31313c"/>
        <ellipse id="Elipse_3961" data-name="Elipse 3961" cx="0.565" cy="0.54" rx="0.565" ry="0.54" transform="translate(10.167 0)" fill="#31313c"/>
        <path id="Trazado_99229" data-name="Trazado 99229" d="M440.683,73.287a.565.565,0,1,0-.565.54A.553.553,0,0,0,440.683,73.287Z" transform="translate(-424.302 -72.747)" fill="#31313c"/>
        <path id="Trazado_99230" data-name="Trazado 99230" d="M449.129,73.287a.565.565,0,1,0-.565.54A.553.553,0,0,0,449.129,73.287Z" transform="translate(-427.665 -72.747)" fill="#31313c"/>
        <ellipse id="Elipse_3962" data-name="Elipse 3962" cx="0.565" cy="0.54" rx="0.565" ry="0.54" transform="translate(25.418 0)" fill="#31313c"/>
        <path id="Trazado_99231" data-name="Trazado 99231" d="M466.022,73.287a.565.565,0,1,0-.565.54A.553.553,0,0,0,466.022,73.287Z" transform="translate(-434.39 -72.747)" fill="#31313c"/>
        <ellipse id="Elipse_3963" data-name="Elipse 3963" cx="0.565" cy="0.54" rx="0.565" ry="0.54" transform="translate(35.585 0)" fill="#31313c"/>
        <ellipse id="Elipse_3964" data-name="Elipse 3964" cx="0.565" cy="0.54" rx="0.565" ry="0.54" transform="translate(40.669 0)" fill="#31313c"/>
        <path id="Trazado_99232" data-name="Trazado 99232" d="M491.361,73.287a.565.565,0,1,0-.565.54A.553.553,0,0,0,491.361,73.287Z" transform="translate(-444.478 -72.747)" fill="#31313c"/>
        <path id="Trazado_99233" data-name="Trazado 99233" d="M499.807,73.287a.565.565,0,1,0-.565.54A.553.553,0,0,0,499.807,73.287Z" transform="translate(-447.841 -72.747)" fill="#31313c"/>
      </g>
      <g id="Grupo_53310" data-name="Grupo 53310" transform="translate(0 30.25)">
        <path id="Trazado_99234" data-name="Trazado 99234" d="M415.344,80.795a.565.565,0,1,0-.565.54A.553.553,0,0,0,415.344,80.795Z" transform="translate(-414.214 -80.255)" fill="#31313c"/>
        <path id="Trazado_99235" data-name="Trazado 99235" d="M423.79,80.795a.565.565,0,1,0-.565.54A.553.553,0,0,0,423.79,80.795Z" transform="translate(-417.577 -80.255)" fill="#31313c"/>
        <path id="Trazado_99236" data-name="Trazado 99236" d="M432.236,80.795a.565.565,0,1,0-.564.54A.553.553,0,0,0,432.236,80.795Z" transform="translate(-420.939 -80.255)" fill="#31313c"/>
        <path id="Trazado_99237" data-name="Trazado 99237" d="M440.683,80.795a.565.565,0,1,0-.565.54A.553.553,0,0,0,440.683,80.795Z" transform="translate(-424.302 -80.255)" fill="#31313c"/>
        <path id="Trazado_99238" data-name="Trazado 99238" d="M449.129,80.795a.565.565,0,1,0-.565.54A.553.553,0,0,0,449.129,80.795Z" transform="translate(-427.665 -80.255)" fill="#31313c"/>
        <path id="Trazado_99239" data-name="Trazado 99239" d="M457.575,80.795a.565.565,0,1,0-.565.54A.553.553,0,0,0,457.575,80.795Z" transform="translate(-431.027 -80.255)" fill="#31313c"/>
        <path id="Trazado_99240" data-name="Trazado 99240" d="M466.022,80.795a.565.565,0,1,0-.565.54A.553.553,0,0,0,466.022,80.795Z" transform="translate(-434.39 -80.255)" fill="#31313c"/>
        <path id="Trazado_99241" data-name="Trazado 99241" d="M474.468,80.795a.565.565,0,1,0-.565.54A.553.553,0,0,0,474.468,80.795Z" transform="translate(-437.753 -80.255)" fill="#31313c"/>
        <path id="Trazado_99242" data-name="Trazado 99242" d="M482.914,80.795a.565.565,0,1,0-.565.54A.553.553,0,0,0,482.914,80.795Z" transform="translate(-441.115 -80.255)" fill="#31313c"/>
        <path id="Trazado_99243" data-name="Trazado 99243" d="M491.361,80.795a.565.565,0,1,0-.565.54A.553.553,0,0,0,491.361,80.795Z" transform="translate(-444.478 -80.255)" fill="#31313c"/>
        <path id="Trazado_99244" data-name="Trazado 99244" d="M499.807,80.795a.565.565,0,1,0-.565.54A.553.553,0,0,0,499.807,80.795Z" transform="translate(-447.841 -80.255)" fill="#31313c"/>
      </g>
      <g id="Grupo_53311" data-name="Grupo 53311" transform="translate(0 25.929)">
        <ellipse id="Elipse_3965" data-name="Elipse 3965" cx="0.565" cy="0.54" rx="0.565" ry="0.54" transform="translate(0 0)" fill="#31313c"/>
        <path id="Trazado_99245" data-name="Trazado 99245" d="M423.79,88.3a.565.565,0,1,0-.565.54A.553.553,0,0,0,423.79,88.3Z" transform="translate(-417.577 -87.763)" fill="#31313c"/>
        <ellipse id="Elipse_3966" data-name="Elipse 3966" cx="0.565" cy="0.54" rx="0.565" ry="0.54" transform="translate(10.167 0)" fill="#31313c"/>
        <path id="Trazado_99246" data-name="Trazado 99246" d="M440.683,88.3a.565.565,0,1,0-.565.54A.553.553,0,0,0,440.683,88.3Z" transform="translate(-424.302 -87.763)" fill="#31313c"/>
        <path id="Trazado_99247" data-name="Trazado 99247" d="M449.129,88.3a.565.565,0,1,0-.565.54A.553.553,0,0,0,449.129,88.3Z" transform="translate(-427.665 -87.763)" fill="#31313c"/>
        <ellipse id="Elipse_3967" data-name="Elipse 3967" cx="0.565" cy="0.54" rx="0.565" ry="0.54" transform="translate(25.418 0)" fill="#31313c"/>
        <path id="Trazado_99248" data-name="Trazado 99248" d="M466.022,88.3a.565.565,0,1,0-.565.54A.553.553,0,0,0,466.022,88.3Z" transform="translate(-434.39 -87.763)" fill="#31313c"/>
        <ellipse id="Elipse_3968" data-name="Elipse 3968" cx="0.565" cy="0.54" rx="0.565" ry="0.54" transform="translate(35.585 0)" fill="#31313c"/>
        <ellipse id="Elipse_3969" data-name="Elipse 3969" cx="0.565" cy="0.54" rx="0.565" ry="0.54" transform="translate(40.669 0)" fill="#31313c"/>
        <path id="Trazado_99249" data-name="Trazado 99249" d="M491.361,88.3a.565.565,0,1,0-.565.54A.553.553,0,0,0,491.361,88.3Z" transform="translate(-444.478 -87.763)" fill="#31313c"/>
        <path id="Trazado_99250" data-name="Trazado 99250" d="M499.807,88.3a.565.565,0,1,0-.565.54A.553.553,0,0,0,499.807,88.3Z" transform="translate(-447.841 -87.763)" fill="#31313c"/>
      </g>
      <g id="Grupo_53312" data-name="Grupo 53312" transform="translate(0 21.607)">
        <ellipse id="Elipse_3970" data-name="Elipse 3970" cx="0.565" cy="0.54" rx="0.565" ry="0.54" transform="translate(0 0)" fill="#31313c"/>
        <path id="Trazado_99251" data-name="Trazado 99251" d="M423.79,95.811a.565.565,0,1,0-.565.54A.553.553,0,0,0,423.79,95.811Z" transform="translate(-417.577 -95.271)" fill="#31313c"/>
        <ellipse id="Elipse_3971" data-name="Elipse 3971" cx="0.565" cy="0.54" rx="0.565" ry="0.54" transform="translate(10.167 0)" fill="#31313c"/>
        <path id="Trazado_99252" data-name="Trazado 99252" d="M440.683,95.811a.565.565,0,1,0-.565.54A.553.553,0,0,0,440.683,95.811Z" transform="translate(-424.302 -95.271)" fill="#31313c"/>
        <path id="Trazado_99253" data-name="Trazado 99253" d="M449.129,95.811a.565.565,0,1,0-.565.54A.553.553,0,0,0,449.129,95.811Z" transform="translate(-427.665 -95.271)" fill="#31313c"/>
        <ellipse id="Elipse_3972" data-name="Elipse 3972" cx="0.565" cy="0.54" rx="0.565" ry="0.54" transform="translate(25.418 0)" fill="#31313c"/>
        <path id="Trazado_99254" data-name="Trazado 99254" d="M466.022,95.811a.565.565,0,1,0-.565.54A.553.553,0,0,0,466.022,95.811Z" transform="translate(-434.39 -95.271)" fill="#31313c"/>
        <ellipse id="Elipse_3973" data-name="Elipse 3973" cx="0.565" cy="0.54" rx="0.565" ry="0.54" transform="translate(35.585 0)" fill="#31313c"/>
        <ellipse id="Elipse_3974" data-name="Elipse 3974" cx="0.565" cy="0.54" rx="0.565" ry="0.54" transform="translate(40.669 0)" fill="#31313c"/>
        <path id="Trazado_99255" data-name="Trazado 99255" d="M491.361,95.811a.565.565,0,1,0-.565.54A.553.553,0,0,0,491.361,95.811Z" transform="translate(-444.478 -95.271)" fill="#31313c"/>
        <path id="Trazado_99256" data-name="Trazado 99256" d="M499.807,95.811a.565.565,0,1,0-.565.54A.553.553,0,0,0,499.807,95.811Z" transform="translate(-447.841 -95.271)" fill="#31313c"/>
      </g>
      <g id="Grupo_53313" data-name="Grupo 53313" transform="translate(0 17.286)">
        <path id="Trazado_99257" data-name="Trazado 99257" d="M415.344,103.32a.565.565,0,1,0-.565.54A.553.553,0,0,0,415.344,103.32Z" transform="translate(-414.214 -102.779)" fill="#31313c"/>
        <path id="Trazado_99258" data-name="Trazado 99258" d="M423.79,103.32a.565.565,0,1,0-.565.54A.553.553,0,0,0,423.79,103.32Z" transform="translate(-417.577 -102.779)" fill="#31313c"/>
        <path id="Trazado_99259" data-name="Trazado 99259" d="M432.236,103.32a.565.565,0,1,0-.564.54A.553.553,0,0,0,432.236,103.32Z" transform="translate(-420.939 -102.779)" fill="#31313c"/>
        <path id="Trazado_99260" data-name="Trazado 99260" d="M440.683,103.32a.565.565,0,1,0-.565.54A.553.553,0,0,0,440.683,103.32Z" transform="translate(-424.302 -102.779)" fill="#31313c"/>
        <path id="Trazado_99261" data-name="Trazado 99261" d="M449.129,103.32a.565.565,0,1,0-.565.54A.553.553,0,0,0,449.129,103.32Z" transform="translate(-427.665 -102.779)" fill="#31313c"/>
        <path id="Trazado_99262" data-name="Trazado 99262" d="M457.575,103.32a.565.565,0,1,0-.565.54A.553.553,0,0,0,457.575,103.32Z" transform="translate(-431.027 -102.779)" fill="#31313c"/>
        <path id="Trazado_99263" data-name="Trazado 99263" d="M466.022,103.32a.565.565,0,1,0-.565.54A.553.553,0,0,0,466.022,103.32Z" transform="translate(-434.39 -102.779)" fill="#31313c"/>
        <path id="Trazado_99264" data-name="Trazado 99264" d="M474.468,103.32a.565.565,0,1,0-.565.54A.553.553,0,0,0,474.468,103.32Z" transform="translate(-437.753 -102.779)" fill="#31313c"/>
        <path id="Trazado_99265" data-name="Trazado 99265" d="M482.914,103.32a.565.565,0,1,0-.565.54A.553.553,0,0,0,482.914,103.32Z" transform="translate(-441.115 -102.779)" fill="#31313c"/>
        <path id="Trazado_99266" data-name="Trazado 99266" d="M491.361,103.32a.565.565,0,1,0-.565.54A.553.553,0,0,0,491.361,103.32Z" transform="translate(-444.478 -102.779)" fill="#31313c"/>
        <path id="Trazado_99267" data-name="Trazado 99267" d="M499.807,103.32a.565.565,0,1,0-.565.54A.553.553,0,0,0,499.807,103.32Z" transform="translate(-447.841 -102.779)" fill="#31313c"/>
      </g>
      <g id="Grupo_53314" data-name="Grupo 53314" transform="translate(0 12.964)">
        <ellipse id="Elipse_3975" data-name="Elipse 3975" cx="0.565" cy="0.54" rx="0.565" ry="0.54" transform="translate(0 0)" fill="#31313c"/>
        <path id="Trazado_99268" data-name="Trazado 99268" d="M423.79,110.828a.565.565,0,1,0-.565.54A.553.553,0,0,0,423.79,110.828Z" transform="translate(-417.577 -110.287)" fill="#31313c"/>
        <ellipse id="Elipse_3976" data-name="Elipse 3976" cx="0.565" cy="0.54" rx="0.565" ry="0.54" transform="translate(10.167 0)" fill="#31313c"/>
        <path id="Trazado_99269" data-name="Trazado 99269" d="M440.683,110.828a.565.565,0,1,0-.565.54A.553.553,0,0,0,440.683,110.828Z" transform="translate(-424.302 -110.287)" fill="#31313c"/>
        <path id="Trazado_99270" data-name="Trazado 99270" d="M449.129,110.828a.565.565,0,1,0-.565.54A.553.553,0,0,0,449.129,110.828Z" transform="translate(-427.665 -110.287)" fill="#31313c"/>
        <ellipse id="Elipse_3977" data-name="Elipse 3977" cx="0.565" cy="0.54" rx="0.565" ry="0.54" transform="translate(25.418 0)" fill="#31313c"/>
        <path id="Trazado_99271" data-name="Trazado 99271" d="M466.022,110.828a.565.565,0,1,0-.565.54A.554.554,0,0,0,466.022,110.828Z" transform="translate(-434.39 -110.287)" fill="#31313c"/>
        <ellipse id="Elipse_3978" data-name="Elipse 3978" cx="0.565" cy="0.54" rx="0.565" ry="0.54" transform="translate(35.585 0)" fill="#31313c"/>
        <ellipse id="Elipse_3979" data-name="Elipse 3979" cx="0.565" cy="0.54" rx="0.565" ry="0.54" transform="translate(40.669 0)" fill="#31313c"/>
        <path id="Trazado_99272" data-name="Trazado 99272" d="M491.361,110.828a.565.565,0,1,0-.565.54A.554.554,0,0,0,491.361,110.828Z" transform="translate(-444.478 -110.287)" fill="#31313c"/>
        <path id="Trazado_99273" data-name="Trazado 99273" d="M499.807,110.828a.565.565,0,1,0-.565.54A.553.553,0,0,0,499.807,110.828Z" transform="translate(-447.841 -110.287)" fill="#31313c"/>
      </g>
      <g id="Grupo_53315" data-name="Grupo 53315" transform="translate(0 8.643)">
        <path id="Trazado_99274" data-name="Trazado 99274" d="M415.344,118.334a.565.565,0,1,0-.565.54A.553.553,0,0,0,415.344,118.334Z" transform="translate(-414.214 -117.794)" fill="#31313c"/>
        <path id="Trazado_99275" data-name="Trazado 99275" d="M423.79,118.334a.565.565,0,1,0-.565.54A.553.553,0,0,0,423.79,118.334Z" transform="translate(-417.577 -117.794)" fill="#31313c"/>
        <path id="Trazado_99276" data-name="Trazado 99276" d="M432.236,118.334a.565.565,0,1,0-.564.54A.553.553,0,0,0,432.236,118.334Z" transform="translate(-420.939 -117.794)" fill="#31313c"/>
        <path id="Trazado_99277" data-name="Trazado 99277" d="M440.683,118.334a.565.565,0,1,0-.565.54A.553.553,0,0,0,440.683,118.334Z" transform="translate(-424.302 -117.794)" fill="#31313c"/>
        <path id="Trazado_99278" data-name="Trazado 99278" d="M449.129,118.334a.565.565,0,1,0-.565.54A.553.553,0,0,0,449.129,118.334Z" transform="translate(-427.665 -117.794)" fill="#31313c"/>
        <path id="Trazado_99279" data-name="Trazado 99279" d="M457.575,118.334a.565.565,0,1,0-.565.54A.553.553,0,0,0,457.575,118.334Z" transform="translate(-431.027 -117.794)" fill="#31313c"/>
        <path id="Trazado_99280" data-name="Trazado 99280" d="M466.022,118.334a.565.565,0,1,0-.565.54A.554.554,0,0,0,466.022,118.334Z" transform="translate(-434.39 -117.794)" fill="#31313c"/>
        <path id="Trazado_99281" data-name="Trazado 99281" d="M474.468,118.334a.565.565,0,1,0-.565.54A.553.553,0,0,0,474.468,118.334Z" transform="translate(-437.753 -117.794)" fill="#31313c"/>
        <path id="Trazado_99282" data-name="Trazado 99282" d="M482.914,118.334a.565.565,0,1,0-.565.54A.553.553,0,0,0,482.914,118.334Z" transform="translate(-441.115 -117.794)" fill="#31313c"/>
        <path id="Trazado_99283" data-name="Trazado 99283" d="M491.361,118.334a.565.565,0,1,0-.565.54A.554.554,0,0,0,491.361,118.334Z" transform="translate(-444.478 -117.794)" fill="#31313c"/>
        <path id="Trazado_99284" data-name="Trazado 99284" d="M499.807,118.334a.565.565,0,1,0-.565.54A.553.553,0,0,0,499.807,118.334Z" transform="translate(-447.841 -117.794)" fill="#31313c"/>
      </g>
      <g id="Grupo_53316" data-name="Grupo 53316" transform="translate(0 4.322)">
        <ellipse id="Elipse_3980" data-name="Elipse 3980" cx="0.565" cy="0.54" rx="0.565" ry="0.54" transform="translate(0 0)" fill="#31313c"/>
        <path id="Trazado_99285" data-name="Trazado 99285" d="M423.79,125.842a.565.565,0,1,0-.565.54A.553.553,0,0,0,423.79,125.842Z" transform="translate(-417.577 -125.302)" fill="#31313c"/>
        <ellipse id="Elipse_3981" data-name="Elipse 3981" cx="0.565" cy="0.54" rx="0.565" ry="0.54" transform="translate(10.167 0)" fill="#31313c"/>
        <path id="Trazado_99286" data-name="Trazado 99286" d="M440.683,125.842a.565.565,0,1,0-.565.54A.553.553,0,0,0,440.683,125.842Z" transform="translate(-424.302 -125.302)" fill="#31313c"/>
        <path id="Trazado_99287" data-name="Trazado 99287" d="M449.129,125.842a.565.565,0,1,0-.565.54A.553.553,0,0,0,449.129,125.842Z" transform="translate(-427.665 -125.302)" fill="#31313c"/>
        <ellipse id="Elipse_3982" data-name="Elipse 3982" cx="0.565" cy="0.54" rx="0.565" ry="0.54" transform="translate(25.418 0)" fill="#31313c"/>
        <path id="Trazado_99288" data-name="Trazado 99288" d="M466.022,125.842a.565.565,0,1,0-.565.54A.553.553,0,0,0,466.022,125.842Z" transform="translate(-434.39 -125.302)" fill="#31313c"/>
        <ellipse id="Elipse_3983" data-name="Elipse 3983" cx="0.565" cy="0.54" rx="0.565" ry="0.54" transform="translate(35.585 0)" fill="#31313c"/>
        <ellipse id="Elipse_3984" data-name="Elipse 3984" cx="0.565" cy="0.54" rx="0.565" ry="0.54" transform="translate(40.669 0)" fill="#31313c"/>
        <path id="Trazado_99289" data-name="Trazado 99289" d="M491.361,125.842a.565.565,0,1,0-.565.54A.553.553,0,0,0,491.361,125.842Z" transform="translate(-444.478 -125.302)" fill="#31313c"/>
        <path id="Trazado_99290" data-name="Trazado 99290" d="M499.807,125.842a.565.565,0,1,0-.565.54A.553.553,0,0,0,499.807,125.842Z" transform="translate(-447.841 -125.302)" fill="#31313c"/>
      </g>
      <g id="Grupo_53317" data-name="Grupo 53317" transform="translate(0 0)">
        <ellipse id="Elipse_3985" data-name="Elipse 3985" cx="0.565" cy="0.54" rx="0.565" ry="0.54" fill="#31313c"/>
        <path id="Trazado_99291" data-name="Trazado 99291" d="M423.79,133.35a.565.565,0,1,0-.565.54A.553.553,0,0,0,423.79,133.35Z" transform="translate(-417.577 -132.81)" fill="#31313c"/>
        <ellipse id="Elipse_3986" data-name="Elipse 3986" cx="0.565" cy="0.54" rx="0.565" ry="0.54" transform="translate(10.167)" fill="#31313c"/>
        <path id="Trazado_99292" data-name="Trazado 99292" d="M440.683,133.35a.565.565,0,1,0-.565.54A.553.553,0,0,0,440.683,133.35Z" transform="translate(-424.302 -132.81)" fill="#31313c"/>
        <path id="Trazado_99293" data-name="Trazado 99293" d="M449.129,133.35a.565.565,0,1,0-.565.54A.553.553,0,0,0,449.129,133.35Z" transform="translate(-427.665 -132.81)" fill="#31313c"/>
        <ellipse id="Elipse_3987" data-name="Elipse 3987" cx="0.565" cy="0.54" rx="0.565" ry="0.54" transform="translate(25.418)" fill="#31313c"/>
        <path id="Trazado_99294" data-name="Trazado 99294" d="M466.022,133.35a.565.565,0,1,0-.565.54A.553.553,0,0,0,466.022,133.35Z" transform="translate(-434.39 -132.81)" fill="#31313c"/>
        <ellipse id="Elipse_3988" data-name="Elipse 3988" cx="0.565" cy="0.54" rx="0.565" ry="0.54" transform="translate(35.585)" fill="#31313c"/>
        <ellipse id="Elipse_3989" data-name="Elipse 3989" cx="0.565" cy="0.54" rx="0.565" ry="0.54" transform="translate(40.669)" fill="#31313c"/>
        <path id="Trazado_99295" data-name="Trazado 99295" d="M491.361,133.35a.565.565,0,1,0-.565.54A.553.553,0,0,0,491.361,133.35Z" transform="translate(-444.478 -132.81)" fill="#31313c"/>
        <path id="Trazado_99296" data-name="Trazado 99296" d="M499.807,133.35a.565.565,0,1,0-.565.54A.553.553,0,0,0,499.807,133.35Z" transform="translate(-447.841 -132.81)" fill="#31313c"/>
      </g>
    </g>
  </g>
</svg>
