<svg xmlns="http://www.w3.org/2000/svg" xmlns:xlink="http://www.w3.org/1999/xlink" width="90" height="90" viewBox="0 0 90 90">
  <defs>
    <clipPath id="clip-path">
      <rect id="Rectángulo_45985" data-name="Rectángulo 45985" width="90" height="90" transform="translate(-3437 -7976)" fill="#fd9827"/>
    </clipPath>
  </defs>
  <g id="Enmascarar_grupo_952098" data-name="Enmascarar grupo 952098" transform="translate(3437 7976)" clip-path="url(#clip-path)">
    <g id="layer1" transform="translate(-3439.998 -9566.71)">
      <path id="path3032" d="M21,1590.711a1.5,1.5,0,0,0-1.494,1.506v13.5H7.5a4.523,4.523,0,0,0-4.5,4.5v3a1.5,1.5,0,1,0,3,0v-3a1.465,1.465,0,0,1,1.5-1.5h12v3h-9a1.5,1.5,0,0,0-1.5,1.5v42a1.5,1.5,0,0,0,1.5,1.5h75a1.5,1.5,0,0,0,1.5-1.5v-42a1.5,1.5,0,0,0-1.5-1.5H76.5v-3H88.5a1.465,1.465,0,0,1,1.5,1.5v54a1.465,1.465,0,0,1-1.5,1.5H7.5a1.465,1.465,0,0,1-1.5-1.5v-37.5a1.5,1.5,0,1,0-3,0v37.5a4.523,4.523,0,0,0,4.5,4.5H38.814c-.362,1.8-1.475,5.063-4.974,9H30a1.5,1.5,0,0,0,0,3h36a1.5,1.5,0,1,0,0-3H62.157c-3.6-4.092-4.693-7.254-5.024-9H88.5a4.523,4.523,0,0,0,4.5-4.5v-54a4.523,4.523,0,0,0-4.5-4.5H76.5v-13.5A1.5,1.5,0,0,0,75,1590.711H61.5a1.5,1.5,0,0,0-1.509,1.506v7.5H49.5v-3a1.507,1.507,0,0,0-1.427-1.494H36v-3a1.5,1.5,0,0,0-1.506-1.506Zm1.506,3H33v6H22.5Zm40.493,0H73.5v33.007H62.995Zm-27,4.506H46.5v28.5H36Zm-13.5,4.5H33v3H22.5Zm26.993,0h10.5v6.006H49.5Zm-26.993,6H33v33H22.5Zm26.993,3.006h10.5v2.988H49.5ZM12,1614.716h7.5v27h-3a1.5,1.5,0,0,0-1.509,1.506v6a1.5,1.5,0,0,0,1.509,1.494H79.491A1.5,1.5,0,0,0,81,1649.22v-6a1.5,1.5,0,0,0-1.506-1.506H76.5v-27H84v39H12ZM4.476,1617.7A1.5,1.5,0,0,0,3,1619.215v1.5a1.5,1.5,0,1,0,3,0v-1.5a1.5,1.5,0,0,0-1.523-1.52Zm45.019.017h10.5v24H49.5ZM36,1629.723H46.5v2.988H36Zm27,0H73.5v2.988H62.995Zm-27,5.988H46.5v6H36Zm27,0H73.5v6H62.995Zm-45,9H78v3H18Zm27,15a1.5,1.5,0,0,0,0,3h6a1.5,1.5,0,0,0,0-3Zm-3.094,9h12.2a19.269,19.269,0,0,0,4.157,9H37.724a18.926,18.926,0,0,0,4.178-9Z" fill="#fd9827"/>
    </g>
  </g>
</svg>
