<svg xmlns="http://www.w3.org/2000/svg" xmlns:xlink="http://www.w3.org/1999/xlink" width="90" height="90" viewBox="0 0 90 90">
  <defs>
    <clipPath id="clip-path">
      <rect id="Rectángulo_45981" data-name="Rectángulo 45981" width="90" height="90" transform="translate(964.966 3048)" fill="#fd9827"/>
    </clipPath>
  </defs>
  <g id="Enmascarar_grupo_952095" data-name="Enmascarar grupo 952095" transform="translate(-964.966 -3048)" clip-path="url(#clip-path)">
    <g id="en-todo-el-mundo" transform="translate(964.966 3048)">
      <g id="Grupo_952400" data-name="Grupo 952400">
        <path id="Trazado_656871" data-name="Trazado 656871" d="M72.069,74.329a7.734,7.734,0,0,0,.8-3.437V69.7l.055-.052c.215-.2.437-.41.659-.631A40.433,40.433,0,0,0,28.738,3.409a1.758,1.758,0,0,0,1.413,3.219,37.285,37.285,0,0,1,10.608-2.9,7.722,7.722,0,0,0,.3.735,1.378,1.378,0,0,1,.175.5c0,.169-.013.212-.289.574a3.361,3.361,0,0,0-.308,4.1c1.263,2.316,3.64,3.18,5.375,3.811a8.589,8.589,0,0,1,1.748.765,1.766,1.766,0,0,1-.117.366,8,8,0,0,0-.527,2.915,2.556,2.556,0,0,1-.207,1.272c-.136.165-.661.582-2.582.88a4.126,4.126,0,0,0-3.2,2.882c-.5,1.347-.79,3.875.182,5.021a3.605,3.605,0,0,0,3.605,1.225c.833-.105,1.492-.188,2.972,1.447a5.063,5.063,0,0,0,4.67,1.716c.174-.014.4-.03.536-.028a11.54,11.54,0,0,0,2.747,4.031c.809.808,1.143,1.142,1.143,3.52a3.538,3.538,0,0,0,3.008,3.753,3.745,3.745,0,0,0,.489.032c2.207,0,4.8-1.882,5.83-5.74a3.142,3.142,0,0,1,.655-1.42,4.438,4.438,0,0,1,1.543,1.783c1.566,2.659,3.061,4.047,4.706,4.369A4.7,4.7,0,0,0,77.05,41l.09-.069c1.815,1.3,3.684.34,4.733-.2l.017-.009a36.8,36.8,0,0,1-9.5,24.454,7.784,7.784,0,0,0-15.084,2.7v3.013a7.735,7.735,0,0,0,.8,3.441,12.408,12.408,0,0,0-1.635,1.354,14.091,14.091,0,0,0-3.708-3.577A8.733,8.733,0,0,0,53.787,68V64.485a8.789,8.789,0,0,0-17.577,0V68a8.73,8.73,0,0,0,1.023,4.11,14.084,14.084,0,0,0-3.708,3.577,12.415,12.415,0,0,0-1.635-1.354,7.733,7.733,0,0,0,.8-3.441V67.879a7.784,7.784,0,0,0-15.085-2.7,36.784,36.784,0,0,1-9.3-20.324,10.353,10.353,0,0,0,3.025-.844c.994-.414.994-.414,1.685.157A10.771,10.771,0,0,1,13.83,45c1.111,1.21,2.612,2.846,4.622,2.846.1,0,.209,0,.315-.013a4.792,4.792,0,0,0,3.538-2.5c1.167-1.8.128-3.888-.707-5.563-.425-.852-1.135-2.279-.932-2.726.062-.136.393-.418,1.237-.671a10.018,10.018,0,0,1,.843.864c.98,1.083,2.322,2.567,4.377,2.631,1.291.038,4.458-.09,5.993-2.154a4.419,4.419,0,0,0,.47-4.246c-1.064-3.177-3.495-4.565-6.326-5.93a17.956,17.956,0,0,0-2.11-.774,12.52,12.52,0,0,1-3.088-1.286c-.663-2.258-1.219-3.448-1.969-4.224a3.955,3.955,0,0,0-2.994-1.11,5.767,5.767,0,0,1-2.557-.578,37.565,37.565,0,0,1,3.378-4.211,1.758,1.758,0,1,0-2.577-2.391,40.427,40.427,0,0,0,1.069,56.058c.23.23.469.462.714.7v1.178a7.734,7.734,0,0,0,.8,3.437,12.232,12.232,0,0,0-5.322,10.122v3.791A1.758,1.758,0,0,0,14.365,90H75.633a1.758,1.758,0,0,0,1.758-1.758V84.452a12.235,12.235,0,0,0-5.322-10.122Zm7.112-36.263a.673.673,0,0,1-.111-.094,2.532,2.532,0,0,0-2.694-.639,5.186,5.186,0,0,0-1.46.874c-.365.279-.817.627-1.03.586-.088-.017-.9-.239-2.351-2.7-1.891-3.21-3.8-3.677-5.064-3.506-.962.131-2.7.827-3.559,4.017-.641,2.394-1.958,3.107-2.389,3.137a1.188,1.188,0,0,1-.027-.271c0-3.568-.861-4.7-2.174-6.007a8.326,8.326,0,0,1-2.134-3.248,1.766,1.766,0,0,0-.228-.4,3.749,3.749,0,0,0-3.682-1.371c-.839.066-1.185.094-1.785-.569-2.5-2.764-4.418-2.779-6.02-2.577-.093.012-.2.026-.3.035a3.91,3.91,0,0,1,.447-1.978c.09-.137.171-.212.242-.223,5.152-.8,5.665-3.052,5.762-5.487a4.87,4.87,0,0,1,.259-1.7A3.876,3.876,0,0,0,51,12.814c-.67-1.527-2.259-2.105-3.795-2.664-1.408-.512-2.863-1.041-3.49-2.191-.035-.064-.061-.117-.079-.159l.1-.13A4.156,4.156,0,0,0,44.745,4.9a4.044,4.044,0,0,0-.29-1.421A36.954,36.954,0,0,1,81.731,36.967a9.011,9.011,0,0,0-1.469.641A4.474,4.474,0,0,1,79.181,38.066Zm-66.5-15.5a9.113,9.113,0,0,0,4.29,1.092,4.976,4.976,0,0,1,.6.043c.106.1.494.613,1.153,2.883.574,1.978,3.108,2.8,5.343,3.525a16.622,16.622,0,0,1,1.668.6c3.014,1.453,3.985,2.287,4.519,3.88.115.342.215.8.042,1.032-.3.4-1.446.786-3.063.738-.56-.018-1.261-.792-1.879-1.476-.94-1.039-2.228-2.463-4.083-1.978-1.971.513-3.215,1.392-3.8,2.688-.9,1.972.147,4.066.985,5.749a8.226,8.226,0,0,1,.862,2.146c-.447.672-.765.845-.843.851-.454.032-1.573-1.185-2.052-1.707a12.432,12.432,0,0,0-1.163-1.165,4.394,4.394,0,0,0-5.277-.693,7.179,7.179,0,0,1-1.929.581,36.694,36.694,0,0,1,4.628-18.786ZM60.818,67.879a4.269,4.269,0,0,1,8.537,0v3.013a4.269,4.269,0,0,1-8.537,0ZM39.726,64.485a5.273,5.273,0,1,1,10.546,0V68a5.273,5.273,0,0,1-10.546,0ZM20.642,67.879a4.269,4.269,0,0,1,8.537,0v3.013a4.269,4.269,0,0,1-8.537,0Zm-4.52,16.573a8.744,8.744,0,0,1,4.049-7.39,7.761,7.761,0,0,0,9.474,0A8.9,8.9,0,0,1,31.783,79a14.069,14.069,0,0,0-.845,4.819v2.665H16.122Zm18.33-.632a10.517,10.517,0,0,1,.866-4.189,1.753,1.753,0,0,0,.117-.259,10.545,10.545,0,0,1,4.054-4.531,8.764,8.764,0,0,0,11.019,0,10.547,10.547,0,0,1,4.056,4.536,1.764,1.764,0,0,0,.114.252,10.513,10.513,0,0,1,.867,4.191v2.665H34.453V83.819Zm39.423,2.665H59.061V83.819A14.065,14.065,0,0,0,58.215,79a8.9,8.9,0,0,1,2.138-1.937,7.761,7.761,0,0,0,9.474,0,8.745,8.745,0,0,1,4.049,7.39Z" fill="#fd9827"/>
        <path id="Trazado_656872" data-name="Trazado 656872" d="M22.567,10.685a1.758,1.758,0,1,0,0-3.515h0a1.758,1.758,0,0,0,0,3.515Z" fill="#fd9827"/>
      </g>
    </g>
  </g>
</svg>
