<svg xmlns="http://www.w3.org/2000/svg" width="315" height="191.968" viewBox="0 0 315 191.968">
  <g id="Grupo_952308" data-name="Grupo 952308" transform="translate(-587.131 -660.413)">
    <g id="Grupo_952288" data-name="Grupo 952288" transform="translate(607.923 680.96)">
      <rect id="Rectángulo_45836" data-name="Rectángulo 45836" width="13.813" height="55.639" transform="translate(94.034 115.025)" fill="#bbdbe8"/>
      <rect id="Rectángulo_45837" data-name="Rectángulo 45837" width="11.463" height="27.556" transform="translate(95.156 117.54)" fill="#aaccd6"/>
      <g id="Grupo_952268" data-name="Grupo 952268" transform="translate(95.614 155.69)">
        <circle id="Elipse_4808" data-name="Elipse 4808" cx="3.767" cy="3.767" r="3.767" transform="translate(0 5.327) rotate(-45)" fill="#7cafb2"/>
        <path id="Trazado_656568" data-name="Trazado 656568" d="M3337.044,4381.645a4.07,4.07,0,1,1,4.07-4.07A4.074,4.074,0,0,1,3337.044,4381.645Zm0-7.533a3.463,3.463,0,1,0,3.464,3.463A3.467,3.467,0,0,0,3337.044,4374.112Z" transform="translate(-3331.717 -4372.249)" fill="#fff"/>
      </g>
      <rect id="Rectángulo_45838" data-name="Rectángulo 45838" width="13.813" height="55.639" transform="translate(62.507 115.025)" fill="#bbdbe8"/>
      <rect id="Rectángulo_45839" data-name="Rectángulo 45839" width="11.463" height="27.556" transform="translate(63.628 117.54)" fill="#aaccd6"/>
      <g id="Grupo_952269" data-name="Grupo 952269" transform="translate(64.086 155.69)">
        <circle id="Elipse_4809" data-name="Elipse 4809" cx="3.767" cy="3.767" r="3.767" transform="translate(0 5.327) rotate(-45)" fill="#7cafb2"/>
        <path id="Trazado_656569" data-name="Trazado 656569" d="M2713,4381.645a4.07,4.07,0,1,1,4.07-4.07A4.074,4.074,0,0,1,2713,4381.645Zm0-7.533a3.463,3.463,0,1,0,3.464,3.463A3.468,3.468,0,0,0,2713,4374.112Z" transform="translate(-2707.673 -4372.249)" fill="#fff"/>
      </g>
      <rect id="Rectángulo_45840" data-name="Rectángulo 45840" width="13.813" height="55.639" transform="translate(46.88 115.025)" fill="#bbdbe8"/>
      <rect id="Rectángulo_45841" data-name="Rectángulo 45841" width="11.463" height="27.556" transform="translate(48.002 117.54)" fill="#aaccd6"/>
      <g id="Grupo_952270" data-name="Grupo 952270" transform="translate(49.465 156.696)">
        <circle id="Elipse_4810" data-name="Elipse 4810" cx="3.767" cy="3.767" r="3.767" transform="matrix(0.16, -0.987, 0.987, 0.16, 0, 7.436)" fill="#7cafb2"/>
        <path id="Trazado_656570" data-name="Trazado 656570" d="M2403.69,4381.645a4.07,4.07,0,1,1,4.07-4.07A4.074,4.074,0,0,1,2403.69,4381.645Zm0-7.533a3.463,3.463,0,1,0,3.464,3.463A3.468,3.468,0,0,0,2403.69,4374.112Z" transform="translate(-2399.368 -4373.254)" fill="#fff"/>
      </g>
      <rect id="Rectángulo_45842" data-name="Rectángulo 45842" width="13.813" height="55.639" transform="translate(78.05 115.025)" fill="#bbdbe8"/>
      <rect id="Rectángulo_45843" data-name="Rectángulo 45843" width="11.463" height="27.556" transform="translate(79.171 117.54)" fill="#aaccd6"/>
      <g id="Grupo_952271" data-name="Grupo 952271" transform="translate(79.629 155.69)">
        <circle id="Elipse_4811" data-name="Elipse 4811" cx="3.767" cy="3.767" r="3.767" transform="translate(0 5.327) rotate(-45)" fill="#7cafb2"/>
        <path id="Trazado_656571" data-name="Trazado 656571" d="M3020.651,4381.645a4.07,4.07,0,1,1,4.07-4.07A4.074,4.074,0,0,1,3020.651,4381.645Zm0-7.533a3.463,3.463,0,1,0,3.463,3.463A3.467,3.467,0,0,0,3020.651,4374.112Z" transform="translate(-3015.323 -4372.249)" fill="#fff"/>
      </g>
      <rect id="Rectángulo_45844" data-name="Rectángulo 45844" width="13.813" height="55.639" transform="translate(31.253 115.025)" fill="#bbdbe8"/>
      <rect id="Rectángulo_45845" data-name="Rectángulo 45845" width="11.463" height="27.556" transform="translate(32.375 117.54)" fill="#aaccd6"/>
      <g id="Grupo_952272" data-name="Grupo 952272" transform="translate(33.838 156.696)">
        <circle id="Elipse_4812" data-name="Elipse 4812" cx="3.767" cy="3.767" r="3.767" transform="translate(0 1.207) rotate(-9.217)" fill="#7cafb2"/>
        <path id="Trazado_656572" data-name="Trazado 656572" d="M2094.379,4381.645a4.07,4.07,0,1,1,4.07-4.07A4.074,4.074,0,0,1,2094.379,4381.645Zm0-7.533a3.463,3.463,0,1,0,3.464,3.463A3.468,3.468,0,0,0,2094.379,4374.112Z" transform="translate(-2090.057 -4373.254)" fill="#fff"/>
      </g>
      <rect id="Rectángulo_45846" data-name="Rectángulo 45846" width="13.813" height="55.639" transform="translate(15.627 115.025)" fill="#bbdbe8"/>
      <rect id="Rectángulo_45847" data-name="Rectángulo 45847" width="11.463" height="27.556" transform="translate(16.748 117.54)" fill="#aaccd6"/>
      <g id="Grupo_952273" data-name="Grupo 952273" transform="translate(18.002 156.486)">
        <circle id="Elipse_4813" data-name="Elipse 4813" cx="3.767" cy="3.767" r="3.767" transform="matrix(0.23, -0.973, 0.973, 0.23, 0, 7.332)" fill="#7cafb2"/>
        <path id="Trazado_656573" data-name="Trazado 656573" d="M1785.068,4381.645a4.07,4.07,0,1,1,4.07-4.07A4.074,4.074,0,0,1,1785.068,4381.645Zm0-7.533a3.463,3.463,0,1,0,3.464,3.463A3.468,3.468,0,0,0,1785.068,4374.112Z" transform="translate(-1780.537 -4373.044)" fill="#fff"/>
      </g>
      <rect id="Rectángulo_45848" data-name="Rectángulo 45848" width="13.813" height="55.639" transform="translate(0 115.025)" fill="#bbdbe8"/>
      <rect id="Rectángulo_45849" data-name="Rectángulo 45849" width="11.463" height="27.556" transform="translate(1.122 117.54)" fill="#aaccd6"/>
      <g id="Grupo_952274" data-name="Grupo 952274" transform="translate(1.579 155.69)">
        <circle id="Elipse_4814" data-name="Elipse 4814" cx="3.767" cy="3.767" r="3.767" transform="translate(0 5.327) rotate(-45)" fill="#7cafb2"/>
        <path id="Trazado_656574" data-name="Trazado 656574" d="M1475.759,4381.645a4.07,4.07,0,1,1,4.07-4.07A4.074,4.074,0,0,1,1475.759,4381.645Zm0-7.533a3.463,3.463,0,1,0,3.463,3.463A3.468,3.468,0,0,0,1475.759,4374.112Z" transform="translate(-1470.432 -4372.249)" fill="#fff"/>
      </g>
      <rect id="Rectángulo_45850" data-name="Rectángulo 45850" width="13.813" height="55.639" transform="translate(62.507 0)" fill="#bbdbe8"/>
      <rect id="Rectángulo_45851" data-name="Rectángulo 45851" width="11.463" height="27.556" transform="translate(63.628 2.515)" fill="#aaccd6"/>
      <g id="Grupo_952275" data-name="Grupo 952275" transform="translate(65.294 41.872)">
        <circle id="Elipse_4815" data-name="Elipse 4815" cx="3.767" cy="3.767" r="3.767" transform="translate(0 0.742) rotate(-5.655)" fill="#7cafb2"/>
        <path id="Trazado_656575" data-name="Trazado 656575" d="M2713,2104.872a4.07,4.07,0,1,1,4.07-4.07A4.074,4.074,0,0,1,2713,2104.872Zm0-7.533a3.464,3.464,0,1,0,3.464,3.464A3.468,3.468,0,0,0,2713,2097.339Z" transform="translate(-2708.88 -2096.683)" fill="#fff"/>
      </g>
      <rect id="Rectángulo_45852" data-name="Rectángulo 45852" width="13.813" height="55.639" transform="translate(46.88 0)" fill="#bbdbe8"/>
      <rect id="Rectángulo_45853" data-name="Rectángulo 45853" width="11.463" height="27.556" transform="translate(48.002 2.515)" fill="#aaccd6"/>
      <g id="Grupo_952276" data-name="Grupo 952276" transform="translate(48.46 40.665)">
        <circle id="Elipse_4816" data-name="Elipse 4816" cx="3.767" cy="3.767" r="3.767" transform="translate(0 5.327) rotate(-45)" fill="#7cafb2"/>
        <path id="Trazado_656576" data-name="Trazado 656576" d="M2403.69,2104.872a4.07,4.07,0,1,1,4.07-4.07A4.074,4.074,0,0,1,2403.69,2104.872Zm0-7.533a3.464,3.464,0,1,0,3.464,3.464A3.468,3.468,0,0,0,2403.69,2097.339Z" transform="translate(-2398.363 -2095.475)" fill="#fff"/>
      </g>
      <rect id="Rectángulo_45854" data-name="Rectángulo 45854" width="13.813" height="55.639" transform="translate(78.05 0)" fill="#bbdbe8"/>
      <rect id="Rectángulo_45855" data-name="Rectángulo 45855" width="11.463" height="27.556" transform="translate(79.171 2.515)" fill="#aaccd6"/>
      <g id="Grupo_952277" data-name="Grupo 952277" transform="translate(80.837 41.872)">
        <circle id="Elipse_4817" data-name="Elipse 4817" cx="3.767" cy="3.767" r="3.767" transform="translate(0 0.742) rotate(-5.655)" fill="#7cafb2"/>
        <path id="Trazado_656577" data-name="Trazado 656577" d="M3020.651,2104.872a4.07,4.07,0,1,1,4.07-4.07A4.074,4.074,0,0,1,3020.651,2104.872Zm0-7.533a3.464,3.464,0,1,0,3.463,3.464A3.468,3.468,0,0,0,3020.651,2097.339Z" transform="translate(-3016.531 -2096.683)" fill="#fff"/>
      </g>
      <rect id="Rectángulo_45856" data-name="Rectángulo 45856" width="13.813" height="55.639" transform="translate(31.253 0)" fill="#bbdbe8"/>
      <rect id="Rectángulo_45857" data-name="Rectángulo 45857" width="11.463" height="27.556" transform="translate(32.375 2.515)" fill="#aaccd6"/>
      <g id="Grupo_952278" data-name="Grupo 952278" transform="translate(34.09 41.922)">
        <circle id="Elipse_4818" data-name="Elipse 4818" cx="3.767" cy="3.767" r="3.767" transform="translate(0.046 0.58) rotate(-4.065)" fill="#7cafb2"/>
        <path id="Trazado_656578" data-name="Trazado 656578" d="M2094.379,2104.872a4.07,4.07,0,1,1,4.07-4.07A4.074,4.074,0,0,1,2094.379,2104.872Zm0-7.533a3.464,3.464,0,1,0,3.464,3.464A3.468,3.468,0,0,0,2094.379,2097.339Z" transform="translate(-2090.309 -2096.733)" fill="#fff"/>
      </g>
      <rect id="Rectángulo_45858" data-name="Rectángulo 45858" width="13.813" height="55.639" transform="translate(15.627 0)" fill="#bbdbe8"/>
      <rect id="Rectángulo_45859" data-name="Rectángulo 45859" width="11.463" height="27.556" transform="translate(16.748 2.515)" fill="#aaccd6"/>
      <g id="Grupo_952279" data-name="Grupo 952279" transform="translate(18.002 41.461)">
        <circle id="Elipse_4819" data-name="Elipse 4819" cx="3.767" cy="3.767" r="3.767" transform="matrix(0.973, -0.23, 0.23, 0.973, 0, 1.731)" fill="#7cafb2"/>
        <path id="Trazado_656579" data-name="Trazado 656579" d="M1785.068,2104.872a4.07,4.07,0,1,1,4.07-4.07A4.074,4.074,0,0,1,1785.068,2104.872Zm0-7.533a3.464,3.464,0,1,0,3.464,3.464A3.468,3.468,0,0,0,1785.068,2097.339Z" transform="translate(-1780.537 -2096.271)" fill="#fff"/>
      </g>
      <rect id="Rectángulo_45860" data-name="Rectángulo 45860" width="13.813" height="55.639" transform="translate(0 0)" fill="#bbdbe8"/>
      <rect id="Rectángulo_45861" data-name="Rectángulo 45861" width="11.463" height="27.556" transform="translate(1.122 2.515)" fill="#aaccd6"/>
      <g id="Grupo_952280" data-name="Grupo 952280" transform="translate(2.787 41.872)">
        <circle id="Elipse_4820" data-name="Elipse 4820" cx="3.767" cy="3.767" r="3.767" transform="translate(0 0.742) rotate(-5.655)" fill="#7cafb2"/>
        <path id="Trazado_656580" data-name="Trazado 656580" d="M1475.759,2104.872a4.07,4.07,0,1,1,4.07-4.07A4.074,4.074,0,0,1,1475.759,2104.872Zm0-7.533a3.464,3.464,0,1,0,3.463,3.464A3.468,3.468,0,0,0,1475.759,2097.339Z" transform="translate(-1471.639 -2096.683)" fill="#fff"/>
      </g>
      <rect id="Rectángulo_45862" data-name="Rectángulo 45862" width="13.813" height="55.639" transform="translate(77.864 57.513)" fill="#bbdbe8"/>
      <rect id="Rectángulo_45863" data-name="Rectángulo 45863" width="11.463" height="27.556" transform="translate(78.985 60.027)" fill="#aaccd6"/>
      <g id="Grupo_952281" data-name="Grupo 952281" transform="translate(80.074 98.808)">
        <circle id="Elipse_4821" data-name="Elipse 4821" cx="3.767" cy="3.767" r="3.767" transform="translate(0 2.183) rotate(-16.845)" fill="#7cafb2"/>
        <path id="Trazado_656581" data-name="Trazado 656581" d="M3016.968,3243.259a4.07,4.07,0,1,1,4.069-4.07A4.075,4.075,0,0,1,3016.968,3243.259Zm0-7.534a3.464,3.464,0,1,0,3.464,3.464A3.468,3.468,0,0,0,3016.968,3235.725Z" transform="translate(-3012.271 -3234.492)" fill="#fff"/>
      </g>
      <rect id="Rectángulo_45864" data-name="Rectángulo 45864" width="13.813" height="55.639" transform="translate(62.292 57.513)" fill="#bbdbe8"/>
      <rect id="Rectángulo_45865" data-name="Rectángulo 45865" width="11.463" height="27.556" transform="translate(63.414 60.027)" fill="#aaccd6"/>
      <g id="Grupo_952282" data-name="Grupo 952282" transform="translate(64.667 98.973)">
        <circle id="Elipse_4822" data-name="Elipse 4822" cx="3.767" cy="3.767" r="3.767" transform="translate(0 1.731) rotate(-13.283)" fill="#7cafb2"/>
        <path id="Trazado_656582" data-name="Trazado 656582" d="M2708.754,3243.259a4.07,4.07,0,1,1,4.07-4.07A4.075,4.075,0,0,1,2708.754,3243.259Zm0-7.534a3.464,3.464,0,1,0,3.464,3.464A3.468,3.468,0,0,0,2708.754,3235.725Z" transform="translate(-2704.223 -3234.658)" fill="#fff"/>
      </g>
      <rect id="Rectángulo_45866" data-name="Rectángulo 45866" width="13.813" height="55.639" transform="translate(46.666 57.513)" fill="#bbdbe8"/>
      <rect id="Rectángulo_45867" data-name="Rectángulo 45867" width="11.463" height="27.556" transform="translate(47.787 60.027)" fill="#aaccd6"/>
      <g id="Grupo_952283" data-name="Grupo 952283" transform="translate(48.245 98.178)">
        <circle id="Elipse_4823" data-name="Elipse 4823" cx="3.767" cy="3.767" r="3.767" transform="translate(0 5.327) rotate(-45)" fill="#7cafb2"/>
        <path id="Trazado_656583" data-name="Trazado 656583" d="M2399.443,3243.259a4.07,4.07,0,1,1,4.07-4.07A4.075,4.075,0,0,1,2399.443,3243.259Zm0-7.534a3.464,3.464,0,1,0,3.463,3.464A3.468,3.468,0,0,0,2399.443,3235.725Z" transform="translate(-2394.115 -3233.862)" fill="#fff"/>
      </g>
      <rect id="Rectángulo_45868" data-name="Rectángulo 45868" width="13.813" height="55.639" transform="translate(31.039 57.513)" fill="#bbdbe8"/>
      <rect id="Rectángulo_45869" data-name="Rectángulo 45869" width="11.463" height="27.556" transform="translate(32.16 60.027)" fill="#aaccd6"/>
      <g id="Grupo_952284" data-name="Grupo 952284" transform="translate(32.618 98.178)">
        <circle id="Elipse_4824" data-name="Elipse 4824" cx="3.767" cy="3.767" r="3.767" transform="translate(0 5.327) rotate(-45)" fill="#7cafb2"/>
        <path id="Trazado_656584" data-name="Trazado 656584" d="M2090.134,3243.259a4.07,4.07,0,1,1,4.07-4.07A4.075,4.075,0,0,1,2090.134,3243.259Zm0-7.534a3.464,3.464,0,1,0,3.463,3.464A3.468,3.468,0,0,0,2090.134,3235.725Z" transform="translate(-2084.806 -3233.862)" fill="#fff"/>
      </g>
      <rect id="Rectángulo_45870" data-name="Rectángulo 45870" width="13.813" height="55.639" transform="translate(15.412 57.513)" fill="#bbdbe8"/>
      <rect id="Rectángulo_45871" data-name="Rectángulo 45871" width="11.463" height="27.556" transform="translate(16.534 60.027)" fill="#aaccd6"/>
      <g id="Grupo_952285" data-name="Grupo 952285" transform="translate(17.908 99.094)">
        <circle id="Elipse_4825" data-name="Elipse 4825" cx="3.767" cy="3.767" r="3.767" transform="matrix(0.982, -0.189, 0.189, 0.982, 0, 1.425)" fill="#7cafb2"/>
        <path id="Trazado_656585" data-name="Trazado 656585" d="M1780.823,3243.259a4.07,4.07,0,1,1,4.07-4.07A4.075,4.075,0,0,1,1780.823,3243.259Zm0-7.534a3.464,3.464,0,1,0,3.463,3.464A3.468,3.468,0,0,0,1780.823,3235.725Z" transform="translate(-1776.412 -3234.778)" fill="#fff"/>
      </g>
      <rect id="Rectángulo_45872" data-name="Rectángulo 45872" width="13.813" height="55.639" transform="translate(0.186 57.513)" fill="#bbdbe8"/>
      <rect id="Rectángulo_45873" data-name="Rectángulo 45873" width="11.463" height="27.556" transform="translate(1.308 60.027)" fill="#aaccd6"/>
      <g id="Grupo_952286" data-name="Grupo 952286" transform="translate(2.171 98.583)">
        <circle id="Elipse_4826" data-name="Elipse 4826" cx="3.767" cy="3.767" r="3.767" transform="translate(0 2.883) rotate(-22.5)" fill="#7cafb2"/>
        <path id="Trazado_656586" data-name="Trazado 656586" d="M1479.441,3243.259a4.07,4.07,0,1,1,4.07-4.07A4.075,4.075,0,0,1,1479.441,3243.259Zm0-7.534a3.464,3.464,0,1,0,3.464,3.464A3.468,3.468,0,0,0,1479.441,3235.725Z" transform="translate(-1474.52 -3234.268)" fill="#fff"/>
      </g>
      <rect id="Rectángulo_45874" data-name="Rectángulo 45874" width="13.813" height="55.639" transform="translate(94.22 57.513)" fill="#bbdbe8"/>
      <rect id="Rectángulo_45875" data-name="Rectángulo 45875" width="11.463" height="27.556" transform="translate(95.342 60.027)" fill="#aaccd6"/>
      <g id="Grupo_952287" data-name="Grupo 952287" transform="translate(95.8 98.178)">
        <circle id="Elipse_4827" data-name="Elipse 4827" cx="3.767" cy="3.767" r="3.767" transform="translate(0 5.327) rotate(-45)" fill="#7cafb2"/>
        <path id="Trazado_656587" data-name="Trazado 656587" d="M3340.727,3243.259a4.07,4.07,0,1,1,4.07-4.07A4.075,4.075,0,0,1,3340.727,3243.259Zm0-7.534a3.464,3.464,0,1,0,3.464,3.464A3.468,3.468,0,0,0,3340.727,3235.725Z" transform="translate(-3335.4 -3233.862)" fill="#fff"/>
      </g>
    </g>
    <g id="Grupo_952289" data-name="Grupo 952289" transform="translate(598.953 794.131)">
      <path id="Trazado_656588" data-name="Trazado 656588" d="M1241.858,3513.618h.371l1.973-4.55c.595-1.647,1.828-2.068,3.752-2.068h22.974a3.09,3.09,0,0,1,.91.137l.034.011a3.55,3.55,0,0,1,2.1,1.693l2.546,4.777H1310a3.773,3.773,0,0,1,3.879,3.6v41.7a1.353,1.353,0,0,1-1.386,1.279h-73.132a1.333,1.333,0,0,1-1.365-1.279v-41.7A3.753,3.753,0,0,1,1241.858,3513.618Z" transform="translate(-1238 -3507)" fill="#fc9012"/>
      <rect id="Rectángulo_45876" data-name="Rectángulo 45876" width="75.856" height="47.65" rx="11.024" transform="translate(0.003 9.841)" fill="#f06900"/>
      <path id="Trazado_656589" data-name="Trazado 656589" d="M1241.858,3553.467h.9l1.872-4.392c.575-1.647,1.767-2.075,3.628-2.075h22.211a2.866,2.866,0,0,1,.879.131l.033.008a3.48,3.48,0,0,1,2.029,1.7l2.367,4.623H1310a3.753,3.753,0,0,1,3.879,3.576v41.7A1.332,1.332,0,0,1,1312.5,3600h-73.132a1.312,1.312,0,0,1-1.365-1.253v-41.7A3.733,3.733,0,0,1,1241.858,3553.467Z" transform="translate(-1238 -3544.979)" fill="#fd7600"/>
    </g>
    <g id="Grupo_952292" data-name="Grupo 952292" transform="translate(656.362 712.573)">
      <g id="Grupo_952290" data-name="Grupo 952290" transform="translate(65.451 111.605)">
        <path id="Trazado_656590" data-name="Trazado 656590" d="M3675.845,4151.738h44.52v-3.064H3708.12l1.116-9.8,1.179-10.339.254-2.218h-38.928l-.792,8.506-.96,10.306-.086.906C3669.616,4149.119,3672.358,4151.738,3675.845,4151.738Z" transform="translate(-3669.88 -4125.078)" fill="#32786e"/>
        <path id="Trazado_656591" data-name="Trazado 656591" d="M3671.993,4186.641l39.248-6.254,1.179-10.346-39.467,6.289Z" transform="translate(-3671.884 -4166.59)" fill="#5b938b"/>
        <path id="Trazado_656592" data-name="Trazado 656592" d="M3669.947,4122.049l1.85-20.311h4.014l-1.819,19.53a3.439,3.439,0,0,0,1.1,2.839,4.458,4.458,0,0,0,3.108,1.227H3719.5v3.063h-42.8a6.693,6.693,0,0,1-5.229-1.636A4.91,4.91,0,0,1,3669.947,4122.049Z" transform="translate(-3669.838 -4101.739)" fill="#1f4942"/>
        <rect id="Rectángulo_45877" data-name="Rectángulo 45877" width="39.03" height="3.135" transform="translate(11.491 23.557)" fill="#5b938b"/>
      </g>
      <g id="Grupo_952291" data-name="Grupo 952291" transform="translate(70.577 112.847)">
        <path id="Trazado_656593" data-name="Trazado 656593" d="M3771.292,4134.18l35.41-5.639.253-2.221h-34.93Z" transform="translate(-3771.292 -4126.32)" fill="#1f4942"/>
      </g>
      <path id="Trazado_656594" data-name="Trazado 656594" d="M2375,1893.673c-.611,0-.774.8-.63,1.4l20.975,86.563,5.375,24.919,4.4-3.391h143.663l-5.7-21.528-23.468-88.687H2378.26Z" transform="translate(-2374.324 -1892.93)" fill="#1f4942"/>
      <path id="Trazado_656595" data-name="Trazado 656595" d="M2452.225,1892.672l21.49,88.678,5.375,21.519h148.064l-5.7-21.513-8.527-32.224-14.941-56.461Z" transform="translate(-2448.29 -1892.672)" fill="#265a53"/>
      <path id="Trazado_656596" data-name="Trazado 656596" d="M2877.589,3647.8l5.375,21.526H3031.2l-5.865-21.526Z" transform="translate(-2852.163 -3559.129)" fill="#5b938b"/>
      <path id="Trazado_656597" data-name="Trazado 656597" d="M2877.589,3647.8l5.375,21.526h.065c12.587-5.051,57.154-13,78.162-21.526Z" transform="translate(-2852.163 -3559.129)" fill="#32786e"/>
      <path id="Trazado_656598" data-name="Trazado 656598" d="M3049.455,4074.512H2901.223l-4.4,3.391h147.63Z" transform="translate(-2870.422 -3964.283)" fill="#265a53"/>
      <path id="Trazado_656599" data-name="Trazado 656599" d="M2558.073,1973.637l20.4,80.23H2715.76l-21.79-80.23Z" transform="translate(-2548.79 -1969.547)" fill="#a8adb5"/>
      <path id="Trazado_656600" data-name="Trazado 656600" d="M2695.59,1979.764H2559.62l-1.547-6.127h135.9Z" transform="translate(-2548.79 -1969.547)" fill="#e0e6f2"/>
    </g>
    <g id="Grupo_952293" data-name="Grupo 952293" transform="translate(769.892 772.446)">
      <path id="Trazado_656601" data-name="Trazado 656601" d="M4621.576,3077.928s.1-.152,0-.152a.076.076,0,0,0,0,.152Z" transform="translate(-4621.5 -3077.776)" fill="#003249"/>
    </g>
    <path id="Trazado_656602" data-name="Trazado 656602" d="M1318.244,4631.558H1004.756a.756.756,0,0,1-.756-.756h0a.757.757,0,0,1,.756-.757h313.487a.757.757,0,0,1,.756.757h0A.756.756,0,0,1,1318.244,4631.558Z" transform="translate(-416.869 -3779.176)" fill="#69968d"/>
    <g id="Grupo_952295" data-name="Grupo 952295" transform="translate(695.194 726.131)">
      <path id="Trazado_656603" data-name="Trazado 656603" d="M3197.811,2316.095l-37.991,0a3.585,3.585,0,0,1-3.244-2.594l-13.52-52.2a1.938,1.938,0,0,1,1.9-2.594l37.991-.005a3.585,3.585,0,0,1,3.244,2.594l13.52,52.2A1.938,1.938,0,0,1,3197.811,2316.095Z" transform="translate(-3142.97 -2253.771)" fill="#7cafb2"/>
      <path id="Trazado_656604" data-name="Trazado 656604" d="M3295.143,2405.939l-33.863,0-12.248-47.291,33.863,0Z" transform="translate(-3243.674 -2348.664)" fill="#fff"/>
      <g id="Grupo_952294" data-name="Grupo 952294" transform="translate(10.305 0)">
        <path id="Trazado_656605" data-name="Trazado 656605" d="M3368.228,2165.829l-8.6,0a2.4,2.4,0,0,0,.241-1.39,4.1,4.1,0,0,0-3.344-3.378,2.211,2.211,0,0,0-2.705,2.49,3.819,3.819,0,0,0,1.193,2.28l-8.071,0,1.583,6.106,21.283-.007Zm-11.577-3.629a2.508,2.508,0,0,1,2.05,2.071,1.355,1.355,0,0,1-1.658,1.526,2.509,2.509,0,0,1-2.049-2.071A1.353,1.353,0,0,1,3356.651,2162.2Z" transform="translate(-3346.945 -2161.031)" fill="#5b938b"/>
      </g>
      <path id="Trazado_656606" data-name="Trazado 656606" d="M3634.21,2573.553c.091.352.042.638-.109.638l-13.491,0c-.151,0-.347-.285-.438-.638h0c-.091-.352-.043-.638.109-.638h13.49c.152,0,.348.286.439.638Z" transform="translate(-3596.02 -2552.105)" fill="#dededf"/>
      <path id="Trazado_656607" data-name="Trazado 656607" d="M3599.567,2612.145c.091.353.021.638-.155.638l-15.778,0c-.176,0-.394-.285-.485-.638h0c-.091-.352-.022-.638.155-.638l15.778,0c.177,0,.394.286.485.638Z" transform="translate(-3560.872 -2588.746)" fill="#dededf"/>
      <path id="Trazado_656608" data-name="Trazado 656608" d="M3730.148,3117.154c.087.335.014.608-.162.608l-15.779,0c-.177,0-.391-.272-.477-.608h0c-.087-.336-.014-.608.162-.608l15.78,0c.177,0,.39.272.477.608Z" transform="translate(-3684.859 -3068.27)" fill="#dededf"/>
      <path id="Trazado_656609" data-name="Trazado 656609" d="M3740.934,3158.843c.087.335.014.608-.162.608l-15.778,0c-.177,0-.391-.272-.478-.608h0c-.087-.336-.014-.608.162-.608l15.778,0c.177,0,.391.272.478.608Z" transform="translate(-3695.101 -3107.852)" fill="#dededf"/>
      <path id="Trazado_656610" data-name="Trazado 656610" d="M3661.853,2854.261c.073.282-.01.511-.187.511l-15.779,0c-.176,0-.379-.229-.452-.512h0c-.073-.283.01-.512.187-.512l15.778,0c.177,0,.38.229.453.512Z" transform="translate(-3620.024 -2818.75)" fill="#dededf"/>
      <path id="Trazado_656611" data-name="Trazado 656611" d="M3713.008,2891.864c.073.283.009.512-.144.512l-13.657,0c-.153,0-.335-.229-.409-.512h0c-.073-.283-.008-.511.145-.511H3712.6c.153,0,.336.229.409.512Z" transform="translate(-3670.688 -2854.454)" fill="#dededf"/>
      <path id="Trazado_656612" data-name="Trazado 656612" d="M3695.533,2814.108c.073.282.009.511-.142.511l-13.522,0c-.151,0-.333-.229-.406-.512h0c-.073-.283-.01-.512.142-.512l13.521,0c.152,0,.334.229.407.512Z" transform="translate(-3654.229 -2780.626)" fill="#dededf"/>
      <path id="Trazado_656613" data-name="Trazado 656613" d="M3393.609,2526.875l-1.158-.947a.225.225,0,0,0-.321,0l-2.719,3.567-2.365-1.878a.226.226,0,0,0-.322-.006l-.7.917a.245.245,0,0,0,.078.323l3.74,2.971a.226.226,0,0,0,.322.006l.506-.659,0,0,.076-.1.121-.157s0,0,0-.005l2.821-3.7A.245.245,0,0,0,3393.609,2526.875Z" transform="translate(-3373.708 -2507.427)" fill="#fc9012"/>
      <path id="Trazado_656614" data-name="Trazado 656614" d="M3466.214,2807.5l-1.158-.947a.225.225,0,0,0-.322,0l-2.718,3.567-2.365-1.879a.226.226,0,0,0-.322-.005l-.7.917a.244.244,0,0,0,.078.323l3.74,2.971a.226.226,0,0,0,.321.005l.506-.659,0,0,.076-.1.121-.156a.016.016,0,0,1,0-.006l2.821-3.7A.247.247,0,0,0,3466.214,2807.5Z" transform="translate(-3442.645 -2773.872)" fill="#fc9012"/>
      <path id="Trazado_656615" data-name="Trazado 656615" d="M3535.751,3076.255l-1.158-.947a.225.225,0,0,0-.321,0l-2.719,3.568-2.365-1.879a.226.226,0,0,0-.322-.005l-.7.917a.245.245,0,0,0,.078.323l3.74,2.971a.226.226,0,0,0,.322.006l.506-.658,0,0,.076-.1.12-.157,0,0,2.821-3.7A.245.245,0,0,0,3535.751,3076.255Z" transform="translate(-3508.668 -3029.052)" fill="#dededf"/>
    </g>
    <g id="Grupo_952298" data-name="Grupo 952298" transform="translate(638.608 730.069)">
      <path id="Trazado_656616" data-name="Trazado 656616" d="M2033.509,4419.323a14.832,14.832,0,0,0,4.1.024,6.06,6.06,0,0,0,.187,4.278q-.824-.108-1.649-.216c-.444-.058-.887-.116-1.334-.155-.225-.02-.451-.035-.677-.043a1.855,1.855,0,0,1-.587-.028c-.176-.072-.125-.209-.093-.366.043-.216.078-.435.107-.653a9.817,9.817,0,0,0-.049-2.841Z" transform="translate(-2032.89 -4309.169)" fill="#ffb27e"/>
      <path id="Trazado_656617" data-name="Trazado 656617" d="M2381.937,4410.381a14.852,14.852,0,0,0,4.1-.05,6.059,6.059,0,0,0,.265,4.273q-.826-.092-1.653-.186c-.445-.049-.889-.1-1.336-.13-.225-.016-.4.617-.627.612a2.838,2.838,0,0,1-.723.026c-.177-.069-.128-.206-.1-.363.039-.218.155-1.124.179-1.343a9.867,9.867,0,0,0,.055-1.34A9.7,9.7,0,0,0,2381.937,4410.381Z" transform="translate(-2363.698 -4300.632)" fill="#ffb27e"/>
      <path id="Trazado_656618" data-name="Trazado 656618" d="M2307.306,3238.217c2.537,4.089-2.934,50.671-2.98,59.587-2.123.024-4.381.029-6.5.052-1.38-8.724-2.47-18.875-3.085-27.686-.442-6.353,2.714-13.088,3.86-19.352a88.515,88.515,0,0,1,2.619-11.432,4.634,4.634,0,0,1,.987-1.9C2302.711,3236.971,2306.925,3237.6,2307.306,3238.217Z" transform="translate(-2280.964 -3186.859)" fill="#003249"/>
      <path id="Trazado_656619" data-name="Trazado 656619" d="M2041.435,3231.285a30.283,30.283,0,0,0-4.005,10.664c-1.3,7.579-5.584,41.227-4.826,50.679,1.486-.006,3.2-.169,4.69-.176,5.742-9.507,13.154-42.871,15.245-47.989.677-1.658,2.482-10.89.936-12.857C2049.924,3231.929,2044.828,3232.38,2041.435,3231.285Z" transform="translate(-2032.029 -3181.153)" fill="#335b6d"/>
      <path id="Trazado_656620" data-name="Trazado 656620" d="M2337.667,2516.128a3.509,3.509,0,0,0,2.62,1.868c.364.026,4.438-.488,4.438-.512q-.152-2.589-.132-5.184c0-.047,0-.1,0-.143q.008-.814.035-1.628.015-.517.039-1.035c.031-.682-.115-1.319-.068-1.993a6.963,6.963,0,0,1-6.3.461c-.111.695-.193,1.386-.256,2.073,0,.024,0,.047-.007.071s0,.028,0,.046,0,.008,0,.013,0,.011,0,.015,0,.031,0,.047c-.059.671-.1,1.336-.137,2-.06,1.12-.1,2.226-.177,3.316C2337.7,2515.737,2337.683,2515.933,2337.667,2516.128Z" transform="translate(-2321.765 -2493.934)" fill="#ffb27e"/>
      <path id="Trazado_656621" data-name="Trazado 656621" d="M2278.246,2307.726a15.023,15.023,0,0,0,1.516,3.035,5.247,5.247,0,0,0,1.8,2.072,4.48,4.48,0,0,0,1.546.435,15.767,15.767,0,0,0,5.066-.127,2.783,2.783,0,0,0,1.758-.849,2.231,2.231,0,0,0,.4-1.188c.017-.185.022-.373.024-.556,0-.061,0-.122,0-.182q0-1.069-.1-2.134a22.578,22.578,0,0,0-1.936-7.249,1.866,1.866,0,0,0-.562-.766,1.954,1.954,0,0,0-1.136-.553,3.046,3.046,0,0,0-1.253.247,28.8,28.8,0,0,0-3.94,1.6c-1.255.659-2.711,1.559-3.221,2.882A5.043,5.043,0,0,0,2278.246,2307.726Z" transform="translate(-2265.059 -2296.593)" fill="#ffb27e"/>
      <path id="Trazado_656622" data-name="Trazado 656622" d="M2344.732,2557.852h0a4.284,4.284,0,0,0,1.487,1.554,4.49,4.49,0,0,0,1.545.435,15.713,15.713,0,0,0,3.536.084c0-.047,0-.1,0-.143q.008-.814.034-1.628a15.762,15.762,0,0,1-4.811.082,4.484,4.484,0,0,1-1.546-.435c-.076-.042-.219-.134-.229-.141h0s0,.015-.007.072c0,.013,0,.028,0,.046,0,0,0,.008,0,.012a.141.141,0,0,1,0,.015c0,.011,0,.023,0,.035S2344.731,2557.848,2344.732,2557.852Z" transform="translate(-2328.473 -2541.56)" fill="#ee995f"/>
      <path id="Trazado_656623" data-name="Trazado 656623" d="M2226.067,2239.093a9.62,9.62,0,0,1,.41,2.422,3.25,3.25,0,0,1-.808,2.263,3.8,3.8,0,0,1-2.2.969c-1.495.228-3.263.231-4.115,1.728-.532.937-.508,2.159-1.216,2.971a.525.525,0,0,0-.314-.694.75.75,0,0,0-.777.245,1.34,1.34,0,0,0-.289.8,1.221,1.221,0,0,0,.079.577.642.642,0,0,0,.422.377,22.7,22.7,0,0,0-.632,2.747c-.121.4-.947-.4-1.123-.535a13.176,13.176,0,0,1-3.885-4.854c-1.125-2.588-.157-5.261,1.81-7.149a6.909,6.909,0,0,1,3.26-1.829,13.146,13.146,0,0,1,4.771.253A7.4,7.4,0,0,0,2226.067,2239.093Z" transform="translate(-2201.632 -2238.987)" fill="#003249"/>
      <path id="Trazado_656624" data-name="Trazado 656624" d="M2379.68,4451.644a12.328,12.328,0,0,0,0,2.221,11.269,11.269,0,0,0,4.845,3.048,10.212,10.212,0,0,0,5.444.121c.317-.081.674-.214.782-.524a.73.73,0,0,0-.244-.747,2.436,2.436,0,0,0-.726-.4,11.738,11.738,0,0,1-5.51-4.829A25.547,25.547,0,0,1,2379.68,4451.644Z" transform="translate(-2361.601 -4338.806)" fill="#003249"/>
      <path id="Trazado_656625" data-name="Trazado 656625" d="M2378.037,4509.2a1.969,1.969,0,0,0,.812,1.075,12.579,12.579,0,0,0,4.2,2.29,9.181,9.181,0,0,0,5.015.075,1.886,1.886,0,0,0,.577-.268.659.659,0,0,0,.355-.659c-.03-.092-.123-.25-.117-.271.136,0,.273.2.312.278a2.891,2.891,0,0,1,.165.953,1.252,1.252,0,0,1-.878,1.256,10.406,10.406,0,0,1-1.045.276,11.884,11.884,0,0,1-2.237.128,11.484,11.484,0,0,1-2.183-.154,3.831,3.831,0,0,1-1.943-.946l-2.969-2A4.136,4.136,0,0,1,2378.037,4509.2Z" transform="translate(-2360 -4394.509)" fill="#fff"/>
      <path id="Trazado_656626" data-name="Trazado 656626" d="M2024.265,4471.442a6.347,6.347,0,0,0-.127,2.552,11.285,11.285,0,0,0,4.9,2.963,10.239,10.239,0,0,0,5.445.025c.316-.087.67-.228.773-.537a.73.73,0,0,0-.257-.742,2.429,2.429,0,0,0-.733-.386,11.75,11.75,0,0,1-5.593-4.732A16.508,16.508,0,0,1,2024.265,4471.442Z" transform="translate(-2024.006 -4357.842)" fill="#003249"/>
      <path id="Trazado_656627" data-name="Trazado 656627" d="M2023,4530.848a1.973,1.973,0,0,0,.831,1.062,12.6,12.6,0,0,0,4.239,2.215,9.193,9.193,0,0,0,5.015-.013,1.888,1.888,0,0,0,.572-.279.658.658,0,0,0,.344-.665c-.032-.091-.127-.248-.122-.269.136,0,.276.192.317.274a2.884,2.884,0,0,1,.182.949,1.252,1.252,0,0,1-.856,1.271,9.917,9.917,0,0,1-1.04.294,17.376,17.376,0,0,1-4.419.052,3.835,3.835,0,0,1-1.959-.912l-3-1.948A4.138,4.138,0,0,1,2023,4530.848Z" transform="translate(-2022.917 -4415.06)" fill="#fff"/>
      <path id="Trazado_656628" data-name="Trazado 656628" d="M2303.212,2608.522a38.715,38.715,0,0,0,9.408,2.461q-.105-.494-.21-.989a2.042,2.042,0,0,0-.382-.957,2.006,2.006,0,0,0-.668-.44q-1.834-.88-3.709-1.671-.941-.4-1.892-.771c-.238-.094-.493-.291-.706-.084a8.734,8.734,0,0,0-.632.708A12.636,12.636,0,0,0,2303.212,2608.522Z" transform="translate(-2289.051 -2587.441)" fill="#f06900"/>
      <path id="Trazado_656629" data-name="Trazado 656629" d="M2261.877,2910.33s3.238,19.009,15.876,24.542c0-3.878-1.344-7.8-1.755-11.709-.1-.983-.155-1.969-.177-2.955Z" transform="translate(-2249.805 -2876.413)" fill="#f06900"/>
      <g id="Grupo_952297" data-name="Grupo 952297" transform="translate(23.808 4.225)">
        <path id="Trazado_656630" data-name="Trazado 656630" d="M2906.453,3102.629l2.99,2.617a.489.489,0,0,0,.688-.046l11.06-12.636a.489.489,0,0,0-.046-.687l-2.99-2.617a.489.489,0,0,0-.687.045l-11.06,12.637A.489.489,0,0,0,2906.453,3102.629Z" transform="translate(-2885.467 -3050.413)" fill="#002637"/>
        <path id="Trazado_656631" data-name="Trazado 656631" d="M2494.632,3213.451l4.932,4.317a1.362,1.362,0,0,0,1.915-.127l24.672-28.187a.364.364,0,0,0-.034-.512l-6.429-5.627a.364.364,0,0,0-.512.034l-24.672,28.186A1.362,1.362,0,0,0,2494.632,3213.451Z" transform="translate(-2494.17 -3139.747)" fill="#003249"/>
        <path id="Trazado_656632" data-name="Trazado 656632" d="M2582.561,3294.13l1.482,1.3a.409.409,0,0,0,.576-.038L2608,3268.675a.408.408,0,0,0-.039-.575l-1.482-1.3a.41.41,0,0,0-.575.038l-23.383,26.714A.41.41,0,0,0,2582.561,3294.13Z" transform="translate(-2577.964 -3219.006)" fill="#335b6d"/>
        <g id="Grupo_952296" data-name="Grupo 952296" transform="translate(23.132)">
          <path id="Trazado_656633" data-name="Trazado 656633" d="M2993.106,2328.887a24.636,24.636,0,1,0,1.927,34.786A24.636,24.636,0,0,0,2993.106,2328.887Zm-28.542,31.888a18.146,18.146,0,1,1,20.64,2.507A18.157,18.157,0,0,1,2964.564,2360.775Z" transform="translate(-2952.041 -2322.608)" fill="#335b6d"/>
        </g>
        <path id="Trazado_656634" data-name="Trazado 656634" d="M3002.594,2405.352c-2.064-2.043-11.32-12.329-3.27-25.442a19.331,19.331,0,0,1,6.626-6.548c4.614-2.726,12.6-5.366,21.965.392a8.8,8.8,0,0,1,.847.591,21.322,21.322,0,0,1,5,5.5s1.654.2,1.8-.972c0,0-2.562-5.54-10.519-8.927a23.207,23.207,0,0,0-23.471,4.211,22.389,22.389,0,0,0-.627,32.693,1.791,1.791,0,0,0,1.132.514.8.8,0,0,0,.948-.727A1.486,1.486,0,0,0,3002.594,2405.352Z" transform="translate(-2968.903 -2366.125)" fill="#fff"/>
      </g>
      <path id="Trazado_656635" data-name="Trazado 656635" d="M2819.735,3245.088a3.7,3.7,0,0,0,1.2-1.246.309.309,0,0,1,.58.162,1.818,1.818,0,0,1-.025.2,4.008,4.008,0,0,1-.446,1.117,2.865,2.865,0,0,1,.654-.027,9.036,9.036,0,0,0,1.23-.187,3.376,3.376,0,0,1,.756-.08,1.148,1.148,0,0,1,.706.247,1.117,1.117,0,0,1,.354.792,2.026,2.026,0,0,1-.651,1.506,4.76,4.76,0,0,1-1.422.9,4.194,4.194,0,0,1-1.427.424,4.9,4.9,0,0,1-2.657-.894l-.908-.52a6.585,6.585,0,0,0-.9-.509c-.1-.035-.427-.019-.471-.124-.053-.13.4-.627.48-.741.111-.159.143-.2.34-.2.093,0,.186.015.279.02a3.714,3.714,0,0,0,1.475-.393A5.176,5.176,0,0,0,2819.735,3245.088Z" transform="translate(-2776.215 -3192.923)" fill="#feb27e"/>
      <path id="Trazado_656636" data-name="Trazado 656636" d="M2906.5,2778.178a.648.648,0,0,1,.259-.27.415.415,0,0,1,.514.258.793.793,0,0,1-.068.62c-.094.192-.227.363-.326.552a2.4,2.4,0,0,0-.222,1.3,8.315,8.315,0,0,0,.253,1.312.877.877,0,0,1-.029.7.985.985,0,0,1-.716.294c-.264.039-.571.143-.634.4.06-.244-.369-.754-.518-.918-.185-.2-.676-.422-.711-.712-.021-.172.143-.319.231-.449.126-.188.244-.381.365-.573q.373-.584.745-1.169Z" transform="translate(-2859.775 -2750.657)" fill="#feb27e"/>
      <path id="Trazado_656637" data-name="Trazado 656637" d="M2504.173,2767.982l9.6,5.607a6.921,6.921,0,0,0,5.709-.454l4.732-1.381a1.923,1.923,0,0,1,1.836,2.357,28.983,28.983,0,0,1-7.343,5.473,13.454,13.454,0,0,1-12.8-1.313S2504.105,2767.864,2504.173,2767.982Z" transform="translate(-2479.857 -2741.255)" fill="#f06900"/>
      <path id="Trazado_656638" data-name="Trazado 656638" d="M2114.207,2691.461c2.808.125,6.261.288,9.071.311a64.727,64.727,0,0,0,8.228-.1c2.091-.256,4.578-.206,6.037-1.727a19.436,19.436,0,0,0,0-3.278c0-3.879-1.344-7.8-1.754-11.71-.1-.982-.156-1.968-.177-2.955-.085-3.809.285-7.641-.054-11.439a31.4,31.4,0,0,0-2.514-9.647l-7.023-1.768a3.743,3.743,0,0,0-2.168-.106,3.679,3.679,0,0,0-1.771,2.02,58.657,58.657,0,0,0-4.476,10.743C2116.178,2667.11,2114.3,2689.71,2114.207,2691.461Z" transform="translate(-2109.595 -2628.208)" fill="#fc9012"/>
      <path id="Trazado_656639" data-name="Trazado 656639" d="M2257.207,2853.755s4.85,10.054,10.231,14.7a67.541,67.541,0,0,0,18.794,6.946l1.238-1.516a101.8,101.8,0,0,0-14.534-10.331l-6.432-11.889Z" transform="translate(-2245.371 -2820.714)" fill="#fc9012"/>
    </g>
    <g id="Grupo_952299" data-name="Grupo 952299" transform="translate(745.417 764.418)">
      <path id="Trazado_656640" data-name="Trazado 656640" d="M4164.361,2921.615h-.143l-1.268-1.893a1.687,1.687,0,0,0-1.674-.854l-8.821.053a.976.976,0,0,0-.333.059l-.013,0a.972.972,0,0,0-.615.713l-.441,2-12.858.079a1.112,1.112,0,0,0-1.078,1.5l4.68,17.363a.734.734,0,0,0,.666.525l28.081-.171a.392.392,0,0,0,.38-.531l-4.679-17.364A2.077,2.077,0,0,0,4164.361,2921.615Z" transform="translate(-4137.064 -2918.869)" fill="#fc9012"/>
      <path id="Trazado_656641" data-name="Trazado 656641" d="M4187.407,3069.187l-28.057.171a.78.78,0,0,1-.69-.577l-5.035-18.682a.418.418,0,0,1,.378-.583l28.058-.171a.782.782,0,0,1,.69.576l5.035,18.683A.419.419,0,0,1,4187.407,3069.187Z" transform="translate(-4152.768 -3042.754)" fill="#f06900"/>
      <path id="Trazado_656642" data-name="Trazado 656642" d="M4175.459,2967.125l-.344,0-1.212-1.824a1.633,1.633,0,0,0-1.625-.854l-8.529.052a.9.9,0,0,0-.322.059l-.011,0a.949.949,0,0,0-.589.712l-.39,1.929-13.143.08a1.113,1.113,0,0,0-1.078,1.5l4.681,17.364a.735.735,0,0,0,.665.525l28.081-.171a.393.393,0,0,0,.381-.531l-4.68-17.364A2.076,2.076,0,0,0,4175.459,2967.125Z" transform="translate(-4147.601 -2962.146)" fill="#fd7600"/>
    </g>
    <g id="Grupo_952300" data-name="Grupo 952300" transform="translate(770.072 737.288)">
      <path id="Trazado_656643" data-name="Trazado 656643" d="M4652.362,2384.615h-.143l-1.269-1.893a1.687,1.687,0,0,0-1.674-.854l-8.821.053a.947.947,0,0,0-.334.059l-.011,0a.965.965,0,0,0-.615.713l-.441,2-12.858.079a1.113,1.113,0,0,0-1.078,1.5l4.682,17.363a.731.731,0,0,0,.664.525l28.081-.171a.393.393,0,0,0,.38-.531l-4.68-17.365A2.079,2.079,0,0,0,4652.362,2384.615Z" transform="translate(-4625.065 -2381.869)" fill="#fc9012"/>
      <path id="Trazado_656644" data-name="Trazado 656644" d="M4675.408,2532.188l-28.057.171a.781.781,0,0,1-.69-.576l-5.035-18.683a.418.418,0,0,1,.377-.583l28.058-.171a.78.78,0,0,1,.69.576l5.036,18.682A.419.419,0,0,1,4675.408,2532.188Z" transform="translate(-4640.768 -2505.754)" fill="#f06900"/>
      <path id="Trazado_656645" data-name="Trazado 656645" d="M4663.458,2430.124l-.344,0-1.211-1.823a1.634,1.634,0,0,0-1.625-.855l-8.528.052a.89.89,0,0,0-.323.059l-.012,0a.948.948,0,0,0-.588.713l-.391,1.928-13.143.08a1.112,1.112,0,0,0-1.077,1.5l4.68,17.364a.734.734,0,0,0,.665.525l28.081-.171a.393.393,0,0,0,.38-.531l-4.679-17.364A2.079,2.079,0,0,0,4663.458,2430.124Z" transform="translate(-4635.601 -2425.145)" fill="#fd7600"/>
    </g>
    <g id="Grupo_952303" data-name="Grupo 952303" transform="translate(743.796 660.413)">
      <g id="Grupo_952301" data-name="Grupo 952301" transform="translate(0 0)">
        <path id="Trazado_656646" data-name="Trazado 656646" d="M4519.494,1669.47a10.51,10.51,0,0,1,4.589-3.712,3.5,3.5,0,0,0,.868-.44,1.892,1.892,0,0,0,.423-.489c-.563-.294-1.271-.719-1.866-1.043a6.891,6.891,0,0,0-.656.25,7.112,7.112,0,0,0-1.225.638,6.969,6.969,0,0,0-1.916,1.855,3.489,3.489,0,0,0-.64,1.454A1.764,1.764,0,0,0,4519.494,1669.47Z" transform="translate(-4498.13 -1623.19)" fill="#ffb27e"/>
        <path id="Trazado_656647" data-name="Trazado 656647" d="M4134.2,2174.192a19.7,19.7,0,0,1-2.918,1.273c-.889.3-1.854.418-2.727.73.221.492,1.417.765,1.9.877a10.749,10.749,0,0,0,2.208.239,9.615,9.615,0,0,1,2.917.153,3.725,3.725,0,0,0,.986.272c.131.012,1.5.138,1.508.1a7.586,7.586,0,0,1,3.936-4.658,4.083,4.083,0,0,1-.989-.768c-.235-.279-.467-.56-.7-.841a5.048,5.048,0,0,0-.915-1.115c-.205-.125-.213-.068-.39.112s-.345.349-.522.52a19.431,19.431,0,0,1-2.185,1.8A19.785,19.785,0,0,1,4134.2,2174.192Z" transform="translate(-4127.363 -2104.195)" fill="#ffb27e"/>
        <path id="Trazado_656648" data-name="Trazado 656648" d="M4131.107,2308.831l.073,1.013a.369.369,0,0,1-.372.395,26.039,26.039,0,0,1-4.67-.439,16.433,16.433,0,0,1-3.018-.833,5.779,5.779,0,0,1-2.686-1.659c.781.494,2.045.41,2.949.593l5.958,1.208a3.556,3.556,0,0,0,.93.1A1.218,1.218,0,0,0,4131.107,2308.831Z" transform="translate(-4119.654 -2234.201)" fill="#fff"/>
        <path id="Trazado_656649" data-name="Trazado 656649" d="M4116.545,2263.252c-.031.826-.033,1.256-.067,2.55a4.44,4.44,0,0,1-2.448.1,32.725,32.725,0,0,1-5.3-.886,7.036,7.036,0,0,1-3.141-1.508,1.927,1.927,0,0,1-.565-.879,1.064,1.064,0,0,1,.213-.991,1.236,1.236,0,0,1,1.324-.187,7.092,7.092,0,0,1,1.209.737,4.946,4.946,0,0,0,2.029.731Z" transform="translate(-4104.982 -2190.564)" fill="#003249"/>
        <path id="Trazado_656650" data-name="Trazado 656650" d="M4954.667,1213.849c.033.06.069.121.1.181.634,1.108,1.165.275,2.038,1.1,1.469-.9,1.937-.419,2.476-1.992l.125-1.827.118-1.7,0-.022c-.041.009-.043-.01-.054-.048a.228.228,0,0,1,.009-.118,45.1,45.1,0,0,0-4.615-.3l-.312,3.064a1.731,1.731,0,0,1-.135.527A1.336,1.336,0,0,0,4954.667,1213.849Z" transform="translate(-4911.452 -1191.494)" fill="#ffb27e"/>
        <path id="Trazado_656651" data-name="Trazado 656651" d="M4956.921,1212.5c2.745-.55,3.905-.9,4.911-1.181l.117-1.7,0-.022c-.041.009-.043-.01-.055-.048a.229.229,0,0,1,.011-.118,45.13,45.13,0,0,0-4.616-.3l-.188,1.735C4957.09,1211.029,4956.886,1212.437,4956.921,1212.5Z" transform="translate(-4913.876 -1191.494)" fill="#ee995f"/>
        <path id="Trazado_656652" data-name="Trazado 656652" d="M4934.433,1029.015a7.313,7.313,0,0,1-.743.769c-.312.279-.668.49-.992.75a4.064,4.064,0,0,1-2.271.959,2.416,2.416,0,0,1-1.326-.256,3.86,3.86,0,0,1-1.317-1.44c-.086-.148-.169-.3-.249-.451-.148-.286-.286-.578-.409-.877-.2-.481-.351-.975-.51-1.471-.1-.313-.17-.621-.254-.938a5.744,5.744,0,0,1-.179-.864c-.011-.1.016-.2.009-.3-.009-.142-.036-.286-.052-.428a9.444,9.444,0,0,1-.062-1.044,4.575,4.575,0,0,1,.136-1.228,2.274,2.274,0,0,1,.609-1.061,9.167,9.167,0,0,1,1.511-.882c.219-.138.419-.314.623-.469s.209-.312.492-.3a8.753,8.753,0,0,1,2.445.445,9.065,9.065,0,0,1,2.3,1.148,8.723,8.723,0,0,1,1.011.817,4.656,4.656,0,0,0,.846.8,1.887,1.887,0,0,1,.793,1.357,3.406,3.406,0,0,1-1.174,3.289,1.66,1.66,0,0,0-.241.285,2.119,2.119,0,0,0-.25.3,5.6,5.6,0,0,1-.629.947Z" transform="translate(-4884.597 -1011.44)" fill="#ffb27e"/>
        <path id="Trazado_656653" data-name="Trazado 656653" d="M4929.962,1108.208a3.681,3.681,0,0,1-.073.555,13.159,13.159,0,0,1-.535-3.689,5.959,5.959,0,0,0,.062.619,10.131,10.131,0,0,0,.324,1.381A3.1,3.1,0,0,1,4929.962,1108.208Z" transform="translate(-4887.706 -1092.706)" fill="#ffb27e"/>
        <path id="Trazado_656654" data-name="Trazado 656654" d="M4906.54,875.993s-1.649-1.4-1.686-5.663c0,0-.211-4.9,3.123-4.784a3.223,3.223,0,0,1,3.121-.81,4.357,4.357,0,0,1-.623-1.807,2.48,2.48,0,0,1,.757-1.947,2.748,2.748,0,0,1,1.923-.738,3.377,3.377,0,0,1,1.956.694,2.466,2.466,0,0,1,.987,1.4,3.3,3.3,0,0,1-.481,2.13,2.111,2.111,0,0,1-.362.547.734.734,0,0,1-.582.233,6.7,6.7,0,0,1,3.214,6.361c-.254,4.579-2.873,5.137-2.873,5.137h0a6.794,6.794,0,0,1,.415-.578,3.055,3.055,0,0,0,1.052-2.488c.069-1.846-.717-1.44-.717-1.44a1.391,1.391,0,0,1-1.1.283,5.343,5.343,0,0,1-2.152-2.345s.442,1.182.1,1.646a13.762,13.762,0,0,1-6,.413,6.325,6.325,0,0,1-.29-1.576S4905.328,872.105,4906.54,875.993Z" transform="translate(-4864.441 -860.244)" fill="#003249"/>
        <path id="Trazado_656655" data-name="Trazado 656655" d="M4933.443,1068.3a15.264,15.264,0,0,1-6,.306,5.193,5.193,0,0,1-.306-1.406,2.952,2.952,0,0,0-.357,1.772c0,.075.006.152.01.231a7.306,7.306,0,0,1-.092-.918v0a2.978,2.978,0,0,1,.356-1.8,5.154,5.154,0,0,0,.306,1.406,15.266,15.266,0,0,0,6-.306.574.574,0,0,0,.116-.306A1.257,1.257,0,0,1,4933.443,1068.3Z" transform="translate(-4885.186 -1056.064)" fill="#ee995f"/>
        <path id="Trazado_656656" data-name="Trazado 656656" d="M5060.44,1060.275c-.185-.716-.646-.478-.646-.478a1.39,1.39,0,0,1-1.1.283,5.238,5.238,0,0,1-2-2.056,3.844,3.844,0,0,0-.229-1.1,5.341,5.341,0,0,0,2.151,2.345,1.389,1.389,0,0,0,1.1-.283S5060.462,1058.6,5060.44,1060.275Z" transform="translate(-5008.397 -1046.989)" fill="#ee995f"/>
        <path id="Trazado_656657" data-name="Trazado 656657" d="M4959.2,1058.4a1.031,1.031,0,0,1-.125.68,13.764,13.764,0,0,1-6.005.413,3.018,3.018,0,0,1-.1-.363,14.353,14.353,0,0,0,5.327-.523c.335-.453-.077-1.59-.1-1.645A5.926,5.926,0,0,0,4959.2,1058.4Z" transform="translate(-4910.126 -1047.019)" fill="#ee995f"/>
        <path id="Trazado_656658" data-name="Trazado 656658" d="M4934.073,973.791a3.745,3.745,0,0,1,2.3-1.971,6.394,6.394,0,0,1,3.088-.125,6.046,6.046,0,0,1,1.544.464,4.2,4.2,0,0,1,2.055,1.963,8.167,8.167,0,0,1,.889,3.347c.152-.015.336-.4.489-.412a33.487,33.487,0,0,0-.939-3.938,3.7,3.7,0,0,0-2.141-2.053,7.991,7.991,0,0,0-2.8-.595,5.343,5.343,0,0,0-2.617.417,3.219,3.219,0,0,0-1.208,1.236A8.571,8.571,0,0,0,4934.073,973.791Z" transform="translate(-4892.187 -964.893)" fill="#fff"/>
        <path id="Trazado_656659" data-name="Trazado 656659" d="M4651.2,2240.216a19.764,19.764,0,0,1-.345,3.166c-.177.922-.558,1.815-.721,2.729.537.053,1.368-.849,1.7-1.212a10.782,10.782,0,0,0,1.3-1.8,9.586,9.586,0,0,1,1.583-2.455,3.788,3.788,0,0,0,.727-.721c.075-.108.863-1.23.833-1.26a7.59,7.59,0,0,1-2.089-5.73,4.036,4.036,0,0,1-1.156.476c-.358.067-.718.128-1.077.189a5.074,5.074,0,0,0-1.423.24c-.211.116-.165.151-.1.394s.133.473.192.712a19.783,19.783,0,0,1,.565,5.27Z" transform="translate(-4622.592 -2163.584)" fill="#ffb27e"/>
        <path id="Trazado_656660" data-name="Trazado 656660" d="M4671.744,2343.307l.916.44a.37.37,0,0,1,.159.52,26.017,26.017,0,0,1-2.7,3.835,16.381,16.381,0,0,1-2.221,2.2,5.782,5.782,0,0,1-2.773,1.507c.817-.431,1.371-1.571,1.98-2.264l4.008-4.571a3.55,3.55,0,0,0,.554-.755A1.214,1.214,0,0,0,4671.744,2343.307Z" transform="translate(-4636.824 -2268.38)" fill="#fff"/>
        <path id="Trazado_656661" data-name="Trazado 656661" d="M4631.406,2322.32c.7.438,1.074.652,2.18,1.325a4.44,4.44,0,0,1-1.125,2.176,32.642,32.642,0,0,1-3.4,4.163,7.029,7.029,0,0,1-2.87,1.977,1.927,1.927,0,0,1-1.042.053,1.066,1.066,0,0,1-.755-.677,1.234,1.234,0,0,1,.5-1.242,7.052,7.052,0,0,1,1.24-.683,4.955,4.955,0,0,0,1.643-1.4Z" transform="translate(-4598.115 -2248.455)" fill="#003249"/>
        <path id="Trazado_656662" data-name="Trazado 656662" d="M4311.317,1703.966a77.333,77.333,0,0,1-21.354-.536,9.674,9.674,0,0,0-4.348-.093c-1.692.511-2.92,1.941-4.047,3.3-5.832,7.045-11.175,14.37-14.048,23.052a13.977,13.977,0,0,0,4.428,1.272,26.212,26.212,0,0,0,3.148-2.342,27.715,27.715,0,0,0,6.249-7.837,11.174,11.174,0,0,0,.939-2.111,4.96,4.96,0,0,1,1.016-1.7c.27-.352,2.783-4.634,2.559-4.692a60.552,60.552,0,0,0,22.48,1.467,5.959,5.959,0,0,0,3.568-1.308c1.093-1.079.889-2.323.635-3.663A21.389,21.389,0,0,0,4311.317,1703.966Z" transform="translate(-4259.309 -1660.535)" fill="#335b6d"/>
        <path id="Trazado_656663" data-name="Trazado 656663" d="M4547.939,1844.553a54.493,54.493,0,0,1,4.84,19.882,6.244,6.244,0,0,0,4.884-1.5,40.539,40.539,0,0,0-4.337-23.291C4552.278,1842.41,4547.939,1844.553,4547.939,1844.553Z" transform="translate(-4525.561 -1790.167)" fill="#335b6d"/>
        <path id="Trazado_656664" data-name="Trazado 656664" d="M4570.679,1889.728q.661,1.666,1.2,3.376a14.734,14.734,0,0,0,5.58-4.936q-.524-1.595-1.183-3.14-1.292-.273-2.571-.6c.223.058-2.291,4.34-2.562,4.691C4570.976,1889.334,4570.819,1889.531,4570.679,1889.728Z" transform="translate(-4547.151 -1832.682)" fill="#003249"/>
        <path id="Trazado_656665" data-name="Trazado 656665" d="M4605.09,1283.031c-.088-2.521-.119-4.947-.208-7.468a9.041,9.041,0,0,1-5.374,5.474,17.237,17.237,0,0,1-5.958.852c-.5-.5-1.1-1.042-1.6-1.542a74.756,74.756,0,0,1,9.235-5.817q1.392-4.886,2.781-9.772a4.825,4.825,0,0,1,1.621-2.876,6.148,6.148,0,0,1,1.918-.657,3.017,3.017,0,0,0,1.762-1.026,5.817,5.817,0,0,0,4.893.832,2.763,2.763,0,0,0,1.048-.516c.3-.256.558-.468.552-.86a5.335,5.335,0,0,0,3.187,1.779,6.3,6.3,0,0,1,3.3,1.612,6.013,6.013,0,0,1,1.006,2.121,112.032,112.032,0,0,1,3.193,11.27c.306,1.464.517,3.12-.347,4.341a3.862,3.862,0,0,1-2.185,1.4,16.185,16.185,0,0,1-2.625.286s-2.358-4,.489-5.416c-.762-1.456-1.4-2.859-2.161-4.314,1.038,2.369.343,8.381-.262,10.174a17.165,17.165,0,0,1-5.317.766A58.18,58.18,0,0,1,4605.09,1283.031Z" transform="translate(-4567.347 -1239.475)" fill="#fc9012"/>
        <path id="Trazado_656666" data-name="Trazado 656666" d="M5007.227,1493.606a34.063,34.063,0,0,1-4.694.4c-1.458.14-1.19.291-2.567-.214,2.057-.745,2.489-1.459,3.969-3.306,1.526-1.906,2.745-3.754,2.127-6.714a11.055,11.055,0,0,1,.959,1.755C5008.015,1488.334,5007.284,1491.722,5007.227,1493.606Z" transform="translate(-4954.75 -1452.27)" fill="#f06900"/>
        <path id="Trazado_656667" data-name="Trazado 656667" d="M4903.32,1665.79c-.744-.159-1.445-.488-2.189-.641a4.812,4.812,0,0,0-3.571.688,2.666,2.666,0,0,1,1.105-1.97,4.394,4.394,0,0,1,2.17-.785,13.125,13.125,0,0,1,2.332.021,1.137,1.137,0,0,1,.616.163,1.124,1.124,0,0,1,.232.27l.71,1.019c.163.234.515.574.44.89C4905.021,1666.059,4903.746,1665.881,4903.32,1665.79Z" transform="translate(-4857.518 -1622.479)" fill="#ffb27e"/>
        <path id="Trazado_656668" data-name="Trazado 656668" d="M5009.378,1605.37a15,15,0,0,1-6.038,1.078l-6.7.261c.01-.484.125-.928.146-1.4.03-.634.04-1.27.058-1.9a17.221,17.221,0,0,0,2.452-.077,13.421,13.421,0,0,0,4.847-1.582,21.631,21.631,0,0,0,2.077-1.073,5.466,5.466,0,0,1,.469,1.723,2.831,2.831,0,0,0,.744,1.572,4.811,4.811,0,0,0,1.2.644C5009.036,1604.808,5009.262,1604.931,5009.378,1605.37Z" transform="translate(-4951.59 -1563.266)" fill="#fc9012"/>
      </g>
      <g id="Grupo_952302" data-name="Grupo 952302" transform="translate(16.346 27.548)">
        <path id="Trazado_656669" data-name="Trazado 656669" d="M4455.872,1419.993l-2.405-13.039a1.72,1.72,0,0,0-1.541-1.442h-17.72a.994.994,0,0,0-.823.415h0v.007c-.014.021-.027.045-.041.066l-.649,1.007.535.119,2.374,12.867a1.715,1.715,0,0,0,1.541,1.437h17.72A1.1,1.1,0,0,0,4455.872,1419.993Z" transform="translate(-4432.484 -1405.512)" fill="#ddd"/>
        <path id="Trazado_656670" data-name="Trazado 656670" d="M4863.881,1698.571h-10.956v2.183h12.108v-1.031A1.152,1.152,0,0,0,4863.881,1698.571Z" transform="translate(-4831.484 -1683.765)" fill="#ccc"/>
        <path id="Trazado_656671" data-name="Trazado 656671" d="M4450.233,1442.594h-17.72a1.72,1.72,0,0,1-1.541-1.44l-2.4-13.038a1.108,1.108,0,0,1,1.009-1.441h17.72a1.719,1.719,0,0,1,1.541,1.441l2.405,13.038A1.108,1.108,0,0,1,4450.233,1442.594Z" transform="translate(-4428.541 -1425.606)" fill="#fff"/>
        <path id="Trazado_656672" data-name="Trazado 656672" d="M4618.83,1540.284a1.776,1.776,0,1,1-2.432-1.164A1.917,1.917,0,0,1,4618.83,1540.284Z" transform="translate(-4605.975 -1532.247)" fill="#ccc"/>
      </g>
    </g>
    <g id="Grupo_952307" data-name="Grupo 952307" transform="translate(773.149 752.677)">
      <g id="Grupo_952304" data-name="Grupo 952304" transform="translate(2.66 39.608)">
        <rect id="Rectángulo_45878" data-name="Rectángulo 45878" width="11.792" height="33.163" fill="#335b6d"/>
        <circle id="Elipse_4828" data-name="Elipse 4828" cx="3.016" cy="3.016" r="3.016" transform="translate(0.772 6.353) rotate(-45)" fill="#fff"/>
        <rect id="Rectángulo_45879" data-name="Rectángulo 45879" width="22.947" height="33.163" transform="translate(9.65)" fill="#003249"/>
        <rect id="Rectángulo_45880" data-name="Rectángulo 45880" width="6.065" height="3.113" transform="translate(2.005 12.53)" fill="#fefefe"/>
        <rect id="Rectángulo_45881" data-name="Rectángulo 45881" width="6.065" height="14.889" transform="translate(2.005 16.638)" fill="#fefefe"/>
        <circle id="Elipse_4829" data-name="Elipse 4829" cx="2.503" cy="2.503" r="2.503" transform="translate(2.535 3.851)" fill="#003249"/>
        <rect id="Rectángulo_45882" data-name="Rectángulo 45882" width="4.621" height="0.734" transform="translate(2.876 13.754)" fill="#ccc"/>
        <rect id="Rectángulo_45883" data-name="Rectángulo 45883" width="4.621" height="0.429" transform="translate(2.876 17.412)" fill="#ccc"/>
        <rect id="Rectángulo_45884" data-name="Rectángulo 45884" width="4.621" height="0.429" transform="translate(2.876 18.33)" fill="#ccc"/>
        <rect id="Rectángulo_45885" data-name="Rectángulo 45885" width="2.84" height="0.429" transform="translate(3.766 20.861)" fill="#ccc"/>
        <rect id="Rectángulo_45886" data-name="Rectángulo 45886" width="2.84" height="0.429" transform="translate(3.766 21.82)" fill="#ccc"/>
        <rect id="Rectángulo_45887" data-name="Rectángulo 45887" width="2.84" height="0.429" transform="translate(3.766 22.778)" fill="#ccc"/>
        <rect id="Rectángulo_45888" data-name="Rectángulo 45888" width="2.84" height="0.429" transform="translate(3.766 23.737)" fill="#ccc"/>
        <rect id="Rectángulo_45889" data-name="Rectángulo 45889" width="4.621" height="0.429" transform="translate(2.876 25.656)" fill="#ccc"/>
        <rect id="Rectángulo_45890" data-name="Rectángulo 45890" width="4.621" height="0.429" transform="translate(2.876 26.621)" fill="#ccc"/>
        <rect id="Rectángulo_45891" data-name="Rectángulo 45891" width="4.621" height="0.429" transform="translate(2.876 27.585)" fill="#ccc"/>
        <rect id="Rectángulo_45892" data-name="Rectángulo 45892" width="4.621" height="1.36" transform="translate(2.876 29.348)" fill="#ccc"/>
      </g>
      <g id="Grupo_952305" data-name="Grupo 952305" transform="translate(18.831 39.608)">
        <rect id="Rectángulo_45893" data-name="Rectángulo 45893" width="11.792" height="33.163" fill="#335b6d"/>
        <circle id="Elipse_4830" data-name="Elipse 4830" cx="3.016" cy="3.016" r="3.016" transform="translate(1.409 8.596) rotate(-76.717)" fill="#fff"/>
        <rect id="Rectángulo_45894" data-name="Rectángulo 45894" width="22.947" height="33.163" transform="translate(9.65)" fill="#003249"/>
        <rect id="Rectángulo_45895" data-name="Rectángulo 45895" width="6.065" height="3.113" transform="translate(2.005 12.53)" fill="#fefefe"/>
        <rect id="Rectángulo_45896" data-name="Rectángulo 45896" width="6.065" height="14.889" transform="translate(2.005 16.638)" fill="#fefefe"/>
        <circle id="Elipse_4831" data-name="Elipse 4831" cx="2.503" cy="2.503" r="2.503" transform="translate(2.535 3.851)" fill="#003249"/>
        <rect id="Rectángulo_45897" data-name="Rectángulo 45897" width="4.621" height="0.734" transform="translate(2.876 13.754)" fill="#ccc"/>
        <rect id="Rectángulo_45898" data-name="Rectángulo 45898" width="4.621" height="0.429" transform="translate(2.876 17.412)" fill="#ccc"/>
        <rect id="Rectángulo_45899" data-name="Rectángulo 45899" width="4.621" height="0.429" transform="translate(2.876 18.33)" fill="#ccc"/>
        <rect id="Rectángulo_45900" data-name="Rectángulo 45900" width="2.84" height="0.429" transform="translate(3.766 20.861)" fill="#ccc"/>
        <rect id="Rectángulo_45901" data-name="Rectángulo 45901" width="2.84" height="0.429" transform="translate(3.766 21.82)" fill="#ccc"/>
        <rect id="Rectángulo_45902" data-name="Rectángulo 45902" width="2.84" height="0.429" transform="translate(3.766 22.778)" fill="#ccc"/>
        <rect id="Rectángulo_45903" data-name="Rectángulo 45903" width="2.84" height="0.429" transform="translate(3.766 23.737)" fill="#ccc"/>
        <rect id="Rectángulo_45904" data-name="Rectángulo 45904" width="4.621" height="0.429" transform="translate(2.876 25.656)" fill="#ccc"/>
        <rect id="Rectángulo_45905" data-name="Rectángulo 45905" width="4.621" height="0.429" transform="translate(2.876 26.621)" fill="#ccc"/>
        <rect id="Rectángulo_45906" data-name="Rectángulo 45906" width="4.621" height="0.429" transform="translate(2.876 27.585)" fill="#ccc"/>
        <rect id="Rectángulo_45907" data-name="Rectángulo 45907" width="4.621" height="1.36" transform="translate(2.876 29.348)" fill="#ccc"/>
      </g>
      <path id="Trazado_656673" data-name="Trazado 656673" d="M5783.427,3104.412l-4.661,10.041a55.592,55.592,0,0,0-10.015,9.892l-2.823,1-1.839,1.857,1.309.659-1.27,4.056s3-1.995,3.079-2.069,2.163-3.323,2.163-3.323a81.2,81.2,0,0,0,10.337-6.071s2.64-1.8,5.85-7.2l4.4-6.27A11.387,11.387,0,0,1,5783.427,3104.412Z" transform="translate(-5709.621 -3083.297)" fill="#ffb27e"/>
      <path id="Trazado_656674" data-name="Trazado 656674" d="M6690.742,4440.961a9.232,9.232,0,0,1-2.9,1.959,9.167,9.167,0,0,1-.933.341,8.89,8.89,0,0,0-.925.227.536.536,0,0,0,.222.511,1.492,1.492,0,0,0,.539.225,14.067,14.067,0,0,0,8.283-.391,1.419,1.419,0,0,0,.748-.484,1.576,1.576,0,0,0-.071-1.352,16.305,16.305,0,0,1-.83-3.625q-.052-.464-.075-.929c-.014-.239.061-.488-.217-.531a4.336,4.336,0,0,0-.925.075c-.3.025-.606.052-.91.076-.432.037-.808.027-.888.52-.092.567-.185,1.133-.318,1.691a2.55,2.55,0,0,1-.491,1.358C6690.951,4440.745,6690.849,4440.854,6690.742,4440.961Z" transform="translate(-6584.934 -4348.469)" fill="#ffb27e"/>
      <path id="Trazado_656675" data-name="Trazado 656675" d="M6693.622,4567.525l.389.952a.373.373,0,0,1-.234.5,26.267,26.267,0,0,1-4.628,1.045,16.584,16.584,0,0,1-3.161.149,5.86,5.86,0,0,1-3.1-.751c.905.231,2.095-.249,3.021-.356l6.109-.711a3.66,3.66,0,0,0,.927-.191A1.225,1.225,0,0,0,6693.622,4567.525Z" transform="translate(-6581.997 -4472.492)" fill="#a8adb5"/>
      <path id="Trazado_656676" data-name="Trazado 656676" d="M6670,4529.889c.23.805.364,1.219.739,2.474a4.5,4.5,0,0,1-2.32.87,33.251,33.251,0,0,1-5.38.815,7.122,7.122,0,0,1-3.492-.462,1.946,1.946,0,0,1-.82-.668,1.078,1.078,0,0,1-.107-1.02,1.25,1.25,0,0,1,1.215-.6,7.13,7.13,0,0,1,1.395.328,5.012,5.012,0,0,0,2.179.065Z" transform="translate(-6558.878 -4436.757)" fill="#fc9012"/>
      <path id="Trazado_656677" data-name="Trazado 656677" d="M6270.653,4459.43a7.357,7.357,0,0,0-1.358,5.984,16.776,16.776,0,0,1-6.568,1.822,4.376,4.376,0,0,1-3.04-.791,5.531,5.531,0,0,0,3.175-1.953,41.156,41.156,0,0,0,3.677-4.338A11.659,11.659,0,0,0,6270.653,4459.43Z" transform="translate(-6180.181 -4369.859)" fill="#ffb27e"/>
      <path id="Trazado_656678" data-name="Trazado 656678" d="M6266.265,4590.523l.378.955a.372.372,0,0,1-.238.494,26.15,26.15,0,0,1-4.64,1,16.511,16.511,0,0,1-3.163.114,5.851,5.851,0,0,1-3.1-.784c.9.24,2.1-.227,3.025-.324l6.116-.646a3.651,3.651,0,0,0,.929-.181A1.228,1.228,0,0,0,6266.265,4590.523Z" transform="translate(-6176.212 -4494.329)" fill="#a8adb5"/>
      <path id="Trazado_656679" data-name="Trazado 656679" d="M6242.948,4552.782c.221.807.35,1.222.71,2.482a4.506,4.506,0,0,1-2.331.844,33.008,33.008,0,0,1-5.386.757,7.114,7.114,0,0,1-3.488-.5,1.938,1.938,0,0,1-.812-.677,1.075,1.075,0,0,1-.1-1.021,1.248,1.248,0,0,1,1.22-.583,7.171,7.171,0,0,1,1.392.343,4.992,4.992,0,0,0,2.179.089Z" transform="translate(-6153.377 -4458.494)" fill="#fc9012"/>
      <path id="Trazado_656680" data-name="Trazado 656680" d="M6368.225,3491.2l-1.514-.04-2.976-.077a1.624,1.624,0,0,1-1.927-1.818q-.117-1.007-.236-2.016-.765-6.5-1.528-13c-.236-2.018-.746-4.031-1.117-6.039q-.513-2.79-1.015-5.581c-.624-3.474-1.036-5.834-1.036-5.834-.886,3.6-2.342,6.142-3.123,9.606-1.222,5.407-1.726,11.5-2.971,15.382a44.926,44.926,0,0,1-4.049,9.307,1.763,1.763,0,0,1-.685.649c-.046.023-.093.046-.143.066s-.1.038-.15.054a10.427,10.427,0,0,1-2.417.48,3.665,3.665,0,0,1-1.887-.3,1.23,1.23,0,0,1-.607-1.4c2.318-9.094,5.613-50.926,5.613-50.926,6.974,3.96,18.521-3.447,18.521-3.447q.415,1.575.754,3.137.084.38.163.76.056.271.112.542c.032.163.064.326.1.489.007.034.014.069.019.1.021.109.044.218.063.328.027.14.055.282.08.423.035.186.068.373.1.56s.067.373.1.559c.016.091.031.182.047.273.026.156.052.311.077.467s.054.335.08.5c.032.2.062.4.091.6.019.121.036.243.055.364.02.143.042.287.061.431.014.1.029.195.042.293q.075.535.143,1.072c.013.108.027.217.04.325.016.126.031.254.046.381s.028.233.042.348a.021.021,0,0,1,0,.006c.026.231.053.462.077.691.02.178.038.356.056.534.012.112.024.226.035.338,0,.041.009.08.012.12.019.2.039.4.057.6s.034.391.051.586.035.4.049.594c.013.151.024.3.036.454,0,.038.006.076.009.114.006.083.013.166.019.249.009.13.019.259.028.388.011.168.023.337.034.5.022.346.042.694.061,1.041,0,.1.01.2.016.3.03.567.076,1.135.094,1.7a1.536,1.536,0,0,0,.042.585v.009c0,1.229.025,2.35.021,3.34-.011,2.975-.163,4.772-.163,4.772.012.489.017.977.025,1.465.031,1.861.037,3.721.039,5.582,0,1.989-.117,4.014.036,5.994Q6368.326,3484.682,6368.225,3491.2Z" transform="translate(-6257.202 -3398.386)" fill="#335b6d"/>
      <path id="Trazado_656681" data-name="Trazado 656681" d="M6404.511,3693.11c-.888,3.6-2.342,6.142-3.125,9.6-1.221,5.407-1.724,11.5-2.971,15.382a44.883,44.883,0,0,1-4.048,9.307,1.744,1.744,0,0,1-.977.769,10.438,10.438,0,0,1-2.42.48,51.841,51.841,0,0,0,6.779-18.066c.753-4.325.965-8.739,1.549-13.1a33.508,33.508,0,0,1,3.88-12.336C6403.478,3688.4,6404.511,3693.11,6404.511,3693.11Z" transform="translate(-6304.832 -3634.7)" fill="#003249"/>
      <path id="Trazado_656682" data-name="Trazado 656682" d="M6713.57,3491.2l-1.515-.04q-.278-4.5-.414-9.015-.186-6.286-.087-12.576c.023-1.47.04-2.941.028-4.411a65.354,65.354,0,0,0-.457-7.716c-.613-4.84-2.63-12.449-6.6-16.629,1.424-1.533,4.161-3.2,5.8-4.55.266.833.864,3.643.917,3.9q.056.271.111.542c.035.163.065.326.1.489l.02.1c.021.109.042.218.062.328.027.14.054.282.079.423.037.186.069.373.1.56s.067.373.1.559c.015.091.031.182.046.273.026.156.052.311.077.467s.054.335.082.5c.031.2.062.4.09.6.018.121.037.243.054.364.021.143.041.287.062.431.015.1.028.195.041.293.051.357.1.714.143,1.072.014.108.027.217.04.325.016.126.033.254.047.381s.027.233.041.348v.006c.028.23.053.46.078.691.021.178.039.356.056.534.012.112.024.226.034.338.005.041.008.08.013.12q.03.3.056.6c.018.2.035.391.053.586s.034.4.048.594c.014.151.024.3.037.454,0,.038.006.076.008.114q.01.125.018.249c.012.13.02.259.028.388.013.168.023.337.033.5.023.346.043.694.061,1.041.007.1.012.2.017.3.029.567.075,1.135.093,1.7a1.584,1.584,0,0,0,.042.585v.009c0,.794.014,1.588.02,2.382a3.58,3.58,0,0,0-.009.958c-.011,2.975-.159,4.772-.159,4.772.014.489.021.977.028,1.465.032,1.861.04,3.721.041,5.582,0,1.989-.116,4.014.037,5.994Q6713.669,3484.682,6713.57,3491.2Z" transform="translate(-6602.544 -3398.386)" fill="#003249"/>
      <path id="Trazado_656683" data-name="Trazado 656683" d="M6091.047,2900.485c.431,1.515,2.4,6.155,2.833,7.671,1.971,1.687,1.445-1.665,3.415.022.686-1.814,2.249-3.6,2.622-5.508-.9-2.173-1.725-2.607-2.348-4.875-.2-.726-.446-1.461-.658-2.184C6095.993,2897.2,6091.835,2900.228,6091.047,2900.485Z" transform="translate(-6020.062 -2885.046)" fill="#ffb27e"/>
      <path id="Trazado_656684" data-name="Trazado 656684" d="M5974.753,2750.606a6.583,6.583,0,0,1,.577,2.381c-.01.193-.583,2.383-.774,2.232l-1.7-1.343a3.4,3.4,0,0,0-.743,2.018l-1-.775q-.442,1.105-.884,2.211-.517-.9-.978-1.838a72.723,72.723,0,0,1-3.5-10.834,17.847,17.847,0,0,1-.232-5.815,10.555,10.555,0,0,1,.725-2.307,12.107,12.107,0,0,1,1.228-2s-.119,5.054.249,5.349c1.227.981,1.474,2.936,2.952,3.554a4.044,4.044,0,0,1,1.473.765,2.81,2.81,0,0,1,.53,1.019c.128.367.28.725.443,1.078.09.194.182.388.274.58.054.108.106.216.16.325.068.142.136.283.2.425s.143.3.209.45A20.225,20.225,0,0,1,5974.753,2750.606Z" transform="translate(-5900.738 -2732.109)" fill="#003249"/>
      <path id="Trazado_656685" data-name="Trazado 656685" d="M5994.038,2737.96a13,13,0,0,0,3.224,12.246,2.265,2.265,0,0,0,.9.646,2.338,2.338,0,0,0,1.856-.479,16.253,16.253,0,0,0,4.092-3.659,4.65,4.65,0,0,0,1.1-2.2,5.416,5.416,0,0,0-.724-2.892,4.651,4.651,0,0,1-3.014.076c-1-.243-.049-1.928-.915-2.475-.535-.338-1.312-1.133-1.813-1.519-1.035-.8-3.545-.008-4.406-.991C5994.226,2737.142,5994.144,2737.557,5994.038,2737.96Z" transform="translate(-5927.567 -2734.176)" fill="#ffb27e"/>
      <path id="Trazado_656686" data-name="Trazado 656686" d="M6137.482,2916.753c.116.373.177.623.245.816-1.131,1.406-3.642,5.093-3.666,5.108-.1-.344-.371-1.241-.526-1.586-.033-.074-.068-.148-.1-.222a16.243,16.243,0,0,0,3.417-3.212A7.915,7.915,0,0,0,6137.482,2916.753Z" transform="translate(-6060.306 -2905.119)" fill="#ee995f"/>
      <path id="Trazado_656687" data-name="Trazado 656687" d="M5992.512,2689.663a1.03,1.03,0,0,0,.169.9,1.551,1.551,0,0,0,1.219.5c.454.009.905-.084,1.36-.075a3.039,3.039,0,0,1,.811.127c1.719.513,2.258,2.371,2.767,3.9a13.766,13.766,0,0,0,2.1,4.74,9.3,9.3,0,0,0,3.32,2.527c1.334.622,2.692.885,3.845,1.8a5.11,5.11,0,0,1,1.825,3.927,6.163,6.163,0,0,0,1.349-3.624,2.8,2.8,0,0,1,.361-1.644c.193-.273.742-.36,1.07-.474.085-.03,1.022-.366,1.024-.359q-1.135-1.026-2.273-2.051a26.655,26.655,0,0,1-2.6-2.564,12.771,12.771,0,0,1-2.181-4.106c-.763-2.142-1.88-4.385-3.852-5.516a7.628,7.628,0,0,0-4.99-1.126,8.973,8.973,0,0,0-3.469,1.216,7.209,7.209,0,0,0-1.116.92A3.8,3.8,0,0,0,5992.512,2689.663Z" transform="translate(-5926.467 -2686.479)" fill="#003249"/>
      <path id="Trazado_656688" data-name="Trazado 656688" d="M6115.944,3085.262a3.494,3.494,0,0,0-.2,1.8,3.325,3.325,0,0,0,.6,1.2,8.982,8.982,0,0,0,4.081,3.111q-.527-4.23-1.058-8.462a2.809,2.809,0,0,0-.266-1.029,1.059,1.059,0,0,0-.772-.555c-.31-.022-.5.354-.653.569a12.044,12.044,0,0,0-1.24,2.106A12.6,12.6,0,0,0,6115.944,3085.262Z" transform="translate(-6043.461 -3061.376)" fill="#ee7c2b"/>
      <path id="Trazado_656689" data-name="Trazado 656689" d="M6153.274,3009.59l-.007,0c-.5.114-.642,1.132-.692,1.545a8.935,8.935,0,0,0,.049,2.074,24.528,24.528,0,0,0,.758,4.239,10.034,10.034,0,0,0,1.977,3.8,10.326,10.326,0,0,0,3.8,2.615c.544.231,1.1.432,1.665.612.486.155.977.3,1.469.429.257.07.514.137.771.2a2.094,2.094,0,0,1,.574.136c.229.173.355.813.467,1.079.16.382.327.76.506,1.133a8.751,8.751,0,0,0,3,3.74,9.992,9.992,0,0,0,4.953,1.228,22.016,22.016,0,0,0,7.474-.774,12.4,12.4,0,0,0,6.209-4.084l-4.762-5.851c-3.125-3.84-6.288-7.717-10.194-10.76s-8.68-5.226-13.631-5.152a3.61,3.61,0,0,1-1.146,3.152,3.08,3.08,0,0,1-1.584.714,3.9,3.9,0,0,1-.913.023A2.908,2.908,0,0,0,6153.274,3009.59Z" transform="translate(-6078.44 -2989.665)" fill="#fc9012"/>
      <g id="Grupo_952306" data-name="Grupo 952306" transform="translate(32.123 27.468)">
        <rect id="Rectángulo_45908" data-name="Rectángulo 45908" width="11.792" height="33.163" transform="matrix(0.988, -0.157, 0.157, 0.988, 0, 5.104)" fill="#335b6d"/>
        <circle id="Elipse_4832" data-name="Elipse 4832" cx="3.016" cy="3.016" r="3.016" transform="translate(2.954 7.574)" fill="#fff"/>
        <rect id="Rectángulo_45909" data-name="Rectángulo 45909" width="22.947" height="33.163" transform="translate(9.531 3.593) rotate(-9.008)" fill="#003249"/>
        <rect id="Rectángulo_45910" data-name="Rectángulo 45910" width="6.065" height="3.113" transform="translate(3.943 17.165) rotate(-9.008)" fill="#fefefe"/>
        <rect id="Rectángulo_45911" data-name="Rectángulo 45911" width="6.065" height="14.889" transform="translate(4.586 21.222) rotate(-9.008)" fill="#fefefe"/>
        <circle id="Elipse_4833" data-name="Elipse 4833" cx="2.503" cy="2.503" r="2.503" transform="matrix(0.808, -0.589, 0.589, 0.808, 2.474, 10.041)" fill="#003249"/>
        <rect id="Rectángulo_45912" data-name="Rectángulo 45912" width="4.621" height="0.734" transform="translate(4.994 18.237) rotate(-9.008)" fill="#ccc"/>
        <rect id="Rectángulo_45913" data-name="Rectángulo 45913" width="4.621" height="0.429" transform="translate(5.566 21.85) rotate(-9.008)" fill="#ccc"/>
        <rect id="Rectángulo_45914" data-name="Rectángulo 45914" width="4.621" height="0.429" transform="translate(5.71 22.757) rotate(-9.008)" fill="#ccc"/>
        <rect id="Rectángulo_45915" data-name="Rectángulo 45915" width="2.84" height="0.429" transform="matrix(0.988, -0.157, 0.157, 0.988, 6.986, 25.118)" fill="#ccc"/>
        <rect id="Rectángulo_45916" data-name="Rectángulo 45916" width="2.84" height="0.429" transform="matrix(0.988, -0.157, 0.157, 0.988, 7.136, 26.065)" fill="#ccc"/>
        <rect id="Rectángulo_45917" data-name="Rectángulo 45917" width="2.84" height="0.429" transform="matrix(0.988, -0.157, 0.157, 0.988, 7.286, 27.011)" fill="#ccc"/>
        <rect id="Rectángulo_45918" data-name="Rectángulo 45918" width="2.84" height="0.429" transform="matrix(0.988, -0.157, 0.157, 0.988, 7.436, 27.958)" fill="#ccc"/>
        <rect id="Rectángulo_45919" data-name="Rectángulo 45919" width="4.621" height="0.429" transform="translate(6.857 29.993) rotate(-9.008)" fill="#ccc"/>
        <rect id="Rectángulo_45920" data-name="Rectángulo 45920" width="4.621" height="0.429" transform="translate(7.008 30.946) rotate(-9.008)" fill="#ccc"/>
        <rect id="Rectángulo_45921" data-name="Rectángulo 45921" width="4.621" height="0.429" transform="translate(7.159 31.899) rotate(-9.008)" fill="#ccc"/>
        <rect id="Rectángulo_45922" data-name="Rectángulo 45922" width="4.621" height="1.36" transform="translate(7.435 33.64) rotate(-9.008)" fill="#ccc"/>
      </g>
      <rect id="Rectángulo_45923" data-name="Rectángulo 45923" width="42.109" height="39.381" transform="translate(0 58.833)" fill="#fc9012"/>
      <rect id="Rectángulo_45924" data-name="Rectángulo 45924" width="27.408" height="39.381" transform="translate(42.109 58.833)" fill="#f06900"/>
      <path id="Trazado_656690" data-name="Trazado 656690" d="M4923.282,3930.6h10.863a1.3,1.3,0,0,0,1.3-1.3h0a1.3,1.3,0,0,0-1.3-1.3h-10.863a1.3,1.3,0,0,0-1.3,1.3h0A1.3,1.3,0,0,0,4923.282,3930.6Z" transform="translate(-4910.059 -3865.277)" fill="#003249"/>
      <path id="Trazado_656691" data-name="Trazado 656691" d="M5980.037,3211.53l-3.077,11.556a55.6,55.6,0,0,0-8.6,11.142l-2.664,1.371-1.574,2.085,1.386.478-.717,4.189s2.711-2.378,2.774-2.462,1.7-3.582,1.7-3.582a81.151,81.151,0,0,0,9.431-7.4s2.378-2.137,4.836-7.916l3.521-6.8A19.546,19.546,0,0,1,5980.037,3211.53Z" transform="translate(-5899.547 -3185.004)" fill="#ffb27e"/>
    </g>
  </g>
</svg>
