<svg xmlns="http://www.w3.org/2000/svg" width="90" height="68.903" viewBox="0 0 90 68.903">
  <g id="ordenador-portatil_2_" data-name="ordenador-portatil(2)" transform="translate(0 -59.984)">
    <g id="Grupo_952399" data-name="Grupo 952399" transform="translate(0 59.984)">
      <path id="Trazado_656865" data-name="Trazado 656865" d="M86.469,114.17H84.277a5.221,5.221,0,0,0,.7-2.616v-2.508a1.319,1.319,0,0,0-2.638,0v2.508a2.619,2.619,0,0,1-2.616,2.616H10.276a2.619,2.619,0,0,1-2.616-2.616V65.238a2.619,2.619,0,0,1,2.616-2.616H79.724a2.619,2.619,0,0,1,2.616,2.616V102.9a1.319,1.319,0,1,0,2.638,0V65.238a5.26,5.26,0,0,0-5.254-5.254H10.276a5.26,5.26,0,0,0-5.254,5.254v46.315a5.219,5.219,0,0,0,.7,2.616H3.532A3.536,3.536,0,0,0,0,117.7a11.2,11.2,0,0,0,11.186,11.186H78.814A11.2,11.2,0,0,0,90,117.7,3.535,3.535,0,0,0,86.469,114.17Zm-48.237,2.638H51.768v1.284a1.3,1.3,0,0,1-1.295,1.295H39.527a1.3,1.3,0,0,1-1.295-1.295v-1.284Zm40.582,9.442H11.186A8.558,8.558,0,0,1,2.638,117.7a.9.9,0,0,1,.894-.894H35.594v1.284a3.937,3.937,0,0,0,3.932,3.933H50.474a3.937,3.937,0,0,0,3.932-3.933v-1.284H86.469a.9.9,0,0,1,.894.894A8.558,8.558,0,0,1,78.814,126.25Z" transform="translate(0 -59.984)" fill="#fd9827"/>
      <path id="Trazado_656866" data-name="Trazado 656866" d="M127.309,198.271a14.109,14.109,0,0,0,10.427-4.6,14.14,14.14,0,0,0-20.311-19.663,1.319,1.319,0,1,0,1.843,1.887,11.431,11.431,0,0,1,6.722-3.2v3.624a7.915,7.915,0,1,0,5.362,14.607l3.351,2a11.507,11.507,0,0,1-18.3-12.481,1.319,1.319,0,1,0-2.5-.841,14.154,14.154,0,0,0,13.408,18.659Zm0-8.865a5.278,5.278,0,0,1-.007-10.557h.007a5.278,5.278,0,1,1,0,10.556Zm6.151-.289a7.824,7.824,0,0,0,1.115-1.835h-.007a7.906,7.906,0,0,0-3.235-9.968l.006,0a7.935,7.935,0,0,0-2.472-.943c-.08-.016-.159-.032-.239-.046V172.7a11.5,11.5,0,0,1,8.806,16.889l-.012.022a11.524,11.524,0,0,1-.868,1.358Z" transform="translate(-93.265 -150.64)" fill="#fd9827"/>
      <path id="Trazado_656867" data-name="Trazado 656867" d="M63.551,87.27a2.8,2.8,0,0,0-2.8,2.8V131.7a2.8,2.8,0,0,0,2.8,2.8h63.039a2.8,2.8,0,0,0,2.8-2.8V90.066a2.8,2.8,0,0,0-2.8-2.8Zm63.2,44.43a.159.159,0,0,1-.158.158H63.551a.159.159,0,0,1-.158-.158V100.058h63.356Zm0-41.634V97.42H63.393V90.066a.159.159,0,0,1,.158-.158h63.039A.159.159,0,0,1,126.749,90.066Z" transform="translate(-50.071 -82.472)" fill="#fd9827"/>
      <circle id="Elipse_4859" data-name="Elipse 4859" cx="1.319" cy="1.319" r="1.319" transform="translate(18.122 9.873)" fill="#fd9827"/>
      <circle id="Elipse_4860" data-name="Elipse 4860" cx="1.319" cy="1.319" r="1.319" transform="translate(23.349 9.873)" fill="#fd9827"/>
      <circle id="Elipse_4861" data-name="Elipse 4861" cx="1.319" cy="1.319" r="1.319" transform="translate(28.576 9.873)" fill="#fd9827"/>
      <path id="Trazado_656868" data-name="Trazado 656868" d="M275.194,176.909h19.3a1.319,1.319,0,1,0,0-2.638h-19.3a1.319,1.319,0,1,0,0,2.638Z" transform="translate(-225.713 -154.173)" fill="#fd9827"/>
      <path id="Trazado_656869" data-name="Trazado 656869" d="M301.994,204.9h-17.7a1.319,1.319,0,1,0,0,2.638h17.7a1.319,1.319,0,1,0,0-2.638Z" transform="translate(-233.214 -179.418)" fill="#fd9827"/>
      <path id="Trazado_656870" data-name="Trazado 656870" d="M310.071,235.532H294.095a1.319,1.319,0,1,0,0,2.638h15.976a1.319,1.319,0,1,0,0-2.638Z" transform="translate(-241.29 -204.661)" fill="#fd9827"/>
    </g>
  </g>
</svg>
