<svg xmlns="http://www.w3.org/2000/svg" width="101" height="101" viewBox="0 0 101 101">
  <g id="Grupo_953468" data-name="Grupo 953468" transform="translate(-749.966 -6214)">
    <circle id="Elipse_1147" data-name="Elipse 1147" cx="50.5" cy="50.5" r="50.5" transform="translate(749.966 6214)" fill="#785549"/>
    <g id="toma-de-decisiones" transform="translate(751.025 6230.626)">
      <path id="Trazado_657957" data-name="Trazado 657957" d="M124.189,13.4a6.7,6.7,0,1,0-6.7-6.7A6.708,6.708,0,0,0,124.189,13.4Z" transform="translate(-75.214)" fill="#fff"/>
      <path id="Trazado_657958" data-name="Trazado 657958" d="M118.482,92.122v-11.7a5.9,5.9,0,0,0-4.062-5.6l-.011,0-1.912-.587a.594.594,0,0,0-.732.365l-4.022,11.034a.726.726,0,0,1-1.364,0l-4.022-11.034a.594.594,0,0,0-.557-.391c-.058,0-2.085.613-2.085.613a5.937,5.937,0,0,0-4.075,5.64V92.122a.6.6,0,0,0,.1.326l4.2,6.386v16.157a.594.594,0,0,0,.594.594h13.068a.594.594,0,0,0,.594-.594V98.833l4.2-6.386A.591.591,0,0,0,118.482,92.122Z" transform="translate(-58.086 -58.165)" fill="#fff"/>
      <path id="Trazado_657959" data-name="Trazado 657959" d="M28.162,233.358a1.9,1.9,0,1,0-3.486-1.531L21.7,238.594a1.9,1.9,0,0,0,.977,2.508l6.767,2.972a1.9,1.9,0,0,0,1.531-3.486l-2.559-1.124,11.317-4.41v-4.086l-12.7,4.948,1.124-2.559Z" transform="translate(0 -180.843)" fill="#fff"/>
      <path id="Trazado_657960" data-name="Trazado 657960" d="M33.075,156.239a1.9,1.9,0,0,0-1.382-3.547l-6.886,2.683a1.9,1.9,0,0,0-1.083,2.465l2.683,6.886a1.9,1.9,0,1,0,3.547-1.382l-1.015-2.6,12.4,5.448V162.03L30.47,157.255l2.6-1.015Z" transform="translate(-1.607 -119.597)" fill="#fff"/>
      <path id="Trazado_657961" data-name="Trazado 657961" d="M206.193,235.4a1.9,1.9,0,0,0-3.547,1.382l1.015,2.6-12.4-5.448V238.1l10.873,4.775-2.6,1.015a1.9,1.9,0,1,0,1.382,3.547l6.886-2.683a1.9,1.9,0,0,0,1.083-2.465Z" transform="translate(-133.043 -183.391)" fill="#fff"/>
      <path id="Trazado_657962" data-name="Trazado 657962" d="M208.31,159.309l-6.767-2.972a1.9,1.9,0,0,0-1.531,3.486l2.559,1.124-11.316,4.41v4.086l12.7-4.948-1.124,2.559a1.9,1.9,0,1,0,3.486,1.531l2.972-6.767A1.9,1.9,0,0,0,208.31,159.309Z" transform="translate(-133.042 -122.431)" fill="#fff"/>
      <path id="Trazado_657963" data-name="Trazado 657963" d="M143.69,74.362a.86.86,0,0,0-.637-.264h-1.782a.861.861,0,0,0-.637.264.827.827,0,0,0-.109.974l.952,1.436-.446,3.761.878,2.335a.268.268,0,0,0,.5,0l.878-2.335-.446-3.761.952-1.436A.826.826,0,0,0,143.69,74.362Z" transform="translate(-93.188 -58.088)" fill="#fff"/>
    </g>
  </g>
</svg>
