<svg xmlns="http://www.w3.org/2000/svg" xmlns:xlink="http://www.w3.org/1999/xlink" width="295" height="155.889" viewBox="0 0 295 155.889">
  <defs>
    <clipPath id="clip-path">
      <rect id="Rectángulo_48417" data-name="Rectángulo 48417" width="137" height="69.891" transform="translate(0 9)" fill="#12263f"/>
    </clipPath>
  </defs>
  <g id="Grupo_953317" data-name="Grupo 953317" transform="translate(-909.966 -3580)">
    <g id="Grupo_952457" data-name="Grupo 952457" transform="translate(861.359 3487.515)">
      <g id="Enmascarar_grupo_952127" data-name="Enmascarar grupo 952127" transform="translate(88.641 83.485)" opacity="0.33" clip-path="url(#clip-path)">
        <path id="Trazado_151731" data-name="Trazado 151731" d="M65.23,103A37.765,37.765,0,1,1,103,65.23,37.808,37.808,0,0,1,65.23,103m0,27.465A65.23,65.23,0,1,0,0,65.23,65.23,65.23,0,0,0,65.23,130.461Z" transform="translate(2.83 13.661)" fill="#fd9827"/>
      </g>
      <path id="Trazado_656891" data-name="Trazado 656891" d="M344.177,313.352c4.5-23.993,5.854-49.176.606-72.918-5.487-24.826-18.883-47.933-38.339-59.3-15.237-8.9-33.2-10.087-49.773-5.648S224.8,189.695,211.15,201.663c-13.939,12.219-28.167,27.6-45.516,27.2-13.784-.321-26.683-10.918-40.381-9.07C109.1,221.97,97.836,241.481,96.32,260.617c-1.428,18.035,3.7,35.736,9.164,52.735Z" transform="translate(-26.018 -65.78)" fill="#785549"/>
      <g id="Grupo_952437" data-name="Grupo 952437" transform="translate(233.198 92.486)">
        <path id="Trazado_656892" data-name="Trazado 656892" d="M532.825,356.735h-8.815l1.356-63.157h6.1Z" transform="translate(-493.763 -202.703)" fill="#e89a49"/>
        <path id="Trazado_656893" data-name="Trazado 656893" d="M472.683,110.062c-3,9.262-2.671,19.3-5.163,28.713-2.04,7.707-5.92,14.8-8.36,22.392s-3.3,16.265.562,23.239c2.884,5.207,8.063,8.8,13.536,11.139,9.37,4,20.363,4.725,29.735.728s16.727-13.059,17.486-23.22c.876-11.729-6.513-22.408-8.626-33.979-1.543-8.449-.231-17.212-1.64-25.685-1.36-8.178-8.365-19.757-17.58-20.824C483.157,91.465,475.212,102.263,472.683,110.062Z" transform="translate(-457.077 -92.486)" fill="#5db18c"/>
      </g>
      <g id="Grupo_952439" data-name="Grupo 952439" transform="translate(54.054 196.266)">
        <g id="Grupo_952438" data-name="Grupo 952438">
          <path id="Trazado_656894" data-name="Trazado 656894" d="M66.809,364.224a7.146,7.146,0,0,1-2.763-2.144,3.471,3.471,0,0,1-.537-3.33c.682-1.58,2.689-2.119,4.406-1.992s3.406.717,5.121.565a19.885,19.885,0,0,1-10.408-6.252c-1.428-1.637-2.613-4-1.57-5.9a4.163,4.163,0,0,1,3.654-1.914,11.172,11.172,0,0,1,4.173,1.029,36.551,36.551,0,0,1-6.738-16.593c-.247-1.79-.216-3.934,1.243-5a3.555,3.555,0,0,1,3.4-.238,8.3,8.3,0,0,1,2.8,2.158,26.476,26.476,0,0,1,6.837,14.821,11.34,11.34,0,0,1,2.944-5.136,5.044,5.044,0,0,1,5.54-.982c2.217,1.192,2.71,4.153,2.539,6.663a23.758,23.758,0,0,1-4.629,12.508c1.958-.8,3.364-2.525,5.07-3.778s4.2-1.987,5.861-.67c1.571,1.249,1.539,3.642,1.05,5.588C93.464,358.962,79.955,370.451,66.809,364.224Z" transform="translate(-60.66 -322.135)" fill="#7dc1a3"/>
          <path id="Trazado_656895" data-name="Trazado 656895" d="M68.107,323.265a3.463,3.463,0,0,0-.593-.8,3.711,3.711,0,0,1,3.034-.012,8.3,8.3,0,0,1,2.8,2.158,26.475,26.475,0,0,1,6.837,14.821,11.34,11.34,0,0,1,2.944-5.136,5.044,5.044,0,0,1,5.54-.982c2.217,1.192,2.71,4.153,2.539,6.663a23.758,23.758,0,0,1-4.629,12.508c1.958-.8,3.364-2.525,5.07-3.778s4.2-1.987,5.861-.67c1.571,1.249,1.539,3.642,1.05,5.588-.819,3.26-6.18,8.815-13.226,11.226C81.849,350.231,75.126,336.471,68.107,323.265Z" transform="translate(-64.417 -322.135)" fill="#5db18c"/>
        </g>
        <path id="Trazado_656896" data-name="Trazado 656896" d="M91.318,370.989c4.314,9.565,7.64,19.123,8.077,29.346" transform="translate(-77.463 -348.911)" fill="none" stroke="#ffc366" stroke-linecap="round" stroke-miterlimit="10" stroke-width="1.077"/>
      </g>
      <path id="Trazado_656941" data-name="Trazado 656941" d="M48.607,435.587h0c0,1.158.4,2.1.893,2.1H342.714c.493,0,.893-.94.893-2.1h0c0-1.159-.4-2.1-.893-2.1H49.5C49.007,433.488,48.607,434.428,48.607,435.587Z" transform="translate(0 -189.311)" fill="#5db18c"/>
    </g>
    <g id="Grupo_952483" data-name="Grupo 952483" transform="translate(177.101 3129.182)">
      <g id="Grupo_952458" data-name="Grupo 952458" transform="translate(795.269 577.784)">
        <path id="Trazado_656942" data-name="Trazado 656942" d="M901.3,701.632s-7.938,11.2.485,19.911H804.3l-.486-21.292Z" transform="translate(-803.81 -700.251)" fill="#e7e5e5"/>
      </g>
      <g id="Grupo_952459" data-name="Grupo 952459" transform="translate(795.269 576.771)">
        <path id="Trazado_656943" data-name="Trazado 656943" d="M803.81,711.867c1.3-1.039,16.446-13.163,95.56-8.281a6.455,6.455,0,0,1,2.05-3.615l-96.289-2.333Z" transform="translate(-803.81 -697.638)" fill="#cececd"/>
      </g>
      <g id="Grupo_952460" data-name="Grupo 952460" transform="translate(789.865 573.449)">
        <path id="Trazado_656944" data-name="Trazado 656944" d="M796.57,702.015v-2.772c0-4.919,3.582-4.523,3.582-4.523h94.555v-5.655h-95.53a5.982,5.982,0,0,0-4.368,1.586h0l0,0c-.087.084-.167.167-.245.252a.141.141,0,0,0-.023.026c-.045.051-.091.1-.13.146-1.807,2.034-8.8,11.26-.75,24.3a5.736,5.736,0,0,0,5.52,3.144h95.53v-5.655H800.152s-3.582.4-3.582-4.52v-6.334Z" transform="translate(-789.865 -689.064)" fill="#22b1b6"/>
      </g>
      <g id="Grupo_952461" data-name="Grupo 952461" transform="translate(817.487 549.851)">
        <path id="Trazado_656945" data-name="Trazado 656945" d="M953.5,629.476s-7.521,10.611.455,18.863H861.61l-.463-20.171Z" transform="translate(-861.147 -628.167)" fill="#e7e5e5"/>
      </g>
      <g id="Grupo_952462" data-name="Grupo 952462" transform="translate(817.487 548.889)">
        <path id="Trazado_656946" data-name="Trazado 656946" d="M861.147,639.167c1.233-.983,15.582-12.469,90.526-7.845a6.136,6.136,0,0,1,1.943-3.424L862.4,625.685Z" transform="translate(-861.147 -625.685)" fill="#cececd"/>
      </g>
      <g id="Grupo_952463" data-name="Grupo 952463" transform="translate(812.37 545.744)">
        <path id="Trazado_656947" data-name="Trazado 656947" d="M854.292,629.837V627.21c0-4.661,3.395-4.284,3.395-4.284h89.575v-5.358h-90.5a5.679,5.679,0,0,0-4.136,1.5v0l0,0c-.08.079-.156.161-.229.241-.009.009-.016.019-.024.026-.042.048-.085.091-.123.136-1.713,1.928-8.337,10.673-.711,23.029a5.437,5.437,0,0,0,5.227,2.976h90.5v-5.354H857.686s-3.395.375-3.395-4.284v-6Z" transform="translate(-847.942 -617.568)" fill="#ea5645"/>
      </g>
      <g id="Grupo_952464" data-name="Grupo 952464" transform="translate(799.025 520.619)">
        <path id="Trazado_656948" data-name="Trazado 656948" d="M910.99,554.111s-7.941,11.2.485,19.911H813.989L813.5,552.73Z" transform="translate(-813.503 -552.73)" fill="#e7e5e5"/>
      </g>
      <g id="Grupo_952465" data-name="Grupo 952465" transform="translate(799.025 519.605)">
        <path id="Trazado_656949" data-name="Trazado 656949" d="M813.5,564.343c1.3-1.042,16.447-13.163,95.557-8.284a6.467,6.467,0,0,1,2.054-3.613l-96.29-2.334Z" transform="translate(-813.503 -550.113)" fill="#cececd"/>
      </g>
      <g id="Grupo_952466" data-name="Grupo 952466" transform="translate(793.621 516.282)">
        <path id="Trazado_656950" data-name="Trazado 656950" d="M806.262,554.491v-2.772c0-4.922,3.583-4.524,3.583-4.524H904.4v-5.656H808.868a5.98,5.98,0,0,0-4.365,1.587v0l0,0c-.084.084-.165.17-.242.253l-.026.027c-.043.05-.091.1-.131.145-1.8,2.037-8.8,11.264-.748,24.306A5.738,5.738,0,0,0,808.868,571H904.4v-5.655H809.846s-3.583.4-3.583-4.521v-6.334Z" transform="translate(-799.559 -541.539)" fill="#ffc23a"/>
      </g>
      <g id="Grupo_952467" data-name="Grupo 952467" transform="translate(842.287 545.744)">
        <rect id="Rectángulo_45996" data-name="Rectángulo 45996" width="40.422" height="5.358" transform="translate(0 0)" fill="#d13431"/>
      </g>
      <g id="Grupo_952468" data-name="Grupo 952468" transform="translate(841.953 568.299)">
        <rect id="Rectángulo_45997" data-name="Rectángulo 45997" width="40.421" height="5.355" fill="#d13431"/>
      </g>
      <g id="Grupo_952469" data-name="Grupo 952469" transform="translate(793.621 516.282)">
        <path id="Trazado_656951" data-name="Trazado 656951" d="M809.846,565.346s-3.583.4-3.583-4.521v-9.106c0-4.922,3.583-4.524,3.583-4.524h16.477v-5.656H808.868a5.98,5.98,0,0,0-4.365,1.587v0l0,0c-.084.084-.165.17-.242.253l-.026.027c-.043.05-.091.1-.131.145-1.8,2.037-8.8,11.264-.748,24.306A5.738,5.738,0,0,0,808.868,571h17.456v-5.655Z" transform="translate(-799.559 -541.539)" fill="#f9a431"/>
      </g>
      <g id="Grupo_952470" data-name="Grupo 952470" transform="translate(870.864 559.698)">
        <path id="Trazado_656952" data-name="Trazado 656952" d="M1006.888,654.059a33.257,33.257,0,0,0-7.995-.4s5.044,3.574,4.8,11.452l3.848-5.378,5.3,3.863S1011.173,655.756,1006.888,654.059Z" transform="translate(-998.893 -653.58)" fill="#22b1b6"/>
      </g>
      <g id="Grupo_952471" data-name="Grupo 952471" transform="translate(824.317 531.015)">
        <path id="Trazado_656953" data-name="Trazado 656953" d="M886.767,580.038a33.1,33.1,0,0,0-8-.4s5.043,3.57,4.8,11.451l3.846-5.381,5.3,3.865S891.051,581.733,886.767,580.038Z" transform="translate(-878.772 -579.558)" fill="#ea5645"/>
      </g>
      <g id="Grupo_952472" data-name="Grupo 952472" transform="translate(789.865 573.447)">
        <path id="Trazado_656954" data-name="Trazado 656954" d="M800.152,712.867s-3.583.4-3.583-4.52v-9.106c0-4.922,3.583-4.523,3.583-4.523H816.63v-5.656H799.174a5.978,5.978,0,0,0-4.365,1.587v0l0,0c-.084.084-.165.17-.242.253a.344.344,0,0,0-.026.028c-.044.049-.091.1-.131.145-1.8,2.037-8.8,11.264-.749,24.306a5.738,5.738,0,0,0,5.517,3.144H816.63v-5.655Z" transform="translate(-789.866 -689.061)" fill="#0f8481"/>
      </g>
      <g id="Grupo_952482" data-name="Grupo 952482" transform="translate(895.47 500.303)">
        <g id="Grupo_952473" data-name="Grupo 952473" transform="translate(0 0)">
          <path id="Trazado_656955" data-name="Trazado 656955" d="M1122.938,593.485a2.644,2.644,0,0,1-1.687,3.338l-23.7,8.2a2.649,2.649,0,0,1-3.39-1.581l-31.626-91.449a2.646,2.646,0,0,1,1.689-3.338l23.7-8.2a2.646,2.646,0,0,1,3.39,1.581Z" transform="translate(-1062.391 -500.303)" fill="#61313e"/>
        </g>
        <g id="Grupo_952474" data-name="Grupo 952474" transform="translate(0 0)">
          <path id="Trazado_656956" data-name="Trazado 656956" d="M1122.938,593.485a2.644,2.644,0,0,1-1.687,3.338l-23.7,8.2a2.649,2.649,0,0,1-3.39-1.581l-31.626-91.449a2.646,2.646,0,0,1,1.689-3.338l23.7-8.2a2.646,2.646,0,0,1,3.39,1.581Z" transform="translate(-1062.391 -500.303)" fill="#c0c942"/>
        </g>
        <g id="Grupo_952475" data-name="Grupo 952475" transform="translate(0.056 6.714)">
          <path id="Trazado_656957" data-name="Trazado 656957" d="M1064.362,519.427a2.642,2.642,0,0,0-1.687,3.338l31.626,91.448a2.646,2.646,0,0,0,3.39,1.581l5.2-1.8-33.329-96.367Z" transform="translate(-1062.535 -517.628)" fill="#98a02f"/>
        </g>
        <g id="Grupo_952476" data-name="Grupo 952476" transform="translate(25.834 76.029)">
          <rect id="Rectángulo_45998" data-name="Rectángulo 45998" width="30.454" height="3.8" transform="translate(0 9.955) rotate(-19.08)" fill="#ea5645"/>
        </g>
        <g id="Grupo_952477" data-name="Grupo 952477" transform="translate(27.784 81.668)">
          <rect id="Rectángulo_45999" data-name="Rectángulo 45999" width="30.454" height="3.801" transform="translate(0 9.954) rotate(-19.077)" fill="#ea5645"/>
        </g>
        <g id="Grupo_952478" data-name="Grupo 952478" transform="translate(25.834 83.307)">
          <rect id="Rectángulo_46000" data-name="Rectángulo 46000" width="8.189" height="3.686" transform="translate(0 2.677) rotate(-19.077)" fill="#d13431"/>
        </g>
        <g id="Grupo_952479" data-name="Grupo 952479" transform="translate(27.785 88.946)">
          <rect id="Rectángulo_46001" data-name="Rectángulo 46001" width="8.189" height="3.801" transform="translate(0 2.677) rotate(-19.076)" fill="#d13431"/>
        </g>
        <g id="Grupo_952480" data-name="Grupo 952480" transform="translate(2.244 7.821)">
          <rect id="Rectángulo_46002" data-name="Rectángulo 46002" width="30.454" height="30.043" transform="matrix(0.945, -0.327, 0.327, 0.945, 0, 9.955)" fill="#ea5645"/>
        </g>
        <g id="Grupo_952481" data-name="Grupo 952481" transform="translate(2.244 15.1)">
          <rect id="Rectángulo_46003" data-name="Rectángulo 46003" width="8.188" height="30.043" transform="translate(0 2.677) rotate(-19.081)" fill="#d13431"/>
        </g>
        <rect id="Rectángulo_46004" data-name="Rectángulo 46004" width="30.454" height="13.311" transform="translate(5.303 26.618) rotate(-19.077)" fill="#ffc23a"/>
        <rect id="Rectángulo_46005" data-name="Rectángulo 46005" width="8.188" height="13.357" transform="translate(5.303 26.618) rotate(-19.071)" fill="#f9a431"/>
      </g>
    </g>
    <g id="Grupo_952484" data-name="Grupo 952484" transform="translate(1105 3642.242)">
      <path id="Trazado_656905" data-name="Trazado 656905" d="M570.8,414.319l-1.857-2.957-4.068,2.122c.521,1.372.987,4.661-1.093,5.765a5.125,5.125,0,0,1-.654.054l-.723.011a1,1,0,0,0,.033,1.99l2.983.011,4.624-3.691A2.4,2.4,0,0,0,570.8,414.319Z" transform="translate(-522.457 -327.669)" fill="#ffc0a9"/>
      <path id="Trazado_656906" data-name="Trazado 656906" d="M640.012,412.01l-3.967-4.861-1.957,4.026c.521,1.372.988,4.661-1.093,5.765a5.12,5.12,0,0,1-.654.054l-.723.011a1,1,0,0,0,.033,1.99l2.983.011,4.624-3.691A2.4,2.4,0,0,0,640.012,412.01Z" transform="translate(-560.39 -325.36)" fill="#ffc0a9"/>
      <path id="Trazado_656907" data-name="Trazado 656907" d="M569.791,414.341a6.011,6.011,0,0,0-.822.446l-.008,0a2.233,2.233,0,0,0-.793,1.058,2.355,2.355,0,0,1-2.109,1.528,2.041,2.041,0,0,1-.747.075,3.516,3.516,0,0,1-1.528,3.429,5.127,5.127,0,0,1-.654.054l-.723.011a1,1,0,0,0-.956.911,1.016,1.016,0,0,0,1.034,1.08l2.938.01,4.624-3.691a2.4,2.4,0,0,0,.755-3.305Z" transform="translate(-522.456 -329.302)" fill="#193441"/>
      <path id="Trazado_656908" data-name="Trazado 656908" d="M637.452,410.968a5.013,5.013,0,0,0-.378.6,3.152,3.152,0,0,0-.3,1.55,3.253,3.253,0,0,1,.077.726v.074a2.369,2.369,0,0,1-.814,1.633,2.305,2.305,0,0,1-1.512.577,3.254,3.254,0,0,1-1.527,2.907,5.12,5.12,0,0,1-.654.054l-.723.011a1,1,0,0,0,.033,1.99l2.983.011,4.624-3.691a2.4,2.4,0,0,0,.756-3.305Z" transform="translate(-560.39 -327.453)" fill="#193441"/>
      <path id="Trazado_656909" data-name="Trazado 656909" d="M529.111,340.469l.153-.113,28.294-8.259a119.951,119.951,0,0,1,2.4,16.778s-21.36-1.865-20.953-1.25q2.052,3.09,3.933,6.3c1.255,2.138,7.9,14.086,7.9,14.087s-2.946,2.946-5.164,3.373c-2.411-2.283-12.346-16.86-13.776-18.877-.717-1.007-1.4-2.036-2.088-3.065-.667-1.042-1.338-2.081-1.94-3.167A4.513,4.513,0,0,1,529.111,340.469Z" transform="translate(-503.739 -284.224)" fill="#325290"/>
      <path id="Trazado_656910" data-name="Trazado 656910" d="M578.909,349.742q3.559,1.047,7.062,2.294c2.335.83,15.105,5.71,15.107,5.71s-.362,4.15-1.787,5.9c-3.314-.2-20.3-4.974-22.689-5.6-1.2-.311-2.384-.657-3.57-1.005-1.18-.369-2.363-.733-3.522-1.178a4.512,4.512,0,0,1-2.778-5.246l.044-.185,11.833-22.323c.183-.776-3.946-4.2-3.946-4.2l14.219-6.4s4.73,6.026,5.927,7.955a8.859,8.859,0,0,1,1.1,6.721l-.006.024a5.908,5.908,0,0,1-2.074,3.2l-17.051,13.73C577.489,349.337,578.2,349.532,578.909,349.742Z" transform="translate(-525.287 -276.23)" fill="#426dc0"/>
      <path id="Trazado_656911" data-name="Trazado 656911" d="M524.552,300.083l-5.277,11.646a5.98,5.98,0,0,1-5.428,3.505c-3.985.019-10-.558-13.164-3.843" transform="translate(-489.152 -266.678)" fill="none" stroke="#ffc0a9" stroke-linecap="round" stroke-miterlimit="10" stroke-width="6"/>
      <path id="Trazado_656912" data-name="Trazado 656912" d="M563.84,307.4s-4.394-4.769-7.779-8.618c-2.528-2.874-2.593-.472-4.838-2.314a18.426,18.426,0,0,1-3.5-4.6l-4.977-1.048a15.737,15.737,0,0,1,3.3-8.005l3.813-2.28c5.693-3.98,10.293-2.428,11.75,0,2.191,3.652,5.591,6.883,8.115,9.795a76.963,76.963,0,0,0,7.815,7.156C575.611,301.839,570.282,305.1,563.84,307.4Z" transform="translate(-512.209 -254.628)" fill="#fd9827"/>
      <g id="Grupo_952449" data-name="Grupo 952449" transform="translate(17.673 6.743)">
        <g id="Grupo_952448" data-name="Grupo 952448">
          <path id="Trazado_656913" data-name="Trazado 656913" d="M515.218,252.736c-1.98-4.057-.847-7.547,3.435-10.3a8.9,8.9,0,0,1,8.55-.481l.4.185a10.692,10.692,0,0,1,5.139,6.124s-.362.319-.211,3.632,3.672,7.251,3.672,7.251-2.857,5.569-5.986,3.525l-2-3.468s-1.776,2.543-4.172,2.75C522.786,262.059,519.26,261.015,515.218,252.736Z" transform="translate(-514.274 -241.085)" fill="#ffc0a9"/>
        </g>
      </g>
      <path id="Trazado_656914" data-name="Trazado 656914" d="M547.091,278.746a22.355,22.355,0,0,0,.611-4.115,18.236,18.236,0,0,1-2.513,3.014l1.306,2.263C546.683,279.517,546.885,279.13,547.091,278.746Z" transform="translate(-513.546 -252.728)" fill="#ff9f89" opacity="0.7"/>
      <path id="Trazado_656915" data-name="Trazado 656915" d="M528.824,293.614l-.043-.01c-.4,1.213-1.005,2.92-1.753,4.945-.38,1.028-.81,2.132-1.271,3.289s-.984,2.354-1.537,3.563a36.887,36.887,0,0,1-1.843,3.529,15.843,15.843,0,0,1-1.033,1.536,5.858,5.858,0,0,1-.925.981c-.05.041-.086.066-.1.08l-.006.008s.048-.018.018-.005l-.016.007-.032.014-.129.057-.258.114-.456.2-.477.2c-.647.253-1.3.5-1.965.741-1.325.461-2.653.911-3.96,1.268s-2.586.664-3.808.89a29.518,29.518,0,0,1-3.463.447c-.537.033-1.051.048-1.54.054a6.939,6.939,0,0,1-1.375-.083c-.849-.174-1.535-.494-2.116-.611a5.411,5.411,0,0,0-1.37-.189,2.253,2.253,0,0,0-.531.041l-.183.043a1.483,1.483,0,0,0-.766,2.414,2.745,2.745,0,0,0,.489.4,4.624,4.624,0,0,0,1.57.654,6.95,6.95,0,0,0,1.183.147l1.386.037c.488.019,1,.1,1.539.165s1.108.112,1.7.148c1.185.085,2.467.108,3.824.107s2.784-.08,4.258-.215a44.731,44.731,0,0,0,4.536-.638c.77-.152,1.547-.324,2.326-.538l.59-.165.607-.182.27-.084.135-.042.051-.016.051-.019.123-.049a6.619,6.619,0,0,0,.905-.436,10.68,10.68,0,0,0,2.435-2.006,21.366,21.366,0,0,0,1.657-2.041,39.9,39.9,0,0,0,2.49-4.02c.725-1.31,1.347-2.593,1.92-3.81s1.071-2.378,1.52-3.453c.9-2.148,1.546-3.966,2.006-5.242.042-.118.081-.227.119-.337A58.267,58.267,0,0,0,528.824,293.614Z" transform="translate(-487.42 -263.127)" fill="#ffc0a9"/>
      <g id="Grupo_952450" data-name="Grupo 952450" transform="translate(0 31.695)">
        <path id="Rectángulo_45994" data-name="Rectángulo 45994" d="M0,0H3.41a0,0,0,0,1,0,0V7.282a1.7,1.7,0,0,1-1.7,1.7h0A1.7,1.7,0,0,1,0,7.282V0A0,0,0,0,1,0,0Z" transform="matrix(0.863, -0.505, 0.505, 0.863, 7.466, 11.78)" fill="#c9e1ff"/>
        <path id="Trazado_656916" data-name="Trazado 656916" d="M487.205,302.325a4.394,4.394,0,1,1-6.012-1.57A4.394,4.394,0,0,1,487.205,302.325Z" transform="translate(-477.279 -298.41)" fill="#fff" opacity="0.4"/>
        <path id="Trazado_656917" data-name="Trazado 656917" d="M478.2,297.142a6.134,6.134,0,1,0,8.393,2.192A6.134,6.134,0,0,0,478.2,297.142Zm6.892,3.072a4.394,4.394,0,1,1-6.012-1.57A4.394,4.394,0,0,1,485.094,300.214Z" transform="translate(-475.167 -296.299)" fill="#91baee"/>
        <path id="Trazado_656918" data-name="Trazado 656918" d="M487.221,309.061c-1.765,4.228-7.157,2.54-8.194-.983a4.391,4.391,0,1,0,8.5-1.629A4.523,4.523,0,0,1,487.221,309.061Z" transform="translate(-477.283 -301.862)" fill="#c9e1ff"/>
      </g>
      <path id="Trazado_656919" data-name="Trazado 656919" d="M517.509,245.162c1.982.38,4.181,1.085,5.049,2.908a14.886,14.886,0,0,1,.689,2.834c.239.945.891,2.32,1.752,2.158s.4-3.472.6-5.209a1.962,1.962,0,0,1,.492-1.306,1.441,1.441,0,0,1,1.858.257,10.945,10.945,0,0,1,1.163,1.7,1.91,1.91,0,0,0,1.7.959c2.2-2.224,2.542-5.86,1.361-8.759a14.2,14.2,0,0,0-6.364-6.664,9.224,9.224,0,0,0-4.359-1.416c-3.207-.037-5.786,2.5-7.965,4.85-1.17,1.264-3.418,3.825-1.837,5.555C512.948,244.445,515.757,244.826,517.509,245.162Z" transform="translate(-494.865 -229.702)" fill="#193441"/>
      <path id="Trazado_656920" data-name="Trazado 656920" d="M545.444,233.606a2.856,2.856,0,0,0,.985-1.556c1-3.543-4.114-8.2-6.785-4.57C537.379,230.56,542.294,235.922,545.444,233.606Z" transform="translate(-510.19 -226.163)" fill="#193441"/>
    </g>
    <path id="Trazado_658533" data-name="Trazado 658533" d="M17.424,34.848A17.424,17.424,0,1,0,0,17.424,17.424,17.424,0,0,0,17.424,34.848Z" transform="translate(1167.565 3632.466)" fill="#fff" opacity="0.45"/>
    <g id="Grupo_953315" data-name="Grupo 953315" transform="translate(909.966 3608.158)">
      <g id="Grupo_53306" data-name="Grupo 53306" transform="translate(0 47.536)">
        <path id="Trazado_99200" data-name="Trazado 99200" d="M415.344,50.764a.565.565,0,1,0-.565.54A.553.553,0,0,0,415.344,50.764Z" transform="translate(-414.214 -50.224)" fill="#31313c"/>
        <path id="Trazado_99201" data-name="Trazado 99201" d="M423.79,50.764a.565.565,0,1,0-.565.54A.553.553,0,0,0,423.79,50.764Z" transform="translate(-417.577 -50.224)" fill="#31313c"/>
        <path id="Trazado_99202" data-name="Trazado 99202" d="M432.236,50.764a.565.565,0,1,0-.564.54A.553.553,0,0,0,432.236,50.764Z" transform="translate(-420.939 -50.224)" fill="#31313c"/>
        <path id="Trazado_99203" data-name="Trazado 99203" d="M440.683,50.764a.565.565,0,1,0-.565.54A.553.553,0,0,0,440.683,50.764Z" transform="translate(-424.302 -50.224)" fill="#31313c"/>
        <path id="Trazado_99204" data-name="Trazado 99204" d="M449.129,50.764a.565.565,0,1,0-.565.54A.553.553,0,0,0,449.129,50.764Z" transform="translate(-427.665 -50.224)" fill="#31313c"/>
        <path id="Trazado_99205" data-name="Trazado 99205" d="M457.575,50.764a.565.565,0,1,0-.565.54A.553.553,0,0,0,457.575,50.764Z" transform="translate(-431.027 -50.224)" fill="#31313c"/>
        <path id="Trazado_99206" data-name="Trazado 99206" d="M466.022,50.764a.565.565,0,1,0-.565.54A.553.553,0,0,0,466.022,50.764Z" transform="translate(-434.39 -50.224)" fill="#31313c"/>
        <path id="Trazado_99207" data-name="Trazado 99207" d="M474.468,50.764a.565.565,0,1,0-.565.54A.553.553,0,0,0,474.468,50.764Z" transform="translate(-437.753 -50.224)" fill="#31313c"/>
        <path id="Trazado_99208" data-name="Trazado 99208" d="M482.914,50.764a.565.565,0,1,0-.565.54A.553.553,0,0,0,482.914,50.764Z" transform="translate(-441.115 -50.224)" fill="#31313c"/>
        <path id="Trazado_99209" data-name="Trazado 99209" d="M491.361,50.764a.565.565,0,1,0-.565.54A.553.553,0,0,0,491.361,50.764Z" transform="translate(-444.478 -50.224)" fill="#31313c"/>
        <path id="Trazado_99210" data-name="Trazado 99210" d="M499.807,50.764a.565.565,0,1,0-.565.54A.553.553,0,0,0,499.807,50.764Z" transform="translate(-447.841 -50.224)" fill="#31313c"/>
      </g>
      <g id="Grupo_53307" data-name="Grupo 53307" transform="translate(0 43.214)">
        <path id="Trazado_99211" data-name="Trazado 99211" d="M415.344,58.272a.565.565,0,1,0-.565.54A.553.553,0,0,0,415.344,58.272Z" transform="translate(-414.214 -57.732)" fill="#31313c"/>
        <path id="Trazado_99212" data-name="Trazado 99212" d="M423.79,58.272a.565.565,0,1,0-.565.54A.553.553,0,0,0,423.79,58.272Z" transform="translate(-417.577 -57.732)" fill="#31313c"/>
        <path id="Trazado_99213" data-name="Trazado 99213" d="M432.236,58.272a.565.565,0,1,0-.564.54A.553.553,0,0,0,432.236,58.272Z" transform="translate(-420.939 -57.732)" fill="#31313c"/>
        <path id="Trazado_99214" data-name="Trazado 99214" d="M440.683,58.272a.565.565,0,1,0-.565.54A.553.553,0,0,0,440.683,58.272Z" transform="translate(-424.302 -57.732)" fill="#31313c"/>
        <path id="Trazado_99215" data-name="Trazado 99215" d="M449.129,58.272a.565.565,0,1,0-.565.54A.553.553,0,0,0,449.129,58.272Z" transform="translate(-427.665 -57.732)" fill="#31313c"/>
        <path id="Trazado_99216" data-name="Trazado 99216" d="M457.575,58.272a.565.565,0,1,0-.565.54A.553.553,0,0,0,457.575,58.272Z" transform="translate(-431.027 -57.732)" fill="#31313c"/>
        <path id="Trazado_99217" data-name="Trazado 99217" d="M466.022,58.272a.565.565,0,1,0-.565.54A.553.553,0,0,0,466.022,58.272Z" transform="translate(-434.39 -57.732)" fill="#31313c"/>
        <path id="Trazado_99218" data-name="Trazado 99218" d="M474.468,58.272a.565.565,0,1,0-.565.54A.553.553,0,0,0,474.468,58.272Z" transform="translate(-437.753 -57.732)" fill="#31313c"/>
        <path id="Trazado_99219" data-name="Trazado 99219" d="M482.914,58.272a.565.565,0,1,0-.565.54A.553.553,0,0,0,482.914,58.272Z" transform="translate(-441.115 -57.732)" fill="#31313c"/>
        <path id="Trazado_99220" data-name="Trazado 99220" d="M491.361,58.272a.565.565,0,1,0-.565.54A.553.553,0,0,0,491.361,58.272Z" transform="translate(-444.478 -57.732)" fill="#31313c"/>
        <path id="Trazado_99221" data-name="Trazado 99221" d="M499.807,58.272a.565.565,0,1,0-.565.54A.553.553,0,0,0,499.807,58.272Z" transform="translate(-447.841 -57.732)" fill="#31313c"/>
      </g>
      <g id="Grupo_53308" data-name="Grupo 53308" transform="translate(0 38.893)">
        <ellipse id="Elipse_3955" data-name="Elipse 3955" cx="0.565" cy="0.54" rx="0.565" ry="0.54" transform="translate(0 0)" fill="#31313c"/>
        <path id="Trazado_99222" data-name="Trazado 99222" d="M423.79,65.78a.565.565,0,1,0-.565.54A.553.553,0,0,0,423.79,65.78Z" transform="translate(-417.577 -65.24)" fill="#31313c"/>
        <ellipse id="Elipse_3956" data-name="Elipse 3956" cx="0.565" cy="0.54" rx="0.565" ry="0.54" transform="translate(10.167 0)" fill="#31313c"/>
        <path id="Trazado_99223" data-name="Trazado 99223" d="M440.683,65.78a.565.565,0,1,0-.565.54A.553.553,0,0,0,440.683,65.78Z" transform="translate(-424.302 -65.24)" fill="#31313c"/>
        <path id="Trazado_99224" data-name="Trazado 99224" d="M449.129,65.78a.565.565,0,1,0-.565.54A.553.553,0,0,0,449.129,65.78Z" transform="translate(-427.665 -65.24)" fill="#31313c"/>
        <ellipse id="Elipse_3957" data-name="Elipse 3957" cx="0.565" cy="0.54" rx="0.565" ry="0.54" transform="translate(25.418 0)" fill="#31313c"/>
        <path id="Trazado_99225" data-name="Trazado 99225" d="M466.022,65.78a.565.565,0,1,0-.565.54A.554.554,0,0,0,466.022,65.78Z" transform="translate(-434.39 -65.24)" fill="#31313c"/>
        <ellipse id="Elipse_3958" data-name="Elipse 3958" cx="0.565" cy="0.54" rx="0.565" ry="0.54" transform="translate(35.585 0)" fill="#31313c"/>
        <ellipse id="Elipse_3959" data-name="Elipse 3959" cx="0.565" cy="0.54" rx="0.565" ry="0.54" transform="translate(40.669 0)" fill="#31313c"/>
        <path id="Trazado_99226" data-name="Trazado 99226" d="M491.361,65.78a.565.565,0,1,0-.565.54A.554.554,0,0,0,491.361,65.78Z" transform="translate(-444.478 -65.24)" fill="#31313c"/>
        <path id="Trazado_99227" data-name="Trazado 99227" d="M499.807,65.78a.565.565,0,1,0-.565.54A.553.553,0,0,0,499.807,65.78Z" transform="translate(-447.841 -65.24)" fill="#31313c"/>
      </g>
      <g id="Grupo_53309" data-name="Grupo 53309" transform="translate(0 34.572)">
        <ellipse id="Elipse_3960" data-name="Elipse 3960" cx="0.565" cy="0.54" rx="0.565" ry="0.54" transform="translate(0 0)" fill="#31313c"/>
        <path id="Trazado_99228" data-name="Trazado 99228" d="M423.79,73.287a.565.565,0,1,0-.565.54A.553.553,0,0,0,423.79,73.287Z" transform="translate(-417.577 -72.747)" fill="#31313c"/>
        <ellipse id="Elipse_3961" data-name="Elipse 3961" cx="0.565" cy="0.54" rx="0.565" ry="0.54" transform="translate(10.167 0)" fill="#31313c"/>
        <path id="Trazado_99229" data-name="Trazado 99229" d="M440.683,73.287a.565.565,0,1,0-.565.54A.553.553,0,0,0,440.683,73.287Z" transform="translate(-424.302 -72.747)" fill="#31313c"/>
        <path id="Trazado_99230" data-name="Trazado 99230" d="M449.129,73.287a.565.565,0,1,0-.565.54A.553.553,0,0,0,449.129,73.287Z" transform="translate(-427.665 -72.747)" fill="#31313c"/>
        <ellipse id="Elipse_3962" data-name="Elipse 3962" cx="0.565" cy="0.54" rx="0.565" ry="0.54" transform="translate(25.418 0)" fill="#31313c"/>
        <path id="Trazado_99231" data-name="Trazado 99231" d="M466.022,73.287a.565.565,0,1,0-.565.54A.553.553,0,0,0,466.022,73.287Z" transform="translate(-434.39 -72.747)" fill="#31313c"/>
        <ellipse id="Elipse_3963" data-name="Elipse 3963" cx="0.565" cy="0.54" rx="0.565" ry="0.54" transform="translate(35.585 0)" fill="#31313c"/>
        <ellipse id="Elipse_3964" data-name="Elipse 3964" cx="0.565" cy="0.54" rx="0.565" ry="0.54" transform="translate(40.669 0)" fill="#31313c"/>
        <path id="Trazado_99232" data-name="Trazado 99232" d="M491.361,73.287a.565.565,0,1,0-.565.54A.553.553,0,0,0,491.361,73.287Z" transform="translate(-444.478 -72.747)" fill="#31313c"/>
        <path id="Trazado_99233" data-name="Trazado 99233" d="M499.807,73.287a.565.565,0,1,0-.565.54A.553.553,0,0,0,499.807,73.287Z" transform="translate(-447.841 -72.747)" fill="#31313c"/>
      </g>
      <g id="Grupo_53310" data-name="Grupo 53310" transform="translate(0 30.25)">
        <path id="Trazado_99234" data-name="Trazado 99234" d="M415.344,80.795a.565.565,0,1,0-.565.54A.553.553,0,0,0,415.344,80.795Z" transform="translate(-414.214 -80.255)" fill="#31313c"/>
        <path id="Trazado_99235" data-name="Trazado 99235" d="M423.79,80.795a.565.565,0,1,0-.565.54A.553.553,0,0,0,423.79,80.795Z" transform="translate(-417.577 -80.255)" fill="#31313c"/>
        <path id="Trazado_99236" data-name="Trazado 99236" d="M432.236,80.795a.565.565,0,1,0-.564.54A.553.553,0,0,0,432.236,80.795Z" transform="translate(-420.939 -80.255)" fill="#31313c"/>
        <path id="Trazado_99237" data-name="Trazado 99237" d="M440.683,80.795a.565.565,0,1,0-.565.54A.553.553,0,0,0,440.683,80.795Z" transform="translate(-424.302 -80.255)" fill="#31313c"/>
        <path id="Trazado_99238" data-name="Trazado 99238" d="M449.129,80.795a.565.565,0,1,0-.565.54A.553.553,0,0,0,449.129,80.795Z" transform="translate(-427.665 -80.255)" fill="#31313c"/>
        <path id="Trazado_99239" data-name="Trazado 99239" d="M457.575,80.795a.565.565,0,1,0-.565.54A.553.553,0,0,0,457.575,80.795Z" transform="translate(-431.027 -80.255)" fill="#31313c"/>
        <path id="Trazado_99240" data-name="Trazado 99240" d="M466.022,80.795a.565.565,0,1,0-.565.54A.553.553,0,0,0,466.022,80.795Z" transform="translate(-434.39 -80.255)" fill="#31313c"/>
        <path id="Trazado_99241" data-name="Trazado 99241" d="M474.468,80.795a.565.565,0,1,0-.565.54A.553.553,0,0,0,474.468,80.795Z" transform="translate(-437.753 -80.255)" fill="#31313c"/>
        <path id="Trazado_99242" data-name="Trazado 99242" d="M482.914,80.795a.565.565,0,1,0-.565.54A.553.553,0,0,0,482.914,80.795Z" transform="translate(-441.115 -80.255)" fill="#31313c"/>
        <path id="Trazado_99243" data-name="Trazado 99243" d="M491.361,80.795a.565.565,0,1,0-.565.54A.553.553,0,0,0,491.361,80.795Z" transform="translate(-444.478 -80.255)" fill="#31313c"/>
        <path id="Trazado_99244" data-name="Trazado 99244" d="M499.807,80.795a.565.565,0,1,0-.565.54A.553.553,0,0,0,499.807,80.795Z" transform="translate(-447.841 -80.255)" fill="#31313c"/>
      </g>
      <g id="Grupo_53311" data-name="Grupo 53311" transform="translate(0 25.929)">
        <ellipse id="Elipse_3965" data-name="Elipse 3965" cx="0.565" cy="0.54" rx="0.565" ry="0.54" transform="translate(0 0)" fill="#31313c"/>
        <path id="Trazado_99245" data-name="Trazado 99245" d="M423.79,88.3a.565.565,0,1,0-.565.54A.553.553,0,0,0,423.79,88.3Z" transform="translate(-417.577 -87.763)" fill="#31313c"/>
        <ellipse id="Elipse_3966" data-name="Elipse 3966" cx="0.565" cy="0.54" rx="0.565" ry="0.54" transform="translate(10.167 0)" fill="#31313c"/>
        <path id="Trazado_99246" data-name="Trazado 99246" d="M440.683,88.3a.565.565,0,1,0-.565.54A.553.553,0,0,0,440.683,88.3Z" transform="translate(-424.302 -87.763)" fill="#31313c"/>
        <path id="Trazado_99247" data-name="Trazado 99247" d="M449.129,88.3a.565.565,0,1,0-.565.54A.553.553,0,0,0,449.129,88.3Z" transform="translate(-427.665 -87.763)" fill="#31313c"/>
        <ellipse id="Elipse_3967" data-name="Elipse 3967" cx="0.565" cy="0.54" rx="0.565" ry="0.54" transform="translate(25.418 0)" fill="#31313c"/>
        <path id="Trazado_99248" data-name="Trazado 99248" d="M466.022,88.3a.565.565,0,1,0-.565.54A.553.553,0,0,0,466.022,88.3Z" transform="translate(-434.39 -87.763)" fill="#31313c"/>
        <ellipse id="Elipse_3968" data-name="Elipse 3968" cx="0.565" cy="0.54" rx="0.565" ry="0.54" transform="translate(35.585 0)" fill="#31313c"/>
        <ellipse id="Elipse_3969" data-name="Elipse 3969" cx="0.565" cy="0.54" rx="0.565" ry="0.54" transform="translate(40.669 0)" fill="#31313c"/>
        <path id="Trazado_99249" data-name="Trazado 99249" d="M491.361,88.3a.565.565,0,1,0-.565.54A.553.553,0,0,0,491.361,88.3Z" transform="translate(-444.478 -87.763)" fill="#31313c"/>
        <path id="Trazado_99250" data-name="Trazado 99250" d="M499.807,88.3a.565.565,0,1,0-.565.54A.553.553,0,0,0,499.807,88.3Z" transform="translate(-447.841 -87.763)" fill="#31313c"/>
      </g>
      <g id="Grupo_53312" data-name="Grupo 53312" transform="translate(0 21.607)">
        <ellipse id="Elipse_3970" data-name="Elipse 3970" cx="0.565" cy="0.54" rx="0.565" ry="0.54" transform="translate(0 0)" fill="#31313c"/>
        <path id="Trazado_99251" data-name="Trazado 99251" d="M423.79,95.811a.565.565,0,1,0-.565.54A.553.553,0,0,0,423.79,95.811Z" transform="translate(-417.577 -95.271)" fill="#31313c"/>
        <ellipse id="Elipse_3971" data-name="Elipse 3971" cx="0.565" cy="0.54" rx="0.565" ry="0.54" transform="translate(10.167 0)" fill="#31313c"/>
        <path id="Trazado_99252" data-name="Trazado 99252" d="M440.683,95.811a.565.565,0,1,0-.565.54A.553.553,0,0,0,440.683,95.811Z" transform="translate(-424.302 -95.271)" fill="#31313c"/>
        <path id="Trazado_99253" data-name="Trazado 99253" d="M449.129,95.811a.565.565,0,1,0-.565.54A.553.553,0,0,0,449.129,95.811Z" transform="translate(-427.665 -95.271)" fill="#31313c"/>
        <ellipse id="Elipse_3972" data-name="Elipse 3972" cx="0.565" cy="0.54" rx="0.565" ry="0.54" transform="translate(25.418 0)" fill="#31313c"/>
        <path id="Trazado_99254" data-name="Trazado 99254" d="M466.022,95.811a.565.565,0,1,0-.565.54A.553.553,0,0,0,466.022,95.811Z" transform="translate(-434.39 -95.271)" fill="#31313c"/>
        <ellipse id="Elipse_3973" data-name="Elipse 3973" cx="0.565" cy="0.54" rx="0.565" ry="0.54" transform="translate(35.585 0)" fill="#31313c"/>
        <ellipse id="Elipse_3974" data-name="Elipse 3974" cx="0.565" cy="0.54" rx="0.565" ry="0.54" transform="translate(40.669 0)" fill="#31313c"/>
        <path id="Trazado_99255" data-name="Trazado 99255" d="M491.361,95.811a.565.565,0,1,0-.565.54A.553.553,0,0,0,491.361,95.811Z" transform="translate(-444.478 -95.271)" fill="#31313c"/>
        <path id="Trazado_99256" data-name="Trazado 99256" d="M499.807,95.811a.565.565,0,1,0-.565.54A.553.553,0,0,0,499.807,95.811Z" transform="translate(-447.841 -95.271)" fill="#31313c"/>
      </g>
      <g id="Grupo_53313" data-name="Grupo 53313" transform="translate(0 17.286)">
        <path id="Trazado_99257" data-name="Trazado 99257" d="M415.344,103.32a.565.565,0,1,0-.565.54A.553.553,0,0,0,415.344,103.32Z" transform="translate(-414.214 -102.779)" fill="#31313c"/>
        <path id="Trazado_99258" data-name="Trazado 99258" d="M423.79,103.32a.565.565,0,1,0-.565.54A.553.553,0,0,0,423.79,103.32Z" transform="translate(-417.577 -102.779)" fill="#31313c"/>
        <path id="Trazado_99259" data-name="Trazado 99259" d="M432.236,103.32a.565.565,0,1,0-.564.54A.553.553,0,0,0,432.236,103.32Z" transform="translate(-420.939 -102.779)" fill="#31313c"/>
        <path id="Trazado_99260" data-name="Trazado 99260" d="M440.683,103.32a.565.565,0,1,0-.565.54A.553.553,0,0,0,440.683,103.32Z" transform="translate(-424.302 -102.779)" fill="#31313c"/>
        <path id="Trazado_99261" data-name="Trazado 99261" d="M449.129,103.32a.565.565,0,1,0-.565.54A.553.553,0,0,0,449.129,103.32Z" transform="translate(-427.665 -102.779)" fill="#31313c"/>
        <path id="Trazado_99262" data-name="Trazado 99262" d="M457.575,103.32a.565.565,0,1,0-.565.54A.553.553,0,0,0,457.575,103.32Z" transform="translate(-431.027 -102.779)" fill="#31313c"/>
        <path id="Trazado_99263" data-name="Trazado 99263" d="M466.022,103.32a.565.565,0,1,0-.565.54A.553.553,0,0,0,466.022,103.32Z" transform="translate(-434.39 -102.779)" fill="#31313c"/>
        <path id="Trazado_99264" data-name="Trazado 99264" d="M474.468,103.32a.565.565,0,1,0-.565.54A.553.553,0,0,0,474.468,103.32Z" transform="translate(-437.753 -102.779)" fill="#31313c"/>
        <path id="Trazado_99265" data-name="Trazado 99265" d="M482.914,103.32a.565.565,0,1,0-.565.54A.553.553,0,0,0,482.914,103.32Z" transform="translate(-441.115 -102.779)" fill="#31313c"/>
        <path id="Trazado_99266" data-name="Trazado 99266" d="M491.361,103.32a.565.565,0,1,0-.565.54A.553.553,0,0,0,491.361,103.32Z" transform="translate(-444.478 -102.779)" fill="#31313c"/>
        <path id="Trazado_99267" data-name="Trazado 99267" d="M499.807,103.32a.565.565,0,1,0-.565.54A.553.553,0,0,0,499.807,103.32Z" transform="translate(-447.841 -102.779)" fill="#31313c"/>
      </g>
      <g id="Grupo_53314" data-name="Grupo 53314" transform="translate(0 12.964)">
        <ellipse id="Elipse_3975" data-name="Elipse 3975" cx="0.565" cy="0.54" rx="0.565" ry="0.54" transform="translate(0 0)" fill="#31313c"/>
        <path id="Trazado_99268" data-name="Trazado 99268" d="M423.79,110.828a.565.565,0,1,0-.565.54A.553.553,0,0,0,423.79,110.828Z" transform="translate(-417.577 -110.287)" fill="#31313c"/>
        <ellipse id="Elipse_3976" data-name="Elipse 3976" cx="0.565" cy="0.54" rx="0.565" ry="0.54" transform="translate(10.167 0)" fill="#31313c"/>
        <path id="Trazado_99269" data-name="Trazado 99269" d="M440.683,110.828a.565.565,0,1,0-.565.54A.553.553,0,0,0,440.683,110.828Z" transform="translate(-424.302 -110.287)" fill="#31313c"/>
        <path id="Trazado_99270" data-name="Trazado 99270" d="M449.129,110.828a.565.565,0,1,0-.565.54A.553.553,0,0,0,449.129,110.828Z" transform="translate(-427.665 -110.287)" fill="#31313c"/>
        <ellipse id="Elipse_3977" data-name="Elipse 3977" cx="0.565" cy="0.54" rx="0.565" ry="0.54" transform="translate(25.418 0)" fill="#31313c"/>
        <path id="Trazado_99271" data-name="Trazado 99271" d="M466.022,110.828a.565.565,0,1,0-.565.54A.554.554,0,0,0,466.022,110.828Z" transform="translate(-434.39 -110.287)" fill="#31313c"/>
        <ellipse id="Elipse_3978" data-name="Elipse 3978" cx="0.565" cy="0.54" rx="0.565" ry="0.54" transform="translate(35.585 0)" fill="#31313c"/>
        <ellipse id="Elipse_3979" data-name="Elipse 3979" cx="0.565" cy="0.54" rx="0.565" ry="0.54" transform="translate(40.669 0)" fill="#31313c"/>
        <path id="Trazado_99272" data-name="Trazado 99272" d="M491.361,110.828a.565.565,0,1,0-.565.54A.554.554,0,0,0,491.361,110.828Z" transform="translate(-444.478 -110.287)" fill="#31313c"/>
        <path id="Trazado_99273" data-name="Trazado 99273" d="M499.807,110.828a.565.565,0,1,0-.565.54A.553.553,0,0,0,499.807,110.828Z" transform="translate(-447.841 -110.287)" fill="#31313c"/>
      </g>
      <g id="Grupo_53315" data-name="Grupo 53315" transform="translate(0 8.643)">
        <path id="Trazado_99274" data-name="Trazado 99274" d="M415.344,118.334a.565.565,0,1,0-.565.54A.553.553,0,0,0,415.344,118.334Z" transform="translate(-414.214 -117.794)" fill="#31313c"/>
        <path id="Trazado_99275" data-name="Trazado 99275" d="M423.79,118.334a.565.565,0,1,0-.565.54A.553.553,0,0,0,423.79,118.334Z" transform="translate(-417.577 -117.794)" fill="#31313c"/>
        <path id="Trazado_99276" data-name="Trazado 99276" d="M432.236,118.334a.565.565,0,1,0-.564.54A.553.553,0,0,0,432.236,118.334Z" transform="translate(-420.939 -117.794)" fill="#31313c"/>
        <path id="Trazado_99277" data-name="Trazado 99277" d="M440.683,118.334a.565.565,0,1,0-.565.54A.553.553,0,0,0,440.683,118.334Z" transform="translate(-424.302 -117.794)" fill="#31313c"/>
        <path id="Trazado_99278" data-name="Trazado 99278" d="M449.129,118.334a.565.565,0,1,0-.565.54A.553.553,0,0,0,449.129,118.334Z" transform="translate(-427.665 -117.794)" fill="#31313c"/>
        <path id="Trazado_99279" data-name="Trazado 99279" d="M457.575,118.334a.565.565,0,1,0-.565.54A.553.553,0,0,0,457.575,118.334Z" transform="translate(-431.027 -117.794)" fill="#31313c"/>
        <path id="Trazado_99280" data-name="Trazado 99280" d="M466.022,118.334a.565.565,0,1,0-.565.54A.554.554,0,0,0,466.022,118.334Z" transform="translate(-434.39 -117.794)" fill="#31313c"/>
        <path id="Trazado_99281" data-name="Trazado 99281" d="M474.468,118.334a.565.565,0,1,0-.565.54A.553.553,0,0,0,474.468,118.334Z" transform="translate(-437.753 -117.794)" fill="#31313c"/>
        <path id="Trazado_99282" data-name="Trazado 99282" d="M482.914,118.334a.565.565,0,1,0-.565.54A.553.553,0,0,0,482.914,118.334Z" transform="translate(-441.115 -117.794)" fill="#31313c"/>
        <path id="Trazado_99283" data-name="Trazado 99283" d="M491.361,118.334a.565.565,0,1,0-.565.54A.554.554,0,0,0,491.361,118.334Z" transform="translate(-444.478 -117.794)" fill="#31313c"/>
        <path id="Trazado_99284" data-name="Trazado 99284" d="M499.807,118.334a.565.565,0,1,0-.565.54A.553.553,0,0,0,499.807,118.334Z" transform="translate(-447.841 -117.794)" fill="#31313c"/>
      </g>
      <g id="Grupo_53316" data-name="Grupo 53316" transform="translate(0 4.322)">
        <ellipse id="Elipse_3980" data-name="Elipse 3980" cx="0.565" cy="0.54" rx="0.565" ry="0.54" transform="translate(0 0)" fill="#31313c"/>
        <path id="Trazado_99285" data-name="Trazado 99285" d="M423.79,125.842a.565.565,0,1,0-.565.54A.553.553,0,0,0,423.79,125.842Z" transform="translate(-417.577 -125.302)" fill="#31313c"/>
        <ellipse id="Elipse_3981" data-name="Elipse 3981" cx="0.565" cy="0.54" rx="0.565" ry="0.54" transform="translate(10.167 0)" fill="#31313c"/>
        <path id="Trazado_99286" data-name="Trazado 99286" d="M440.683,125.842a.565.565,0,1,0-.565.54A.553.553,0,0,0,440.683,125.842Z" transform="translate(-424.302 -125.302)" fill="#31313c"/>
        <path id="Trazado_99287" data-name="Trazado 99287" d="M449.129,125.842a.565.565,0,1,0-.565.54A.553.553,0,0,0,449.129,125.842Z" transform="translate(-427.665 -125.302)" fill="#31313c"/>
        <ellipse id="Elipse_3982" data-name="Elipse 3982" cx="0.565" cy="0.54" rx="0.565" ry="0.54" transform="translate(25.418 0)" fill="#31313c"/>
        <path id="Trazado_99288" data-name="Trazado 99288" d="M466.022,125.842a.565.565,0,1,0-.565.54A.553.553,0,0,0,466.022,125.842Z" transform="translate(-434.39 -125.302)" fill="#31313c"/>
        <ellipse id="Elipse_3983" data-name="Elipse 3983" cx="0.565" cy="0.54" rx="0.565" ry="0.54" transform="translate(35.585 0)" fill="#31313c"/>
        <ellipse id="Elipse_3984" data-name="Elipse 3984" cx="0.565" cy="0.54" rx="0.565" ry="0.54" transform="translate(40.669 0)" fill="#31313c"/>
        <path id="Trazado_99289" data-name="Trazado 99289" d="M491.361,125.842a.565.565,0,1,0-.565.54A.553.553,0,0,0,491.361,125.842Z" transform="translate(-444.478 -125.302)" fill="#31313c"/>
        <path id="Trazado_99290" data-name="Trazado 99290" d="M499.807,125.842a.565.565,0,1,0-.565.54A.553.553,0,0,0,499.807,125.842Z" transform="translate(-447.841 -125.302)" fill="#31313c"/>
      </g>
      <g id="Grupo_53317" data-name="Grupo 53317" transform="translate(0 0)">
        <ellipse id="Elipse_3985" data-name="Elipse 3985" cx="0.565" cy="0.54" rx="0.565" ry="0.54" fill="#31313c"/>
        <path id="Trazado_99291" data-name="Trazado 99291" d="M423.79,133.35a.565.565,0,1,0-.565.54A.553.553,0,0,0,423.79,133.35Z" transform="translate(-417.577 -132.81)" fill="#31313c"/>
        <ellipse id="Elipse_3986" data-name="Elipse 3986" cx="0.565" cy="0.54" rx="0.565" ry="0.54" transform="translate(10.167)" fill="#31313c"/>
        <path id="Trazado_99292" data-name="Trazado 99292" d="M440.683,133.35a.565.565,0,1,0-.565.54A.553.553,0,0,0,440.683,133.35Z" transform="translate(-424.302 -132.81)" fill="#31313c"/>
        <path id="Trazado_99293" data-name="Trazado 99293" d="M449.129,133.35a.565.565,0,1,0-.565.54A.553.553,0,0,0,449.129,133.35Z" transform="translate(-427.665 -132.81)" fill="#31313c"/>
        <ellipse id="Elipse_3987" data-name="Elipse 3987" cx="0.565" cy="0.54" rx="0.565" ry="0.54" transform="translate(25.418)" fill="#31313c"/>
        <path id="Trazado_99294" data-name="Trazado 99294" d="M466.022,133.35a.565.565,0,1,0-.565.54A.553.553,0,0,0,466.022,133.35Z" transform="translate(-434.39 -132.81)" fill="#31313c"/>
        <ellipse id="Elipse_3988" data-name="Elipse 3988" cx="0.565" cy="0.54" rx="0.565" ry="0.54" transform="translate(35.585)" fill="#31313c"/>
        <ellipse id="Elipse_3989" data-name="Elipse 3989" cx="0.565" cy="0.54" rx="0.565" ry="0.54" transform="translate(40.669)" fill="#31313c"/>
        <path id="Trazado_99295" data-name="Trazado 99295" d="M491.361,133.35a.565.565,0,1,0-.565.54A.553.553,0,0,0,491.361,133.35Z" transform="translate(-444.478 -132.81)" fill="#31313c"/>
        <path id="Trazado_99296" data-name="Trazado 99296" d="M499.807,133.35a.565.565,0,1,0-.565.54A.553.553,0,0,0,499.807,133.35Z" transform="translate(-447.841 -132.81)" fill="#31313c"/>
      </g>
    </g>
  </g>
</svg>
