<svg xmlns="http://www.w3.org/2000/svg" width="101" height="101" viewBox="0 0 101 101">
  <g id="Grupo_953471" data-name="Grupo 953471" transform="translate(-749.966 -6698)">
    <circle id="Elipse_1149" data-name="Elipse 1149" cx="50.5" cy="50.5" r="50.5" transform="translate(749.966 6698)" fill="#785549"/>
    <path id="cv-y-cv" d="M74.144,44.523V55.945a1.866,1.866,0,0,1-3.183,1.318L59.539,45.841a1.865,1.865,0,0,1,1.318-3.183H72.279A1.864,1.864,0,0,1,74.144,44.523Zm28.9-38.928V52.215a5.594,5.594,0,0,1-5.594,5.594H77.586a1.865,1.865,0,0,1-1.865-1.873c.007-1.716,0-5.224,0-12.6a2.252,2.252,0,0,0-2.253-2.253c-7.374,0-10.884-.01-12.6,0a1.865,1.865,0,0,1-1.873-1.865V5.594A5.594,5.594,0,0,1,64.587,0H97.454A5.594,5.594,0,0,1,103.049,5.594ZM74.193,15.009,77.985,18.8a1.865,1.865,0,0,0,2.637,0l9.149-9.149a1.865,1.865,0,0,0-2.637-2.637L79.3,14.845,76.83,12.371a1.865,1.865,0,1,0-2.637,2.637ZM93.375,45.222a1.865,1.865,0,0,0-1.865-1.865H80.671a1.865,1.865,0,0,0,0,3.73H91.51A1.865,1.865,0,0,0,93.375,45.222Zm0-9.557A1.865,1.865,0,0,0,91.51,33.8h-21.1a1.865,1.865,0,1,0,0,3.73h21.1A1.865,1.865,0,0,0,93.375,35.665Zm0-9.557a1.865,1.865,0,0,0-1.865-1.865h-21.1a1.865,1.865,0,1,0,0,3.73h21.1A1.865,1.865,0,0,0,93.375,26.108Z" transform="translate(718.982 6720.024)" fill="#fff"/>
  </g>
</svg>
