<svg xmlns="http://www.w3.org/2000/svg" width="92.639" height="103.675" viewBox="0 0 92.639 103.675">
  <g id="Grupo_158241" data-name="Grupo 158241" transform="translate(36.037) rotate(25)">
    <g id="Grupo_80184" data-name="Grupo 80184">
      <path id="Trazado_151717" data-name="Trazado 151717" d="M0,85.271s7.923-19.653,10.06-40c2.134-20.325,0-34.552,0-34.552S28.085,9.054,40.279,6.282A224.865,224.865,0,0,0,62.452,0s.105,20.036-1.478,32.15c-3.358,25.683-9.115,37.416-9.115,37.416s-5.442,4.912-22.3,9.515A224.832,224.832,0,0,1,0,85.271" fill="#fff"/>
      <path id="Trazado_151718" data-name="Trazado 151718" d="M37.516,27.024a.369.369,0,0,1-.042-.736c.085-.01,8.56-1,15.238-2.457S66.4,20.045,66.471,20.022a.369.369,0,1,1,.233.7c-.07.023-7.118,2.364-13.835,3.829s-15.225,2.46-15.31,2.469a.325.325,0,0,1-.043,0" transform="translate(-13.128 -7.069)" fill="#31313c"/>
      <path id="Trazado_151719" data-name="Trazado 151719" d="M28.242,55.362a.369.369,0,0,1-.045-.736c.124-.016,12.4-1.538,19.08-3s17.458-4.719,17.566-4.752a.37.37,0,0,1,.215.707c-.109.033-10.911,3.3-17.623,4.766S28.412,55.344,28.288,55.36a.372.372,0,0,1-.046,0" transform="translate(-9.85 -16.561)" fill="#31313c"/>
      <path id="Trazado_151720" data-name="Trazado 151720" d="M26.884,67.078a.369.369,0,0,1-.045-.735c.124-.016,12.4-1.538,19.08-3S63.377,58.628,63.485,58.6a.37.37,0,0,1,.215.707c-.109.033-10.911,3.3-17.623,4.766S27.054,67.06,26.931,67.076l-.047,0" transform="translate(-9.371 -20.702)" fill="#31313c"/>
      <path id="Trazado_151721" data-name="Trazado 151721" d="M25.705,79.079a.37.37,0,0,1-.045-.736c.124-.015,12.4-1.538,19.079-3S62.2,70.629,62.306,70.6a.37.37,0,0,1,.215.707c-.109.033-10.913,3.3-17.624,4.766s-19.023,2.992-19.146,3.007a.293.293,0,0,1-.047,0" transform="translate(-8.954 -24.943)" fill="#31313c"/>
      <path id="Trazado_151722" data-name="Trazado 151722" d="M24.034,93.683a.369.369,0,0,1-.045-.736c.124-.016,12.4-1.538,19.079-3a.369.369,0,0,1,.158.722C36.513,92.138,24.2,93.665,24.08,93.68a.372.372,0,0,1-.046,0" transform="translate(-8.363 -31.785)" fill="#31313c"/>
    </g>
  </g>
</svg>
