<svg xmlns="http://www.w3.org/2000/svg" width="56.232" height="56.232" viewBox="0 0 56.232 56.232">
  <g id="Grupo_158246" data-name="Grupo 158246" transform="translate(11562.271 11925.911)">
    <path id="Trazado_598969" data-name="Trazado 598969" d="M24.513,0A24.513,24.513,0,1,1,0,24.513,24.513,24.513,0,0,1,24.513,0Z" transform="matrix(0.987, -0.16, 0.16, 0.987, -11562.271, -11918.067)" fill="#31313c"/>
    <path id="Trazado_598967" data-name="Trazado 598967" d="M93.15,109.3h26.959c.462-.422.91-.858,1.332-1.322a20.016,20.016,0,1,0-29.623,0A18.536,18.536,0,0,0,93.15,109.3Z" transform="translate(-11640.751 -11992.317)" fill="#f8d0a6"/>
    <path id="Trazado_598968" data-name="Trazado 598968" d="M120.359,106.846a20.031,20.031,0,0,1-29.623,0l.035-.482a6.478,6.478,0,0,1,3.725-5.377l4.544-2.132,2.362-2.086h.011l.275-1.479a11.883,11.883,0,0,1-1.6-4.2l-.1.034c-.573.1-1.2-.757-1.421-1.915-.2-1.055.023-2.006.5-2.247-.114-.333-.217-.62-.3-.814a1.747,1.747,0,0,1-.1-.688c.138-2.82.413-2.1,1.72-4.655,1.146-2.258,4.31-2.019,5.239-1.893.928-.126,4.092-.367,5.239,1.893,1.295,2.557,1.582,1.835,1.719,4.655a1.73,1.73,0,0,1-.115.688c-.068.194-.172.458-.275.78.539.16.8,1.157.584,2.281-.217,1.157-.848,2.019-1.421,1.915-.023,0-.034-.011-.057-.023a10.676,10.676,0,0,1-1.835,4.459l.23,1.2,2.362,2.086.711.332,3.841,1.8a6.479,6.479,0,0,1,3.726,5.377Z" transform="translate(-11639.67 -11991.181)" fill="#785549"/>
  </g>
</svg>
