<svg xmlns="http://www.w3.org/2000/svg" xmlns:xlink="http://www.w3.org/1999/xlink" width="90" height="90" viewBox="0 0 90 90">
  <defs>
    <clipPath id="clip-path">
      <rect id="Rectángulo_45983" data-name="Rectángulo 45983" width="90" height="90" transform="translate(-3017 -8476)" fill="#fd9827"/>
    </clipPath>
  </defs>
  <g id="Enmascarar_grupo_952097" data-name="Enmascarar grupo 952097" transform="translate(3017 8476)" clip-path="url(#clip-path)">
    <g id="curriculum" transform="translate(-3017 -8476)">
      <g id="Grupo_952418" data-name="Grupo 952418">
        <g id="Grupo_952417" data-name="Grupo 952417">
          <path id="Trazado_656881" data-name="Trazado 656881" d="M72.775,26.147a1.758,1.758,0,0,0,1.758-1.758V5.273A5.279,5.279,0,0,0,69.259,0H5.275A5.279,5.279,0,0,0,0,5.273V84.727A5.279,5.279,0,0,0,5.275,90H69.259a5.279,5.279,0,0,0,5.273-5.273V71.776a1.758,1.758,0,0,0-3.516,0v12.95a1.76,1.76,0,0,1-1.758,1.758H5.275a1.76,1.76,0,0,1-1.758-1.758V5.273A1.76,1.76,0,0,1,5.275,3.516H69.259a1.76,1.76,0,0,1,1.758,1.758V24.39A1.758,1.758,0,0,0,72.775,26.147Z" fill="#fd9827"/>
        </g>
      </g>
      <g id="Grupo_952420" data-name="Grupo 952420">
        <g id="Grupo_952419" data-name="Grupo 952419">
          <path id="Trazado_656882" data-name="Trazado 656882" d="M37.267,9.492A16.164,16.164,0,0,0,26.172,37.418a1.739,1.739,0,0,0,.189.176,16.142,16.142,0,0,0,21.812,0,1.757,1.757,0,0,0,.189-.176A16.164,16.164,0,0,0,37.267,9.492Zm0,28.828a12.589,12.589,0,0,1-7.645-2.578,8.789,8.789,0,0,1,15.29,0A12.589,12.589,0,0,1,37.267,38.32ZM34.454,24.961V23.818a2.813,2.813,0,0,1,5.625,0v1.143a2.813,2.813,0,0,1-5.625,0Zm13,8.206a12.2,12.2,0,0,0-5.179-4.341,6.3,6.3,0,0,0,1.322-3.865V23.818a6.328,6.328,0,0,0-12.656,0v1.143a6.3,6.3,0,0,0,1.322,3.865,12.2,12.2,0,0,0-5.179,4.341,12.656,12.656,0,1,1,20.37,0Z" fill="#fd9827"/>
        </g>
      </g>
      <g id="Grupo_952422" data-name="Grupo 952422">
        <g id="Grupo_952421" data-name="Grupo 952421">
          <path id="Trazado_656883" data-name="Trazado 656883" d="M46.759,76.992H37.267a1.758,1.758,0,0,0,0,3.516h9.492a1.758,1.758,0,0,0,0-3.516Z" fill="#fd9827"/>
        </g>
      </g>
      <g id="Grupo_952424" data-name="Grupo 952424">
        <g id="Grupo_952423" data-name="Grupo 952423">
          <path id="Trazado_656884" data-name="Trazado 656884" d="M46.759,67.148H21.8a1.758,1.758,0,0,0,0,3.516H46.759a1.758,1.758,0,0,0,0-3.516Z" fill="#fd9827"/>
        </g>
      </g>
      <g id="Grupo_952426" data-name="Grupo 952426">
        <g id="Grupo_952425" data-name="Grupo 952425">
          <path id="Trazado_656885" data-name="Trazado 656885" d="M46.759,57.3H21.8a1.758,1.758,0,0,0,0,3.516H46.759a1.758,1.758,0,0,0,0-3.516Z" fill="#fd9827"/>
        </g>
      </g>
      <g id="Grupo_952428" data-name="Grupo 952428">
        <g id="Grupo_952427" data-name="Grupo 952427">
          <path id="Trazado_656886" data-name="Trazado 656886" d="M15.533,47.976a1.756,1.756,0,1,0,.515,1.243A1.771,1.771,0,0,0,15.533,47.976Z" fill="#fd9827"/>
        </g>
      </g>
      <g id="Grupo_952430" data-name="Grupo 952430">
        <g id="Grupo_952429" data-name="Grupo 952429">
          <path id="Trazado_656887" data-name="Trazado 656887" d="M15.533,57.82a1.756,1.756,0,1,0,.515,1.243A1.775,1.775,0,0,0,15.533,57.82Z" fill="#fd9827"/>
        </g>
      </g>
      <g id="Grupo_952432" data-name="Grupo 952432">
        <g id="Grupo_952431" data-name="Grupo 952431">
          <path id="Trazado_656888" data-name="Trazado 656888" d="M15.533,67.663a1.756,1.756,0,1,0,.515,1.243A1.775,1.775,0,0,0,15.533,67.663Z" fill="#fd9827"/>
        </g>
      </g>
      <g id="Grupo_952434" data-name="Grupo 952434">
        <g id="Grupo_952433" data-name="Grupo 952433">
          <path id="Trazado_656889" data-name="Trazado 656889" d="M46.759,47.461H21.8a1.758,1.758,0,0,0,0,3.516H46.759a1.758,1.758,0,0,0,0-3.516Z" fill="#fd9827"/>
        </g>
      </g>
      <g id="Grupo_952436" data-name="Grupo 952436">
        <g id="Grupo_952435" data-name="Grupo 952435">
          <path id="Trazado_656890" data-name="Trazado 656890" d="M86.309,22.908a7.383,7.383,0,0,0-10.085,2.7L54.1,63.924a1.761,1.761,0,0,0-.225.684L52.321,78.555a1.758,1.758,0,0,0,2.789,1.611l11.3-8.322a1.755,1.755,0,0,0,.48-.536l22.12-38.314A7.391,7.391,0,0,0,86.309,22.908ZM56.261,74.952l.813-7.283,5.087,2.937Zm8.464-6.925-6.7-3.867L75.778,33.414l6.7,3.867ZM85.967,31.235l-1.733,3-6.7-3.867,1.733-3a3.867,3.867,0,0,1,6.7,3.867Z" fill="#fd9827"/>
        </g>
      </g>
    </g>
  </g>
</svg>
