<svg xmlns="http://www.w3.org/2000/svg" width="108.011" height="97" viewBox="0 0 108.011 97">
  <g id="Grupo_953373" data-name="Grupo 953373" transform="translate(-1096.966 -1150.891)">
    <rect id="Rectángulo_48438" data-name="Rectángulo 48438" width="108.011" height="97" transform="translate(1096.966 1150.891)" fill="none"/>
    <g id="Grupo_953357" data-name="Grupo 953357" transform="translate(1096.966 1150.891)">
      <rect id="Rectángulo_35225" data-name="Rectángulo 35225" width="108.011" height="97" fill="none"/>
    </g>
    <g id="Grupo_953369" data-name="Grupo 953369" transform="translate(1262.62 925.224)">
      <g id="buscar">
        <g id="Grupo_953359" data-name="Grupo 953359">
          <g id="Grupo_953358" data-name="Grupo 953358">
            <path id="Trazado_658578" data-name="Trazado 658578" d="M-102.139,259.3a25.149,25.149,0,0,0-35.565-.068h0a25.147,25.147,0,0,0-.849,34.744l-3.39,3.39-1.829-1.829a1.228,1.228,0,0,0-1.734,0h0l-10.571,10.576a5.039,5.039,0,0,0-.134,7.124h0a5.038,5.038,0,0,0,7.125.133h0q.066-.063.132-.132l10.577-10.575a1.228,1.228,0,0,0,0-1.734h0l-1.829-1.829,3.39-3.39a25.147,25.147,0,0,0,35.522-1.734A25.149,25.149,0,0,0-102.139,259.3Zm-48.546,52.2a2.587,2.587,0,0,1-3.659,0h0a2.587,2.587,0,0,1,0-3.657h0l9.708-9.708,3.658,3.658Zm46.812-18.375a22.685,22.685,0,0,1-32.082-.019,22.685,22.685,0,0,1,.019-32.081,22.686,22.686,0,0,1,32.063,0,22.485,22.485,0,0,1,.564,31.932.5.5,0,0,1-.564.168Z" fill="#785549"/>
            <path id="Trazado_658579" data-name="Trazado 658579" d="M-100.2,276.837a1.227,1.227,0,0,0-1.441-.962,1.226,1.226,0,0,0-.962,1.441h0a1.224,1.224,0,0,0,1.441.962h0a1.244,1.244,0,0,0,.247-.077A1.239,1.239,0,0,0-100.2,276.837Z" fill="#785549"/>
            <path id="Trazado_658580" data-name="Trazado 658580" d="M-101.895,281.51a1.225,1.225,0,0,0-1.537.8h0a17.3,17.3,0,0,1-21.723,11.256h0a17.289,17.289,0,0,1-7-4.255,17.3,17.3,0,0,1,0-24.465h0a17.3,17.3,0,0,1,24.466,0h0a17.3,17.3,0,0,1,4.266,7.024,1.226,1.226,0,0,0,1.537.8,1.225,1.225,0,0,0,.8-1.537,19.76,19.76,0,0,0-24.789-12.9h0a19.758,19.758,0,0,0-12.9,24.786v0a19.76,19.76,0,0,0,24.786,12.9l0,0a19.759,19.759,0,0,0,12.9-12.872,1.226,1.226,0,0,0-.8-1.538Z" fill="#785549"/>
          </g>
        </g>
      </g>
      <ellipse id="Elipse_4927" data-name="Elipse 4927" cx="19" cy="18.5" rx="19" ry="18.5" transform="translate(-125.654 235.852)" fill="none"/>
      <g id="Elipse_4926" data-name="Elipse 4926">
        <circle id="Elipse_4928" data-name="Elipse 4928" cx="18.5" cy="18.5" r="18.5" transform="translate(-102.654 235.852)" fill="none"/>
        <path id="Trazado_658593" data-name="Trazado 658593" d="M-84.154,272.853a18.521,18.521,0,0,1-18.5-18.5,18.52,18.52,0,0,1,18.5-18.5,18.52,18.52,0,0,1,18.5,18.5A18.521,18.521,0,0,1-84.154,272.853Zm0-34a15.517,15.517,0,0,0-15.5,15.5,15.518,15.518,0,0,0,15.5,15.5,15.518,15.518,0,0,0,15.5-15.5A15.517,15.517,0,0,0-84.154,238.853Z" fill="#785549"/>
      </g>
      <g id="Grupo_953369-2" data-name="Grupo 953369">
        <path id="Trazado_658594" data-name="Trazado 658594" d="M-101.4,270.348a9.4,9.4,0,0,1-.462-1.206,16.405,16.405,0,0,1-4.788.711,15.976,15.976,0,0,1-15.285-10.919l-2.943.6a18.959,18.959,0,0,0,18.228,13.321,19.383,19.383,0,0,0,5.378-.767A1.991,1.991,0,0,0-101.4,270.348Z" fill="#785549"/>
        <path id="Trazado_658595" data-name="Trazado 658595" d="M-106.654,235.853a18.788,18.788,0,0,0-18.956,17.659l3.022-.414a15.816,15.816,0,0,1,15.934-14.245,15.774,15.774,0,0,1,16,15.5,15.393,15.393,0,0,1-7.6,13.166l1.149,2.8a18.413,18.413,0,0,0,9.449-15.967A18.775,18.775,0,0,0-106.654,235.853Z" fill="#785549"/>
      </g>
    </g>
    <g id="Grupo_953372" data-name="Grupo 953372" transform="translate(702.034)">
      <path id="Trazado_658596" data-name="Trazado 658596" d="M2255.938-10488.183h55.329" transform="translate(-1816.671 11700)" fill="none" stroke="#785549" stroke-width="2"/>
      <path id="Trazado_658597" data-name="Trazado 658597" d="M2255.938-10488.183h42.431" transform="translate(-1803.369 11724)" fill="none" stroke="#785549" stroke-width="2"/>
      <path id="Trazado_658598" data-name="Trazado 658598" d="M2255.938-10488.183h17.585" transform="translate(-1852.972 11664.817)" fill="none" stroke="#785549" stroke-width="2"/>
      <path id="Trazado_658599" data-name="Trazado 658599" d="M2255.938-10488.183h17.585" transform="translate(-1852.972 11659.817)" fill="none" stroke="#785549" stroke-width="2"/>
      <g id="Rectángulo_48440" data-name="Rectángulo 48440" transform="translate(468 1217)" fill="none" stroke="#785549" stroke-width="2">
        <rect width="27" height="14" stroke="none"/>
        <rect x="1" y="1" width="25" height="12" fill="none"/>
      </g>
    </g>
  </g>
</svg>
