<svg xmlns="http://www.w3.org/2000/svg" width="108.011" height="97" viewBox="0 0 108.011 97">
  <g id="Grupo_953375" data-name="Grupo 953375" transform="translate(-394.966 -1150.891)">
    <rect id="Rectángulo_48434" data-name="Rectángulo 48434" width="108.011" height="97" transform="translate(394.966 1150.891)" fill="none"/>
    <g id="Grupo_158273" data-name="Grupo 158273" transform="translate(394.966 1150.891)">
      <rect id="Rectángulo_35225" data-name="Rectángulo 35225" width="108.011" height="97" fill="none"/>
    </g>
    <g id="Grupo_953361" data-name="Grupo 953361">
      <g id="Grupo_953360" data-name="Grupo 953360" transform="translate(512.492 757.655)">
        <path id="Trazado_658583" data-name="Trazado 658583" d="M-43.855,440.213h-.935v-35.09h12.571c4.217,0,7.49.841,9.729,2.5a8.839,8.839,0,0,1,3.5,7.539,8.454,8.454,0,0,1-1.415,4.823,7.918,7.918,0,0,1-2.022,2.063A7.679,7.679,0,0,1-19.9,424.2a8.559,8.559,0,0,1,1.662,5.31c0,3.476-1.146,6.162-3.406,7.983-2.2,1.771-5.324,2.685-9.3,2.717Zm.935-1.869h11.979c3.53-.029,6.268-.8,8.129-2.3,1.823-1.47,2.709-3.6,2.709-6.528a6.649,6.649,0,0,0-1.281-4.18,6.054,6.054,0,0,0-3.51-2.238l-2.855-.715L-25,421.317a6.283,6.283,0,0,0,3.054-2.377,6.541,6.541,0,0,0,1.1-3.778,6.978,6.978,0,0,0-2.748-6.037c-1.91-1.415-4.809-2.133-8.616-2.133h-10.7Zm11.774-3.63h-6.8V423.878h7.209c3.653.053,5.658,2.03,5.658,5.566a4.862,4.862,0,0,1-1.688,3.9A6.577,6.577,0,0,1-31.146,434.714Zm-4.93-1.869h4.93a4.791,4.791,0,0,0,3.171-.931,3.032,3.032,0,0,0,1.028-2.47c0-2.518-1.173-3.659-3.8-3.7h-5.326Zm-.934-11.935h-.935V410.667h5.726a7.69,7.69,0,0,1,4.705,1.182,4.711,4.711,0,0,1,1.683,4c0,2.262-1.058,4.976-6.1,5.064Zm.934-1.869h4.131c3.76-.065,4.245-1.742,4.245-3.195a2.933,2.933,0,0,0-.942-2.507,6.106,6.106,0,0,0-3.577-.8h-3.857Z" fill="#785549"/>
        <g id="buscar">
          <g id="Grupo_953359" data-name="Grupo 953359">
            <g id="Grupo_953358" data-name="Grupo 953358">
              <path id="Trazado_658578" data-name="Trazado 658578" d="M-54.045,426.864A25.148,25.148,0,0,0-89.61,426.8a25.149,25.149,0,0,0-.849,34.745l-3.39,3.39-1.829-1.829a1.227,1.227,0,0,0-1.734,0h0l-10.571,10.576a5.039,5.039,0,0,0-.133,7.125,5.04,5.04,0,0,0,7.125.133l.132-.132,10.577-10.575a1.226,1.226,0,0,0,0-1.734h0l-1.829-1.829,3.39-3.39A25.148,25.148,0,0,0-53.2,461.541,25.148,25.148,0,0,0-54.045,426.864Zm-48.546,52.2a2.587,2.587,0,0,1-3.658,0,2.586,2.586,0,0,1,0-3.658h0l9.708-9.708,3.658,3.658Zm46.812-18.375a22.685,22.685,0,0,1-32.081-.019,22.685,22.685,0,0,1,.018-32.081,22.685,22.685,0,0,1,32.063,0A22.72,22.72,0,0,1-55.779,460.694Z" fill="#785549"/>
              <path id="Trazado_658579" data-name="Trazado 658579" d="M-52.108,444.406a1.225,1.225,0,0,0-1.441-.962,1.225,1.225,0,0,0-.962,1.441,1.226,1.226,0,0,0,1.441.962,1.242,1.242,0,0,0,.247-.077A1.238,1.238,0,0,0-52.108,444.406Z" fill="#785549"/>
              <path id="Trazado_658580" data-name="Trazado 658580" d="M-53.8,449.079a1.225,1.225,0,0,0-1.538.8,17.3,17.3,0,0,1-21.723,11.255,17.3,17.3,0,0,1-7-4.255,17.3,17.3,0,0,1,0-24.466,17.3,17.3,0,0,1,24.466,0,17.307,17.307,0,0,1,4.265,7.025,1.226,1.226,0,0,0,1.538.8,1.226,1.226,0,0,0,.8-1.537,19.759,19.759,0,0,0-24.789-12.9,19.759,19.759,0,0,0-12.9,24.789,19.759,19.759,0,0,0,24.789,12.9A19.757,19.757,0,0,0-53,450.617a1.225,1.225,0,0,0-.8-1.538Z" fill="#785549"/>
            </g>
          </g>
        </g>
        <path id="Trazado_658584" data-name="Trazado 658584" d="M-65.994,421.817c.625.161,1.229.331,1.8.5l1.632-4.916,2.077,6.186c.911.351,1.452.591,1.452.591l1.048.982L-62.569,411.5Z" fill="#785549"/>
        <path id="Trazado_658585" data-name="Trazado 658585" d="M-58.788,431.5H-69.216l-2.282,6.845h-5.259l4.49-12.062c-.718-.034-1.384-.045-1.98-.041l-5.2,13.972h9.3l2.281-6.845H-57.6A9.678,9.678,0,0,0-58.788,431.5Z" fill="#785549"/>
        <path id="Trazado_658586" data-name="Trazado 658586" d="M-64.174,427.823a21.731,21.731,0,0,0-3.486-.991l-.329.991Z" fill="#785549"/>
        <path id="Trazado_658587" data-name="Trazado 658587" d="M-48.438,438.344l.6,1.215-1.057-.114.265.768h3.017l-13.135-35.09h-7.64l-5.828,15.654c.64.037,1.284.1,1.926.185l5.2-13.97h5.045l11.735,31.352Z" fill="#785549"/>
      </g>
    </g>
    <g id="Grupo_953370" data-name="Grupo 953370">
      <path id="Trazado_658596" data-name="Trazado 658596" d="M2255.938-10488.183h55.329" transform="translate(-1816.671 11700)" fill="none" stroke="#785549" stroke-width="2"/>
      <path id="Trazado_658597" data-name="Trazado 658597" d="M2255.938-10488.183h42.431" transform="translate(-1803.369 11724)" fill="none" stroke="#785549" stroke-width="2"/>
      <path id="Trazado_658598" data-name="Trazado 658598" d="M2255.938-10488.183h17.585" transform="translate(-1852.972 11664.817)" fill="none" stroke="#785549" stroke-width="2"/>
      <path id="Trazado_658599" data-name="Trazado 658599" d="M2255.938-10488.183h17.585" transform="translate(-1852.972 11659.817)" fill="none" stroke="#785549" stroke-width="2"/>
      <g id="Rectángulo_48440" data-name="Rectángulo 48440" transform="translate(468 1217)" fill="none" stroke="#785549" stroke-width="2">
        <rect width="27" height="14" stroke="none"/>
        <rect x="1" y="1" width="25" height="12" fill="none"/>
      </g>
    </g>
  </g>
</svg>
