<svg xmlns="http://www.w3.org/2000/svg" xmlns:xlink="http://www.w3.org/1999/xlink" width="90" height="90" viewBox="0 0 90 90">
  <defs>
    <clipPath id="clip-path">
      <rect id="Rectángulo_45982" data-name="Rectángulo 45982" width="90" height="90" transform="translate(-3437 -8476)" fill="#fd9827"/>
    </clipPath>
  </defs>
  <g id="Enmascarar_grupo_952096" data-name="Enmascarar grupo 952096" transform="translate(3437 8476)" clip-path="url(#clip-path)">
    <g id="organizador" transform="translate(-3437 -8476)">
      <g id="Grupo_952402" data-name="Grupo 952402">
        <g id="Grupo_952401" data-name="Grupo 952401">
          <path id="Trazado_656873" data-name="Trazado 656873" d="M71.771,21.135H29.5a1.321,1.321,0,0,0-1.321,1.321V47.818A1.321,1.321,0,0,0,29.5,49.139h42.27a1.321,1.321,0,0,0,1.321-1.321V22.456A1.321,1.321,0,0,0,71.771,21.135ZM70.45,46.5H30.822V23.777H70.45Z" fill="#fd9827"/>
        </g>
      </g>
      <g id="Grupo_952404" data-name="Grupo 952404">
        <g id="Grupo_952403" data-name="Grupo 952403">
          <path id="Trazado_656874" data-name="Trazado 656874" d="M84.451,30.822a2.733,2.733,0,0,0,2.73-2.73V11.184a2.733,2.733,0,0,0-2.73-2.73H80.136V1.321A1.321,1.321,0,0,0,78.815,0H8.366A1.321,1.321,0,0,0,7.045,1.321V21.135H4.139a1.321,1.321,0,0,0-1.321,1.321v4.227A1.321,1.321,0,0,0,4.139,28H7.045V41.566H4.139a1.321,1.321,0,0,0-1.321,1.321v4.227a1.321,1.321,0,0,0,1.321,1.321H7.058a1.323,1.323,0,0,0-.013.176V61.38A1.315,1.315,0,0,0,7.2,62H4.139a1.321,1.321,0,0,0-1.321,1.321v4.227a1.321,1.321,0,0,0,1.321,1.321H7.045V88.679A1.321,1.321,0,0,0,8.366,90h70.45a1.321,1.321,0,0,0,1.321-1.321V81.546h4.315a2.733,2.733,0,0,0,2.73-2.73V61.908a2.733,2.733,0,0,0-2.73-2.73H80.136V56.184h4.315a2.733,2.733,0,0,0,2.73-2.73V36.546a2.733,2.733,0,0,0-2.73-2.73H80.136V30.823h4.315ZM80.136,11.1h4.315a.088.088,0,0,1,.088.088V28.092a.088.088,0,0,1-.088.088H80.136ZM5.46,25.362V23.777h8.63v1.585Zm0,20.43V44.207h8.63v1.585Zm0,20.43V64.638h8.63v1.585ZM77.495,87.358H23.777V21.751a1.321,1.321,0,0,0-2.642,0V87.358H9.687V68.865h5.724a1.321,1.321,0,0,0,1.321-1.321V63.317A1.321,1.321,0,0,0,15.411,62H9.534a1.314,1.314,0,0,0,.153-.616V48.61a1.353,1.353,0,0,0-.013-.176h5.737a1.321,1.321,0,0,0,1.321-1.321V42.886a1.321,1.321,0,0,0-1.321-1.321H9.687V28h5.724a1.321,1.321,0,0,0,1.321-1.321V22.456a1.321,1.321,0,0,0-1.321-1.321H9.687V2.642H21.135V15.587a1.321,1.321,0,0,0,2.642,0V2.642H77.495V87.358ZM84.451,61.82a.088.088,0,0,1,.088.088V78.816a.088.088,0,0,1-.088.088H80.136V61.82h4.315Zm0-25.362a.088.088,0,0,1,.088.088V53.454a.088.088,0,0,1-.088.088H80.136V36.458Z" fill="#fd9827"/>
        </g>
      </g>
      <g id="Grupo_952406" data-name="Grupo 952406">
        <g id="Grupo_952405" data-name="Grupo 952405">
          <path id="Trazado_656875" data-name="Trazado 656875" d="M40.773,57.769H29.5a1.321,1.321,0,0,0,0,2.642H40.773a1.321,1.321,0,0,0,0-2.642Z" fill="#fd9827"/>
        </g>
      </g>
      <g id="Grupo_952408" data-name="Grupo 952408">
        <g id="Grupo_952407" data-name="Grupo 952407">
          <path id="Trazado_656876" data-name="Trazado 656876" d="M70.362,57.769H45a1.321,1.321,0,0,0,0,2.642H70.362a1.321,1.321,0,0,0,0-2.642Z" fill="#fd9827"/>
        </g>
      </g>
      <g id="Grupo_952410" data-name="Grupo 952410">
        <g id="Grupo_952409" data-name="Grupo 952409">
          <path id="Trazado_656877" data-name="Trazado 656877" d="M56.272,66.223H29.5a1.321,1.321,0,0,0,0,2.642H56.272a1.321,1.321,0,0,0,0-2.642Z" fill="#fd9827"/>
        </g>
      </g>
      <g id="Grupo_952412" data-name="Grupo 952412">
        <g id="Grupo_952411" data-name="Grupo 952411">
          <path id="Trazado_656878" data-name="Trazado 656878" d="M70.362,66.223H60.5a1.321,1.321,0,1,0,0,2.642h9.863a1.321,1.321,0,0,0,0-2.642Z" fill="#fd9827"/>
        </g>
      </g>
      <g id="Grupo_952414" data-name="Grupo 952414">
        <g id="Grupo_952413" data-name="Grupo 952413">
          <path id="Trazado_656879" data-name="Trazado 656879" d="M63.317,29.589H37.955a1.321,1.321,0,1,0,0,2.642H63.317a1.321,1.321,0,1,0,0-2.642Z" fill="#fd9827"/>
        </g>
      </g>
      <g id="Grupo_952416" data-name="Grupo 952416">
        <g id="Grupo_952415" data-name="Grupo 952415">
          <path id="Trazado_656880" data-name="Trazado 656880" d="M63.317,38.043H37.955a1.321,1.321,0,1,0,0,2.642H63.317a1.321,1.321,0,1,0,0-2.642Z" fill="#fd9827"/>
        </g>
      </g>
    </g>
  </g>
</svg>
