<svg xmlns="http://www.w3.org/2000/svg" xmlns:xlink="http://www.w3.org/1999/xlink" width="90" height="94" viewBox="0 0 90 94">
  <defs>
    <clipPath id="clip-path">
      <rect id="Rectángulo_44623" data-name="Rectángulo 44623" width="90" height="94" transform="translate(-6195 -10865)" fill="#fd9827" stroke="#31313c" stroke-width="1.5"/>
    </clipPath>
  </defs>
  <g id="Enmascarar_grupo_95" data-name="Enmascarar grupo 95" transform="translate(6195 10865)" clip-path="url(#clip-path)">
    <g id="libro" transform="translate(-6197 -10865)">
      <path id="Trazado_599208" data-name="Trazado 599208" d="M80.047,0H20.838A9.65,9.65,0,0,0,11.2,9.639V84.361A9.65,9.65,0,0,0,20.838,94H80.047A2.754,2.754,0,0,0,82.8,91.246V2.754A2.754,2.754,0,0,0,80.047,0ZM20.838,74.723a9.584,9.584,0,0,0-4.131.931V34.591h5.508V74.723Zm1.377-45.64H16.707V24.345h5.508ZM20.838,5.508h1.377V18.837H16.707v-9.2a4.136,4.136,0,0,1,4.131-4.131ZM77.293,88.492H20.838a4.131,4.131,0,0,1,0-8.262H77.293Zm-49.57-13.77V53.635l4.9.576,2.649,4.834A2.754,2.754,0,0,0,40.1,56.4l-3.331-6.079a2.754,2.754,0,0,0-2.093-1.412l-6.955-.818V5.508h17.4l-.848,6.022a2.754,2.754,0,0,0,1.511,2.855l5.785,2.848A2.754,2.754,0,1,0,54,12.29l-4-1.967.678-4.816h26.61V50.179l-11.064,8.8-.785-.415c-.027-.018-.051-.038-.078-.056a2.763,2.763,0,0,0-.5-.253l-6.044-3.2a2.754,2.754,0,1,0-2.577,4.868l3.71,1.964L57.59,65.6a2.754,2.754,0,1,0,4.647,2.957l2.6-4.081.41.217a2.754,2.754,0,0,0,3-.279l9.046-7.195V74.723Z" fill="#fd9827" stroke="#31313c" stroke-width="1.5"/>
      <path id="Trazado_599209" data-name="Trazado 599209" d="M38.926,28.3H66.643a2.754,2.754,0,0,0,0-5.508H38.926A2.754,2.754,0,0,0,38.926,28.3Z" fill="#fd9827" stroke="#31313c" stroke-width="1.5"/>
      <path id="Trazado_599210" data-name="Trazado 599210" d="M69.4,35.977a2.754,2.754,0,0,0-2.754-2.754H38.926a2.754,2.754,0,0,0,0,5.508H66.643A2.754,2.754,0,0,0,69.4,35.977Z" fill="#fd9827" stroke="#31313c" stroke-width="1.5"/>
    </g>
  </g>
</svg>
