<svg xmlns="http://www.w3.org/2000/svg" width="108.011" height="97" viewBox="0 0 108.011 97">
  <g id="Grupo_953374" data-name="Grupo 953374" transform="translate(-745.966 -1150.891)">
    <rect id="Rect치ngulo_48436" data-name="Rect치ngulo 48436" width="108.011" height="97" transform="translate(745.966 1150.891)" fill="none"/>
    <g id="Grupo_953362" data-name="Grupo 953362" transform="translate(868.527 833.866)">
      <g id="buscar">
        <g id="Grupo_953359" data-name="Grupo 953359">
          <g id="Grupo_953358" data-name="Grupo 953358">
            <path id="Trazado_658578" data-name="Trazado 658578" d="M-59.08,350.577a25.148,25.148,0,0,0-35.565-.068,25.147,25.147,0,0,0-.849,34.744l-3.39,3.39-1.829-1.829a1.226,1.226,0,0,0-1.734,0h0l-10.571,10.576a5.038,5.038,0,0,0-.133,7.125,5.039,5.039,0,0,0,7.125.133q.066-.064.132-.132l10.577-10.575a1.228,1.228,0,0,0,0-1.734h0l-1.829-1.829,3.39-3.39a25.148,25.148,0,0,0,35.522-1.734A25.149,25.149,0,0,0-59.08,350.577Zm-48.546,52.205a2.587,2.587,0,0,1-3.659,0,2.586,2.586,0,0,1,0-3.658h0l9.708-9.708,3.658,3.658Zm46.812-18.375a22.686,22.686,0,0,1-32.082-.019,22.685,22.685,0,0,1,.019-32.081,22.685,22.685,0,0,1,32.063,0A22.722,22.722,0,0,1-60.814,384.407Z" fill="#785549"/>
            <path id="Trazado_658579" data-name="Trazado 658579" d="M-57.143,368.119a1.226,1.226,0,0,0-1.441-.962,1.225,1.225,0,0,0-.962,1.441,1.225,1.225,0,0,0,1.441.962,1.263,1.263,0,0,0,.247-.077A1.24,1.24,0,0,0-57.143,368.119Z" fill="#785549"/>
            <path id="Trazado_658580" data-name="Trazado 658580" d="M-58.836,372.792a1.225,1.225,0,0,0-1.538.8A17.3,17.3,0,0,1-82.1,384.847a17.3,17.3,0,0,1-7-4.255,17.3,17.3,0,0,1,0-24.466,17.3,17.3,0,0,1,24.466,0,17.3,17.3,0,0,1,4.266,7.024,1.226,1.226,0,0,0,1.537.8,1.226,1.226,0,0,0,.8-1.537,19.76,19.76,0,0,0-24.79-12.9,19.758,19.758,0,0,0-12.9,24.789,19.758,19.758,0,0,0,24.789,12.9A19.761,19.761,0,0,0-58.035,374.33a1.226,1.226,0,0,0-.8-1.538Z" fill="#785549"/>
          </g>
        </g>
      </g>
      <g id="Grupo_953368" data-name="Grupo 953368">
        <path id="Trazado_658591" data-name="Trazado 658591" d="M-60.709,359.528c-1.124,0,1.582-.589.842.257a3.9,3.9,0,0,0-2.936-1.33.974.974,0,0,0-.974.973.974.974,0,0,0,.974.974,1.964,1.964,0,0,1,1.954,1.8,16.271,16.271,0,0,0-5.631,2.812,16.529,16.529,0,0,0-5.809,8.571.973.973,0,0,0,.673,1.2.983.983,0,0,0,.264.036h10.68c.276-.576,1.191-1.236,1.357-1.947l-5.3,0a8.842,8.842,0,0,1,1.2-1.951l0,0c-.716-1.583-1.805-.709-2.036-.5a10.824,10.824,0,0,0-1.259,2.458h-3.3a14.482,14.482,0,0,1,10.439-8.973v-2.8l-.336-.5c.355-.329-.885-.212-.377-.212.537,0,0,.4,0-.142S-60.171,359.528-60.709,359.528Z" fill="#785549"/>
        <path id="Trazado_658592" data-name="Trazado 658592" d="M-22.525,373.585a16.542,16.542,0,0,0-5.809-8.576,16.289,16.289,0,0,0-5.631-2.812,1.963,1.963,0,0,1,1.954-1.8.974.974,0,0,0,.973-.974.973.973,0,0,0-.973-.973,3.9,3.9,0,0,0-2.941,1.335,3.9,3.9,0,0,0-2.936-1.332.974.974,0,0,0-.974.973.974.974,0,0,0,.974.974,1.966,1.966,0,0,1,1.872,1.374,16.632,16.632,0,0,0-4.08-.068,8.558,8.558,0,0,0-6.154-4l.02-.018,3.555-3.555a13.92,13.92,0,0,0,3.132.348c.3,0,.614-.009.939-.03a14.583,14.583,0,0,0,9.479-4.406,14.583,14.583,0,0,0,4.406-9.48,13.213,13.213,0,0,0-.482-4.672.974.974,0,0,0-.682-.633h-.01a13.471,13.471,0,0,0-3.509-.49h-.011a.973.973,0,0,0-.949,1,.974.974,0,0,0,.937.948,11.82,11.82,0,0,1,2.507.288,12.307,12.307,0,0,1,.251,3.519,12.548,12.548,0,0,1-3.834,8.147,12.5,12.5,0,0,1-10.491,3.781l7.137-7.137a.974.974,0,0,0,0-1.377.972.972,0,0,0-1.377,0l-7.137,7.137a12.547,12.547,0,0,1,3.782-10.488,14.091,14.091,0,0,1,2.426-1.955.974.974,0,0,0,.3-1.343.973.973,0,0,0-1.343-.3,16.019,16.019,0,0,0-2.761,2.224,14.577,14.577,0,0,0-4.4,9.48,14.105,14.105,0,0,0,.318,4.071l-2.386,2.385V337.476h.357c1.908,0,5.322-.345,7.579-2.56,3.034-2.974,2.627-8.172,2.545-8.971a.973.973,0,0,0-.907-.916c-.463-.044-5.713-.421-8.813,2.619-2.791,2.74-2.762,7.258-2.684,8.586a.926.926,0,0,0-.023.21v3.719a15.024,15.024,0,0,0-2.253-2.861,13.888,13.888,0,0,0-9.032-4.2,12.572,12.572,0,0,0-4.458.463.969.969,0,0,0-.632.681v.009A13.676,13.676,0,0,0-61,347.662a13.888,13.888,0,0,0,9.032,4.2c.309.02.608.029.894.029a13.5,13.5,0,0,0,2.689-.267v6.061a8.541,8.541,0,0,0-5.4,2.788c.015.052.316,1.05.631,2.421a6.645,6.645,0,0,1,8.769-2.587,6.653,6.653,0,0,1,2.9,2.9.974.974,0,0,0,1.009.519,14.491,14.491,0,0,1,15.667,9.158l-28.632,0c-.17.688-.344,1.349-.507,1.944h30.486a.973.973,0,0,0,.978-.968A1.007,1.007,0,0,0-22.525,373.585Zm-21.787-44.547c1.892-1.856,4.993-2.1,6.467-2.1.04,1.513-.121,4.728-2.018,6.59a8.332,8.332,0,0,1-5.179,1.961l2.932-2.932a.975.975,0,0,0-.068-1.375.972.972,0,0,0-1.309,0l-2.882,2.881A8.2,8.2,0,0,1-44.312,329.038Zm-4.114,19.455-5.68-5.68a.972.972,0,0,0-1.377,0,.972.972,0,0,0,0,1.377l5.681,5.681a11.87,11.87,0,0,1-9.823-3.586,11.756,11.756,0,0,1-3.391-11,11.608,11.608,0,0,1,3.3-.23,11.863,11.863,0,0,1,7.7,3.625,11.866,11.866,0,0,1,3.625,7.7v.078l.008,1.535C-48.394,348.17-48.409,348.338-48.426,348.493Z" fill="#785549"/>
      </g>
    </g>
    <g id="Grupo_953371" data-name="Grupo 953371" transform="translate(351.019)">
      <path id="Trazado_658596" data-name="Trazado 658596" d="M2255.938-10488.183h55.329" transform="translate(-1816.671 11700)" fill="none" stroke="#785549" stroke-width="2"/>
      <path id="Trazado_658597" data-name="Trazado 658597" d="M2255.938-10488.183h42.431" transform="translate(-1803.369 11724)" fill="none" stroke="#785549" stroke-width="2"/>
      <path id="Trazado_658598" data-name="Trazado 658598" d="M2255.938-10488.183h17.585" transform="translate(-1852.972 11664.817)" fill="none" stroke="#785549" stroke-width="2"/>
      <path id="Trazado_658599" data-name="Trazado 658599" d="M2255.938-10488.183h17.585" transform="translate(-1852.972 11659.817)" fill="none" stroke="#785549" stroke-width="2"/>
      <g id="Rect치ngulo_48440" data-name="Rect치ngulo 48440" transform="translate(468 1217)" fill="none" stroke="#785549" stroke-width="2">
        <rect width="27" height="14" stroke="none"/>
        <rect x="1" y="1" width="25" height="12" fill="none"/>
      </g>
    </g>
  </g>
</svg>
