<svg xmlns="http://www.w3.org/2000/svg" width="85" height="93.681" viewBox="0 0 85 93.681">
  <g id="Grupo_953498" data-name="Grupo 953498" transform="translate(-410 -806)">
    <g id="asistencia-social" transform="translate(410 808.002)">
      <path id="Trazado_599198" data-name="Trazado 599198" d="M35.718,155.149v-3.321c0-.013,0-.026,0-.039a33.178,33.178,0,0,0-.86-8c-1.681-6.3-5.326-9.771-12.187-11.623a2.631,2.631,0,0,1-.6-.173c-.142-.082-.242-.307-.324-.441l-4.323-7.016a5.7,5.7,0,0,0-3.561-2.579l-1.037-13.384a5.743,5.743,0,0,0-5.6-5.488H7.215A5.693,5.693,0,0,0,1.61,108.58L1.017,117.4a1.66,1.66,0,0,0,3.313.223l.593-8.817a2.411,2.411,0,0,1,2.293-2.394h0a2.44,2.44,0,0,1,2.292,2.425l1.031,13.316a5.758,5.758,0,0,0-2.917,8.414l7.007,11.376a1.66,1.66,0,1,0,2.827-1.741l-7.006-11.374a2.427,2.427,0,0,1,2.632-3.635,2.4,2.4,0,0,1,1.505,1.089l4.323,7.017a3.81,3.81,0,0,0,2.779,2.05l.109.03c6.59,1.779,8.7,4.994,9.845,9.273a30.532,30.532,0,0,1,.749,7.2v3.1H17.384v-.25c0-5.131-5.062-9.458-8.412-12.32-.5-.429-.976-.834-1.357-1.179l-.064-.058c-3.1-2.815-4.389-3.981-4.216-8.7a1.66,1.66,0,1,0-3.318-.121c-.229,6.263,1.972,8.26,5.3,11.281l.065.059c.418.378.909.8,1.429,1.243,2.887,2.467,7.249,6.2,7.249,9.8v.451a4.175,4.175,0,0,0-2.89,3.966v6.031a4.173,4.173,0,0,0,4.168,4.168h19.1a4.173,4.173,0,0,0,4.169-4.168v-6.031a4.174,4.174,0,0,0-2.889-3.966Zm-.431,10a.849.849,0,0,1-.848.847h-19.1a.859.859,0,0,1-.848-.847v-6.031a.859.859,0,0,1,.848-.847h19.1a.859.859,0,0,1,.848.847Z" transform="translate(0 -77.636)" fill="#fd9827"/>
      <path id="Trazado_599199" data-name="Trazado 599199" d="M318.037,132.319c0-.017,0-.034,0-.05l-1.59-23.688a5.693,5.693,0,0,0-5.606-5.491h-.012a5.744,5.744,0,0,0-5.6,5.489l-1.037,13.383a5.7,5.7,0,0,0-3.559,2.576l-4.326,7.022c-.082.134-.181.358-.323.439a2.646,2.646,0,0,1-.6.172c-6.862,1.852-10.507,5.328-12.188,11.625a33.18,33.18,0,0,0-.86,8c0,.013,0,.026,0,.039v3.321a4.175,4.175,0,0,0-2.89,3.966v6.031a4.173,4.173,0,0,0,4.169,4.168h19.1a4.173,4.173,0,0,0,4.168-4.168v-6.031a4.175,4.175,0,0,0-2.89-3.966V154.7c0-3.6,4.362-7.329,7.249-9.8.52-.445,1.012-.865,1.43-1.244l.064-.058C316.065,140.578,318.266,138.582,318.037,132.319ZM303.56,165.147a.859.859,0,0,1-.848.847h-19.1a.859.859,0,0,1-.848-.847v-6.031a.859.859,0,0,1,.848-.847h19.1a.859.859,0,0,1,.848.847Zm6.943-24.007-.063.057c-.382.346-.856.751-1.358,1.18-3.35,2.863-8.412,7.189-8.412,12.32v.25H285.656v-3.1a30.536,30.536,0,0,1,.748-7.2c1.143-4.28,3.255-7.5,9.847-9.275l.108-.029a3.807,3.807,0,0,0,2.777-2.048l4.327-7.023a2.4,2.4,0,0,1,1.5-1.085,2.459,2.459,0,0,1,.692-.064h.026a2.433,2.433,0,0,1,1.914,3.7L300.592,140.2a1.66,1.66,0,1,0,2.827,1.741l7.007-11.375a5.757,5.757,0,0,0-1.883-7.911,5.774,5.774,0,0,0-1.034-.5l1.031-13.315a2.44,2.44,0,0,1,2.292-2.426h0a2.411,2.411,0,0,1,2.293,2.393l1.589,23.662C314.887,137.164,313.6,138.33,310.5,141.141Z" transform="translate(-233.053 -77.636)" fill="#fd9827"/>
      <path id="Trazado_599201" data-name="Trazado 599201" d="M4.756,228.041a1.663,1.663,0,1,0-1.66-1.665v.009A1.656,1.656,0,0,0,4.756,228.041Z" transform="translate(-2.582 -179.071)" fill="#fd9827"/>
    </g>
    <g id="marcador" transform="translate(386.485 806)">
      <path id="Trazado_599202" data-name="Trazado 599202" d="M88.515,43.515V0H52.771A7.779,7.779,0,0,0,45,7.771V46.623a6.224,6.224,0,0,0,6.216,6.216h37.3V49.732H85.407V43.515ZM77.636,3.108v9.529l-3.108-2.072L71.42,12.637V3.108ZM74.528,14.3l6.216,4.144V3.108h4.662v37.3H55.879V3.108H68.312V18.445ZM52.771,18.649H48.108V15.541h4.662Zm0,3.108V40.407H51.216a6.176,6.176,0,0,0-3.108.836V21.758Zm0-18.649v9.325H48.108V7.771A4.668,4.668,0,0,1,52.771,3.108ZM82.3,49.732H51.216a3.108,3.108,0,0,1,0-6.216H82.3Z" fill="#fd9827"/>
      <path id="Trazado_599203" data-name="Trazado 599203" d="M195,270h20.2v3.108H195Z" transform="translate(-134.459 -242.026)" fill="#fd9827"/>
      <path id="Trazado_599204" data-name="Trazado 599204" d="M195,330h20.2v3.108H195Z" transform="translate(-134.459 -295.809)" fill="#fd9827"/>
    </g>
  </g>
</svg>
