<svg xmlns="http://www.w3.org/2000/svg" width="76.752" height="76.751" viewBox="0 0 76.752 76.751">
  <g id="Grupo_953487" data-name="Grupo 953487" transform="translate(-1233.649 -4563.271)">
    <g id="Grupo_953092" data-name="Grupo 953092" transform="translate(1233.649 4563.271)">
      <circle id="Elipse_4725" data-name="Elipse 4725" cx="38.376" cy="38.376" r="38.376" fill="#f5e8df"/>
    </g>
    <g id="Page-1" transform="translate(1250.466 4572.261)">
      <g id="_054---Satisfaction-Survey" data-name="054---Satisfaction-Survey">
        <path id="Path" d="M30.608,4H41.13A2.87,2.87,0,0,1,44,6.87V52.782a2.87,2.87,0,0,1-2.87,2.87H2.87A2.87,2.87,0,0,1,0,52.782V6.87A2.87,2.87,0,0,1,2.87,4Z" transform="translate(0 -0.174)" fill="#cb8252" fill-rule="evenodd"/>
        <rect id="Rectangle" width="44" height="36" rx="1" transform="translate(40 7.739) rotate(90)" fill="#ecf0f1"/>
        <ellipse id="Oval" cx="5.5" cy="6" rx="5.5" ry="6" transform="translate(10 23.739)" fill="#f0c419"/>
        <circle id="Oval-2" data-name="Oval" cx="5.5" cy="5.5" r="5.5" transform="translate(10 12.739)" fill="#4fba6f"/>
        <circle id="Oval-3" data-name="Oval" cx="5.5" cy="5.5" r="5.5" transform="translate(10 35.739)" fill="#e64c3c"/>
        <g id="Grupo_953287" data-name="Grupo 953287" transform="translate(12.435 15.304)">
          <circle id="Oval-4" data-name="Oval" cx="1" cy="1" r="1" transform="translate(-0.435 11.435)" fill="#3f5c6c"/>
          <circle id="Oval-5" data-name="Oval" cx="1" cy="1" r="1" transform="translate(3.565 11.435)" fill="#3f5c6c"/>
          <ellipse id="Oval-6" data-name="Oval" cx="1" cy="0.5" rx="1" ry="0.5" transform="translate(-0.435 0.435)" fill="#3f5c6c"/>
          <ellipse id="Oval-7" data-name="Oval" cx="1" cy="0.5" rx="1" ry="0.5" transform="translate(3.565 0.435)" fill="#3f5c6c"/>
          <ellipse id="Oval-8" data-name="Oval" cx="1" cy="0.5" rx="1" ry="0.5" transform="translate(-0.435 23.435)" fill="#3f5c6c"/>
          <ellipse id="Oval-9" data-name="Oval" cx="1" cy="0.5" rx="1" ry="0.5" transform="translate(3.565 23.435)" fill="#3f5c6c"/>
        </g>
        <path id="Path-2" data-name="Path" d="M16.87,33.913H14.957a.957.957,0,1,1,0-1.913H16.87a.957.957,0,1,1,0,1.913Z" transform="translate(-0.609 -1.392)" fill="#f29c1f" fill-rule="evenodd"/>
        <rect id="Rectangle-2" data-name="Rectangle" width="7" height="7" rx="1" transform="translate(27 14.739)" fill="#d1d4d1"/>
        <rect id="Rectangle-3" data-name="Rectangle" width="7" height="8" rx="1" transform="translate(27 25.739)" fill="#d1d4d1"/>
        <rect id="Rectangle-4" data-name="Rectangle" width="7" height="7" rx="1" transform="translate(27 37.739)" fill="#d1d4d1"/>
        <path id="Path-3" data-name="Path" d="M32.914,20.652a.957.957,0,0,1-.676-.28l-.957-.957a.957.957,0,0,1,1.353-1.353l.216.216,4.113-4.936a.957.957,0,1,1,1.469,1.226l-4.783,5.739a.957.957,0,0,1-.692.342Z" transform="translate(-1.349 -0.565)" fill="#4fba6f" fill-rule="evenodd"/>
        <path id="Path-4" data-name="Path" d="M17.539,45.869a.956.956,0,0,1-.828-.478,1,1,0,0,0-1.659,0,.957.957,0,0,1-1.656-.957,2.87,2.87,0,0,1,4.974,0,.957.957,0,0,1-.827,1.435Z" transform="translate(-0.578 -1.87)" fill="#c03a2b" fill-rule="evenodd"/>
        <path id="Path-5" data-name="Path" d="M15.882,21.871a2.881,2.881,0,0,1-2.487-1.435.957.957,0,0,1,1.656-.957,1,1,0,0,0,1.659,0,.957.957,0,0,1,1.656.957,2.881,2.881,0,0,1-2.483,1.435Z" transform="translate(-0.578 -0.827)" fill="#24ae5f" fill-rule="evenodd"/>
        <path id="Path-6" data-name="Path" d="M31.217,3.826V5.739A1.919,1.919,0,0,1,29.3,7.652H15.913A1.919,1.919,0,0,1,14,5.739V3.826a.957.957,0,0,1,.957-.957H16.87V1.913A1.919,1.919,0,0,1,18.783,0h7.652a1.919,1.919,0,0,1,1.913,1.913V2.87h1.913A.957.957,0,0,1,31.217,3.826Z" transform="translate(-0.609)" fill="#95a5a5" fill-rule="evenodd"/>
      </g>
    </g>
  </g>
</svg>
