<svg xmlns="http://www.w3.org/2000/svg" width="101" height="101" viewBox="0 0 101 101">
  <g id="Grupo_953466" data-name="Grupo 953466" transform="translate(-749.966 -5892)">
    <circle id="Elipse_1142" data-name="Elipse 1142" cx="50.5" cy="50.5" r="50.5" transform="translate(749.966 5892)" fill="#785549"/>
    <g id="tecnologia_6_" data-name="tecnologia(6)" transform="translate(767.362 5905.471)">
      <g id="Page-1_17_" transform="translate(-0.001 5.156)">
        <g id="_x30_19---Technology-Engineering" transform="translate(0 0)">
          <path id="Shape_133_" d="M1.823,42.96l4.26.7a26.235,26.235,0,0,0,3.8,9.146L7.355,56.325a1.992,1.992,0,0,0,.022,2.388A29.176,29.176,0,0,0,9.4,60.942c.719.72,1.46,1.384,2.224,2.026a1.992,1.992,0,0,0,2.39.022l3.518-2.524a26.185,26.185,0,0,0,9.139,3.8l.7,4.263a1.972,1.972,0,0,0,1.7,1.66c.606.069,1.217.111,1.841.142a1.114,1.114,0,0,0,1.168-1.1V60.357a1.113,1.113,0,0,0-1.075-1.106,21.039,21.039,0,0,1,0-42.021,1.113,1.113,0,0,0,1.075-1.106V7.263a1.113,1.113,0,0,0-1.165-1.106q-.933.039-1.844.131a2,2,0,0,0-1.7,1.673l-.7,4.263a26.21,26.21,0,0,0-9.139,3.8L14.016,13.5a1.991,1.991,0,0,0-2.39.022A29.434,29.434,0,0,0,9.4,15.545a25.54,25.54,0,0,0-2.025,2.229,1.991,1.991,0,0,0-.022,2.392l2.523,3.521a26.236,26.236,0,0,0-3.8,9.142l-4.26.7a1.973,1.973,0,0,0-1.66,1.705,27.4,27.4,0,0,0,0,5.975,2,2,0,0,0,1.66,1.754Z" transform="translate(0.001 -6.156)" fill="#fff"/>
          <path id="Shape_132_" d="M160.1,151.127a16.6,16.6,0,0,0,0,33.127,1.016,1.016,0,0,0,1.058-1.025V152.151a1.016,1.016,0,0,0-1.058-1.025Z" transform="translate(-129.074 -135.602)" fill="#fff"/>
          <path id="Shape_131_" d="M325.821,41.1h-5.532v2.213h5.532a3.329,3.329,0,0,0,3.319-3.319V33.153a3.319,3.319,0,1,0-2.213,0v6.842A1.106,1.106,0,0,1,325.821,41.1Z" transform="translate(-285.992 -24.504)" fill="#fff"/>
          <path id="Shape_130_" d="M320.288,204.7h11.064a1.106,1.106,0,0,0,0-2.213H320.288Z" transform="translate(-285.991 -181.464)" fill="#fff"/>
          <path id="Shape_129_" d="M320.288,432.019h5.532a1.106,1.106,0,0,1,1.106,1.106v6.842a3.319,3.319,0,1,0,2.213,0v-6.842a3.329,3.329,0,0,0-3.319-3.319h-5.532v2.213Z" transform="translate(-285.991 -384.441)" fill="#fff"/>
          <path id="Shape_128_" d="M336.884,347.145h-16.6v2.213h16.6a1.106,1.106,0,0,1,1.106,1.106V356.2a3.319,3.319,0,1,0,2.213,0v-5.736A3.329,3.329,0,0,0,336.884,347.145Z" transform="translate(-285.991 -310.632)" fill="#fff"/>
          <path id="Shape_127_" d="M347.949,274.816a3.319,3.319,0,0,0-3.116,2.213H320.288v2.213h24.545a3.314,3.314,0,1,0,3.116-4.426Z" transform="translate(-285.991 -246.048)" fill="#fff"/>
          <path id="Shape_126_" d="M332.459,389.581a1.106,1.106,0,0,0-1.106-1.106H320.288v2.213h11.064A1.106,1.106,0,0,0,332.459,389.581Z" transform="translate(-285.991 -347.536)" fill="#fff"/>
          <path id="Shape_125_" d="M340.2,131.883v-5.736a3.319,3.319,0,1,0-2.213,0v5.736a1.106,1.106,0,0,1-1.106,1.106h-16.6V135.2h16.6A3.329,3.329,0,0,0,340.2,131.883Z" transform="translate(-285.99 -107.54)" fill="#fff"/>
        </g>
      </g>
    </g>
  </g>
</svg>
