<svg xmlns="http://www.w3.org/2000/svg" width="101" height="101" viewBox="0 0 101 101">
  <g id="Grupo_953467" data-name="Grupo 953467" transform="translate(-749.966 -6053)">
    <circle id="Elipse_1146" data-name="Elipse 1146" cx="50.5" cy="50.5" r="50.5" transform="translate(749.966 6053)" fill="#785549"/>
    <g id="innovacion" transform="translate(769.228 6072.942)">
      <path id="Trazado_657946" data-name="Trazado 657946" d="M7.212,212.8a1.8,1.8,0,0,0-1.8-1.8H1.8a1.8,1.8,0,1,0,0,3.606H5.409A1.8,1.8,0,0,0,7.212,212.8Zm0,0" transform="translate(0 -185.638)" fill="#f6f6f6"/>
      <path id="Trazado_657947" data-name="Trazado 657947" d="M457.409,211H453.8a1.8,1.8,0,1,0,0,3.606h3.606a1.8,1.8,0,1,0,0-3.606Zm0,0" transform="translate(-397.669 -185.638)" fill="#f6f6f6"/>
      <path id="Trazado_657948" data-name="Trazado 657948" d="M38.976,93.038l-3.124-1.8a1.8,1.8,0,0,0-1.8,3.123l3.124,1.8a1.8,1.8,0,1,0,1.8-3.123Zm0,0" transform="translate(-29.163 -80.055)" fill="#f6f6f6"/>
      <path id="Trazado_657949" data-name="Trazado 657949" d="M428.684,318.044l-3.124-1.8a1.8,1.8,0,0,0-1.8,3.123l3.124,1.8a1.8,1.8,0,1,0,1.8-3.123Zm0,0" transform="translate(-372.026 -278.016)" fill="#f6f6f6"/>
      <path id="Trazado_657950" data-name="Trazado 657950" d="M123.038,5.827a1.8,1.8,0,0,0,3.123-1.8L124.358.9a1.8,1.8,0,0,0-3.123,1.8Zm0,0" transform="translate(-106.449 0)" fill="#f6f6f6"/>
      <path id="Trazado_657951" data-name="Trazado 657951" d="M37.173,316.241l-3.124,1.8a1.8,1.8,0,0,0,1.8,3.123l3.124-1.8a1.8,1.8,0,0,0-1.8-3.123Zm0,0" transform="translate(-29.163 -278.016)" fill="#f6f6f6"/>
      <path id="Trazado_657952" data-name="Trazado 657952" d="M425.559,96.161l3.124-1.8a1.8,1.8,0,1,0-1.8-3.123l-3.124,1.8a1.8,1.8,0,1,0,1.8,3.123Zm0,0" transform="translate(-372.026 -80.055)" fill="#f6f6f6"/>
      <path id="Trazado_657953" data-name="Trazado 657953" d="M346.895,6.489a1.8,1.8,0,0,0,2.463-.66l1.8-3.124A1.8,1.8,0,0,0,348.037.9l-1.8,3.124A1.8,1.8,0,0,0,346.895,6.489Zm0,0" transform="translate(-304.403 -0.002)" fill="#f6f6f6"/>
      <path id="Trazado_657954" data-name="Trazado 657954" d="M123.388,65.481a19.954,19.954,0,0,0-16.752-3.993A19.734,19.734,0,0,0,91.354,77.366a19.958,19.958,0,0,0,5.816,17.84,15.184,15.184,0,0,1,4.512,9.11h7.4V95.847l-6.811-10.216-3.479-3.479a1.8,1.8,0,0,1,2.55-2.55l2.331,2.331L106,79.6a1.8,1.8,0,0,1,2.55,0l2.331,2.331,2.331-2.331a1.8,1.8,0,0,1,2.55,0l2.331,2.331,2.331-2.331a1.8,1.8,0,0,1,2.55,2.55L119.5,85.631l-6.811,10.216v8.469h7.3a13.621,13.621,0,0,1,4.494-9,19.835,19.835,0,0,0-1.09-29.84Zm0,0" transform="translate(-80.113 -53.712)" fill="#f6f6f6"/>
      <path id="Trazado_657955" data-name="Trazado 657955" d="M223.8,247.211l-2.331,2.331a1.8,1.8,0,0,1-2.55,0l-2.331-2.331L215.3,248.5l4.892,7.338,4.892-7.338Zm0,0" transform="translate(-189.421 -217.496)" fill="#f6f6f6"/>
      <path id="Trazado_657956" data-name="Trazado 657956" d="M181,452.923a5.415,5.415,0,0,0,5.409,5.409h7.212a5.415,5.415,0,0,0,5.409-5.409V451H181Zm0,0" transform="translate(-159.243 -396.789)" fill="#f6f6f6"/>
    </g>
  </g>
</svg>
