<svg xmlns="http://www.w3.org/2000/svg" width="85" height="85" viewBox="0 0 85 85">
  <g id="Grupo_953492" data-name="Grupo 953492" transform="translate(-292.966 -6976)">
    <circle id="Elipse_4885" data-name="Elipse 4885" cx="42.5" cy="42.5" r="42.5" transform="translate(292.966 6976)" fill="#fd9827"/>
    <g id="libro-electronico" transform="translate(308.388 6991.892)">
      <path id="Trazado_658455" data-name="Trazado 658455" d="M171.258,328.621h-7.517c0,11.571-7.05,17.494-7.05,17.494h21.617S171.258,340.192,171.258,328.621Zm0,0" transform="translate(-139.638 -292.855)" fill="#426175"/>
      <path id="Trazado_658456" data-name="Trazado 658456" d="M241.361,328.621h-6.006c0,11.571,7.05,17.494,7.05,17.494h6.006S241.361,340.192,241.361,328.621Zm0,0" transform="translate(-209.74 -292.855)" fill="#2c4456"/>
      <path id="Trazado_658457" data-name="Trazado 658457" d="M158.9,460.426H134.328a1.071,1.071,0,0,1-1.071-1.071,3.413,3.413,0,0,1,3.413-3.413h19.891a3.413,3.413,0,0,1,3.413,3.413,1.071,1.071,0,0,1-1.071,1.071Zm0,0" transform="translate(-118.754 -406.318)" fill="#cdd6df"/>
      <path id="Trazado_658458" data-name="Trazado 658458" d="M53.559,42.405H2.166A2.166,2.166,0,0,1,0,40.239V2.166A2.166,2.166,0,0,1,2.166,0H53.559a2.166,2.166,0,0,1,2.166,2.166V40.239a2.166,2.166,0,0,1-2.166,2.166Zm0,0" transform="translate(-0.001 0)" fill="#426175"/>
      <path id="Trazado_658459" data-name="Trazado 658459" d="M442.785,0h-6.023a2.166,2.166,0,0,1,2.166,2.166V40.239a2.166,2.166,0,0,1-2.166,2.166h6.023a2.166,2.166,0,0,0,2.166-2.166V2.166A2.166,2.166,0,0,0,442.785,0Zm0,0" transform="translate(-389.227)" fill="#2c4456"/>
      <path id="Trazado_658460" data-name="Trazado 658460" d="M28.844,29.875H78.29V59.418H28.844Zm0,0" transform="translate(-25.705 -26.624)" fill="#785549"/>
      <path id="Trazado_658461" data-name="Trazado 658461" d="M0,332.219V336.3a2.166,2.166,0,0,0,2.166,2.166H53.559a2.166,2.166,0,0,0,2.166-2.166v-4.082Zm0,0" transform="translate(0 -296.062)" fill="#cdd6df"/>
      <path id="Trazado_658462" data-name="Trazado 658462" d="M444.95,332.219h-6.023V336.3a2.166,2.166,0,0,1-2.166,2.166h6.023a2.166,2.166,0,0,0,2.166-2.166Zm0,0" transform="translate(-389.226 -296.062)" fill="#abb2ba"/>
      <path id="Trazado_658463" data-name="Trazado 658463" d="M256,5.411V34.953l19.208-3.045a1.543,1.543,0,0,0,1.3-1.524V3.966a1.543,1.543,0,0,0-1.784-1.524Zm0,0" transform="translate(-228.138 -2.159)" fill="#cdd6df"/>
      <path id="Trazado_658464" data-name="Trazado 658464" d="M428.971,2.454a1.535,1.535,0,0,0-.37,0Zm0,0" transform="translate(-381.954 -2.177)" fill="#cdd6df"/>
      <path id="Trazado_658465" data-name="Trazado 658465" d="M88.068,5.411V34.953L68.86,31.908a1.543,1.543,0,0,1-1.3-1.524V3.966a1.543,1.543,0,0,1,1.784-1.524Zm0,0" transform="translate(-60.206 -2.159)" fill="#f2f2f2"/>
      <g id="Grupo_953288" data-name="Grupo 953288" transform="translate(9.988 8.515)">
        <path id="Trazado_658466" data-name="Trazado 658466" d="M281.048,82.07a.841.841,0,0,1-.131-1.672l13.558-2.149a.841.841,0,1,1,.263,1.661l-13.558,2.149A.829.829,0,0,1,281.048,82.07Zm0,0" transform="translate(-259.699 -78.238)" fill="#12263f"/>
        <path id="Trazado_658467" data-name="Trazado 658467" d="M106.167,82.066a.827.827,0,0,1-.133-.011l-13.558-2.15a.841.841,0,0,1,.263-1.661l13.558,2.15a.841.841,0,0,1-.131,1.672Zm0,0" transform="translate(-91.767 -78.234)" fill="#12263f"/>
        <path id="Trazado_658468" data-name="Trazado 658468" d="M281.048,139.723a.841.841,0,0,1-.131-1.671l13.558-2.15a.841.841,0,0,1,.263,1.661l-13.558,2.15A.881.881,0,0,1,281.048,139.723Zm0,0" transform="translate(-259.699 -129.616)" fill="#12263f"/>
        <path id="Trazado_658469" data-name="Trazado 658469" d="M106.167,139.722a.826.826,0,0,1-.133-.011l-13.558-2.149a.841.841,0,1,1,.263-1.661L106.3,138.05a.841.841,0,0,1-.131,1.672Zm0,0" transform="translate(-91.767 -129.615)" fill="#12263f"/>
        <path id="Trazado_658470" data-name="Trazado 658470" d="M281.048,206.175a.841.841,0,0,1-.131-1.672l6.779-1.075a.841.841,0,1,1,.263,1.661l-6.779,1.075A.831.831,0,0,1,281.048,206.175Zm0,0" transform="translate(-259.699 -189.793)" fill="#12263f"/>
        <path id="Trazado_658471" data-name="Trazado 658471" d="M106.167,197.374a.829.829,0,0,1-.133-.011l-13.558-2.15a.841.841,0,1,1,.263-1.661L106.3,195.7a.841.841,0,0,1-.131,1.672Zm0,0" transform="translate(-91.767 -180.993)" fill="#12263f"/>
      </g>
    </g>
    <rect id="Rectángulo_48403" data-name="Rectángulo 48403" width="32" height="31" transform="translate(345.966 7030)" fill="#fff"/>
    <text id="_01" data-name="01" transform="translate(350.966 7053)" fill="#785549" font-size="20" font-family="Roboto-Black, Roboto" font-weight="800"><tspan x="0" y="0">01</tspan></text>
  </g>
</svg>
