<svg xmlns="http://www.w3.org/2000/svg" xmlns:xlink="http://www.w3.org/1999/xlink" width="85" height="85" viewBox="0 0 85 85">
  <defs>
    <clipPath id="clip-path">
      <circle id="Elipse_4914" data-name="Elipse 4914" cx="42.5" cy="42.5" r="42.5" transform="translate(602.966 6976)" fill="#fd9827"/>
    </clipPath>
  </defs>
  <g id="Grupo_953493" data-name="Grupo 953493" transform="translate(-602.966 -6976)">
    <circle id="Elipse_4886" data-name="Elipse 4886" cx="42.5" cy="42.5" r="42.5" transform="translate(602.966 6976)" fill="#fd9827"/>
    <g id="Enmascarar_grupo_952123" data-name="Enmascarar grupo 952123" clip-path="url(#clip-path)">
      <g id="elearning" transform="translate(614.966 6990.932)">
        <path id="Trazado_658472" data-name="Trazado 658472" d="M6.4,211.246l.234-6.285a6.648,6.648,0,0,1,1.152-3.5l4.279-6.27a8.6,8.6,0,0,0,.125-9.506l-7.376-11.45L0,190.83l1.935,20.654,3.708.416A.684.684,0,0,0,6.4,211.246Z" transform="translate(51.812 -151.987)" fill="#f1d0a5"/>
        <path id="Trazado_658473" data-name="Trazado 658473" d="M64.611,36.956a3.384,3.384,0,0,0,3.384,3.384h50.36a3.384,3.384,0,0,0,3.384-3.384V3.384A3.384,3.384,0,0,0,118.354,0H67.995a3.384,3.384,0,0,0-3.384,3.384Z" transform="translate(-64.611 0)" fill="#365e7d"/>
        <path id="Trazado_658474" data-name="Trazado 658474" d="M467.507,3.384A3.384,3.384,0,0,1,470.891,0h2.3A3.384,3.384,0,0,0,469.8,3.384V36.956a3.384,3.384,0,0,0,3.384,3.384h-2.3a3.384,3.384,0,0,1-3.384-3.384Z" transform="translate(-467.507 0)" fill="#2b4d66"/>
        <path id="Trazado_658475" data-name="Trazado 658475" d="M111.307,35.276h46.315a.19.19,0,0,1,.184.195V66.412a.19.19,0,0,1-.184.195H111.307a.19.19,0,0,1-.184-.195V35.471A.19.19,0,0,1,111.307,35.276Z" transform="translate(-106.618 -30.772)" fill="#d3effb"/>
        <path id="Trazado_658476" data-name="Trazado 658476" d="M456.216,35.276h2.458a.19.19,0,0,0-.184.195V66.412a.19.19,0,0,0,.184.195h-2.458a.19.19,0,0,1-.184-.195V35.471A.19.19,0,0,1,456.216,35.276Z" transform="translate(-451.528 -30.772)" fill="#b1e4f9"/>
        <g id="Grupo_953289" data-name="Grupo 953289" transform="translate(53.142 18.381)">
          <path id="Trazado_658477" data-name="Trazado 658477" d="M81.355,147.529a.986.986,0,0,0,.987-.987v-1.6a.987.987,0,0,0-1.973,0v1.6A.986.986,0,0,0,81.355,147.529Z" transform="translate(-80.368 -143.951)" fill="#2b4d66"/>
        </g>
        <path id="Trazado_658478" data-name="Trazado 658478" d="M69.961,256.336l-.106-4.55a7.863,7.863,0,0,0-.437-2.409A6.606,6.606,0,0,1,70.554,243a1.184,1.184,0,0,0,.122-1.325l-6.231-11.258a2.318,2.318,0,0,1,3.732-2.694l10.365,11.24L77.86,246.8,75.1,257.491,70.571,257a.684.684,0,0,1-.61-.664Z" transform="translate(-21.357 -197.994)" fill="#f1d0a5"/>
        <path id="Trazado_658479" data-name="Trazado 658479" d="M91.3,230.427a2.316,2.316,0,0,1,3.451-2.949,2.312,2.312,0,0,0-.6,2.949l6.231,11.258a1.183,1.183,0,0,1-.122,1.325,6.606,6.606,0,0,0-1.136,6.376,7.858,7.858,0,0,1,.437,2.41l.073,3.138a2.294,2.294,0,0,0,2.046,2.227l.051.005a.268.268,0,0,1,.231.334l-4.533-.491a.684.684,0,0,1-.61-.664l-.1-4.41a8.261,8.261,0,0,0-.439-2.543,6.606,6.606,0,0,1,1.134-6.382,1.183,1.183,0,0,0,.122-1.325Z" transform="translate(-48.212 -198.004)" fill="#f1b986"/>
        <path id="Trazado_658480" data-name="Trazado 658480" d="M300.867,194.6h13.244a1.694,1.694,0,0,0,1.694-1.694V188.66a1.694,1.694,0,0,0-1.694-1.694H300.867a1.694,1.694,0,0,0-1.694,1.694v4.251A1.694,1.694,0,0,0,300.867,194.6Z" transform="translate(-288.629 -163.092)" fill="#80e29d"/>
        <path id="Trazado_658481" data-name="Trazado 658481" d="M397.3,186.965h2.624a1.694,1.694,0,0,0-1.694,1.694v4.251a1.694,1.694,0,0,0,1.694,1.694H397.3a1.694,1.694,0,0,1-1.694-1.694v-4.251A1.694,1.694,0,0,1,397.3,186.965Z" transform="translate(-385.065 -163.092)" fill="#66b49d"/>
        <g id="Grupo_953290" data-name="Grupo 953290" transform="translate(1.991 43.792)">
          <path id="Trazado_658482" data-name="Trazado 658482" d="M289.624,364.542a.779.779,0,0,1-.779-.779v-3.8a4.581,4.581,0,0,0-.686-2.425l-1.959-3.13a5.835,5.835,0,0,1-.546-4.951l.928-2.7,1.794-3.8h13.257l3.046,3.8,4.559-2.22a2.029,2.029,0,0,1,2.429.512,2.569,2.569,0,0,1-.028,3.384l-5.91,6.4a4.07,4.07,0,0,0-1.049,2.757l.366,11.713s-.349.779-.779.779l-14.643-5.539Z" transform="translate(-285.339 -342.957)" fill="#f1d0a5"/>
        </g>
        <g id="Grupo_953291" data-name="Grupo 953291" transform="translate(1.991 43.719)">
          <path id="Trazado_658483" data-name="Trazado 658483" d="M449.954,348.955l.928-2.7,1.794-3.8,2.086-.073-1.617,3.873-.725,2.7a5.834,5.834,0,0,0,.545,4.951l1.959,3.13a4.582,4.582,0,0,1,.686,2.425v4.581h-1.686a.779.779,0,0,1-.779-.779v-3.8a4.582,4.582,0,0,0-.686-2.425l-1.959-3.13A5.834,5.834,0,0,1,449.954,348.955Z" transform="translate(-449.638 -342.384)" fill="#f1b986"/>
        </g>
        <g id="Grupo_953292" data-name="Grupo 953292" transform="translate(3.236 28.22)">
          <path id="Trazado_658484" data-name="Trazado 658484" d="M344.934,240.374V223.494a2.273,2.273,0,1,1,4.524,0v16.88h-4.524Z" transform="translate(-331.361 -221.002)" fill="#f1d0a5"/>
          <path id="Trazado_658485" data-name="Trazado 658485" d="M380.366,312.534v-7.3a1.612,1.612,0,0,1,1.7-1.512h1.133a1.612,1.612,0,0,1,1.7,1.512v7.3Z" transform="translate(-371.317 -293.162)" fill="#f1d0a5"/>
          <path id="Trazado_658486" data-name="Trazado 658486" d="M415.8,312.534v-7.3a1.612,1.612,0,0,1,1.7-1.512h1.133a1.612,1.612,0,0,1,1.7,1.512v7.3Z" transform="translate(-411.274 -293.162)" fill="#f1d0a5"/>
          <path id="Trazado_658487" data-name="Trazado 658487" d="M451.229,312.534v-7.3a1.612,1.612,0,0,1,1.7-1.512h1.133a1.612,1.612,0,0,1,1.7,1.512v7.3Z" transform="translate(-451.229 -293.162)" fill="#f1d0a5"/>
        </g>
        <path id="Trazado_658488" data-name="Trazado 658488" d="M461.782,303.725h1.134a1.875,1.875,0,0,1,.564.088,1.534,1.534,0,0,0-1.131,1.424v7.3h-2.262v-7.3A1.612,1.612,0,0,1,461.782,303.725Z" transform="translate(-456.851 -264.943)" fill="#f1b986"/>
        <g id="Grupo_953293" data-name="Grupo 953293" transform="translate(15.822 39.308)">
          <path id="Trazado_658489" data-name="Trazado 658489" d="M373.626,317.112a.986.986,0,0,0,.987-.987v-7.3a.987.987,0,0,0-1.973,0v7.3A.986.986,0,0,0,373.626,317.112Z" transform="translate(-372.64 -307.842)" fill="#f1b986"/>
        </g>
        <g id="Grupo_953294" data-name="Grupo 953294" transform="translate(11.297 39.308)">
          <path id="Trazado_658490" data-name="Trazado 658490" d="M409.059,317.112a.986.986,0,0,0,.987-.987v-7.3a.987.987,0,1,0-1.973,0v7.3A.987.987,0,0,0,409.059,317.112Z" transform="translate(-408.072 -307.842)" fill="#f1b986"/>
        </g>
        <g id="Grupo_953295" data-name="Grupo 953295" transform="translate(6.773 39.308)">
          <path id="Trazado_658491" data-name="Trazado 658491" d="M444.488,317.112a.986.986,0,0,0,.987-.987v-7.3a.987.987,0,1,0-1.973,0v7.3A.986.986,0,0,0,444.488,317.112Z" transform="translate(-443.502 -307.842)" fill="#f1b986"/>
        </g>
        <path id="Trazado_658492" data-name="Trazado 658492" d="M167.8,119.055a15.4,15.4,0,0,0,12.35,0,1.068,1.068,0,0,0,.657-.984v-9.894H167.142v9.894A1.068,1.068,0,0,0,167.8,119.055Z" transform="translate(-136.771 -94.364)" fill="#4a80aa"/>
        <path id="Trazado_658493" data-name="Trazado 658493" d="M171.228,108.176v9.113a1.068,1.068,0,0,0,.657.984,15.311,15.311,0,0,0,10.922.527,1.069,1.069,0,0,1-.364.253,15.4,15.4,0,0,1-12.35,0,1.068,1.068,0,0,1-.657-.984v-9.894h1.792Z" transform="translate(-139.065 -94.363)" fill="#407093"/>
        <path id="Trazado_658494" data-name="Trazado 658494" d="M136.909,68.9l10.47,5.761a.238.238,0,0,0,.23,0l10.47-5.761a.238.238,0,0,0,0-.417l-10.47-5.761a.238.238,0,0,0-.23,0l-10.47,5.761A.238.238,0,0,0,136.909,68.9Z" transform="translate(-110.292 -54.69)" fill="#365e7d"/>
        <path id="Trazado_658495" data-name="Trazado 658495" d="M206.735,68.487l10.47-5.761a.238.238,0,0,1,.23,0l1.677.923-8.793,4.838a.238.238,0,0,0,0,.417l8.793,4.838-1.677.923a.238.238,0,0,1-.23,0L206.735,68.9A.238.238,0,0,1,206.735,68.487Z" transform="translate(-180.117 -54.69)" fill="#2b4d66"/>
        <g id="Grupo_953296" data-name="Grupo 953296" transform="translate(33.101 13.019)">
          <path id="Trazado_658496" data-name="Trazado 658496" d="M212.877,111.536a.986.986,0,0,0,.987-.987v-3.431l3.012-3.536a.987.987,0,0,0-1.5-1.279l-3.247,3.812a.987.987,0,0,0-.235.64v3.794A.986.986,0,0,0,212.877,111.536Z" transform="translate(-211.891 -101.956)" fill="#407093"/>
        </g>
        <g id="Grupo_953297" data-name="Grupo 953297" transform="translate(13.56 12.086)">
          <path id="Trazado_658497" data-name="Trazado 658497" d="M333.489,96.628h7.387a.987.987,0,0,0,0-1.973h-7.387a.987.987,0,1,0,0,1.973Z" transform="translate(-332.502 -94.655)" fill="#2b4d66"/>
        </g>
        <g id="Grupo_953298" data-name="Grupo 953298" transform="translate(8.298 16.613)">
          <path id="Trazado_658498" data-name="Trazado 658498" d="M333.49,132.074h12.649a.987.987,0,1,0,0-1.973H333.49a.987.987,0,1,0,0,1.973Z" transform="translate(-332.503 -130.101)" fill="#2b4d66"/>
        </g>
      </g>
    </g>
    <rect id="Rectángulo_48404" data-name="Rectángulo 48404" width="32" height="31" transform="translate(655.966 7030)" fill="#fff"/>
    <text id="_02" data-name="02" transform="translate(660.966 7053)" fill="#785549" font-size="20" font-family="Roboto-Black, Roboto" font-weight="800"><tspan x="0" y="0">02</tspan></text>
  </g>
</svg>
