<svg xmlns="http://www.w3.org/2000/svg" width="101" height="101" viewBox="0 0 101 101">
  <g id="Grupo_953470" data-name="Grupo 953470" transform="translate(-749.966 -6537)">
    <circle id="Elipse_1150" data-name="Elipse 1150" cx="50.5" cy="50.5" r="50.5" transform="translate(749.966 6537)" fill="#785549"/>
    <path id="personas_2_" data-name="personas(2)" d="M51.915,109.706H14.45a2.141,2.141,0,0,1-2.141-2.141v-6.338a7.671,7.671,0,0,1,4.539-7c8.019-3.581,7.579-3.459,8.2-3.459H27.6A2.141,2.141,0,0,1,29.676,92.4a3.616,3.616,0,0,0,7.014,0,2.141,2.141,0,0,1,2.079-1.629c2.738,0,2.879-.054,3.417.186l7.331,3.273a7.671,7.671,0,0,1,4.539,7v6.338a2.141,2.141,0,0,1-2.141,2.141Zm-18.68-50.53A13.077,13.077,0,1,0,46.312,72.253,13.091,13.091,0,0,0,33.235,59.176ZM12.606,73.163A8.234,8.234,0,1,0,20.84,81.4,8.243,8.243,0,0,0,12.606,73.163Zm41.152,0A8.234,8.234,0,1,0,61.992,81.4,8.243,8.243,0,0,0,53.759,73.163Zm9.516,19.612c-4.454-1.989-4.348-2.01-4.957-2.01-3.189,0-5.275-.022-6.686-.029a1.338,1.338,0,0,0-.624,2.524,7.69,7.69,0,0,1,2.369,1.787,9.26,9.26,0,0,1,2.34,6.827,1.337,1.337,0,0,0,1.338,1.337h7.171a2.141,2.141,0,0,0,2.141-2.141V97.54a5.225,5.225,0,0,0-3.091-4.765ZM8.048,90.766c-.607,0-.487.013-4.957,2.01A5.225,5.225,0,0,0,0,97.54v3.531a2.141,2.141,0,0,0,2.141,2.141h7.17a1.337,1.337,0,0,0,1.338-1.338,9.217,9.217,0,0,1,2.341-6.826,7.711,7.711,0,0,1,2.348-1.778,1.338,1.338,0,0,0-.619-2.525c-1.419,0-3.505.021-6.671.021Z" transform="translate(766.817 6499.252)" fill="#fff"/>
  </g>
</svg>
