<svg xmlns="http://www.w3.org/2000/svg" width="101" height="101" viewBox="0 0 101 101">
  <g id="Grupo_953469" data-name="Grupo 953469" transform="translate(-749.966 -6376)">
    <circle id="Elipse_1145" data-name="Elipse 1145" cx="50.5" cy="50.5" r="50.5" transform="translate(749.966 6376)" fill="#785549"/>
    <g id="folder" transform="translate(769.568 6398.697)">
      <path id="Trazado_657964" data-name="Trazado 657964" d="M54.54,18.032V13.737a4.3,4.3,0,0,0-4.295-4.295H28.77C28.877,6.393,28.018,3,24.11,3H11.891c-4.6,0-4.6,3.887-4.6,6.442v8.59A4.3,4.3,0,0,0,3,22.327V54.54a4.3,4.3,0,0,0,4.295,4.295H54.54a4.3,4.3,0,0,0,4.295-4.295V22.327A4.3,4.3,0,0,0,54.54,18.032ZM18.032,41.655H28.77a2.147,2.147,0,1,1,0,4.295H18.032a2.147,2.147,0,0,1,0-4.295ZM43.8,35.212H18.032a2.147,2.147,0,1,1,0-4.295H43.8a2.147,2.147,0,1,1,0,4.295ZM11.59,9.442a15.741,15.741,0,0,1,0-2.147H24.217c.816,1.761-1.1,6.442,2.319,6.442H50.245v4.295H11.59Z" transform="translate(0 -4)" fill="#fff"/>
    </g>
  </g>
</svg>
