<svg xmlns="http://www.w3.org/2000/svg" width="85" height="85" viewBox="0 0 85 85">
  <g id="Grupo_159442" data-name="Grupo 159442" transform="translate(-390 -9107)">
    <circle id="Elipse_4798" data-name="Elipse 4798" cx="42.5" cy="42.5" r="42.5" transform="translate(390 9107)" fill="#636363"/>
    <g id="informacion_1_" data-name="informacion(1)" transform="translate(389.998 9106)">
      <path id="Trazado_600859" data-name="Trazado 600859" d="M126.345,355.894l-20.017,12.827a7.337,7.337,0,0,1-3.892,1.138H74.351c-6.827,0-8.676-3.5-8.676-3.5v-.375H61.795V350.463h3.879v.091c3.453-5.263,12.064-5.263,12.064-5.263H78.4a9.523,9.523,0,0,1,6.09,2.224,9.426,9.426,0,0,0,6.077,2.25h5.586a5.3,5.3,0,0,1,4.59,2.7l.091.155a4.192,4.192,0,0,1-.5,4.862h2.444a3.964,3.964,0,0,0,1.345-.22l19.758-6.944a2.964,2.964,0,0,1,.957-.155,2.879,2.879,0,0,1,2.328,1.228,3.216,3.216,0,0,1-.815,4.5Z" transform="translate(-52.742 -293.859)" fill="#f1c491"/>
      <path id="Trazado_600860" data-name="Trazado 600860" d="M255.857,22.984a21.98,21.98,0,0,1-21.982,21.982,21.761,21.761,0,0,1-6.711-1.047l-6.22,4.927V40.751a21.979,21.979,0,1,1,34.913-17.767Z" transform="translate(-180.857 0)" fill="#fd9827"/>
      <path id="Trazado_600861" data-name="Trazado 600861" d="M1.3,362.946H11.64a1.293,1.293,0,0,1,1.293,1.293v18.1a1.293,1.293,0,0,1-1.293,1.293H1.3A1.293,1.293,0,0,1,0,382.342v-18.1A1.293,1.293,0,0,1,1.3,362.946Z" transform="translate(0 -308.928)" fill="#c0c942"/>
      <path id="Trazado_600862" data-name="Trazado 600862" d="M27.76,453.773a1.3,1.3,0,1,1,.918-2.211,1.362,1.362,0,0,1,.375.918,1.29,1.29,0,0,1-.1.491,1.494,1.494,0,0,1-.272.427A1.364,1.364,0,0,1,27.76,453.773Z" transform="translate(-22.586 -384.238)" fill="#3d324c"/>
      <path id="Trazado_600863" data-name="Trazado 600863" d="M213.159,424.559a1.293,1.293,0,0,1-.744-2.351l.775-.544a10.581,10.581,0,0,1,6.07-1.937h7.053a1.293,1.293,0,1,1,0,2.586H219.26a8.007,8.007,0,0,0-4.589,1.471l-.772.541A1.287,1.287,0,0,1,213.159,424.559Z" transform="translate(-180.829 -357.391)" fill="#daa971"/>
      <g id="Grupo_159441" data-name="Grupo 159441" transform="translate(47.845 8.761)">
        <ellipse id="Elipse_4803" data-name="Elipse 4803" cx="3" cy="2.5" rx="3" ry="2.5" transform="translate(2.157 0.239)" fill="#fff"/>
        <path id="Trazado_600864" data-name="Trazado 600864" d="M329.209,129.773v7.758h-2.586V142.7h10.344v-5.172h-2.586V124.6h-7.758v5.172Z" transform="translate(-326.623 -114.257)" fill="#fff"/>
      </g>
    </g>
  </g>
</svg>
