<svg xmlns="http://www.w3.org/2000/svg" xmlns:xlink="http://www.w3.org/1999/xlink" width="85" height="85" viewBox="0 0 85 85">
  <defs>
    <clipPath id="clip-path">
      <circle id="Elipse_4800" data-name="Elipse 4800" cx="42.5" cy="42.5" r="42.5" transform="translate(293 7506)" fill="#fd9827"/>
    </clipPath>
  </defs>
  <g id="Grupo_953459" data-name="Grupo 953459" transform="translate(-603 -7536)">
    <circle id="Elipse_4795" data-name="Elipse 4795" cx="42.5" cy="42.5" r="42.5" transform="translate(603 7536)" fill="#fd9827"/>
    <g id="Enmascarar_grupo_97" data-name="Enmascarar grupo 97" transform="translate(310 30)" clip-path="url(#clip-path)">
      <g id="profesor" transform="translate(298.347 7512.291)">
        <path id="Trazado_600768" data-name="Trazado 600768" d="M305.341,23.167H275.648l-.4,1.18,2.768,5.059,1.5,10.29L277.38,52.975,273.938,55.1,271.006,61.2l.862,1.667,13.538,5.162,4.081,2.814,2,3.234,1.556.946h12.3a5.525,5.525,0,0,0,5.519-5.519V28.686a5.524,5.524,0,0,0-5.518-5.519Z" transform="translate(-223.206 -19.289)" fill="#ffe02f"/>
        <path id="Trazado_600769" data-name="Trazado 600769" d="M227.932,24.39l3.708,5.346V39.5L223.1,59.387v8.468L243.8,75.019h9.36a16.15,16.15,0,0,0-8.064-7.611l-.1-.04-12.212-4.732a1.468,1.468,0,0,1-.65-2.248,17.726,17.726,0,0,0,2.347-4.207,1.462,1.462,0,0,1,.888-.862,10.106,10.106,0,0,0,4.991-15.5,1.461,1.461,0,0,1-.276-.856V36.389a22.339,22.339,0,0,0-4.317-13.221h-6.987Z" transform="translate(-183.322 -19.29)" fill="#fbc700"/>
        <path id="Trazado_600770" data-name="Trazado 600770" d="M305.341,54.073h-27.91l.583,1.065,1.5,10.29L277.38,78.707l-3.442,2.127-2.932,6.093.862,1.667,13.538,5.162,2.64,1.82h17.295a.345.345,0,0,0,.345-.345V54.418a.345.345,0,0,0-.345-.345Z" transform="translate(-223.206 -45.021)" fill="#98d829"/>
        <path id="Trazado_600771" data-name="Trazado 600771" d="M231.639,55.468V69.624L223.1,85.92v6.636l11.8,4.345,2.155-1.324H249.07a15.017,15.017,0,0,0-3.977-2.437l-.1-.04-12.212-4.732a1.468,1.468,0,0,1-.65-2.248,17.726,17.726,0,0,0,2.347-4.207,1.462,1.462,0,0,1,.888-.862,10.106,10.106,0,0,0,4.991-15.5,1.461,1.461,0,0,1-.276-.856V62.121a22.35,22.35,0,0,0-1.493-8.048h-5.611Z" transform="translate(-183.322 -45.021)" fill="#8cc825"/>
        <g id="Grupo_159430" data-name="Grupo 159430" transform="translate(52.04 19.719)">
          <path id="Trazado_600772" data-name="Trazado 600772" d="M320.181,117.795H307.591a1.293,1.293,0,0,0-1.265,1.022l-2.844,13.253-1.95-5.655a1.293,1.293,0,0,0-1.223-.872h-2.682a1.293,1.293,0,0,0,0,2.587h1.76l3.163,9.172a1.293,1.293,0,0,0,1.222.872l.079,0a1.294,1.294,0,0,0,1.187-1.02l3.6-16.77h11.544a1.293,1.293,0,1,0,0-2.587Z" transform="translate(-296.334 -117.795)" fill="#dbedff"/>
          <path id="Trazado_600773" data-name="Trazado 600773" d="M390.232,170.593a1.293,1.293,0,0,0-1.811.257l-2.345,3.121-2.345-3.121a1.293,1.293,0,1,0-2.068,1.553l2.8,3.721-2.8,3.721a1.293,1.293,0,1,0,2.068,1.553l2.345-3.121,2.345,3.121a1.293,1.293,0,1,0,2.068-1.553l-2.8-3.721,2.8-3.721A1.293,1.293,0,0,0,390.232,170.593Z" transform="translate(-367.164 -161.538)" fill="#dbedff"/>
        </g>
        <path id="Trazado_600774" data-name="Trazado 600774" d="M89.8,296.81l-9.894-3.832-1.59,1.979H50.985l-1.436-2.01-7.076,2.764-1.289,1.543-2.228,4.124V328.7l1.1.919H94.292a2.243,2.243,0,0,0,2.243-2.243v-20.12A11.492,11.492,0,0,0,89.8,296.81Z" transform="translate(-30.001 -243.908)" fill="#bc7f7f"/>
        <path id="Trazado_600775" data-name="Trazado 600775" d="M9.534,338.3V314.679a11.571,11.571,0,0,1,4.657-9.234l-4.535,1.771a11.528,11.528,0,0,0-6.732,10.442v20.12a2.244,2.244,0,0,0,2.243,2.243h5.178a2.238,2.238,0,0,1-.811-1.726Z" transform="translate(0 -254.313)" fill="#b06c6c"/>
        <g id="Grupo_159431" data-name="Grupo 159431" transform="translate(12.013 60.731)">
          <path id="Trazado_600776" data-name="Trazado 600776" d="M315.753,387.767V364.082a1.293,1.293,0,1,0-2.587,0v23.685Z" transform="translate(-270.321 -362.789)" fill="#b06c6c"/>
          <path id="Trazado_600777" data-name="Trazado 600777" d="M59.809,387.767V364.082a1.293,1.293,0,0,0-2.587,0v23.685Z" transform="translate(-57.222 -362.789)" fill="#b06c6c"/>
        </g>
        <path id="Trazado_600778" data-name="Trazado 600778" d="M131.816,291.166l-1.676.381H103.927l-.917-.411v0l-.778.3a15.218,15.218,0,0,0,12.192,13.97l.827-.782h4.168l.983.782a15.218,15.218,0,0,0,12.19-13.938l-.776-.3Z" transform="translate(-82.685 -242.398)" fill="#b5dcff"/>
        <g id="Grupo_159432" data-name="Grupo 159432" transform="translate(17.871 0)">
          <path id="Trazado_600779" data-name="Trazado 600779" d="M150.775,4.144h-2.2l-8.048,5.494-3.277,5.45-.678,11.637h25.914l.376-.924V20.308A16.924,16.924,0,0,0,150.775,4.144Z" transform="translate(-129.144 -3.45)" fill="#7b6c79"/>
          <path id="Trazado_600780" data-name="Trazado 600780" d="M101.765,16.857A16.924,16.924,0,0,1,113.849.694,16.723,16.723,0,0,0,109.076,0,16.907,16.907,0,0,0,92.218,16.857V22.35l.7.924h9.547l-.7-.924Z" transform="translate(-92.218 0)" fill="#665e68"/>
        </g>
        <path id="Trazado_600781" data-name="Trazado 600781" d="M173.765,308.455l-.5.819.3.35v10.2a15.319,15.319,0,0,0,5.978,0V308.455Z" transform="translate(-141.829 -256.819)" fill="#dbedff"/>
        <path id="Trazado_600782" data-name="Trazado 600782" d="M267.962,133.981l2.033-1.495.527-1.145a4.933,4.933,0,0,0-6.109-2.516l-.584.584v4.572Z" transform="translate(-217.23 -107.021)" fill="#fed1a3"/>
        <path id="Trazado_600783" data-name="Trazado 600783" d="M83.105,131v1.254l2.883,1.725h3.544v-4.759l-.5-.4A4.931,4.931,0,0,0,83.105,131Z" transform="translate(-66.76 -107.021)" fill="#fed1a3"/>
        <path id="Trazado_600784" data-name="Trazado 600784" d="M266.075,145.726a4.924,4.924,0,0,1-1.674-.292l-.57-.272v4.929l.57.272a4.929,4.929,0,0,0,5.943-7.1A4.926,4.926,0,0,1,266.075,145.726Z" transform="translate(-217.231 -119.279)" fill="#ffbc85"/>
        <path id="Trazado_600785" data-name="Trazado 600785" d="M84.085,145.726a4.926,4.926,0,0,1-4.268-2.465,4.93,4.93,0,0,0,5.94,7.1l.488-.619v-4.929l-.488.619A4.916,4.916,0,0,1,84.085,145.726Z" transform="translate(-63.472 -119.279)" fill="#ffbc85"/>
        <path id="Trazado_600786" data-name="Trazado 600786" d="M197.064,246.826v-4.134l-.565-.3h-6.877v11.3h2.991l1.019-.395,3.923-4.527.146-.867A1.244,1.244,0,0,1,197.064,246.826Z" transform="translate(-155.445 -201.817)" fill="#fed1a3"/>
        <path id="Trazado_600787" data-name="Trazado 600787" d="M155.244,242.394h-6.187l-.547.327v4.1a1.145,1.145,0,0,1-.53,1.008l-.131.051v.726l4.3,4.548.822.546h2.275v-11.3Z" transform="translate(-120.665 -201.817)" fill="#ffbc85"/>
        <path id="Trazado_600788" data-name="Trazado 600788" d="M163.751,89.206a8.936,8.936,0,0,1-3.884,1.006,8.409,8.409,0,0,1-3.256-.724h-1.342l-2.048,3.07v16.5l3.356,5.281,5.264,2.2a12.42,12.42,0,0,0,10.48-12.232V94.5a5.93,5.93,0,0,0-8.57-5.289Z" transform="translate(-125.138 -73.761)" fill="#ffe5c1"/>
        <g id="Grupo_159433" data-name="Grupo 159433" transform="translate(22.274 14.83)">
          <path id="Trazado_600789" data-name="Trazado 600789" d="M124.935,104.4V94.5a5.824,5.824,0,0,1,2.786-5.007c-.211-.089-.42-.181-.628-.282a5.93,5.93,0,0,0-8.57,5.289V104.4a12.289,12.289,0,0,0,12.615,12.276,12.036,12.036,0,0,0,3.1-.4,12.2,12.2,0,0,1-9.3-11.875Z" transform="translate(-118.523 -88.591)" fill="#fed1a3"/>
        </g>
        <g id="Grupo_159434" data-name="Grupo 159434" transform="translate(20.325 46.06)">
          <path id="Trazado_600790" data-name="Trazado 600790" d="M106.879,277.827a1.246,1.246,0,0,0,.238.334l6.571,6.571a1.25,1.25,0,0,0,1.768,0l3.049-3.049a1.25,1.25,0,0,0,0-1.768l-4.767-4.767Z" transform="translate(-106.879 -275.149)" fill="#dbedff"/>
          <path id="Trazado_600791" data-name="Trazado 600791" d="M210.825,284.885a1.25,1.25,0,0,0,1.768,0l6.571-6.571a1.253,1.253,0,0,0,.224-.3l-6.718-2.6a1.261,1.261,0,0,1-.158-.076l-4.735,4.735a1.25,1.25,0,0,0,0,1.768Z" transform="translate(-190.581 -275.302)" fill="#dbedff"/>
        </g>
      </g>
    </g>
  </g>
</svg>
